<?xml version="1.0" encoding="UTF-8"?>
<svg xmlns="http://www.w3.org/2000/svg" xmlns:xlink="http://www.w3.org/1999/xlink" width="50px" height="50px" viewBox="0 0 50 50" version="1.1">
<g id="surface1">
<path style=" stroke:none;fill-rule:nonzero;fill:rgb(0%,0%,0%);fill-opacity:1;" d="M 23.015625 49.746094 C 12.496094 49.027344 3.253906 40.78125 0.648438 30.800781 C -1.757812 20.449219 3.019531 8.792969 12.339844 3.390625 C 18.335938 -0.167969 25.859375 -0.613281 32.496094 1.238281 C 40.695312 3.742188 46.933594 10.992188 49.125 19.082031 C 51.09375 26.539062 49.671875 35 44.445312 40.875 C 39.707031 46.738281 32.136719 50.117188 24.5625 49.816406 C 24.046875 49.804688 23.53125 49.78125 23.015625 49.746094 Z M 29.285156 48.570312 C 31.175781 48.40625 30.84375 47.832031 29.125 47.683594 C 26.058594 47.097656 22.746094 47.082031 19.785156 48.113281 C 22.390625 49.359375 25.851562 49.039062 28.769531 48.667969 Z M 19.992188 46.921875 C 21.339844 45.554688 19.933594 42.289062 18.753906 40.996094 C 16.125 39.660156 14.082031 37.480469 11.675781 35.835938 C 9.863281 35.179688 8.09375 36.425781 6.34375 36.847656 C 6.335938 38.570312 6.222656 40.511719 7.746094 41.710938 C 10.253906 44.171875 13.28125 46.328125 16.699219 47.308594 C 17.796875 47.359375 18.949219 47.292969 19.992188 46.921875 Z M 34.417969 46.992188 C 38.785156 45.121094 42.882812 42.113281 45.34375 38.023438 C 46.230469 36.847656 46.882812 34.785156 44.566406 35.46875 C 41.65625 37.285156 39.03125 39.535156 36.050781 41.257812 C 34.242188 42.675781 32.941406 44.628906 31.65625 46.5 C 32.105469 47.535156 33.5625 47.285156 34.417969 46.992188 Z M 37.378906 39.476562 C 39.574219 37.6875 42.75 36.535156 43.902344 33.820312 C 44.421875 31.683594 44.464844 29.476562 44.679688 27.300781 C 42.496094 25.371094 39.808594 24.0625 37.183594 22.828125 C 34.585938 23.035156 32.488281 25.324219 30.4375 26.808594 C 29.339844 27.40625 29.625 28.753906 29.324219 29.789062 C 28.929688 32.203125 28.46875 34.613281 28.203125 37.050781 C 30.246094 38.550781 32.523438 39.929688 35.007812 40.507812 C 35.90625 40.519531 36.652344 39.914062 37.378906 39.476562 Z M 21.722656 39.851562 C 23.710938 39.097656 26.34375 38.53125 27.277344 36.4375 C 27.964844 33.507812 28.351562 30.507812 28.71875 27.523438 C 26.742188 25.65625 24.632812 23.6875 22.042969 22.714844 C 19.8125 22.679688 17.917969 24.25 15.929688 25.105469 C 13.253906 25.828125 12.328125 28.242188 12.210938 30.738281 C 11.425781 33.207031 12.324219 35.742188 14.582031 37.101562 C 16.550781 38.542969 19.082031 40.84375 21.722656 39.851562 Z M 5.085938 36.390625 C 3.472656 33.429688 2.359375 30.1875 1.917969 26.851562 C 0.324219 27.171875 1.769531 31.058594 2.210938 32.644531 C 2.960938 34.785156 4.113281 36.753906 5.304688 38.679688 C 5.523438 37.886719 5.652344 37.101562 5.085938 36.390625 Z M 4.390625 23.210938 C 5.09375 22.214844 6.214844 21.425781 6.640625 20.285156 C 7.382812 16.828125 8.601562 13.496094 10.339844 10.410156 C 10.265625 8.414062 8.023438 7.203125 6.90625 9.398438 C 3.722656 13.46875 1.222656 18.429688 1.113281 23.660156 C 0.695312 25.457031 2.269531 26.761719 3.175781 24.636719 C 3.582031 24.160156 3.984375 23.6875 4.390625 23.210938 Z M 45.390625 25.683594 C 46.742188 23.925781 48.605469 21.839844 48.121094 19.460938 C 47.277344 14.945312 44.941406 10.65625 41.351562 7.714844 C 40.289062 7.265625 38.339844 5.617188 37.597656 7.175781 C 36.5 9.269531 33.765625 11.25 34.75 13.855469 C 35.59375 16.429688 36.210938 19.121094 37.441406 21.542969 C 39.703125 23.296875 42.324219 24.660156 44.960938 25.808594 Z M 15.289062 24.515625 C 17.378906 23.46875 19.40625 22.308594 21.445312 21.167969 C 22.128906 18.789062 22.992188 16.460938 23.796875 14.117188 C 23.90625 11.585938 21.632812 9.765625 20.109375 7.988281 C 18.613281 5.613281 16.082031 7.4375 14.238281 8.304688 C 10.171875 10.457031 9.238281 15.199219 7.859375 19.15625 C 8.050781 20.636719 9.417969 21.875 10.417969 22.984375 C 11.796875 24.355469 13.347656 26.191406 15.289062 24.515625 Z M 30.273438 11.714844 C 31.355469 11.566406 32.5625 11.675781 33.566406 11.371094 C 35.066406 9.765625 36.386719 7.886719 37.011719 5.78125 C 36.257812 3.65625 33.757812 2.6875 31.75 1.964844 C 29.191406 1.210938 26.453125 0.839844 23.800781 1.136719 C 21.882812 2.109375 18.445312 4.925781 20.386719 7.109375 C 21.808594 8.789062 23.320312 10.390625 24.863281 11.960938 C 26.671875 11.980469 28.472656 11.839844 30.273438 11.714844 Z M 30.273438 11.714844 "/>
</g>
</svg>
