<?xml version="1.0" encoding="UTF-8"?>
<svg xmlns="http://www.w3.org/2000/svg" xmlns:xlink="http://www.w3.org/1999/xlink" width="667px" height="500px" viewBox="0 0 666 500" version="1.1">
<g id="surface1">
<path style="fill-rule:nonzero;fill:rgb(29.803922%,41.568627%,23.529412%);fill-opacity:1;stroke-width:1.848;stroke-linecap:butt;stroke-linejoin:miter;stroke:rgb(100%,100%,100%);stroke-opacity:1;stroke-miterlimit:4;" d="M 0.982545 -0.73125 L 481.303491 -0.73125 L 481.303491 363.068437 L 0.982545 363.068437 Z M 0.982545 -0.73125 " transform="matrix(1.3875,0,0,1.388889,0,0)"/>
<path style="fill:none;stroke-width:0.4;stroke-linecap:butt;stroke-linejoin:miter;stroke:rgb(55.686275%,55.686275%,55.686275%);stroke-opacity:0.705882;stroke-miterlimit:4;" d="M 87.798964 159.718492 L 87.798964 190.065128 C 87.798964 190.344306 87.737027 191.56028 87.798964 191.684359 C 87.883423 191.854968 88.117095 191.917008 88.204369 192.087616 C 88.263491 192.208593 88.204369 192.357488 88.204369 192.493975 L 88.204369 196.132594 C 88.204369 196.269081 88.16214 196.411772 88.204369 196.538953 C 88.30009 196.824334 88.514054 197.063187 88.606959 197.348568 C 88.682973 197.575013 88.606959 198.294671 88.606959 198.561441 L 88.606959 200.58393 C 88.606959 200.853802 88.5225 201.139184 88.606959 201.393546 C 88.668896 201.57346 88.927905 201.629296 89.012365 201.799905 C 89.05741 201.889862 89.012365 203.319873 89.012365 203.416034 L 89.012365 206.654498 C 89.012365 206.787883 88.953243 206.936778 89.012365 207.057755 C 89.096824 207.228363 89.333311 207.293505 89.41777 207.464114 C 89.479707 207.585091 89.41777 208.49397 89.41777 208.676986 L 89.41777 229.311334 C 89.41777 229.460229 89.434662 230.911954 89.41777 230.930565 C 89.32205 231.023625 89.108086 230.834404 89.012365 230.930565 C 88.916644 231.023625 89.074302 231.212845 89.012365 231.333822 C 88.927905 231.504431 88.742095 231.603694 88.606959 231.737079 L 88.204369 232.143438 " transform="matrix(1.3875,0,0,1.259278,224.483625,-24.891667)"/>
<path style="fill:none;stroke-width:0.4;stroke-linecap:butt;stroke-linejoin:miter;stroke:rgb(55.686275%,55.686275%,55.686275%);stroke-opacity:0.705882;stroke-miterlimit:4;" d="M 96.700991 162.550597 L 96.700991 200.177571 C 96.700991 200.447443 96.655946 200.720417 96.700991 200.987187 C 96.791081 201.536237 96.996599 202.060471 97.103581 202.606418 C 97.185225 203.003471 97.103581 203.416034 97.103581 203.819291 L 97.103581 207.057755 C 97.103581 207.19114 97.072613 207.330729 97.103581 207.461012 C 97.207748 207.873574 97.40482 208.261322 97.508986 208.673884 C 97.54277 208.804167 97.508986 208.943756 97.508986 209.080243 L 97.508986 232.949952 " transform="matrix(1.3875,0,0,1.259278,224.483625,-24.891667)"/>
<path style="fill:none;stroke-width:0.4;stroke-linecap:butt;stroke-linejoin:miter;stroke:rgb(55.686275%,55.686275%,55.686275%);stroke-opacity:0.705882;stroke-miterlimit:4;" d="M 106.011239 163.769673 L 106.011239 215.560272 C 106.011239 215.963529 105.881734 216.3885 106.011239 216.773145 C 106.07036 216.956161 106.354707 216.996487 106.413829 217.179504 C 106.501104 217.433866 106.413829 217.719248 106.413829 217.98912 L 106.413829 230.933667 C 106.413829 231.274885 106.329369 232.785547 106.413829 232.956156 C 106.475766 233.077133 106.723514 232.863097 106.819234 232.956156 C 106.914955 233.052317 106.819234 233.226028 106.819234 233.362515 L 106.819234 235.385004 " transform="matrix(1.3875,0,0,1.259278,224.483625,-24.891667)"/>
<path style="fill:none;stroke-width:0.4;stroke-linecap:butt;stroke-linejoin:miter;stroke:rgb(55.686275%,55.686275%,55.686275%);stroke-opacity:0.705882;stroke-miterlimit:4;" d="M 116.929032 164.169828 L 116.929032 202.60952 C 116.929032 202.87629 116.982523 203.152366 116.929032 203.416034 C 116.847387 203.834801 116.608086 204.213242 116.526441 204.632009 C 116.47295 204.895677 116.526441 205.171753 116.526441 205.441625 L 116.526441 236.191517 " transform="matrix(1.3875,0,0,1.259278,224.483625,-24.891667)"/>
<path style="fill:none;stroke-width:0.4;stroke-linecap:butt;stroke-linejoin:miter;stroke:rgb(55.686275%,55.686275%,55.686275%);stroke-opacity:0.705882;stroke-miterlimit:4;" d="M 125.831059 165.388905 L 125.831059 238.22021 " transform="matrix(1.3875,0,0,1.259278,224.483625,-24.891667)"/>
<path style="fill:none;stroke-width:0.4;stroke-linecap:butt;stroke-linejoin:miter;stroke:rgb(55.686275%,55.686275%,55.686275%);stroke-opacity:0.705882;stroke-miterlimit:4;" d="M 133.919459 181.968969 L 110.453806 181.968969 C 110.110338 181.968969 108.294459 182.037213 108.024189 181.968969 C 106.07036 181.481959 108.046712 181.776647 106.810788 181.159353 C 106.68973 181.100416 106.540518 181.159353 106.408198 181.159353 C 106.137928 181.159353 105.859212 181.227597 105.597387 181.159353 C 105.304595 181.088008 105.082185 180.830544 104.789392 180.756096 C 104.18973 180.607202 103.328243 180.979439 102.76518 180.756096 C 102.41045 180.613406 102.2725 180.157415 101.957185 179.946481 C 101.923401 179.924767 100.43973 179.946481 100.338378 179.946481 C 99.389617 179.946481 100.52982 180.042642 99.527568 179.543224 C 99.271374 179.412941 97.753919 179.667303 97.506171 179.543224 C 97.165518 179.372615 97.038829 178.904216 96.69536 178.733608 C 96.456059 178.612631 96.149189 178.798749 95.887365 178.733608 C 94.780946 178.457532 95.237027 178.162844 94.268559 177.520735 C 94.043333 177.368738 93.716757 177.604488 93.460563 177.520735 C 93.173401 177.424574 92.936914 177.210537 92.649752 177.114376 C 92.523063 177.070948 92.356959 177.188824 92.247162 177.114376 C 91.929032 176.903442 91.754482 176.515695 91.436351 176.30476 C 91.211126 176.155865 90.816982 176.497083 90.628356 176.30476 C 90.532635 176.211701 90.749414 175.960441 90.628356 175.901503 C 90.304595 175.740201 89.738716 176.062806 89.414955 175.901503 C 89.243221 175.814648 89.144685 175.631631 89.00955 175.495144 C 88.874414 175.361759 88.469009 175.225272 88.604144 175.091887 C 88.739279 174.9554 89.200991 175.495144 89.00955 175.495144 C 88.080495 175.03295 88.502793 175.091887 87.796149 175.091887 " transform="matrix(1.3875,0,0,1.259278,224.483625,-24.891667)"/>
<path style="fill:none;stroke-width:0.4;stroke-linecap:butt;stroke-linejoin:miter;stroke:rgb(55.686275%,55.686275%,55.686275%);stroke-opacity:0.705882;stroke-miterlimit:4;" d="M 132.309099 192.490873 L 87.804595 192.490873 " transform="matrix(1.3875,0,0,1.259278,224.483625,-24.891667)"/>
<path style="fill:none;stroke-width:0.4;stroke-linecap:butt;stroke-linejoin:miter;stroke:rgb(55.686275%,55.686275%,55.686275%);stroke-opacity:0.705882;stroke-miterlimit:4;" d="M 133.919459 205.851086 L 119.758423 205.851086 C 119.353018 205.851086 118.944797 205.906921 118.545023 205.851086 C 117.996036 205.770434 117.475203 205.537786 116.926216 205.444727 C 116.813604 205.426115 115.358086 205.463339 115.30741 205.444727 C 114.856959 205.264812 114.547275 204.818128 114.094009 204.635111 C 113.708311 204.480012 112.159887 204.75919 111.667207 204.635111 C 111.374414 204.563766 111.15482 204.281486 110.856396 204.231854 C 110.324302 204.141897 109.749977 204.402463 109.240405 204.231854 C 108.87723 204.110877 108.770248 203.592847 108.429595 203.422238 C 108.190293 203.301261 107.891869 203.422238 107.621599 203.422238 L 106.408198 203.422238 C 103.25223 203.422238 107.173964 203.549419 103.978581 203.018981 C 103.581622 202.950738 103.150878 203.146162 102.76518 203.018981 C 102.303468 202.863883 102.00223 202.38928 101.551779 202.209365 C 101.050653 202.007737 100.456622 202.339648 99.932973 202.209365 C 99.64018 202.134918 99.41777 201.877454 99.124977 201.803007 C 98.601329 201.672724 98.018559 201.973615 97.506171 201.803007 C 96.655946 201.520727 95.926779 200.872414 95.079369 200.590134 C 94.949865 200.546706 94.786577 200.664581 94.673964 200.590134 C 94.355833 200.379199 94.181284 199.991452 93.863153 199.780518 C 93.640743 199.631623 93.297275 199.901495 93.055158 199.780518 C 92.883423 199.696765 92.784887 199.510646 92.649752 199.377261 C 92.382297 199.377261 92.09795 199.461014 91.841757 199.377261 C 90.57768 198.955392 91.976892 199.107389 91.436351 198.567645 C 91.340631 198.471484 91.152005 198.626583 91.030946 198.567645 C 90.862027 198.48079 90.797275 198.248142 90.628356 198.161286 C 90.507297 198.102349 90.318671 198.257448 90.22295 198.161286 C 90.12723 198.068227 90.282072 197.879006 90.22295 197.758029 C 90.138491 197.587421 89.95268 197.488157 89.817545 197.354772 " transform="matrix(1.3875,0,0,1.259278,224.483625,-24.891667)"/>
<path style="fill:none;stroke-width:0.4;stroke-linecap:butt;stroke-linejoin:miter;stroke:rgb(55.686275%,55.686275%,55.686275%);stroke-opacity:0.705882;stroke-miterlimit:4;" d="M 132.708874 225.269458 C 129.747162 224.428823 126.692545 223.951118 123.809662 222.843713 C 122.84964 222.474578 121.951554 221.953446 120.977455 221.627738 C 120.324302 221.4106 119.628919 221.357866 118.953243 221.224481 C 118.280383 221.087994 117.607523 220.942201 116.931847 220.818122 C 116.123851 220.672329 115.282072 220.675431 114.50223 220.414865 C 114.040518 220.259766 113.74491 219.775858 113.288829 219.605249 C 112.599077 219.347785 109.395248 218.94763 108.837815 218.795634 C 107.449865 218.690166 106.47295 217.542435 105.197613 217.179504 C 104.809099 217.067833 104.386802 217.179504 103.984212 217.179504 L 102.770811 217.179504 C 102.23027 217.179504 101.684099 217.253951 101.152005 217.179504 C 100.327117 217.319093 99.840068 216.512579 99.127793 216.369888 C 96.82768 216.369888 98.860338 216.549803 97.106396 215.963529 C 96.498288 215.761901 96.700991 216.369888 95.89018 215.963529 C 95.549527 215.79292 95.352455 215.423785 95.082185 215.153913 C 94.94705 215.020528 94.859775 214.809594 94.676779 214.750656 C 94.302342 214.626577 92.517432 214.884041 92.249977 214.750656 C 91.813604 214.533518 91.470135 214.158179 91.036577 213.94104 C 90.794459 213.820063 90.467883 214.062017 90.225766 213.94104 C 90.056847 213.857287 89.992095 213.621537 89.823176 213.537783 C 89.499414 213.373379 88.933536 213.699086 88.609775 213.537783 C 88.488716 213.475744 88.668896 213.252402 88.609775 213.131425 C 88.359212 212.632006 88.218446 212.728168 87.798964 212.728168 " transform="matrix(1.3875,0,0,1.259278,224.483625,-24.891667)"/>
<path style="fill:none;stroke-width:0.4;stroke-linecap:butt;stroke-linejoin:miter;stroke:rgb(55.686275%,55.686275%,55.686275%);stroke-opacity:1;stroke-miterlimit:4;" d="M 87.819358 173.64899 C 87.844696 173.061177 89.868908 173.477427 90.268683 173.34524 C 90.820485 173.528053 90.837376 172.847427 91.186476 172.732115 C 91.380732 172.667428 91.600327 172.78274 91.797399 172.732115 C 92.019809 172.675865 92.199989 172.515552 92.411138 172.425552 C 92.915079 172.20899 93.419021 171.986802 93.939854 171.81524 C 94.035575 171.78149 94.142557 171.81524 94.246723 171.81524 C 94.654944 171.711177 95.082872 171.674615 95.46857 171.508677 C 95.809223 171.362427 96.042895 171.024927 96.389178 170.895552 C 96.873413 170.71274 97.413953 170.715553 97.917895 170.58899 C 98.230395 170.513052 98.517557 170.33024 98.835687 170.28524 C 99.238277 170.226177 99.657759 170.349927 100.060349 170.28524 C 100.285575 170.245865 100.446048 170.009615 100.671273 169.978677 C 101.17803 169.905552 101.707309 170.102427 102.202804 169.978677 C 102.557534 169.888678 102.765867 169.466803 103.120597 169.365552 C 103.511926 169.253052 103.939854 169.424615 104.342444 169.365552 C 104.66339 169.320552 104.944922 169.112427 105.263052 169.05899 C 105.564291 169.011178 105.873976 169.05899 106.180845 169.05899 L 107.402692 169.05899 C 107.60821 169.05899 107.833435 169.151803 108.016431 169.05899 C 108.272624 168.932427 108.359899 168.555552 108.627354 168.448678 C 108.911701 168.333365 109.243908 168.499302 109.545147 168.448678 C 109.863277 168.39524 110.144809 168.187115 110.46294 168.142115 C 110.868345 168.083052 111.279381 168.142115 111.687602 168.142115 C 111.890304 168.142115 112.104268 168.198365 112.298525 168.142115 C 117.146498 166.204302 112.118345 167.995865 114.44098 167.52899 C 114.759111 167.467115 115.040642 167.264615 115.358773 167.22524 C 115.86553 167.160552 116.389178 167.323678 116.890304 167.22524 C 117.42803 167.115552 117.886926 166.744303 118.419021 166.612115 C 118.717444 166.53899 119.032759 166.65149 119.336813 166.612115 C 119.854831 166.547427 120.353142 166.378677 120.868345 166.305552 C 121.068232 166.277427 121.285012 166.37024 121.479268 166.305552 C 121.912827 166.162115 122.264741 165.81899 122.703931 165.69524 C 122.996723 165.610865 123.314854 165.69524 123.621723 165.69524 L 124.539516 165.69524 C 124.846385 165.69524 125.15607 165.745865 125.457309 165.69524 C 125.77544 165.641802 126.059786 165.450552 126.375102 165.388678 C 126.574989 165.349302 126.791768 165.444927 126.986025 165.388678 C 127.515304 165.236802 127.985462 164.910552 128.517557 164.775553 C 128.813165 164.702427 129.134111 164.826178 129.435349 164.775553 C 129.75348 164.722115 130.035012 164.516802 130.353142 164.46899 C 130.758548 164.41274 131.180845 164.57024 131.577804 164.46899 C 132.019809 164.359302 132.363277 163.982428 132.802467 163.858677 C 133.095259 163.774302 133.41339 163.858677 133.720259 163.858677 C 134.12848 163.858677 134.539516 163.914927 134.942106 163.858677 C 135.263052 163.813677 135.541768 163.605552 135.859899 163.552115 C 135.978142 163.532427 137.644809 163.571802 137.6983 163.552115 C 138.252917 163.34399 138.669584 162.843365 139.227016 162.63524 C 139.514178 162.525553 139.83794 162.63524 140.144809 162.63524 L 142.287264 162.63524 C 142.489967 162.63524 142.709561 162.711177 142.898187 162.63524 C 144.410012 162.030552 143.185349 161.974302 144.733773 161.715553 C 145.339066 161.614302 145.966881 161.816802 146.572174 161.715553 C 147.208435 161.61149 147.771498 161.209302 148.407759 161.10524 C 148.708998 161.054615 149.024313 161.164302 149.325552 161.10524 C 149.547962 161.06024 149.714066 160.843677 149.936476 160.798677 C 150.384111 160.708677 151.721385 160.916802 152.078931 160.798677 C 152.352016 160.705865 152.43366 160.314927 152.689854 160.185553 C 152.872849 160.095552 153.098075 160.185553 153.303593 160.185553 C 153.610462 160.185553 153.920147 160.247427 154.221385 160.185553 C 154.443795 160.140552 154.612714 159.93524 154.832309 159.87899 C 155.032196 159.831177 155.24053 159.87899 155.446048 159.87899 L 156.667895 159.87899 C 156.873413 159.87899 157.090192 159.954927 157.281633 159.87899 C 157.622286 159.74399 157.858773 159.403677 158.199426 159.268677 C 158.388052 159.19274 158.613277 159.31649 158.810349 159.268677 C 159.032759 159.212427 159.201678 159.018365 159.424088 158.962115 C 159.79571 158.869303 160.966881 159.08024 161.259674 158.962115 C 161.600327 158.827115 161.822737 158.45024 162.177467 158.34899 C 165.226453 158.34899 162.51812 158.638678 163.706183 158.04524 C 163.799088 157.997427 163.911701 158.04524 164.013052 158.04524 L 165.541768 158.04524 C 165.645935 158.04524 165.764178 158.10149 165.848638 158.04524 C 166.08794 157.884928 166.203367 157.56149 166.459561 157.432115 C 166.642557 157.342115 166.873413 157.47149 167.0733 157.432115 C 167.388615 157.37024 167.675777 157.19024 167.991093 157.125552 C 168.19098 157.086177 168.399313 157.125552 168.602016 157.125552 L 170.133548 157.125552 C 170.33625 157.125552 170.561476 157.218365 170.744471 157.125552 C 171.00348 156.996177 171.116093 156.675552 171.35821 156.51524 C 171.442669 156.45899 171.560913 156.51524 171.662264 156.51524 C 171.867782 156.51524 172.0733 156.54899 172.276003 156.51524 C 172.689854 156.444927 173.086813 156.29024 173.497849 156.208677 C 173.855395 156.135552 175.127917 156.31274 175.333435 156.208677 C 175.592444 156.079302 175.707872 155.755865 175.947174 155.595552 C 176.031633 155.539302 176.149876 155.595552 176.254043 155.595552 C 176.4483 155.595552 178.188165 155.64899 178.393683 155.595552 C 178.616093 155.542115 178.785012 155.34524 179.007422 155.291802 C 179.401566 155.190552 179.84357 155.418365 180.229268 155.291802 C 180.662827 155.145552 181.023187 154.822115 181.453931 154.678677 C 181.648187 154.61399 181.862151 154.678677 182.067669 154.678677 C 182.47589 154.678677 182.886926 154.746177 183.289516 154.678677 C 183.514741 154.642115 183.67803 154.417115 183.903255 154.372115 C 186.58625 153.834927 182.884111 155.18774 185.73884 153.761802 C 185.854268 153.70274 187.450552 153.784302 187.574426 153.761802 C 187.799651 153.716803 187.971385 153.525553 188.185349 153.45524 C 188.511926 153.345552 189.466318 153.57899 189.716881 153.45524 C 189.97589 153.325865 190.088503 153.002427 190.327804 152.842115 C 190.443232 152.766177 191.642557 152.895552 191.859336 152.842115 C 192.078931 152.785865 192.247849 152.580552 192.470259 152.535552 C 192.971385 152.437115 193.500665 152.636802 194.001791 152.535552 C 194.829494 153.055865 194.792895 152.068677 195.223638 151.92524 C 195.612151 151.795865 196.05134 152.023677 196.4483 151.92524 C 196.67071 151.86899 196.839629 151.674927 197.059223 151.618677 C 197.30134 151.559615 198.579494 151.618677 198.897624 151.618677 C 199.100327 151.618677 199.339629 151.731178 199.508548 151.618677 C 199.697174 151.492115 199.601453 151.089927 199.815417 151.005552 C 200.192669 150.853678 200.634674 151.064615 201.037264 151.005552 C 201.35821 150.960552 201.642557 150.77774 201.957872 150.701802 C 202.056408 150.67649 202.160575 150.701802 202.261926 150.701802 L 202.875665 150.701802 C 203.179719 150.701802 203.495034 150.774927 203.793458 150.701802 C 204.072174 150.63149 204.145372 150.218052 204.404381 150.088677 C 204.494471 150.043678 204.612714 150.11399 204.71125 150.088677 C 205.02375 150.009928 205.310913 149.846802 205.629043 149.782115 C 205.828931 149.74274 206.04571 149.846802 206.239967 149.782115 C 206.673525 149.638678 207.02544 149.295552 207.464629 149.171802 C 207.757422 149.087427 208.081183 149.230865 208.382422 149.171802 C 208.604831 149.126802 208.77375 148.918678 208.993345 148.86524 C 209.193232 148.814615 209.401566 148.86524 209.607084 148.86524 L 211.1358 148.86524 C 211.341318 148.86524 211.566543 148.95524 211.749539 148.86524 C 212.005732 148.735865 212.112714 148.401177 212.360462 148.252115 C 212.636363 148.086177 212.977016 148.060865 213.278255 147.945552 C 213.793458 147.754302 214.280507 147.484302 214.806971 147.33524 C 215.170147 147.231178 216.211813 147.405552 216.645372 147.33524 C 217.059223 147.264927 217.458998 147.129927 217.867219 147.028677 C 218.27544 146.927427 218.692106 146.854302 219.091881 146.722115 C 219.30866 146.651803 219.48321 146.471802 219.70562 146.415552 C 220.1983 146.291802 220.730395 146.499927 221.234336 146.415552 C 221.552467 146.364927 221.839629 146.18774 222.152129 146.111802 C 222.439291 146.038677 223.565417 146.190552 223.68366 146.111802 C 223.922962 145.95149 224.035575 145.628052 224.294584 145.498677 C 224.660575 145.315865 225.122286 145.597115 225.519246 145.498677 C 225.73884 145.442427 225.907759 145.248365 226.130169 145.192115 C 226.327241 145.144302 226.552467 145.268052 226.741093 145.192115 C 227.084561 145.057115 227.332309 144.744927 227.658885 144.581802 C 227.948863 144.435553 228.264178 144.35399 228.579494 144.27524 C 229.252354 144.10649 228.638615 144.840553 229.80134 143.968677 C 229.984336 143.830865 229.919584 143.482115 230.10821 143.355552 C 230.277129 143.243052 230.516431 143.355552 230.719133 143.355552 C 230.845822 143.355552 232.726453 143.411802 232.861588 143.355552 C 233.202241 143.220552 233.449989 142.908365 233.779381 142.74524 C 233.872286 142.70024 233.984899 142.74524 234.08625 142.74524 C 234.39312 142.64399 234.728142 142.604615 235.004043 142.438677 C 235.251791 142.289615 235.358773 141.954927 235.614967 141.825552 C 235.797962 141.735552 236.028818 141.876177 236.228705 141.825552 C 236.4483 141.772115 236.62848 141.606178 236.839629 141.521802 C 237.140867 141.400865 237.470259 141.358677 237.757422 141.21524 C 237.886926 141.150553 237.934786 140.973365 238.064291 140.908677 C 238.154381 140.863677 238.266994 140.908677 238.37116 140.908677 L 238.675214 140.908677 C 238.937039 140.908677 240.344696 140.964927 240.5108 140.908677 C 240.64875 140.863677 240.716318 140.706177 240.817669 140.602115 C 241.130169 140.29274 241.242782 140.115552 241.735462 139.991802 C 241.932534 139.941177 242.149313 140.039615 242.349201 139.991802 C 243.824426 139.620553 242.332309 139.845552 243.266994 139.378677 C 243.357084 139.333677 243.469696 139.378677 243.571048 139.378677 C 243.776566 139.378677 243.984899 139.429302 244.184786 139.378677 C 244.404381 139.322428 244.578931 139.14524 244.79571 139.072115 C 245.006858 139.001802 245.533322 139.162115 245.713503 139.072115 C 246.986025 138.43649 245.386926 139.094615 246.020372 138.461803 C 246.090755 138.388678 246.234336 138.506802 246.327241 138.461803 C 246.453931 138.397115 246.501791 138.219927 246.631295 138.15524 C 246.724201 138.11024 246.836813 138.15524 246.938165 138.15524 L 249.08062 138.15524 " transform="matrix(1.3875,0,0,1.388889,0.90064,-0.601028)"/>
<path style="fill:none;stroke-width:0.4;stroke-linecap:butt;stroke-linejoin:miter;stroke:rgb(55.686275%,55.686275%,55.686275%);stroke-opacity:1;stroke-miterlimit:4;" d="M 88.433097 191.699615 C 90.178593 191.522427 91.589066 190.363677 93.328931 190.169615 C 93.835687 190.113365 94.348075 190.169615 94.857647 190.169615 C 95.164516 190.169615 95.482647 190.256802 95.77544 190.169615 C 96.518683 189.947427 97.180282 189.497427 97.917895 189.25274 C 100.344696 188.44274 98.576678 189.396177 101.285012 188.946177 C 103.559786 188.56649 102.765867 188.147427 104.956183 187.416177 C 105.544584 187.219302 106.189291 187.26149 106.791768 187.109615 C 107.416768 186.954927 107.993908 186.614615 108.627354 186.499302 C 109.12848 186.40649 109.649313 186.555552 110.158885 186.499302 C 110.575552 186.45149 110.964066 186.229302 111.380732 186.19274 C 112.093007 186.128052 112.822174 186.333365 113.523187 186.19274 C 113.883548 186.119615 114.083435 185.661177 114.44098 185.579615 C 115.037827 185.447427 115.668458 185.64149 116.276566 185.579615 C 116.696048 185.537427 117.084561 185.32649 117.501228 185.273052 C 117.906633 185.222427 118.328931 185.374302 118.72589 185.273052 C 119.167895 185.163365 119.511363 184.78649 119.950552 184.66274 C 121.735462 184.150865 120.119471 185.003052 121.479268 184.66274 C 121.701678 184.60649 121.867782 184.401177 122.090192 184.356178 C 122.391431 184.297115 122.718007 184.451802 123.0108 184.356178 C 123.357084 184.240865 123.579494 183.861177 123.928593 183.743052 C 124.21857 183.647427 124.539516 183.743052 124.846385 183.743052 C 125.355958 183.743052 125.868345 183.799302 126.375102 183.743052 C 126.794584 183.698052 127.183097 183.498365 127.599764 183.439302 C 127.901003 183.394302 128.219133 183.50399 128.517557 183.439302 C 129.148187 183.298677 129.719696 182.95274 130.353142 182.826178 C 133.199426 182.258052 129.773187 183.630552 133.106521 182.519615 C 133.540079 182.376177 133.903255 182.069615 134.331183 181.909302 C 134.725327 181.76024 135.15607 181.734927 135.555845 181.60274 C 135.665642 181.566177 137.574426 180.756177 138.002354 180.683053 C 138.306408 180.63524 138.616093 180.683053 138.920147 180.683053 C 139.432534 180.480552 139.913953 180.190865 140.451678 180.07274 C 140.848638 179.98274 141.285012 180.188052 141.67634 180.07274 C 142.329494 179.875865 142.875665 179.40899 143.511926 179.153053 C 144.148187 178.899927 145.671273 178.71149 146.265304 178.54274 C 146.484899 178.480865 146.651003 178.267115 146.876228 178.236177 L 148.407759 178.236177 C 148.610462 178.134927 148.793458 177.96899 149.018683 177.929615 C 149.421273 177.862115 149.835124 177.929615 150.243345 177.929615 C 150.550214 177.929615 150.876791 178.044928 151.161138 177.929615 C 151.428593 177.82274 151.498976 177.409302 151.772061 177.319302 C 152.160575 177.189927 152.594133 177.375552 152.996723 177.319302 C 153.317669 177.27149 153.613277 177.12524 153.914516 177.01274 C 154.2608 176.883365 155.795147 176.219615 156.36384 176.093052 C 156.969133 175.960865 157.596949 175.938365 158.199426 175.789302 C 158.419021 175.733052 158.585124 175.519302 158.810349 175.48274 C 159.21294 175.41524 159.643683 175.59524 160.035012 175.48274 C 160.755732 175.277427 160.862714 174.703677 161.563728 174.563052 C 161.864967 174.50399 162.191543 174.66149 162.481521 174.563052 C 163.283885 174.833052 163.23321 173.834615 163.706183 173.646177 C 165.736025 172.836177 164.215755 173.561802 165.541768 173.339615 C 169.232647 172.72649 164.5733 173.460552 167.684223 172.42274 C 168.272624 172.225865 168.931408 172.313052 169.519809 172.116177 C 169.868908 172.000865 170.111025 171.66899 170.437602 171.503052 C 172.149313 170.648052 170.55866 171.626802 172.276003 171.199302 C 172.808097 171.064302 173.300777 170.80274 173.804719 170.586177 C 173.844133 170.569302 175.01812 169.975865 175.029381 169.973052 C 175.327804 169.91399 175.645935 170.034927 175.947174 169.973052 C 176.169584 169.930865 176.349764 169.759302 176.558097 169.669302 C 177.064854 169.45274 177.574426 169.25024 178.089629 169.056177 C 178.393683 168.954927 178.700552 168.853678 179.007422 168.749615 C 179.210124 168.749615 179.421273 168.805865 179.618345 168.749615 C 180.147624 168.600552 180.626228 168.310865 181.149876 168.139302 C 181.546836 168.004302 181.977579 167.97899 182.371723 167.83274 C 182.799651 167.672427 183.168458 167.379927 183.596385 167.219615 C 183.99053 167.073365 184.415642 167.031177 184.821048 166.915865 C 185.130732 166.825865 185.42634 166.688052 185.73884 166.609302 C 186.242782 166.48274 186.774876 166.465865 187.267557 166.30274 C 187.701115 166.159302 188.064291 165.849927 188.492219 165.689615 C 188.886363 165.543365 189.317106 165.518052 189.716881 165.385865 C 190.237714 165.21149 190.713503 164.904927 191.245597 164.77274 C 191.544021 164.699615 191.864967 164.831802 192.16339 164.77274 C 192.892557 164.62649 193.596385 164.373365 194.305845 164.159615 C 194.61553 164.066802 194.905507 163.90649 195.223638 163.855865 C 195.527692 163.80524 195.848638 163.937427 196.141431 163.855865 C 196.58062 163.729302 196.938165 163.403053 197.366093 163.24274 C 197.760237 163.093677 198.205057 163.102115 198.590755 162.936177 C 198.928593 162.79274 199.153818 162.424302 199.508548 162.325865 C 203.573863 161.164302 198.993345 162.998053 201.344133 162.325865 C 201.873413 162.17399 202.346385 161.864615 202.875665 161.71274 C 204.060913 161.372427 202.892557 162.314615 204.404381 161.406177 C 204.652129 161.257115 204.759111 160.922427 205.015304 160.795865 C 206.31598 160.143365 205.980958 160.686177 207.157759 160.489302 C 207.47589 160.435865 207.771498 160.28399 208.075552 160.18274 C 208.382422 160.08149 208.697737 160.00274 208.993345 159.876177 C 209.412827 159.696177 209.784449 159.409302 210.218007 159.265865 C 210.606521 159.13649 211.054156 159.392427 211.442669 159.265865 C 212.084561 159.049302 212.636363 158.559927 213.278255 158.346177 C 213.373976 158.31524 213.483773 158.346177 213.585124 158.346177 C 213.889178 158.244927 214.21294 158.185865 214.502917 158.039615 C 214.832309 157.87649 215.071611 157.544615 215.42071 157.429302 C 215.710687 157.330865 216.031633 157.429302 216.338503 157.429302 C 216.848075 157.429302 217.371723 157.53899 217.867219 157.429302 C 218.314854 157.330865 218.649876 156.928677 219.091881 156.816177 C 219.48884 156.71774 219.911138 156.87524 220.316543 156.816177 C 220.634674 156.771177 220.916205 156.563052 221.234336 156.509615 C 221.361025 156.489927 223.016431 156.532115 223.069922 156.509615 C 223.337376 156.40274 223.424651 156.028677 223.68366 155.899302 C 223.86384 155.80649 224.089066 155.899302 224.294584 155.899302 C 224.702804 155.798052 225.141994 155.781177 225.519246 155.59274 C 225.77544 155.463365 225.890867 155.139927 226.130169 154.979615 C 226.214629 154.923365 226.335687 154.979615 226.437039 154.979615 C 226.546836 154.979615 228.05866 155.033052 228.272624 154.979615 C 228.492219 154.926177 228.663953 154.73774 228.883548 154.675865 C 233.708998 153.711177 228.602016 154.869927 231.026003 154.06274 C 231.293458 153.97274 232.678593 154.155552 232.861588 154.06274 C 232.991093 153.998053 233.030507 153.801177 233.168458 153.756177 C 233.362714 153.69149 233.576678 153.756177 233.779381 153.756177 L 236.839629 153.756177 C 236.94098 153.756177 237.053593 153.801177 237.146498 153.756177 C 237.47589 153.593052 237.723638 153.280865 238.064291 153.145865 C 238.376791 153.019302 238.962376 153.25274 239.288953 153.145865 C 239.505732 153.07274 239.677467 152.895552 239.899876 152.839303 C 241.301904 152.48774 239.581746 153.458052 241.431408 152.53274 C 241.558097 152.468052 241.605958 152.290865 241.735462 152.226177 C 241.926904 152.133365 242.870034 152.316177 242.960124 152.226177 C 243.033322 152.155865 242.870034 151.967427 242.960124 151.919615 C 243.571048 151.615865 243.419021 152.074302 243.877917 151.919615 L 244.48884 151.615865 C 244.48884 151.511802 244.418458 151.382427 244.48884 151.309303 C 244.536701 151.26149 245.28839 151.348677 245.406633 151.309303 C 245.623413 151.236177 245.803593 151.075865 246.020372 151.00274 C 246.116093 150.971802 246.228705 151.03649 246.327241 151.00274 C 246.884674 150.817115 247.154944 150.479615 247.549088 150.085865 " transform="matrix(1.3875,0,0,1.388889,0.90064,-0.601028)"/>
<path style="fill:none;stroke-width:0.4;stroke-linecap:butt;stroke-linejoin:miter;stroke:rgb(55.686275%,55.686275%,55.686275%);stroke-opacity:1;stroke-miterlimit:4;" d="M 89.35089 200.879615 C 89.759111 200.778365 90.158885 200.643365 90.572737 200.573052 C 90.927467 200.51399 91.735462 200.573052 92.104268 200.573052 L 94.857647 200.573052 C 95.265867 200.573052 95.676904 200.61524 96.082309 200.573052 C 98.582309 200.32274 97.402692 200.224302 100.060349 199.656177 C 100.764178 199.504302 101.482084 199.397427 102.202804 199.349615 C 103.016431 199.296177 103.849764 199.509927 104.649313 199.349615 C 105.412264 199.19774 106.040079 198.632427 106.791768 198.43274 C 110.33062 197.48774 108.137489 198.65774 111.687602 198.126177 C 112.934786 197.93774 114.114404 197.414615 115.358773 197.209302 C 115.964066 197.108052 116.600327 197.344302 117.194358 197.209302 C 117.951678 197.032115 118.585124 196.478052 119.336813 196.289615 C 119.832309 196.165865 120.370034 196.39649 120.868345 196.289615 C 121.814291 196.087115 122.675777 195.57524 123.621723 195.37274 C 124.120034 195.265865 124.643683 195.41774 125.15044 195.37274 C 125.769809 195.31649 126.369471 195.122427 126.986025 195.066177 C 127.495597 195.021177 128.016431 195.156177 128.517557 195.066177 C 129.151003 194.950865 129.716881 194.55149 130.353142 194.453052 C 131.059786 194.346177 131.786138 194.548677 132.495597 194.453052 C 136.639741 193.901803 133.306408 193.825865 136.780507 193.536177 C 137.388615 193.485552 138.005169 193.586802 138.616093 193.536177 C 140.797962 193.353365 140.316543 193.105865 142.594133 192.619302 C 143.297962 192.467427 144.015867 192.363365 144.733773 192.31274 C 145.446048 192.262115 146.163953 192.31274 146.876228 192.31274 L 148.711813 192.31274 C 149.528255 192.31274 150.355958 192.453365 151.161138 192.31274 C 152.112714 192.14399 152.985462 191.66024 153.914516 191.393052 C 154.415642 191.252427 154.936476 191.196177 155.446048 191.089303 C 156.36384 190.892427 157.273187 190.639302 158.199426 190.476177 C 159.007422 190.33274 159.826678 190.22024 160.645935 190.169615 C 161.459561 190.11899 162.292895 190.329927 163.095259 190.169615 C 163.855395 190.01774 164.514178 189.539615 165.234899 189.25274 C 166.04571 188.929302 166.845259 188.574928 167.684223 188.333052 C 168.28107 188.164302 168.914516 188.164302 169.519809 188.029303 C 169.835124 187.95899 170.122286 187.793052 170.437602 187.72274 C 171.042895 187.58774 171.681971 187.59899 172.273187 187.416177 C 176.49053 185.60774 172.585687 187.109615 175.947174 186.19274 C 176.569358 186.02399 177.143683 185.678052 177.782759 185.579615 C 178.486588 185.47274 179.238277 185.77649 179.925214 185.579615 C 180.713503 185.354615 181.290642 184.631802 182.064854 184.356178 C 182.74616 184.114302 183.50348 184.20149 184.207309 184.049615 C 185.344696 183.80774 186.439854 183.385865 187.574426 183.13274 C 188.081183 183.02024 188.610462 182.992115 189.103142 182.826178 C 189.536701 182.68274 189.908322 182.393052 190.327804 182.213052 C 191.062602 181.900865 191.693232 181.824928 192.470259 181.60274 C 192.779944 181.51274 193.069922 181.349615 193.388052 181.296177 C 193.689291 181.245553 194.010237 181.380552 194.305845 181.296177 C 194.745034 181.172427 195.111025 180.863052 195.530507 180.683053 C 195.826115 180.55649 196.141431 180.480552 196.4483 180.379302 C 197.059223 180.17399 197.658885 179.923677 198.283885 179.766177 C 203.517557 178.894302 197.016994 180.112115 201.651003 178.849302 C 202.439291 178.63274 203.875102 178.584927 204.708435 178.236177 C 205.55303 177.884615 206.285012 177.279927 207.157759 177.01274 C 212.737714 175.297115 203.897624 179.344302 210.522061 176.399615 C 211.946611 175.766802 210.95562 175.665552 212.664516 175.176177 C 212.960124 175.091803 213.289516 175.260552 213.582309 175.176177 C 214.021498 175.052427 214.373413 174.709302 214.806971 174.565865 C 215.001228 174.501177 215.215192 174.565865 215.42071 174.565865 C 216.234336 174.259302 217.062039 173.980865 217.867219 173.646177 C 218.708998 173.294615 219.477579 172.78274 220.316543 172.42274 C 220.612151 172.296177 220.935913 172.24274 221.234336 172.116177 C 221.651003 171.936177 222.019809 171.629615 222.456183 171.505865 C 222.751791 171.42149 223.089629 171.61274 223.373976 171.505865 C 223.931408 171.294928 224.373413 170.853365 224.905507 170.586177 C 225.192669 170.44274 225.524876 170.400552 225.8233 170.279615 C 226.034449 170.19524 226.208998 170.012428 226.434223 169.975865 L 227.658885 169.975865 C 227.760237 169.871803 227.824989 169.703052 227.965755 169.669302 C 228.261363 169.593365 228.59357 169.764927 228.883548 169.669302 C 229.232647 169.551177 229.486025 169.244615 229.80134 169.056177 C 230.209561 168.81149 230.893683 168.533052 231.330057 168.445865 C 232.264741 168.257427 231.752354 168.803052 232.861588 168.139302 C 233.109336 167.99024 233.216318 167.655552 233.472512 167.526177 C 235.282759 166.620553 232.819358 168.628677 234.697174 167.219615 C 234.92803 167.048052 235.051904 166.738677 235.308097 166.609302 C 235.583998 166.47149 235.952804 166.744303 236.22589 166.609302 C 236.555282 166.443365 236.85089 166.218365 237.143683 165.996177 C 237.259111 165.90899 237.321048 165.754302 237.450552 165.689615 C 237.695485 165.568677 238.123413 165.813365 238.368345 165.689615 C 238.627354 165.563052 238.723075 165.208677 238.982084 165.079302 C 239.356521 164.890865 239.806971 164.904927 240.203931 164.77274 C 240.724764 164.598365 241.228705 164.376177 241.735462 164.159615 C 241.943795 164.069615 242.129606 163.926177 242.346385 163.855865 C 242.444922 163.822115 242.554719 163.886802 242.653255 163.855865 L 243.264178 163.549302 C 243.264178 163.448052 243.193795 163.315865 243.264178 163.24274 C 243.337376 163.169615 243.480958 163.28774 243.571048 163.24274 C 243.700552 163.178052 243.748413 163.000865 243.877917 162.936177 C 244.03839 162.854615 244.660575 163.026177 244.79571 162.936177 C 244.998413 162.733677 245.203931 162.528365 245.406633 162.325865 C 245.507985 162.325865 245.620597 162.370865 245.713503 162.325865 C 245.843007 162.261178 245.890867 162.08399 246.017557 162.019302 C 246.141431 161.957427 246.873413 162.081177 246.938165 162.019302 C 247.568795 161.38649 245.969696 162.044615 247.242219 161.406177 C 247.405507 161.324615 247.692669 161.48774 247.855958 161.406177 C 247.982647 161.34149 248.05866 161.203677 248.160012 161.099615 C 248.261363 160.998365 248.36553 160.897115 248.466881 160.795865 " transform="matrix(1.3875,0,0,1.388889,0.90064,-0.601028)"/>
<path style="fill:none;stroke-width:0.4;stroke-linecap:butt;stroke-linejoin:miter;stroke:rgb(55.686275%,55.686275%,55.686275%);stroke-opacity:1;stroke-miterlimit:4;" d="M 89.961813 214.348677 L 91.493345 214.348677 C 91.594696 214.348677 91.701678 214.382427 91.797399 214.348677 C 92.014178 214.278365 92.197174 214.129302 92.411138 214.044928 C 92.709561 213.92399 93.030507 213.864927 93.328931 213.738365 C 93.748413 213.558365 94.108773 213.23774 94.550777 213.12524 C 94.947737 213.026802 95.384111 213.243365 95.77544 213.12524 C 96.431408 212.928365 96.943795 212.351802 97.611025 212.208365 C 98.410575 212.036802 99.2608 212.368677 100.060349 212.208365 C 100.820485 212.05649 101.4483 211.477115 102.202804 211.288677 C 103.098075 211.06649 104.044021 211.128365 104.956183 210.984927 C 105.983773 210.821802 106.980395 210.487115 108.016431 210.371803 C 108.827241 210.281802 109.652129 210.467427 110.46294 210.371803 C 113.219133 210.048365 115.705057 208.740552 118.419021 208.23149 C 119.227016 208.079615 120.060349 208.08524 120.868345 207.924927 C 123.154381 207.46649 122.653255 207.16274 124.846385 207.00524 C 125.660012 206.94899 126.487714 207.12899 127.292895 207.00524 C 127.83625 206.923677 128.292331 206.538365 128.821611 206.394927 C 129.874539 205.672115 131.096385 206.361177 132.188728 206.088365 C 132.943232 205.899927 133.576678 205.359927 134.331183 205.17149 C 135.226453 204.94649 136.163953 204.929615 137.084561 204.864927 C 137.594133 204.828365 138.120597 204.988677 138.616093 204.864927 C 139.367782 204.67649 140.006858 204.14774 140.755732 203.94524 C 146.980395 202.285865 139.44098 204.881802 145.651566 203.64149 C 146.414516 203.486802 147.033885 202.884927 147.794021 202.721802 C 149.032759 202.457427 150.522061 202.949615 151.772061 202.721802 C 152.312602 202.623365 152.768683 202.243677 153.303593 202.11149 C 157.605395 201.034302 153.283885 202.465865 157.585687 201.804927 C 158.224764 201.70649 158.793458 201.338052 159.421273 201.191802 C 160.595259 200.50274 161.884674 201.107428 163.095259 200.88524 C 163.728705 200.769927 164.291768 200.364927 164.930845 200.274927 C 165.73884 200.159615 166.58062 200.44649 167.377354 200.274927 C 168.047399 200.13149 168.559786 199.55774 169.21294 199.35524 C 172.993908 198.193677 169.835124 199.605552 172.886926 199.05149 C 173.520372 198.936177 174.100327 198.607115 174.722512 198.438365 C 175.223638 198.300552 175.750102 198.269615 176.251228 198.131802 C 178.109336 197.625552 178.357084 197.35274 180.229268 196.601802 C 180.530507 196.483677 180.843007 196.399302 181.147061 196.29524 C 181.7608 196.09274 182.360462 195.853677 182.982647 195.684927 C 183.486588 195.547115 184.021498 195.544302 184.514178 195.378365 C 184.947737 195.234927 185.302467 194.897427 185.73884 194.76524 C 186.332872 194.588052 186.974764 194.624615 187.574426 194.46149 C 188.103705 194.31524 188.562602 193.946802 189.103142 193.848365 C 189.70562 193.738677 190.33625 193.949615 190.938728 193.848365 C 191.574989 193.74149 192.154944 193.406802 192.777129 193.23524 C 193.278255 193.10024 193.804719 193.06649 194.305845 192.93149 C 194.92803 192.759927 195.538953 192.546177 196.141431 192.318365 C 198.120597 191.575865 194.435349 192.554615 198.283885 191.40149 C 198.782196 191.252427 199.317106 191.249615 199.815417 191.094927 C 200.952804 190.73774 202.03107 190.19774 203.179719 189.87149 C 203.475327 189.787115 203.810349 189.978365 204.097512 189.87149 C 204.654944 189.660552 205.071611 189.16274 205.629043 188.951802 C 205.91339 188.844927 206.256858 189.05024 206.546836 188.951802 C 207.194358 188.73524 207.732084 188.25149 208.382422 188.034927 C 208.672399 187.93649 208.993345 188.034927 209.300214 188.034927 C 209.911138 187.728365 210.499539 187.371177 211.1358 187.11524 C 211.527129 186.960552 211.952241 186.91274 212.360462 186.81149 C 212.768683 186.707427 213.179719 186.62024 213.585124 186.504927 C 213.894809 186.414927 214.187602 186.277115 214.502917 186.198365 C 217.02544 185.568365 215.057534 186.21524 217.256295 185.588052 C 218.227579 185.309615 218.669584 185.05649 219.702804 184.668365 C 220.006858 184.555865 220.302467 184.409615 220.620597 184.361802 C 221.026003 184.305552 221.453931 184.479928 221.845259 184.361802 C 222.501228 184.164927 223.033322 183.66149 223.680845 183.444927 C 223.970822 183.349302 224.314291 183.551802 224.598638 183.444927 C 225.15607 183.236802 225.572737 182.736177 226.130169 182.528053 C 226.417331 182.418365 226.752354 182.609615 227.047962 182.528053 C 227.487151 182.40149 227.853142 182.094927 228.272624 181.914927 C 228.568232 181.788365 228.883548 181.709615 229.190417 181.608365 C 229.598638 181.405865 229.995597 181.17524 230.412264 180.998053 C 233.430282 179.704302 229.291768 181.53524 232.250665 180.69149 C 232.687039 180.564927 233.064291 180.283677 233.472512 180.078365 C 233.67803 179.977115 233.861025 179.816802 234.08625 179.771802 C 234.384674 179.71274 234.697174 179.771802 235.004043 179.771802 C 235.206746 179.771802 235.42634 179.84774 235.614967 179.771802 C 235.95562 179.636802 236.203367 179.324615 236.532759 179.16149 C 236.625665 179.11649 236.738277 179.178365 236.839629 179.16149 C 237.352016 179.074302 237.892557 179.06024 238.368345 178.854928 C 238.6358 178.742427 238.723075 178.371177 238.982084 178.241802 C 239.356521 178.056177 239.80134 178.053365 240.206746 177.938052 C 240.516431 177.848052 240.806408 177.693365 241.124539 177.63149 C 241.324426 177.592115 241.541205 177.696177 241.735462 177.63149 C 241.873413 177.58649 241.904381 177.369927 242.042331 177.324928 C 242.233773 177.26024 242.450552 177.324928 242.653255 177.324928 C 242.754606 177.324928 242.867219 177.369927 242.960124 177.324928 C 243.089629 177.26024 243.145935 177.099927 243.264178 177.018365 C 244.809786 175.98899 243.272624 177.015552 244.181971 176.711802 C 244.39875 176.64149 244.570485 176.45024 244.79571 176.408052 C 245.094133 176.346177 245.440417 176.543052 245.713503 176.408052 C 246.099201 176.21399 246.259674 175.710552 246.631295 175.488365 C 246.805845 175.384302 247.053593 175.564302 247.242219 175.488365 C 247.585687 175.353365 247.833435 175.041177 248.160012 174.878052 C 248.252917 174.83024 248.37116 174.90899 248.466881 174.878052 C 250.201115 174.00899 248.0108 174.990552 249.691543 174.57149 C 250.184223 174.44774 250.296836 174.270552 250.609336 173.958365 C 250.710687 173.857115 250.786701 173.71649 250.916205 173.651803 C 251.006295 173.606802 251.118908 173.651803 251.220259 173.651803 L 251.527129 173.651803 " transform="matrix(1.3875,0,0,1.388889,0.90064,-0.601028)"/>
<path style="fill:none;stroke-width:0.4;stroke-linecap:butt;stroke-linejoin:miter;stroke:rgb(55.686275%,55.686275%,55.686275%);stroke-opacity:1;stroke-miterlimit:4;" d="M 243.849764 127.83899 L 243.849764 168.083052 C 243.849764 168.299615 243.796273 168.521802 243.849764 168.73274 C 243.875102 168.831177 244.041205 168.850865 244.066543 168.949302 C 244.105958 169.10399 244.066543 170.009615 244.066543 170.248677 L 244.066543 185.824302 C 244.066543 185.97899 244.029944 187.01399 244.066543 187.123677 C 244.097512 187.219302 244.238277 187.25024 244.283322 187.34024 C 244.314291 187.404927 244.283322 187.483677 244.283322 187.556802 L 244.283322 189.069927 C 244.283322 189.25274 244.235462 190.059927 244.283322 190.15274 C 244.314291 190.217427 244.449426 190.102115 244.500102 190.15274 C 244.505732 190.161177 244.500102 190.74899 244.500102 190.802427 " transform="matrix(1.3875,0,0,1.388889,0.90064,-0.601028)"/>
<path style="fill:none;stroke-width:0.4;stroke-linecap:butt;stroke-linejoin:miter;stroke:rgb(55.686275%,55.686275%,55.686275%);stroke-opacity:1;stroke-miterlimit:4;" d="M 233.680845 192.959615 C 233.607647 192.67274 233.174088 192.16649 233.464066 192.093365 C 233.751228 192.023052 233.889178 193.170552 233.680845 192.959615 C 232.965755 192.24524 233.030507 191.933053 233.030507 191.229928 C 233.030507 191.083677 233.067106 190.937427 233.030507 190.796802 C 232.991093 190.639302 232.853142 190.521177 232.813728 190.363677 C 232.777129 190.217427 232.813728 188.988365 232.813728 188.84774 L 232.813728 175.434927 C 232.813728 175.04399 232.867219 173.969615 232.813728 173.702427 C 232.726453 173.25524 232.492782 172.847427 232.382985 172.405865 C 232.346385 172.26524 232.382985 172.116177 232.382985 171.97274 L 232.382985 153.581802 C 232.382985 153.35399 232.425214 152.71274 232.382985 152.49899 C 232.33794 152.276803 232.21125 152.074302 232.166205 151.849302 C 232.138052 151.708677 232.239404 151.539927 232.166205 151.416178 C 232.008548 151.154615 231.653818 151.042115 231.515867 150.769302 C 231.515867 149.604928 231.667895 150.56399 231.082309 149.68649 C 231.042895 149.627427 231.099201 148.868052 231.082309 148.82024 C 231.05134 148.724615 230.91339 148.69649 230.868345 148.603678 C 230.834561 148.53899 230.868345 148.46024 230.868345 148.387115 L 230.868345 143.844927 " transform="matrix(1.3875,0,0,1.388889,0.90064,-0.601028)"/>
<path style="fill:none;stroke-width:0.4;stroke-linecap:butt;stroke-linejoin:miter;stroke:rgb(55.686275%,55.686275%,55.686275%);stroke-opacity:1;stroke-miterlimit:4;" d="M 223.081183 195.780552 C 222.934786 195.490865 222.703931 195.232115 222.647624 194.914302 C 222.557534 194.41649 222.647624 193.904615 222.647624 193.401177 L 222.647624 149.908677 C 222.647624 149.796177 222.675777 149.10149 222.647624 149.04524 C 222.602579 148.952427 222.461813 148.924302 222.430845 148.828677 C 222.391431 148.70774 222.430845 147.748677 222.430845 147.529303 " transform="matrix(1.3875,0,0,1.388889,0.90064,-0.601028)"/>
<path style="fill:none;stroke-width:0.4;stroke-linecap:butt;stroke-linejoin:miter;stroke:rgb(55.686275%,55.686275%,55.686275%);stroke-opacity:1;stroke-miterlimit:4;" d="M 212.689854 198.801177 C 212.0733 198.199302 212.580057 197.496177 212.473075 196.852115 C 212.425214 196.559615 212.298525 196.281177 212.256295 195.985865 C 212.225327 195.772115 212.256295 195.555552 212.256295 195.33899 L 212.256295 182.139927 C 212.256295 181.706802 212.335124 181.268052 212.256295 180.840553 C 212.188728 180.460865 211.901566 180.14024 211.825552 179.760552 C 211.755169 179.406177 211.825552 179.03774 211.825552 178.67774 L 211.825552 177.81149 C 211.825552 177.524615 211.859336 177.234927 211.825552 176.948052 C 211.788953 176.65274 211.651003 176.377115 211.608773 176.081802 C 211.577804 175.868052 211.608773 175.648677 211.608773 175.432115 L 211.608773 171.536802 C 211.608773 171.323052 211.667895 171.098052 211.608773 170.889927 C 211.518683 170.57774 211.276566 170.33024 211.175214 170.023677 C 211.130169 169.885865 211.175214 169.73399 211.175214 169.590553 C 211.175214 169.37399 211.211813 169.154615 211.175214 168.940865 C 211.138615 168.715865 211.00348 168.516177 210.958435 168.291178 C 210.930282 168.150553 210.958435 168.004302 210.958435 167.860865 L 210.958435 166.994615 C 210.958435 166.851177 211.011926 166.69649 210.958435 166.56149 C 210.862714 166.319615 210.598075 166.162115 210.527692 165.911802 C 210.446048 165.636178 210.567106 165.332427 210.527692 165.048365 C 210.409449 164.229928 210.127917 164.404303 209.877354 163.532427 C 209.835124 163.38899 209.877354 162.269615 209.877354 162.01649 C 209.877354 161.873053 209.911138 161.72399 209.877354 161.586177 C 209.83794 161.428677 209.699989 161.30774 209.660575 161.153053 C 209.590192 160.871803 209.790079 160.545552 209.660575 160.286802 C 209.570485 160.10399 209.291768 160.04774 209.227016 159.853678 C 209.083435 159.423365 209.333998 158.768052 209.227016 158.340553 C 209.187602 158.183053 209.049651 158.062115 209.013052 157.907427 C 209.001791 157.868052 209.024313 156.838677 209.013052 156.824615 C 208.897624 156.712115 208.692106 156.723365 208.579494 156.608052 C 208.537264 156.565865 208.618908 155.606802 208.579494 155.528053 C 208.54571 155.463365 208.41339 155.578677 208.362714 155.528053 C 208.354268 155.516802 208.362714 154.740552 208.362714 154.661802 L 208.362714 150.116802 " transform="matrix(1.3875,0,0,1.388889,0.90064,-0.601028)"/>
<path style="fill:none;stroke-width:0.4;stroke-linecap:butt;stroke-linejoin:miter;stroke:rgb(55.686275%,55.686275%,55.686275%);stroke-opacity:1;stroke-miterlimit:4;" d="M 197.549088 151.641177 L 197.549088 189.505865 C 197.549088 190.082427 197.478705 190.664615 197.549088 191.235552 C 197.605395 191.688365 197.906633 192.084927 197.982647 192.534927 C 198.019246 192.748677 197.982647 192.968052 197.982647 193.184615 L 197.982647 194.481178 C 197.982647 194.579615 197.948863 195.063365 197.982647 195.130865 C 198.027692 195.220865 198.165642 195.24899 198.199426 195.347427 C 198.236025 195.457115 198.199426 196.63274 198.199426 196.860552 L 198.199426 200.755865 C 198.199426 200.899302 198.343007 201.18899 198.199426 201.18899 C 198.055845 201.18899 198.199426 200.612427 198.199426 200.755865 L 198.199426 202.05524 C 198.199426 202.125552 198.269809 202.271802 198.199426 202.271802 C 198.126228 202.271802 198.199426 202.125552 198.199426 202.05524 " transform="matrix(1.3875,0,0,1.388889,0.90064,-0.601028)"/>
<path style="fill:none;stroke-width:0.4;stroke-linecap:butt;stroke-linejoin:miter;stroke:rgb(55.686275%,55.686275%,55.686275%);stroke-opacity:1;stroke-miterlimit:4;" d="M 186.729831 154.228678 C 186.656633 154.59149 186.566543 154.948678 186.513052 155.31149 C 186.493345 155.454927 186.513052 155.601177 186.513052 155.744615 L 186.513052 199.88399 C 186.513052 199.934615 186.53839 200.699615 186.513052 200.75024 C 186.468007 200.84024 186.344133 200.87399 186.296273 200.96399 C 186.265304 201.028677 186.296273 201.11024 186.296273 201.180552 L 186.296273 202.913052 C 186.296273 203.107115 186.332872 203.925552 186.296273 203.995865 C 186.251228 204.085865 186.152692 204.139302 186.079494 204.209615 " transform="matrix(1.3875,0,0,1.388889,0.90064,-0.601028)"/>
<path style="fill:none;stroke-width:0.4;stroke-linecap:butt;stroke-linejoin:miter;stroke:rgb(55.686275%,55.686275%,55.686275%);stroke-opacity:1;stroke-miterlimit:4;" d="M 172.450552 158.340553 C 172.520935 158.627427 172.616656 158.91149 172.667331 159.206802 C 172.689854 159.347427 172.667331 159.493677 172.667331 159.637115 L 172.667331 163.965553 C 172.667331 164.471802 172.594133 164.980865 172.667331 165.48149 C 172.74053 165.99899 172.988277 166.48274 173.098075 166.994615 C 173.205057 167.492427 173.244471 168.004302 173.314854 168.510552 C 173.458435 169.52024 173.652692 170.524302 173.748413 171.539615 C 173.796273 172.04024 173.748413 172.549302 173.748413 173.05274 C 173.748413 173.41274 173.666768 173.78399 173.748413 174.135552 C 173.886363 174.734615 174.269246 175.263365 174.395935 175.86524 C 174.48884 176.289927 174.395935 176.73149 174.395935 177.164615 L 174.395935 178.244615 C 174.395935 182.291802 174.297399 177.68774 174.612714 180.843365 C 174.694358 181.64774 174.52544 182.63774 174.612714 183.439302 C 174.654944 183.804927 174.770372 184.159302 174.829494 184.519302 C 174.840755 184.592427 174.829494 184.665552 174.829494 184.735865 L 174.829494 185.602115 C 174.829494 185.818677 174.806971 186.03524 174.829494 186.251802 C 174.877354 186.68774 174.992782 187.11524 175.046273 187.548365 C 175.063165 187.691802 175.046273 187.838052 175.046273 187.98149 L 175.046273 189.280865 C 175.046273 189.497427 175.004043 189.716803 175.046273 189.930552 C 175.077241 190.088052 175.232084 190.203365 175.263052 190.363677 C 175.305282 190.574615 175.263052 190.79399 175.263052 191.010552 L 175.263052 192.309927 C 175.263052 192.453365 175.237714 192.599615 175.263052 192.743052 C 175.513615 194.250552 175.479831 193.06649 175.479831 194.039615 L 175.479831 195.988677 C 175.479831 196.348677 175.409449 196.717115 175.479831 197.068677 C 175.5108 197.22899 175.657196 197.347115 175.696611 197.501802 C 175.730395 197.64524 175.696611 198.618365 175.696611 198.801177 L 175.696611 207.45524 " transform="matrix(1.3875,0,0,1.388889,0.90064,-0.601028)"/>
<path style="fill:none;stroke-width:0.4;stroke-linecap:butt;stroke-linejoin:miter;stroke:rgb(55.686275%,55.686275%,55.686275%);stroke-opacity:1;stroke-miterlimit:4;" d="M 160.980958 160.50899 L 160.980958 205.514615 C 160.980958 205.703052 160.938728 206.254302 160.980958 206.380865 C 161.031633 206.53274 161.144246 206.659302 161.197737 206.81399 C 161.220259 206.88149 161.197737 206.957427 161.197737 207.030552 L 161.197737 208.543678 C 161.197737 208.656177 161.166768 209.353677 161.197737 209.409927 C 161.242782 209.499927 161.366656 209.533677 161.411701 209.62649 C 161.445485 209.691177 161.411701 209.769927 161.411701 209.843052 L 161.411701 211.356178 " transform="matrix(1.3875,0,0,1.388889,0.90064,-0.601028)"/>
<path style="fill:none;stroke-width:0.4;stroke-linecap:butt;stroke-linejoin:miter;stroke:rgb(55.686275%,55.686275%,55.686275%);stroke-opacity:1;stroke-miterlimit:4;" d="M 150.158885 162.238677 L 150.158885 179.333052 C 150.158885 179.693052 150.139178 180.055865 150.158885 180.415865 C 150.282759 182.43524 150.474201 184.451802 150.592444 186.47399 C 150.617782 186.904303 150.592444 187.337427 150.592444 187.770552 L 150.592444 196.85774 C 150.592444 197.074302 150.567106 197.293678 150.592444 197.507427 C 150.837376 199.464927 150.809223 197.934927 150.809223 199.023365 L 150.809223 203.34899 C 150.809223 203.49524 150.78107 203.64149 150.809223 203.782115 C 150.854268 204.007115 150.969696 204.209615 151.026003 204.431802 C 151.042895 204.502115 151.026003 204.57524 151.026003 204.648365 L 151.026003 211.789302 C 151.026003 211.859615 151.096385 212.005865 151.026003 212.005865 C 150.952804 212.005865 151.026003 211.716177 151.026003 211.789302 C 151.026003 211.94399 151.062602 212.976177 151.026003 213.085865 C 150.992219 213.184303 150.882422 213.229302 150.809223 213.302427 " transform="matrix(1.3875,0,0,1.388889,0.90064,-0.601028)"/>
<path style="fill:none;stroke-width:0.4;stroke-linecap:butt;stroke-linejoin:miter;stroke:rgb(55.686275%,55.686275%,55.686275%);stroke-opacity:1;stroke-miterlimit:4;" d="M 138.480958 165.92024 C 138.55134 166.28024 138.596385 166.648677 138.697737 167.003052 C 138.739967 167.15774 138.861025 167.28149 138.911701 167.433365 C 138.934223 167.503677 138.911701 167.579615 138.911701 167.649927 L 138.911701 170.895552 C 138.911701 171.18524 138.883548 171.474927 138.911701 171.761802 C 138.956746 172.19774 139.091881 172.622427 139.12848 173.061177 C 139.165079 173.49149 139.12848 173.924615 139.12848 174.35774 C 139.12848 174.647427 139.072174 174.939927 139.12848 175.22399 C 139.21857 175.671177 139.463503 176.076178 139.562039 176.523365 C 139.609899 176.734302 139.562039 176.953677 139.562039 177.17024 L 139.562039 179.552427 C 139.562039 179.766177 139.53107 179.985552 139.562039 180.199302 C 139.604268 180.494615 139.736588 180.77024 139.778818 181.065552 C 139.809786 181.279303 139.778818 181.498677 139.778818 181.71524 L 139.778818 182.798052 C 139.778818 183.084927 139.742219 183.374615 139.778818 183.66149 C 139.815417 183.956802 139.961813 184.232428 139.995597 184.52774 C 140.035012 184.884927 139.995597 185.24774 139.995597 185.610552 L 139.995597 189.069927 C 139.995597 189.216177 139.967444 189.362427 139.995597 189.503052 C 140.040642 189.728052 140.15607 189.930552 140.209561 190.15274 C 140.229268 190.223052 140.209561 190.296177 140.209561 190.369302 L 140.209561 192.748677 C 140.209561 192.804927 140.175777 193.938365 140.209561 194.048052 C 140.263052 194.199928 140.375665 194.32649 140.42634 194.481178 C 140.448863 194.548677 140.42634 194.624615 140.42634 194.69774 L 140.42634 200.106178 C 140.42634 200.179302 140.409449 200.252427 140.42634 200.32274 C 140.482647 200.544928 140.598075 200.747427 140.64312 200.972427 C 140.671273 201.113052 140.64312 201.259302 140.64312 201.405552 L 140.64312 204.00149 C 140.64312 205.098365 140.578367 203.74274 140.859899 204.864927 C 140.902129 205.030865 140.859899 206.155865 140.859899 206.380865 C 140.859899 206.524302 140.814854 206.676177 140.859899 206.81399 C 140.910575 206.965865 141.026003 207.092427 141.076678 207.247115 C 141.099201 207.314615 141.076678 207.390552 141.076678 207.463677 L 141.076678 210.059615 C 141.076678 210.129927 141.042895 210.21149 141.076678 210.276177 C 141.121723 210.366177 141.248413 210.399927 141.293458 210.49274 C 141.324426 210.557427 141.293458 210.636177 141.293458 210.709302 L 141.293458 215.684615 C 141.293458 215.828052 141.437039 216.11774 141.293458 216.11774 C 141.149876 216.11774 141.293458 215.541177 141.293458 215.684615 L 141.293458 216.334302 C 141.293458 216.404615 141.36384 216.550865 141.293458 216.550865 C 141.220259 216.550865 141.293458 216.404615 141.293458 216.334302 " transform="matrix(1.3875,0,0,1.388889,0.90064,-0.601028)"/>
<path style="fill:none;stroke-width:2;stroke-linecap:butt;stroke-linejoin:miter;stroke:rgb(100%,100%,100%);stroke-opacity:1;stroke-miterlimit:4;" d="M 134.929617 164.669062 C 136.128941 240.8175 134.836712 164.975625 136.07545 240.7725 C 86.976351 232.29 136.06982 240.809062 87.038288 232.337812 C 245.529279 191.80125 86.990428 232.157812 245.470158 191.77875 C 297.22973 200.213437 245.44482 191.691563 297.218468 200.32875 C 298.079955 127.985625 297.195946 199.088437 298.110923 127.119375 C 134.960586 164.2275 298.057432 127.414687 134.929617 164.669062 Z M 134.929617 164.669062 " transform="matrix(1.3875,0,0,1.388889,0,0)"/>
<path style="fill:none;stroke-width:1.5;stroke-linecap:butt;stroke-linejoin:miter;stroke:rgb(100%,100%,100%);stroke-opacity:1;stroke-miterlimit:4;" d="M 1.143018 277.599375 L 167.654842 310.21875 L 541.303491 201.49875 L 402.835023 175.750313 Z M 1.143018 277.599375 " transform="matrix(1.3875,0,0,1.388889,0,0)"/>
<path style="fill:none;stroke-width:0.5;stroke-linecap:butt;stroke-linejoin:miter;stroke:rgb(100%,100%,100%);stroke-opacity:1;stroke-miterlimit:4;" d="M 134.749437 164.59875 C 86.399212 160.92 86.179617 160.72875 86.179617 160.72875 L 243.980856 127.760625 L 297.789977 126.950625 Z M 134.749437 164.59875 " transform="matrix(1.3875,0,0,1.388889,0,0)"/>
<path style="fill:none;stroke-width:0.4;stroke-linecap:butt;stroke-linejoin:miter;stroke:rgb(55.686275%,55.686275%,55.686275%);stroke-opacity:0.705882;stroke-miterlimit:4;" d="M 87.798423 159.719063 L 87.798423 190.065937 C 87.798423 190.344375 87.736486 191.559375 87.798423 191.683125 C 87.885698 191.854687 88.119369 191.916562 88.203829 192.088125 C 88.26295 192.209062 88.203829 192.358125 88.203829 192.493125 L 88.203829 196.135312 C 88.203829 196.2675 88.161599 196.410937 88.203829 196.5375 C 88.29955 196.824375 88.513514 197.060625 88.609234 197.3475 C 88.685248 197.575312 88.609234 198.295312 88.609234 198.5625 L 88.609234 200.584688 C 88.609234 200.854687 88.521959 201.13875 88.609234 201.394688 C 88.668356 201.574687 88.927365 201.628125 89.011824 201.799688 C 89.056869 201.889687 89.011824 203.32125 89.011824 203.416875 L 89.011824 206.654062 C 89.011824 206.789062 88.952703 206.938125 89.011824 207.059062 C 89.099099 207.227812 89.33277 207.2925 89.41723 207.464062 C 89.479167 207.585 89.41723 208.493437 89.41723 208.67625 L 89.41723 229.311562 C 89.41723 229.460625 89.434122 230.911875 89.41723 230.92875 C 89.321509 231.024375 89.107545 230.833125 89.011824 230.92875 C 88.916104 231.024375 89.073761 231.212812 89.011824 231.33375 C 88.927365 231.505313 88.744369 231.60375 88.609234 231.73875 L 88.203829 232.14375 " transform="matrix(1.3875,0,0,1.388889,0,0)"/>
<path style="fill:none;stroke-width:0.4;stroke-linecap:butt;stroke-linejoin:miter;stroke:rgb(55.686275%,55.686275%,55.686275%);stroke-opacity:0.705882;stroke-miterlimit:4;" d="M 96.70045 162.55125 L 96.70045 200.176875 C 96.70045 200.446875 96.655405 200.7225 96.70045 200.986875 C 96.790541 201.535313 96.996059 202.06125 97.105856 202.606875 C 97.184685 203.003437 97.105856 203.414062 97.105856 203.819063 L 97.105856 207.05625 C 97.105856 207.19125 97.072072 207.329062 97.105856 207.46125 C 97.207207 207.874687 97.407095 208.26 97.508446 208.673438 C 97.54223 208.805625 97.508446 208.943437 97.508446 209.078437 L 97.508446 232.950937 " transform="matrix(1.3875,0,0,1.388889,0,0)"/>
<path style="fill:none;stroke-width:0.4;stroke-linecap:butt;stroke-linejoin:miter;stroke:rgb(55.686275%,55.686275%,55.686275%);stroke-opacity:0.705882;stroke-miterlimit:4;" d="M 106.010698 163.769062 L 106.010698 215.56125 C 106.010698 215.963437 105.881194 216.390937 106.010698 216.773438 C 106.06982 216.953437 106.354167 216.998437 106.413288 217.178438 C 106.500563 217.434375 106.413288 217.718437 106.413288 217.988438 L 106.413288 230.934375 C 106.413288 231.274687 106.328829 232.785 106.413288 232.956562 C 106.475225 233.0775 106.722973 232.860937 106.818694 232.956562 C 106.914414 233.052188 106.818694 233.226562 106.818694 233.361562 L 106.818694 235.386562 " transform="matrix(1.3875,0,0,1.388889,0,0)"/>
<path style="fill:none;stroke-width:0.4;stroke-linecap:butt;stroke-linejoin:miter;stroke:rgb(55.686275%,55.686275%,55.686275%);stroke-opacity:0.705882;stroke-miterlimit:4;" d="M 116.931306 164.17125 L 116.931306 202.606875 C 116.931306 202.876875 116.981982 203.1525 116.931306 203.416875 C 116.846847 203.835938 116.61036 204.212812 116.525901 204.631875 C 116.47241 204.89625 116.525901 205.171875 116.525901 205.439063 L 116.525901 236.190937 " transform="matrix(1.3875,0,0,1.388889,0,0)"/>
<path style="fill:none;stroke-width:0.4;stroke-linecap:butt;stroke-linejoin:miter;stroke:rgb(55.686275%,55.686275%,55.686275%);stroke-opacity:0.705882;stroke-miterlimit:4;" d="M 125.830518 165.389062 L 125.830518 238.21875 " transform="matrix(1.3875,0,0,1.388889,0,0)"/>
<path style="fill:none;stroke-width:0.4;stroke-linecap:butt;stroke-linejoin:miter;stroke:rgb(55.686275%,55.686275%,55.686275%);stroke-opacity:0.705882;stroke-miterlimit:4;" d="M 133.918919 181.96875 L 110.453266 181.96875 C 110.109797 181.96875 108.293919 182.03625 108.026464 181.96875 C 106.072635 181.482187 108.046171 181.7775 106.810248 181.161563 C 106.692005 181.099687 106.542793 181.161563 106.407658 181.161563 C 106.137387 181.161563 105.858671 181.22625 105.596847 181.161563 C 105.304054 181.088437 105.081644 180.829688 104.788851 180.756563 C 104.189189 180.6075 103.327703 180.981562 102.76464 180.756563 C 102.412725 180.613125 102.274775 180.1575 101.956644 179.946562 C 101.92286 179.924062 100.439189 179.946562 100.337838 179.946562 C 99.389077 179.946562 100.529279 180.042187 99.529842 179.541562 C 99.270833 179.412187 97.753378 179.668125 97.505631 179.541562 C 97.164977 179.372812 97.038288 178.903125 96.697635 178.734375 C 96.455518 178.613438 96.148649 178.799062 95.886824 178.734375 C 94.780405 178.455938 95.236486 178.163437 94.268018 177.519375 C 94.045608 177.370312 93.716216 177.60375 93.460023 177.519375 C 93.17286 177.42375 92.936374 177.21 92.649212 177.114375 C 92.522523 177.072187 92.359234 177.190313 92.246622 177.114375 C 91.928491 176.903437 91.753941 176.518125 91.435811 176.304375 C 91.213401 176.155312 90.819257 176.495625 90.627815 176.304375 C 90.532095 176.211562 90.748874 175.96125 90.627815 175.902187 C 90.304054 175.739062 89.738176 176.0625 89.414414 175.902187 C 89.24268 175.815 89.144144 175.632187 89.009009 175.497187 C 88.873874 175.362188 88.468468 175.227187 88.603604 175.092187 C 88.738739 174.957188 89.20045 175.497187 89.009009 175.497187 C 88.079955 175.030312 88.502252 175.092187 87.795608 175.092187 " transform="matrix(1.3875,0,0,1.388889,0,0)"/>
<path style="fill:none;stroke-width:0.4;stroke-linecap:butt;stroke-linejoin:miter;stroke:rgb(55.686275%,55.686275%,55.686275%);stroke-opacity:0.705882;stroke-miterlimit:4;" d="M 132.311374 192.490312 L 87.804054 192.490312 " transform="matrix(1.3875,0,0,1.388889,0,0)"/>
<path style="fill:none;stroke-width:0.4;stroke-linecap:butt;stroke-linejoin:miter;stroke:rgb(55.686275%,55.686275%,55.686275%);stroke-opacity:0.705882;stroke-miterlimit:4;" d="M 133.918919 205.849687 L 119.757883 205.849687 C 119.355293 205.849687 118.947072 205.905937 118.544482 205.849687 C 117.995495 205.770938 117.474662 205.5375 116.925676 205.444687 C 116.815878 205.427812 115.357545 205.464375 115.309685 205.444687 C 114.856419 205.264687 114.546734 204.8175 114.093468 204.6375 C 113.70777 204.482812 112.159347 204.758437 111.666667 204.6375 C 111.373874 204.564375 111.154279 204.280312 110.858671 204.2325 C 110.326577 204.1425 109.752252 204.40125 109.239865 204.2325 C 108.876689 204.111562 108.772523 203.594062 108.429054 203.4225 C 108.189752 203.301562 107.891329 203.4225 107.621059 203.4225 L 106.407658 203.4225 C 103.251689 203.4225 107.176239 203.549062 103.980856 203.0175 C 103.581081 202.95 103.150338 203.146875 102.76464 203.0175 C 102.305743 202.862812 102.004505 202.390312 101.551239 202.2075 C 101.050113 202.007812 100.456081 202.339687 99.932432 202.2075 C 99.63964 202.134375 99.41723 201.878437 99.124437 201.805312 C 98.600788 201.673125 98.018018 201.974063 97.505631 201.805312 C 96.655405 201.52125 95.929054 200.874375 95.078829 200.590312 C 94.949324 200.548125 94.786036 200.66625 94.673423 200.590312 C 94.355293 200.379375 94.180743 199.99125 93.865428 199.780312 C 93.640203 199.63125 93.296734 199.90125 93.054617 199.780312 C 92.885698 199.695937 92.784347 199.510312 92.652027 199.375313 C 92.381757 199.375313 92.09741 199.4625 91.841216 199.375313 C 90.579955 198.95625 91.976351 199.105312 91.435811 198.568125 C 91.342905 198.4725 91.154279 198.627187 91.033221 198.568125 C 90.861486 198.480937 90.79955 198.2475 90.627815 198.163125 C 90.506757 198.10125 90.318131 198.25875 90.22241 198.163125 C 90.126689 198.0675 90.284347 197.879063 90.22241 197.758125 C 90.13795 197.586562 89.95214 197.488125 89.81982 197.353125 " transform="matrix(1.3875,0,0,1.388889,0,0)"/>
<path style="fill:none;stroke-width:0.4;stroke-linecap:butt;stroke-linejoin:miter;stroke:rgb(55.686275%,55.686275%,55.686275%);stroke-opacity:0.705882;stroke-miterlimit:4;" d="M 132.711149 225.27 C 129.746622 224.429062 126.692005 223.950937 123.809122 222.842812 C 122.849099 222.474375 121.951014 221.954062 120.976914 221.627813 C 120.323761 221.41125 119.628378 221.357812 118.952703 221.222813 C 118.279842 221.087812 117.606982 220.941563 116.931306 220.820625 C 116.123311 220.671562 115.281532 220.674375 114.501689 220.415625 C 114.042793 220.260937 113.744369 219.777187 113.288288 219.605625 C 112.598536 219.346875 109.394707 218.9475 108.837275 218.795625 C 107.449324 218.68875 106.475225 217.544062 105.197072 217.178438 C 104.808559 217.065937 104.389077 217.178438 103.983671 217.178438 L 102.77027 217.178438 C 102.22973 217.178438 101.686374 217.254375 101.151464 217.178438 C 100.326577 217.319063 99.839527 216.511875 99.127252 216.368437 C 96.82714 216.368437 98.862613 216.548438 97.105856 215.963437 C 96.497748 215.760937 96.70045 216.368437 95.892455 215.963437 C 95.548986 215.794687 95.351914 215.423438 95.081644 215.15625 C 94.946509 215.02125 94.859234 214.810312 94.676239 214.75125 C 94.304617 214.624687 92.516892 214.883437 92.249437 214.75125 C 91.815878 214.531875 91.47241 214.157813 91.036036 213.94125 C 90.793919 213.820312 90.467342 214.062187 90.228041 213.94125 C 90.056306 213.856875 89.991554 213.620625 89.822635 213.53625 C 89.498874 213.375937 88.932995 213.699375 88.609234 213.53625 C 88.488176 213.477187 88.668356 213.252187 88.609234 213.13125 C 88.358671 212.630625 88.217905 212.72625 87.798423 212.72625 " transform="matrix(1.3875,0,0,1.388889,0,0)"/>
<path style="fill:none;stroke-width:0.48576;stroke-linecap:butt;stroke-linejoin:miter;stroke:rgb(55.686275%,55.686275%,55.686275%);stroke-opacity:1;stroke-miterlimit:4;" d="M 100.830518 158.009062 C 100.878378 158.369062 103.015203 157.820625 103.454392 158.009062 C 103.688063 158.110312 103.873874 158.355 104.11036 158.430937 C 104.403153 158.52375 105.371622 158.430937 105.751689 158.430937 L 123.468468 158.430937 C 123.657095 158.430937 124.988739 158.355 125.109797 158.430937 C 125.247748 158.520938 125.289977 158.788125 125.436374 158.852812 C 125.644707 158.94 125.875563 158.852812 126.092342 158.852812 L 130.030968 158.852812 C 130.143581 158.852812 131.165541 158.776875 131.342905 158.852812 C 131.573761 158.95125 131.768018 159.173438 131.998874 159.271875 C 132.232545 159.373125 133.927365 159.271875 134.296171 159.271875 C 134.515766 159.271875 134.743806 159.184687 134.95214 159.271875 C 135.098536 159.336562 135.140766 159.60375 135.278716 159.69375 C 135.380068 159.758437 136.11768 159.69375 136.264077 159.69375 L 139.217342 159.69375 C 139.32714 159.69375 139.467905 159.595313 139.546734 159.69375 C 139.622748 159.792187 139.467905 160.014375 139.546734 160.115625 C 139.622748 160.214062 139.763514 160.115625 139.873311 160.115625 L 140.202703 160.115625 C 140.588401 160.115625 141.976351 160.03125 142.170608 160.115625 C 143.386824 160.633125 141.770833 160.534687 142.826577 160.534687 C 142.964527 160.534687 144.698761 160.472813 144.794482 160.534687 C 145.605293 161.055 144.681869 160.956562 145.45045 160.956562 L 145.779842 160.956562 C 145.88964 160.956562 146.106419 160.815937 146.106419 160.956562 C 146.106419 161.097187 145.88964 160.956562 145.779842 160.956562 " transform="matrix(1.3875,0,0,1.388889,0,0)"/>
<path style="fill:none;stroke-width:0.45172;stroke-linecap:butt;stroke-linejoin:miter;stroke:rgb(55.686275%,55.686275%,55.686275%);stroke-opacity:1;stroke-miterlimit:4;" d="M 133.099662 151.309687 L 136.050113 151.309687 C 136.269707 151.309687 136.497748 151.23375 136.706081 151.309687 C 136.852477 151.363125 136.883446 151.633125 137.032658 151.675312 C 137.350788 151.7625 137.688626 151.675312 138.018018 151.675312 L 140.3125 151.675312 C 140.748874 151.675312 141.193694 151.579688 141.621622 151.675312 C 141.773649 151.709062 141.804617 151.984688 141.951014 152.038125 C 142.156532 152.114062 142.387387 152.038125 142.606982 152.038125 C 142.913851 152.038125 144.588964 151.950937 144.901464 152.038125 C 145.236486 152.130937 145.543356 152.327812 145.884009 152.40375 C 146.097973 152.451562 146.320383 152.40375 146.539977 152.40375 L 149.817005 152.40375 C 149.926802 152.40375 150.04223 152.364375 150.143581 152.40375 C 150.377252 152.488125 150.563063 152.701875 150.79955 152.766562 C 151.013514 152.825625 151.235923 152.766562 151.455518 152.766562 L 153.423423 152.766562 C 153.640203 152.766562 153.862613 152.71875 154.079392 152.766562 C 154.41723 152.8425 154.726914 153.039375 155.061937 153.132187 C 155.337838 153.208125 156.033221 153.132187 156.371059 153.132187 L 159.650901 153.132187 C 159.760698 153.132187 159.873311 153.092813 159.977477 153.132187 C 160.211149 153.216562 160.396959 153.430312 160.633446 153.495 C 160.900901 153.570937 162.257883 153.495 162.601351 153.495 C 162.818131 153.495 163.048986 153.419062 163.254505 153.495 C 163.403716 153.55125 163.445946 153.781875 163.583896 153.860625 C 163.789414 153.975937 165.016892 153.745312 165.22241 153.860625 C 165.36036 153.936563 165.40259 154.17 165.548986 154.223437 C 165.630631 154.254375 167.156532 154.186875 167.190315 154.223437 C 167.266329 154.310625 167.091779 154.535625 167.190315 154.589062 C 167.525338 154.774687 168.122185 154.485 168.499437 154.589062 C 168.927365 154.707188 169.732545 155.016562 170.13795 155.3175 C 170.267455 155.413125 170.320946 155.626875 170.467342 155.680312 C 170.777027 155.795625 171.123311 155.680312 171.449887 155.680312 " transform="matrix(1.3875,0,0,1.388889,0,0)"/>
<path style="fill:none;stroke-width:0.4748;stroke-linecap:butt;stroke-linejoin:miter;stroke:rgb(55.686275%,55.686275%,55.686275%);stroke-opacity:1;stroke-miterlimit:4;" d="M 160.391329 145.54125 C 160.858671 145.665 161.911599 145.414687 161.793356 145.915312 C 161.677928 146.415937 159.95777 145.307812 160.391329 145.54125 C 161.869369 146.331562 161.872185 146.292187 162.849099 146.292187 C 163.08277 146.292187 163.322072 146.230312 163.550113 146.292187 C 164.473536 146.539687 164.031532 146.795625 164.954955 147.043125 C 165.182995 147.102187 165.422297 147.043125 165.655968 147.043125 C 166.126126 147.043125 166.607545 146.922188 167.060811 147.043125 C 167.570383 147.178125 167.958896 147.659063 168.465653 147.794062 C 168.831644 147.8925 170.447635 147.720937 170.923423 147.794062 C 171.402027 147.867188 171.852477 148.08375 172.328266 148.170938 C 172.559122 148.210312 172.798423 148.170938 173.032095 148.170938 C 173.733108 148.170938 174.439752 148.095 175.13795 148.170938 C 175.962838 148.258125 176.773649 148.446562 177.595721 148.545 C 178.03491 148.598437 178.986486 148.46625 179.352477 148.545 C 179.608671 148.60125 179.797297 148.865625 180.053491 148.921875 C 180.399775 148.995 180.75732 148.921875 181.109234 148.921875 L 184.619932 148.921875 C 184.73536 148.921875 184.887387 148.831875 184.971847 148.921875 C 185.053491 149.009062 184.887387 149.20875 184.971847 149.295938 C 184.983108 149.31 185.940315 149.295938 186.024775 149.295938 L 189.535473 149.295938 C 189.653716 149.295938 189.783221 149.239688 189.887387 149.295938 C 190.033784 149.374687 190.09009 149.594063 190.239302 149.672812 C 190.461712 149.790937 191.900338 149.571562 191.993243 149.672812 C 192.077703 149.76 191.911599 149.959688 191.993243 150.046875 C 192.004505 150.060937 192.961712 150.046875 193.046171 150.046875 " transform="matrix(1.3875,0,0,1.388889,0,0)"/>
<path style="fill:none;stroke-width:0.49164;stroke-linecap:butt;stroke-linejoin:miter;stroke:rgb(55.686275%,55.686275%,55.686275%);stroke-opacity:1;stroke-miterlimit:4;" d="M 182.421171 140.959688 C 182.54223 141.915937 183.97241 141.17625 184.46509 141.375937 C 184.707207 141.471563 184.904279 141.690937 185.146396 141.789375 C 185.253378 141.834375 185.374437 141.789375 185.48705 141.789375 C 186.055743 141.789375 186.635698 141.654375 187.190315 141.789375 C 187.440878 141.85125 187.63232 142.107187 187.874437 142.205625 C 188.316441 142.385625 188.79223 142.439063 189.23705 142.619062 C 189.817005 142.855312 190.346284 143.26875 190.940315 143.44875 C 191.601914 143.65125 192.353604 143.142188 192.984234 143.44875 C 193.282658 143.595 193.361486 144.1575 193.668356 144.28125 C 194.099099 144.455625 194.574887 144.28125 195.030968 144.28125 C 195.22241 144.28125 198.040541 144.199687 198.4375 144.28125 C 198.79223 144.351562 199.10473 144.632812 199.462275 144.694687 C 199.90991 144.773438 200.368806 144.694687 200.824887 144.694687 L 203.890766 144.694687 C 204.118806 144.694687 204.349662 144.64125 204.572072 144.694687 C 204.926802 144.781875 205.247748 145.004063 205.596847 145.110938 C 205.886824 145.198125 206.317568 145.110938 206.618806 145.110938 L 208.662725 145.110938 C 208.778153 145.110938 208.902027 145.049062 209.003378 145.110938 C 209.146959 145.198125 209.20045 145.437187 209.344032 145.524375 C 209.445383 145.58625 209.572072 145.524375 209.684685 145.524375 L 212.753378 145.524375 " transform="matrix(1.3875,0,0,1.388889,0,0)"/>
<path style="fill:none;stroke-width:0.45303;stroke-linecap:butt;stroke-linejoin:miter;stroke:rgb(55.686275%,55.686275%,55.686275%);stroke-opacity:1;stroke-miterlimit:4;" d="M 204.431306 136.049062 L 217.260698 136.049062 C 217.373311 136.049062 217.519707 135.9675 217.598536 136.049062 C 217.68018 136.133437 217.519707 136.321875 217.598536 136.40625 C 217.823761 136.524375 218.048986 136.6425 218.274212 136.760625 C 218.274212 136.87875 218.195383 137.033437 218.274212 137.117812 C 218.310811 137.154375 219.878941 137.086875 219.963401 137.117812 C 220.26464 137.221875 220.35473 137.6775 220.639077 137.829375 C 220.957207 137.995312 221.306306 138.09375 221.65259 138.18375 C 221.939752 138.259687 223.003941 138.18375 223.338964 138.18375 C 223.451577 138.18375 223.578266 138.130313 223.676802 138.18375 C 223.820383 138.259687 223.873874 138.465 224.01464 138.540937 C 224.28491 138.681562 224.757883 138.3975 225.028153 138.540937 C 225.171734 138.614062 225.213964 138.841875 225.365991 138.895312 C 225.579955 138.97125 225.816441 138.895312 226.041667 138.895312 L 227.05518 138.895312 C 227.167793 138.895312 227.342342 138.788437 227.393018 138.895312 C 227.491554 139.10625 227.393018 139.370625 227.393018 139.606875 C 227.393018 139.725 227.311374 139.879687 227.393018 139.96125 C 227.471847 140.045625 227.629505 139.910625 227.730856 139.96125 C 227.871622 140.037187 227.916667 140.265 228.068694 140.318437 C 228.220721 140.371875 229.268018 140.239688 229.41723 140.318437 C 229.560811 140.394375 229.614302 140.599687 229.755068 140.672812 C 230.025338 140.81625 230.498311 140.532187 230.768581 140.672812 C 230.912162 140.74875 230.962838 140.954062 231.106419 141.03 C 231.210586 141.083438 231.967905 141.03 232.119932 141.03 " transform="matrix(1.3875,0,0,1.388889,0,0)"/>
<path style="fill:none;stroke-width:0.44997;stroke-linecap:butt;stroke-linejoin:miter;stroke:rgb(55.686275%,55.686275%,55.686275%);stroke-opacity:1;stroke-miterlimit:4;" d="M 227.939189 131.270625 C 228.578266 131.518125 229.20045 131.824687 229.850788 132.013125 C 230.056306 132.075 230.278716 131.965312 230.48705 132.013125 C 230.816441 132.091875 231.123311 132.263438 231.444257 132.387187 C 231.762387 132.510937 232.086149 132.612188 232.398649 132.758437 C 232.618243 132.8625 232.804054 133.062187 233.03491 133.129687 C 233.240428 133.191563 233.465653 133.081875 233.671171 133.129687 C 236.5625 133.804688 232.010135 133.259062 236.219032 133.875 C 237.652027 134.083125 236.782095 133.630313 238.448761 133.875 C 238.885135 133.936875 239.290541 134.173125 239.724099 134.24625 C 240.039414 134.299688 240.36036 134.24625 240.678491 134.24625 L 246.092342 134.24625 C 246.410473 134.24625 246.73705 134.173125 247.04955 134.24625 C 247.280405 134.299688 247.454955 134.55 247.685811 134.6175 C 247.891329 134.679375 248.110923 134.6175 248.322072 134.6175 L 259.786036 134.6175 " transform="matrix(1.3875,0,0,1.388889,0,0)"/>
<path style="fill:none;stroke-width:0.4;stroke-linecap:butt;stroke-linejoin:miter;stroke:rgb(55.686275%,55.686275%,55.686275%);stroke-opacity:1;stroke-miterlimit:4;" d="M 107.190315 161.929688 L 110.554617 161.929688 C 111.269707 161.929688 111.987613 161.994375 112.697072 161.929688 C 117.556306 161.488125 110.976914 161.800312 114.839527 161.319375 C 115.346284 161.254687 115.858671 161.319375 116.371059 161.319375 C 116.776464 161.319375 117.195946 161.406563 117.592905 161.319375 C 118.130631 161.198437 118.597973 160.86375 119.124437 160.70625 C 119.622748 160.557187 120.152027 160.5375 120.653153 160.399687 C 121.275338 160.230937 121.858108 159.915937 122.488739 159.789375 C 126.061374 159.075 120.686937 160.939687 125.548986 159.482812 C 125.98536 159.350625 126.328829 158.968125 126.773649 158.869687 C 127.271959 158.76 127.792793 158.869687 128.302365 158.869687 L 130.140766 158.869687 C 130.548986 158.869687 130.960023 158.920312 131.362613 158.869687 C 131.782095 158.819063 132.170608 158.616562 132.587275 158.563125 C 132.99268 158.5125 133.412162 158.653125 133.811937 158.563125 C 134.346847 158.445 134.802928 158.059687 135.340653 157.952812 C 135.841779 157.851562 136.365428 158.009062 136.872185 157.952812 C 137.288851 157.905 137.677365 157.696875 138.096847 157.64625 C 138.499437 157.595625 138.916104 157.71375 139.318694 157.64625 C 140.768581 158.540625 141.345721 156.985312 142.378941 156.729375 C 142.578829 156.67875 142.787162 156.729375 142.99268 156.729375 L 144.214527 156.729375 C 144.420045 156.729375 144.636824 156.805312 144.828266 156.729375 C 145.168919 156.591562 145.405405 156.254063 145.746059 156.11625 C 146.123311 155.964375 146.573761 156.214687 146.970721 156.11625 C 147.190315 156.06 147.378941 155.910937 147.581644 155.809687 C 147.989865 155.607187 148.398086 155.401875 148.806306 155.199375 C 149.009009 155.095313 149.19482 154.937813 149.41723 154.892812 C 149.822635 154.81125 151.576577 155.008125 151.866554 154.892812 C 152.134009 154.785937 152.218468 154.409063 152.477477 154.279687 C 152.660473 154.189687 152.885698 154.279687 153.088401 154.279687 C 153.39527 154.279687 153.70777 154.341562 154.006194 154.279687 C 154.231419 154.234688 154.397523 154.029375 154.619932 153.973125 C 155.115428 153.849375 155.647523 154.0575 156.148649 153.973125 C 157.471847 153.75375 156.998874 153.30375 157.984234 153.05625 C 158.184122 153.005625 158.414977 153.14625 158.597973 153.05625 C 158.854167 152.926875 158.949887 152.5725 159.208896 152.443125 C 159.391892 152.353125 159.617117 152.443125 159.822635 152.443125 L 160.740428 152.443125 C 163.001126 152.443125 159.580518 152.535937 161.962275 152.139375 C 162.364865 152.071875 162.801239 152.265938 163.186937 152.139375 C 163.460023 152.046562 163.530405 151.633125 163.800676 151.52625 C 164.082207 151.41375 164.414414 151.56 164.718468 151.52625 C 165.335023 151.45875 165.940315 151.306875 166.554054 151.219687 C 166.655405 151.205625 166.759572 151.245 166.858108 151.219687 C 167.173423 151.140938 167.488739 151.059375 167.775901 150.913125 C 168.992117 150.305625 166.42455 150.8175 169.000563 150.302812 C 169.341216 150.235312 170.275901 150.404062 170.532095 150.302812 C 170.79955 150.195937 170.903716 149.85 171.143018 149.689687 C 171.227477 149.633437 171.348536 149.689687 171.449887 149.689687 C 171.858108 149.689687 172.269144 149.74875 172.67455 149.689687 C 172.99268 149.644688 173.274212 149.447812 173.592342 149.383125 C 173.79223 149.34375 174.000563 149.383125 174.203266 149.383125 C 174.712838 149.180625 175.211149 148.947187 175.731982 148.772812 C 175.830518 148.739062 175.9375 148.772812 176.038851 148.772812 C 176.548423 148.772812 177.069257 148.87125 177.570383 148.772812 C 177.792793 148.727812 177.958896 148.5225 178.181306 148.46625 C 178.378378 148.415625 178.61205 148.55625 178.79223 148.46625 C 179.051239 148.336875 179.163851 148.013437 179.405968 147.853125 C 179.574887 147.740625 179.842342 147.96 180.016892 147.853125 C 180.453266 147.591562 180.841779 147.254063 181.241554 146.93625 C 181.354167 146.84625 181.404842 146.657813 181.548423 146.629687 C 181.948198 146.550938 182.36205 146.629687 182.77027 146.629687 C 183.07714 146.629687 183.398086 146.728125 183.688063 146.629687 C 184.037162 146.514375 184.313063 146.23875 184.605856 146.019375 C 184.721284 145.932187 184.771959 145.746562 184.912725 145.712812 C 185.211149 145.636875 185.523649 145.712812 185.830518 145.712812 C 185.931869 145.712812 186.041667 145.749375 186.137387 145.712812 C 186.559685 145.544062 186.936937 145.268438 187.36205 145.099687 C 187.454955 145.063125 187.564752 145.099687 187.666104 145.099687 C 187.871622 145.099687 188.079955 145.139062 188.279842 145.099687 C 188.595158 145.037813 188.879505 144.846563 189.197635 144.793125 C 189.498874 144.745312 189.808559 144.793125 190.115428 144.793125 C 190.318131 144.793125 190.537725 144.869062 190.726351 144.793125 C 191.067005 144.658125 191.303491 144.317813 191.644144 144.182812 C 192.024212 144.030937 192.471847 144.28125 192.868806 144.182812 C 193.091216 144.126563 193.25732 143.92125 193.47973 143.87625 C 193.673986 143.836875 195.087275 143.952188 195.318131 143.87625 C 195.453266 143.83125 195.503941 143.65125 195.622185 143.569687 C 195.813626 143.443125 196.019144 143.33625 196.235923 143.263125 C 196.331644 143.232187 196.444257 143.296875 196.539977 143.263125 C 196.756757 143.192813 196.931306 143.012812 197.153716 142.959375 C 197.350788 142.90875 197.576014 143.035313 197.76464 142.959375 C 198.105293 142.821562 198.341779 142.484062 198.682432 142.34625 C 198.871059 142.270312 199.090653 142.34625 199.296171 142.34625 C 199.600225 142.34625 199.912725 142.405313 200.213964 142.34625 C 200.436374 142.30125 200.619369 142.14375 200.824887 142.039687 C 201.233108 142.039687 201.644144 142.09875 202.04955 142.039687 C 202.899775 142.635937 202.829392 141.539062 203.271396 141.429375 C 203.56982 141.353437 203.890766 141.488438 204.192005 141.429375 C 204.414414 141.384375 204.580518 141.179062 204.802928 141.122812 C 205 141.072187 205.211149 141.122812 205.413851 141.122812 C 205.923423 141.122812 206.441441 141.207188 206.945383 141.122812 C 207.804054 141.764062 207.72241 140.599687 208.170045 140.509687 C 208.56982 140.430937 208.989302 140.56875 209.391892 140.509687 C 209.712838 140.464687 209.994369 140.267812 210.309685 140.203125 C 210.509572 140.16375 210.717905 140.203125 210.923423 140.203125 L 212.14527 140.203125 C 212.350788 140.203125 212.564752 140.267812 212.759009 140.203125 C 215.385698 139.328438 212.761824 139.820625 214.901464 139.28625 C 215.320946 139.182187 216.38795 139.401562 216.73705 139.28625 C 217.170608 139.142812 217.528153 138.819375 217.961712 138.675938 C 218.153153 138.61125 218.372748 138.706875 218.572635 138.675938 C 220.706644 138.31875 219.031532 138.369375 220.408221 138.369375 L 221.326014 138.369375 C 221.427365 138.369375 221.548423 138.425625 221.632883 138.369375 C 221.872185 138.209062 221.987613 137.885625 222.243806 137.75625 C 222.426802 137.66625 222.652027 137.75625 222.857545 137.75625 C 223.161599 137.75625 223.476914 137.832188 223.775338 137.75625 C 223.913288 137.7225 223.941441 137.48625 224.079392 137.449687 C 224.377815 137.376563 224.693131 137.449687 224.997185 137.449687 L 225.917793 137.449687 C 226.120495 137.449687 226.345721 137.5425 226.528716 137.449687 C 226.787725 137.320312 226.866554 136.929375 227.13964 136.839375 C 227.528153 136.71 227.961712 136.895625 228.364302 136.839375 C 228.682432 136.794375 228.966779 136.594687 229.282095 136.532813 C 229.481982 136.493437 229.690315 136.532813 229.893018 136.532813 C 230.199887 136.532813 230.512387 136.591875 230.813626 136.532813 C 231.365428 136.718437 231.38232 136.037813 231.731419 135.919688 C 231.92286 135.855 232.142455 135.961875 232.342342 135.919688 C 232.657658 135.857812 232.94482 135.677812 233.260135 135.615938 C 233.814752 135.503437 234.926802 135.773438 235.40259 135.615938 C 235.751689 135.497813 235.971284 135.118125 236.320383 135.002813 C 238.060248 135.002813 236.523086 135.140625 237.849099 134.69625 C 238.175676 134.586562 238.800676 134.879063 239.073761 134.69625 C 239.265203 134.569687 239.220158 134.24625 239.380631 134.085938 C 239.524212 133.939687 239.808559 134.175938 239.991554 134.085938 C 240.121059 134.02125 240.168919 133.844063 240.298423 133.779375 C 240.388514 133.734375 240.501126 133.779375 240.605293 133.779375 C 240.655968 133.779375 242.685811 133.810313 242.744932 133.779375 C 243.003941 133.65 243.099662 133.295625 243.358671 133.16625 C 243.541667 133.07625 243.769707 133.205625 243.969595 133.16625 C 244.287725 133.104375 244.572072 132.924375 244.887387 132.859688 C 245.087275 132.820312 245.295608 132.859688 245.501126 132.859688 L 246.722973 132.859688 C 246.928491 132.859688 247.167793 132.975 247.336712 132.859688 C 247.525338 132.733125 247.45214 132.375937 247.643581 132.249375 C 247.8125 132.136875 248.048986 132.249375 248.254505 132.249375 L 248.865428 132.249375 C 250.259009 132.249375 248.88232 132.392812 249.783221 131.942813 C 249.977477 131.847187 251.120495 132.038437 251.314752 131.942813 C 251.570946 131.813437 251.669482 131.459062 251.925676 131.329688 C 252.018581 131.284687 252.131194 131.329688 252.232545 131.329688 L 252.843468 131.329688 C 252.94482 131.329688 253.060248 131.3775 253.150338 131.329688 C 253.279842 131.265 253.327703 131.090625 253.457207 131.025937 C 253.547297 130.978125 253.65991 131.025937 253.761261 131.025937 C 253.899212 131.025937 255.515203 131.065313 255.596847 131.025937 C 256.872185 130.3875 255.27027 131.045625 255.903716 130.412813 C 256.311937 130.005 256.210586 130.921875 256.210586 130.10625 " transform="matrix(1.3875,0,0,1.388889,0,0)"/>
<path style="fill:none;stroke-width:1.5;stroke-linecap:butt;stroke-linejoin:miter;stroke:rgb(100%,100%,100%);stroke-opacity:1;stroke-miterlimit:4;" d="M 401.869369 175.86 L 481.168356 156.602812 C 401.900338 175.899375 481.114865 156.684375 401.869369 175.86 Z M 401.869369 175.86 " transform="matrix(1.3875,0,0,1.388889,0,0)"/>
</g>
</svg>
