<svg xmlns="http://www.w3.org/2000/svg" width="31.235" height="33.454" viewBox="0 0 31.235 33.454">
  <g id="アートワーク_35" data-name="アートワーク 35" transform="translate(13.902 14.89)">
    <path id="Path_38400" data-name="Path 38400" d="M.887,2.174H6.122V.932a.91.91,0,1,1,1.819,0V2.174H23.294V.932A.91.91,0,0,1,24.225,0a.9.9,0,0,1,.887.932V2.174h5.236a.9.9,0,0,1,.887.932V32.522a.9.9,0,0,1-.887.932H.887A.9.9,0,0,1,0,32.522V3.106a.9.9,0,0,1,.887-.932ZM11.669,19.167a1.95,1.95,0,0,0,1.2-.4,1.555,1.555,0,0,0,.089-2.175,1.472,1.472,0,0,0-1.065-.443,1.762,1.762,0,0,0-.754.133,1.387,1.387,0,0,0-.488.355,1.524,1.524,0,0,0-.311.532c-.133.223-.222.444-.31.622a.4.4,0,0,1-.266.266,1.3,1.3,0,0,1-.444.089.937.937,0,0,1-.577-.222,1.092,1.092,0,0,1-.222-.666,1.6,1.6,0,0,1,.222-.842,2.985,2.985,0,0,1,.71-.8,3.884,3.884,0,0,1,1.11-.665,5.68,5.68,0,0,1,1.552-.223,4.216,4.216,0,0,1,1.331.178,4.109,4.109,0,0,1,1.065.577,4.228,4.228,0,0,1,.666.887,3.058,3.058,0,0,1,.222,1.065,2.583,2.583,0,0,1-.355,1.331,3.975,3.975,0,0,1-.931,1.02,6.049,6.049,0,0,1,1.02.755,2.758,2.758,0,0,1,.577.887,2.842,2.842,0,0,1,.222,1.065,3.553,3.553,0,0,1-.266,1.33,4.276,4.276,0,0,1-.843,1.154,4.98,4.98,0,0,1-1.242.8,4.9,4.9,0,0,1-1.642.266,3.876,3.876,0,0,1-1.642-.31A3.247,3.247,0,0,1,9.14,24.89a3.392,3.392,0,0,1-.71-.976,2.149,2.149,0,0,1-.266-.887,1.05,1.05,0,0,1,.31-.71.937.937,0,0,1,.711-.266.724.724,0,0,1,.4.133.594.594,0,0,1,.266.311,4.958,4.958,0,0,0,.843,1.552,1.463,1.463,0,0,0,1.243.488,1.8,1.8,0,0,0,.931-.222,1.687,1.687,0,0,0,.711-.666,2.112,2.112,0,0,0,.266-1.064,1.747,1.747,0,0,0-.488-1.375,1.648,1.648,0,0,0-1.33-.488h-.488a1.542,1.542,0,0,1-.4.044.881.881,0,0,1-.622-.222.634.634,0,0,1-.222-.577.715.715,0,0,1,.266-.577,1.319,1.319,0,0,1,.8-.222ZM20.986,24.8V17.925a6,6,0,0,1-2.573,1.508.784.784,0,0,1-.577-.266.735.735,0,0,1-.222-.577.633.633,0,0,1,.222-.577,8.932,8.932,0,0,1,.842-.488,5.575,5.575,0,0,0,2.44-1.952,4.42,4.42,0,0,1,.577-.71c.045-.089.222-.134.444-.134a.8.8,0,0,1,.665.311,1.193,1.193,0,0,1,.223.842v8.652c0,1.021-.31,1.509-1.021,1.509a.972.972,0,0,1-.754-.31,1.458,1.458,0,0,1-.266-.932ZM22.272,4.7a2.9,2.9,0,0,1,1.021-.666V3.993H7.942v.044a2.9,2.9,0,0,1,1.02.666,2.729,2.729,0,0,1,0,3.86h0a2.75,2.75,0,0,1-1.952.8,2.65,2.65,0,0,1-1.907-.8,2.631,2.631,0,0,1,0-3.86h0a2.284,2.284,0,0,1,1.02-.666V3.993h-4.3V31.635h27.6V3.993h-4.3v.044a2.279,2.279,0,0,1,1.02.666,2.729,2.729,0,0,1,0,3.86h0a2.729,2.729,0,0,1-3.86,0,2.731,2.731,0,0,1,0-3.86Zm1.154,1.464a.853.853,0,0,0-.133.443.909.909,0,0,0,.931.932.876.876,0,0,0,.621-.266h0a.9.9,0,0,0,.266-.666.853.853,0,0,0-.133-.443.859.859,0,0,1-.755.443.877.877,0,0,1-.8-.443Zm-17.215,0a1.588,1.588,0,0,0-.089.443.9.9,0,0,0,.266.666.876.876,0,0,0,.621.266.9.9,0,0,0,.666-.266h0a.9.9,0,0,0,.266-.666.853.853,0,0,0-.133-.443.88.88,0,0,1-.8.443.99.99,0,0,1-.8-.443ZM3.46,9.983H27.774a.89.89,0,0,1,.887.887V29.86a.9.9,0,0,1-.887.931H3.46a.937.937,0,0,1-.931-.931V10.87a.929.929,0,0,1,.931-.887ZM26.843,11.8H4.393V28.973h22.45Z" transform="translate(-13.902 -14.89)" fill="#fff"/>
  </g>
</svg>
