<svg xmlns="http://www.w3.org/2000/svg" width="53.978" height="57.776" viewBox="0 0 53.978 57.776">
  <g id="アートワーク_35" data-name="アートワーク 35" transform="translate(44.497 47.64)">
    <path id="Path_38284" data-name="Path 38284" d="M1.519,3.722h8.963V1.6a1.558,1.558,0,1,1,3.115,0V3.722H39.88V1.6A1.558,1.558,0,0,1,41.475,0a1.542,1.542,0,0,1,1.519,1.6V3.722h8.964a1.543,1.543,0,0,1,1.519,1.6V55.68a1.543,1.543,0,0,1-1.519,1.6H1.519A1.542,1.542,0,0,1,0,55.68V5.318a1.542,1.542,0,0,1,1.519-1.6ZM19.978,32.816a3.339,3.339,0,0,0,2.051-.684,2.663,2.663,0,0,0,.152-3.723,2.52,2.52,0,0,0-1.823-.759,3.017,3.017,0,0,0-1.29.227,2.375,2.375,0,0,0-.836.608,2.61,2.61,0,0,0-.533.911c-.227.381-.379.76-.531,1.065a.681.681,0,0,1-.455.455,2.234,2.234,0,0,1-.76.152,1.6,1.6,0,0,1-.988-.379,1.87,1.87,0,0,1-.379-1.14,2.733,2.733,0,0,1,.379-1.442,5.11,5.11,0,0,1,1.215-1.369,6.65,6.65,0,0,1,1.9-1.138,9.724,9.724,0,0,1,2.657-.381,7.218,7.218,0,0,1,2.28.3,7.035,7.035,0,0,1,1.823.988,7.238,7.238,0,0,1,1.14,1.519,5.235,5.235,0,0,1,.379,1.823,4.422,4.422,0,0,1-.608,2.28,6.806,6.806,0,0,1-1.594,1.746A10.356,10.356,0,0,1,25.9,35.171a4.722,4.722,0,0,1,.988,1.519,4.866,4.866,0,0,1,.379,1.823,6.084,6.084,0,0,1-.455,2.278,7.32,7.32,0,0,1-1.444,1.975,8.526,8.526,0,0,1-2.126,1.367,8.39,8.39,0,0,1-2.811.456,6.636,6.636,0,0,1-2.811-.531,5.56,5.56,0,0,1-1.975-1.444,5.807,5.807,0,0,1-1.215-1.671,3.679,3.679,0,0,1-.456-1.519,1.8,1.8,0,0,1,.531-1.215,1.6,1.6,0,0,1,1.217-.456,1.239,1.239,0,0,1,.684.227,1.018,1.018,0,0,1,.455.533,8.489,8.489,0,0,0,1.444,2.657,2.5,2.5,0,0,0,2.127.836,3.078,3.078,0,0,0,1.594-.379,2.888,2.888,0,0,0,1.217-1.14,3.616,3.616,0,0,0,.455-1.822,2.991,2.991,0,0,0-.836-2.355,2.822,2.822,0,0,0-2.278-.836h-.836a2.641,2.641,0,0,1-.684.075A1.509,1.509,0,0,1,18,35.171a1.085,1.085,0,0,1-.379-.988,1.225,1.225,0,0,1,.456-.988,2.258,2.258,0,0,1,1.367-.379ZM35.93,42.463V30.689c-2.2,1.746-3.647,2.582-4.405,2.582a1.342,1.342,0,0,1-.988-.455,1.258,1.258,0,0,1-.379-.988,1.083,1.083,0,0,1,.379-.988,15.292,15.292,0,0,1,1.442-.836,9.546,9.546,0,0,0,4.178-3.342,7.568,7.568,0,0,1,.988-1.215c.077-.152.379-.229.76-.229a1.362,1.362,0,0,1,1.138.533,2.043,2.043,0,0,1,.381,1.442V42.006c0,1.748-.531,2.584-1.748,2.584a1.665,1.665,0,0,1-1.29-.531,2.5,2.5,0,0,1-.456-1.6Zm2.2-34.411a4.963,4.963,0,0,1,1.748-1.14V6.837H13.6v.075a4.957,4.957,0,0,1,1.746,1.14,4.672,4.672,0,0,1,0,6.608h0A4.708,4.708,0,0,1,12,16.029,4.536,4.536,0,0,1,8.736,14.66a4.505,4.505,0,0,1,0-6.608h0a3.91,3.91,0,0,1,1.746-1.14V6.837H3.115V54.161H50.362V6.837H42.994v.075a3.9,3.9,0,0,1,1.746,1.14,4.672,4.672,0,0,1,0,6.608h0a4.672,4.672,0,0,1-6.608,0,4.676,4.676,0,0,1,0-6.608Zm1.975,2.507a1.461,1.461,0,0,0-.227.759,1.557,1.557,0,0,0,1.594,1.6,1.5,1.5,0,0,0,1.063-.456h0a1.543,1.543,0,0,0,.456-1.14,1.461,1.461,0,0,0-.227-.759,1.471,1.471,0,0,1-1.292.759,1.5,1.5,0,0,1-1.367-.759Zm-29.474,0a2.719,2.719,0,0,0-.152.759,1.543,1.543,0,0,0,.456,1.14A1.5,1.5,0,0,0,12,12.914a1.543,1.543,0,0,0,1.14-.456h0a1.543,1.543,0,0,0,.456-1.14,1.461,1.461,0,0,0-.227-.759A1.506,1.506,0,0,1,12,11.318a1.7,1.7,0,0,1-1.367-.759Zm-4.71,6.533H47.551a1.524,1.524,0,0,1,1.519,1.519V51.123a1.541,1.541,0,0,1-1.519,1.594H5.925A1.6,1.6,0,0,1,4.33,51.123V18.611a1.59,1.59,0,0,1,1.594-1.519Zm40.033,3.114H7.521V49.6H45.957Z" transform="translate(-44.247 -47.39)" fill="#2364bf" stroke="#909090" stroke-width="0.5"/>
  </g>
</svg>
