<svg xmlns="http://www.w3.org/2000/svg" width="36.977" height="33.454" viewBox="0 0 36.977 33.454">
  <g id="アートワーク_40" data-name="アートワーク 40" transform="translate(17.778 16.084)">
    <path id="Path_38402" data-name="Path 38402" d="M36.934,5.873l-4.7,18.707a.888.888,0,0,1-.87.653H13.7L14.1,26.8a3.356,3.356,0,0,1,3.089,2.436l8.613.044a3.341,3.341,0,0,1,6.57.87,3.314,3.314,0,0,1-3.35,3.306,3.275,3.275,0,0,1-3.176-2.393l-8.657-.043a3.34,3.34,0,1,1-4.83-3.784l-1.609-6.657L7.047,5.786C7.047,5.743,7,5.7,7,5.656L6.09,1.784H.87A.873.873,0,0,1,0,.914.883.883,0,0,1,.87,0H6.787a.885.885,0,0,1,.87.74L8.614,4.7h27.45a.91.91,0,0,1,.913.87c0,.13-.043.217-.043.3ZM24.667,23.448l.173-2.871h-5.7l.174,2.871Zm.3-4.7.3-5.22h-6.57l.305,5.22Zm.435-7,.3-5.264H18.271l.3,5.264Zm2.132-5.264-.347,5.264h6.439l1.3-5.264Zm-.479,7.048-.3,5.22h5.09l1.305-5.22Zm-.435,7.047-.174,2.871h4.22l.74-2.871Zm-9.093,2.871-.173-2.871H12.573l.739,2.871Zm-.3-4.7-.3-5.22h-6.09l1.3,5.22Zm-.435-7-.348-5.264h-7.4l.522,2,.784,3.263Z" transform="translate(-17.778 -16.084)" fill="#fff"/>
  </g>
</svg>
