<?xml version="1.0" encoding="UTF-8"?>
<svg xmlns="http://www.w3.org/2000/svg" xmlns:xlink="http://www.w3.org/1999/xlink" width="849px" height="600px" viewBox="0 0 848 600" version="1.1">
<defs>
<filter id="alpha" filterUnits="objectBoundingBox" x="0%" y="0%" width="100%" height="100%">
  <feColorMatrix type="matrix" in="SourceGraphic" values="0 0 0 0 1 0 0 0 0 1 0 0 0 0 1 0 0 0 1 0"/>
</filter>
<mask id="mask0">
  <g filter="url(#alpha)">
<rect x="0" y="0" width="848" height="600" style="fill:rgb(0%,0%,0%);fill-opacity:0.580392;stroke:none;"/>
  </g>
</mask>
<clipPath id="clip1">
  <rect x="0" y="0" width="848" height="600"/>
</clipPath>
<g id="surface6" clip-path="url(#clip1)">
<path style=" stroke:none;fill-rule:nonzero;fill:rgb(0%,55.686275%,0%);fill-opacity:1;" d="M 8.617188 26.617188 L 836.953125 26.617188 L 836.953125 561.433594 L 8.617188 561.433594 Z M 8.617188 26.617188 "/>
</g>
</defs>
<g id="surface1">
<use xlink:href="#surface6" mask="url(#mask0)"/>
<path style="fill:none;stroke-width:4.0623;stroke-linecap:round;stroke-linejoin:round;stroke:rgb(100%,100%,100%);stroke-opacity:1;stroke-miterlimit:4;" d="M 794.59966 452.07103 L 969.431473 452.07103 L 969.431473 888.441467 L 794.59966 888.441467 Z M 794.59966 452.07103 " transform="matrix(0.805462,0,0,0.806045,0.000016396,-248.479609)"/>
<path style="fill:none;stroke-width:3.8602;stroke-linecap:round;stroke-linejoin:round;stroke:rgb(100%,100%,100%);stroke-opacity:1;stroke-miterlimit:4;" d="M 853.98913 516.801606 L 969.227786 516.801606 L 969.227786 823.7012 L 853.98913 823.7012 Z M 853.98913 516.801606 " transform="matrix(0.805462,0,0,0.806045,0.000016396,-248.479609)"/>
<path style="fill:none;stroke-width:1.2758;stroke-linecap:round;stroke-linejoin:round;stroke:rgb(100%,100%,100%);stroke-opacity:1;stroke-miterlimit:4;" d="M 1611.896251 -741.845609 L 1675.839712 -741.850916 L 1675.839712 -543.160052 L 1611.896251 -543.154746 Z M 1611.896251 -741.845609 " transform="matrix(0.437826,0.621708,0,0.78799,47.379684,-236.035075)"/>
<path style="fill:none;stroke-width:2;stroke-linecap:round;stroke-linejoin:round;stroke:rgb(100%,100%,100%);stroke-opacity:1;stroke-miterlimit:4;" d="M 989.970159 727.920018 C 1050.275564 727.176433 1071.369574 747.560576 1102.237653 776.069624 L 1027.767247 776.069624 Z M 989.970159 727.920018 " transform="matrix(0.712584,0,0,0.78799,47.379684,-236.035075)"/>
<path style="fill:none;stroke-width:2;stroke-linecap:round;stroke-linejoin:round;stroke:rgb(100%,100%,100%);stroke-opacity:1;stroke-miterlimit:4;" d="M 989.970159 530.161114 C 1050.275564 529.417529 1071.369574 549.801672 1102.237653 578.305763 L 1027.767247 578.305763 Z M 989.970159 530.161114 " transform="matrix(0.712584,0,0,0.78799,47.379684,-236.035075)"/>
<path style="fill:none;stroke-width:1;stroke-linecap:round;stroke-linejoin:round;stroke:rgb(100%,100%,100%);stroke-opacity:1;stroke-miterlimit:4;" d="M 989.970159 545.79127 C 1050.275564 545.047685 1071.369574 565.431828 1102.237653 593.935919 " transform="matrix(0.712584,0,0,0.78799,47.379684,-236.035075)"/>
<path style="fill:none;stroke-width:1;stroke-linecap:round;stroke-linejoin:round;stroke:rgb(100%,100%,100%);stroke-opacity:1;stroke-miterlimit:4;" d="M 989.970159 562.15014 C 1050.275564 561.406555 1071.369574 581.790698 1102.237653 610.299746 " transform="matrix(0.712584,0,0,0.78799,47.379684,-236.035075)"/>
<path style="fill:none;stroke-width:1;stroke-linecap:round;stroke-linejoin:round;stroke:rgb(100%,100%,100%);stroke-opacity:1;stroke-miterlimit:4;" d="M 989.970159 578.518924 C 1050.275564 577.780296 1071.369574 598.159482 1102.237653 626.66853 " transform="matrix(0.712584,0,0,0.78799,47.379684,-236.035075)"/>
<path style="fill:none;stroke-width:1;stroke-linecap:round;stroke-linejoin:round;stroke:rgb(100%,100%,100%);stroke-opacity:1;stroke-miterlimit:4;" d="M 989.970159 594.887708 C 1050.275564 594.14908 1071.369574 614.533223 1102.237653 643.037314 " transform="matrix(0.712584,0,0,0.78799,47.379684,-236.035075)"/>
<path style="fill:none;stroke-width:1;stroke-linecap:round;stroke-linejoin:round;stroke:rgb(100%,100%,100%);stroke-opacity:1;stroke-miterlimit:4;" d="M 989.970159 611.251535 C 1050.275564 610.50795 1071.369574 630.892093 1102.237653 659.396183 " transform="matrix(0.712584,0,0,0.78799,47.379684,-236.035075)"/>
<path style="fill:none;stroke-width:1;stroke-linecap:round;stroke-linejoin:round;stroke:rgb(100%,100%,100%);stroke-opacity:1;stroke-miterlimit:4;" d="M 989.970159 626.262037 C 1050.275564 625.518452 1071.369574 645.902595 1102.237653 674.406685 " transform="matrix(0.712584,0,0,0.78799,47.379684,-236.035075)"/>
<path style="fill:none;stroke-width:1;stroke-linecap:round;stroke-linejoin:round;stroke:rgb(100%,100%,100%);stroke-opacity:1;stroke-miterlimit:4;" d="M 989.970159 643.989103 C 1050.275564 643.250475 1071.369574 663.62966 1102.237653 692.138709 " transform="matrix(0.712584,0,0,0.78799,47.379684,-236.035075)"/>
<path style="fill:none;stroke-width:1;stroke-linecap:round;stroke-linejoin:round;stroke:rgb(100%,100%,100%);stroke-opacity:1;stroke-miterlimit:4;" d="M 989.970159 660.347972 C 1050.275564 659.609344 1071.369574 679.98853 1102.237653 708.497578 " transform="matrix(0.712584,0,0,0.78799,47.379684,-236.035075)"/>
<path style="fill:none;stroke-width:1;stroke-linecap:round;stroke-linejoin:round;stroke:rgb(100%,100%,100%);stroke-opacity:1;stroke-miterlimit:4;" d="M 989.970159 676.721713 C 1050.275564 675.978128 1071.369574 696.362271 1102.237653 724.866362 " transform="matrix(0.712584,0,0,0.78799,47.379684,-236.035075)"/>
<path style="fill:none;stroke-width:1;stroke-linecap:round;stroke-linejoin:round;stroke:rgb(100%,100%,100%);stroke-opacity:1;stroke-miterlimit:4;" d="M 989.970159 693.090497 C 1050.275564 692.346912 1071.369574 712.731055 1102.237653 741.240103 " transform="matrix(0.712584,0,0,0.78799,47.379684,-236.035075)"/>
<path style="fill:none;stroke-width:1;stroke-linecap:round;stroke-linejoin:round;stroke:rgb(100%,100%,100%);stroke-opacity:1;stroke-miterlimit:4;" d="M 989.970159 709.449367 C 1050.275564 708.705782 1071.369574 729.089925 1102.237653 757.598973 " transform="matrix(0.712584,0,0,0.78799,47.379684,-236.035075)"/>
<path style="fill:none;stroke-width:1;stroke-linecap:butt;stroke-linejoin:miter;stroke:rgb(100%,100%,100%);stroke-opacity:1;stroke-miterlimit:4;" d="M 1088.100061 564.960891 L 1090.720367 765.010036 " transform="matrix(0.712584,0,0,0.78799,47.379684,-236.035075)"/>
<path style="fill:none;stroke-width:1;stroke-linecap:butt;stroke-linejoin:miter;stroke:rgb(100%,100%,100%);stroke-opacity:1;stroke-miterlimit:4;" d="M 1072.498827 554.050021 L 1075.124614 752.64174 " transform="matrix(0.712584,0,0,0.78799,47.379684,-236.035075)"/>
<path style="fill:none;stroke-width:1;stroke-linecap:butt;stroke-linejoin:miter;stroke:rgb(100%,100%,100%);stroke-opacity:1;stroke-miterlimit:4;" d="M 1055.598403 543.129236 L 1058.22419 741.720955 " transform="matrix(0.712584,0,0,0.78799,47.379684,-236.035075)"/>
<path style="fill:none;stroke-width:1;stroke-linecap:butt;stroke-linejoin:miter;stroke:rgb(100%,100%,100%);stroke-opacity:1;stroke-miterlimit:4;" d="M 1037.39879 536.317998 L 1040.024577 734.909716 " transform="matrix(0.712584,0,0,0.78799,47.379684,-236.035075)"/>
<path style="fill:none;stroke-width:1;stroke-linecap:butt;stroke-linejoin:miter;stroke:rgb(100%,100%,100%);stroke-opacity:1;stroke-miterlimit:4;" d="M 1017.99866 530.860084 L 1020.624447 729.451803 " transform="matrix(0.712584,0,0,0.78799,47.379684,-236.035075)"/>
<path style="fill:none;stroke-width:1;stroke-linecap:butt;stroke-linejoin:miter;stroke:rgb(100%,100%,100%);stroke-opacity:1;stroke-miterlimit:4;" d="M 999.81001 530.860084 L 1002.435798 729.451803 " transform="matrix(0.712584,0,0,0.78799,47.379684,-236.035075)"/>
<path style="fill:none;stroke-width:1;stroke-linecap:butt;stroke-linejoin:miter;stroke:rgb(100%,100%,100%);stroke-opacity:1;stroke-miterlimit:4;" d="M 1003.099097 727.09216 L 1039.838196 775.816805 " transform="matrix(0.712584,0,0,0.78799,47.379684,-236.035075)"/>
<path style="fill:none;stroke-width:1;stroke-linecap:butt;stroke-linejoin:miter;stroke:rgb(100%,100%,100%);stroke-opacity:1;stroke-miterlimit:4;" d="M 1018.601659 728.460356 L 1055.340758 777.185001 " transform="matrix(0.712584,0,0,0.78799,47.379684,-236.035075)"/>
<path style="fill:none;stroke-width:1;stroke-linecap:butt;stroke-linejoin:miter;stroke:rgb(100%,100%,100%);stroke-opacity:1;stroke-miterlimit:4;" d="M 1038.100461 732.510416 L 1070.525375 777.626195 " transform="matrix(0.712584,0,0,0.78799,47.379684,-236.035075)"/>
<path style="fill:none;stroke-width:1;stroke-linecap:butt;stroke-linejoin:miter;stroke:rgb(100%,100%,100%);stroke-opacity:1;stroke-miterlimit:4;" d="M 1056.201402 740.640278 L 1083.484376 776.674406 " transform="matrix(0.712584,0,0,0.78799,47.379684,-236.035075)"/>
<path style="fill:none;stroke-width:1;stroke-linecap:butt;stroke-linejoin:miter;stroke:rgb(100%,100%,100%);stroke-opacity:1;stroke-miterlimit:4;" d="M 1073.101826 750.039192 L 1095.884233 777.170129 " transform="matrix(0.712584,0,0,0.78799,47.379684,-236.035075)"/>
<path style="fill:none;stroke-width:1;stroke-linecap:round;stroke-linejoin:round;stroke:rgb(100%,100%,100%);stroke-opacity:1;stroke-miterlimit:4;" d="M 999.557847 740.471732 C 1054.726795 739.911565 1074.017288 755.259159 1102.25958 776.723978 " transform="matrix(0.712584,0,0,0.78799,47.379684,-236.035075)"/>
<path style="fill:none;stroke-width:1;stroke-linecap:round;stroke-linejoin:round;stroke:rgb(100%,100%,100%);stroke-opacity:1;stroke-miterlimit:4;" d="M 1010.000697 755.140185 C 1059.561752 754.80805 1076.895239 763.959103 1102.270543 776.758679 " transform="matrix(0.712584,0,0,0.78799,47.379684,-236.035075)"/>
<path style="fill:none;stroke-width:1;stroke-linecap:round;stroke-linejoin:round;stroke:rgb(100%,100%,100%);stroke-opacity:1;stroke-miterlimit:4;" d="M 1020.498366 768.881635 C 1064.467973 768.757705 1079.844454 772.108794 1102.347289 776.79338 " transform="matrix(0.712584,0,0,0.78799,47.379684,-236.035075)"/>
<path style="fill:none;stroke-width:1;stroke-linecap:butt;stroke-linejoin:miter;stroke:rgb(100%,100%,100%);stroke-opacity:1;stroke-miterlimit:4;" d="M 1100.998763 577.740638 L 1102.237653 777.318846 " transform="matrix(0.712584,0,0,0.78799,47.379684,-236.035075)"/>
<path style="fill-rule:nonzero;fill:rgb(100%,100%,100%);fill-opacity:1;stroke-width:0.1409;stroke-linecap:round;stroke-linejoin:round;stroke:rgb(0%,0%,0%);stroke-opacity:1;stroke-miterlimit:4;" d="M -527.429491 388.678004 L -522.376099 388.678004 L -522.376099 951.819955 L -527.429491 951.819955 Z M -527.429491 388.678004 " transform="matrix(-0.805462,0,0,0.806045,0.000016396,-248.479609)"/>
<path style="fill:none;stroke-width:4.0464;stroke-linecap:round;stroke-linejoin:round;stroke:rgb(100%,100%,100%);stroke-opacity:1;stroke-miterlimit:4;" d="M 793.479378 776.920916 C 779.609226 776.920916 751.621587 725.95837 751.621587 665.831676 C 751.621587 605.704983 779.609226 559.181547 793.479378 559.181547 " transform="matrix(0.805462,0,0,0.806045,0.000016396,-248.479609)"/>
<path style="fill:none;stroke-width:4.041;stroke-linecap:round;stroke-linejoin:round;stroke:rgb(100%,100%,100%);stroke-opacity:1;stroke-miterlimit:4;" d="M -253.90136 452.061338 L -80.907584 452.061338 L -80.907584 888.45116 L -253.90136 888.45116 Z M -253.90136 452.061338 " transform="matrix(-0.805462,0,0,0.806045,0.000016396,-248.479609)"/>
<path style="fill:none;stroke-width:3.8296;stroke-linecap:round;stroke-linejoin:round;stroke:rgb(100%,100%,100%);stroke-opacity:1;stroke-miterlimit:4;" d="M -194.51189 516.791913 L -81.101572 516.791913 L -81.101572 823.720584 L -194.51189 823.720584 Z M -194.51189 516.791913 " transform="matrix(-0.805462,0,0,0.806045,0.000016396,-248.479609)"/>
<path style="fill:none;stroke-width:1.2758;stroke-linecap:round;stroke-linejoin:round;stroke:rgb(100%,100%,100%);stroke-opacity:1;stroke-miterlimit:4;" d="M 1611.898788 -741.847611 L 1675.842249 -741.852917 L 1675.842249 -543.162054 L 1611.898788 -543.156747 Z M 1611.898788 -741.847611 " transform="matrix(-0.437826,0.621708,0,0.78799,797.133145,-236.035075)"/>
<path style="fill:none;stroke-width:2;stroke-linecap:round;stroke-linejoin:round;stroke:rgb(100%,100%,100%);stroke-opacity:1;stroke-miterlimit:4;" d="M 989.971718 727.920018 C 1050.277123 727.176433 1071.371132 747.560576 1102.239211 776.069624 L 1027.768806 776.069624 Z M 989.971718 727.920018 " transform="matrix(-0.712584,0,0,0.78799,797.133145,-236.035075)"/>
<path style="fill:none;stroke-width:2;stroke-linecap:round;stroke-linejoin:round;stroke:rgb(100%,100%,100%);stroke-opacity:1;stroke-miterlimit:4;" d="M 989.971718 530.161114 C 1050.277123 529.417529 1071.371132 549.801672 1102.239211 578.305763 L 1027.768806 578.305763 Z M 989.971718 530.161114 " transform="matrix(-0.712584,0,0,0.78799,797.133145,-236.035075)"/>
<path style="fill:none;stroke-width:1;stroke-linecap:round;stroke-linejoin:round;stroke:rgb(100%,100%,100%);stroke-opacity:1;stroke-miterlimit:4;" d="M 989.971718 545.79127 C 1050.277123 545.047685 1071.371132 565.431828 1102.239211 593.935919 " transform="matrix(-0.712584,0,0,0.78799,797.133145,-236.035075)"/>
<path style="fill:none;stroke-width:1;stroke-linecap:round;stroke-linejoin:round;stroke:rgb(100%,100%,100%);stroke-opacity:1;stroke-miterlimit:4;" d="M 989.971718 562.15014 C 1050.277123 561.406555 1071.371132 581.790698 1102.239211 610.299746 " transform="matrix(-0.712584,0,0,0.78799,797.133145,-236.035075)"/>
<path style="fill:none;stroke-width:1;stroke-linecap:round;stroke-linejoin:round;stroke:rgb(100%,100%,100%);stroke-opacity:1;stroke-miterlimit:4;" d="M 989.971718 578.518924 C 1050.277123 577.780296 1071.371132 598.159482 1102.239211 626.66853 " transform="matrix(-0.712584,0,0,0.78799,797.133145,-236.035075)"/>
<path style="fill:none;stroke-width:1;stroke-linecap:round;stroke-linejoin:round;stroke:rgb(100%,100%,100%);stroke-opacity:1;stroke-miterlimit:4;" d="M 989.971718 594.887708 C 1050.277123 594.14908 1071.371132 614.533223 1102.239211 643.037314 " transform="matrix(-0.712584,0,0,0.78799,797.133145,-236.035075)"/>
<path style="fill:none;stroke-width:1;stroke-linecap:round;stroke-linejoin:round;stroke:rgb(100%,100%,100%);stroke-opacity:1;stroke-miterlimit:4;" d="M 989.971718 611.251535 C 1050.277123 610.50795 1071.371132 630.892093 1102.239211 659.396183 " transform="matrix(-0.712584,0,0,0.78799,797.133145,-236.035075)"/>
<path style="fill:none;stroke-width:1;stroke-linecap:round;stroke-linejoin:round;stroke:rgb(100%,100%,100%);stroke-opacity:1;stroke-miterlimit:4;" d="M 989.971718 626.262037 C 1050.277123 625.518452 1071.371132 645.902595 1102.239211 674.406685 " transform="matrix(-0.712584,0,0,0.78799,797.133145,-236.035075)"/>
<path style="fill:none;stroke-width:1;stroke-linecap:round;stroke-linejoin:round;stroke:rgb(100%,100%,100%);stroke-opacity:1;stroke-miterlimit:4;" d="M 989.971718 643.989103 C 1050.277123 643.250475 1071.371132 663.62966 1102.239211 692.138709 " transform="matrix(-0.712584,0,0,0.78799,797.133145,-236.035075)"/>
<path style="fill:none;stroke-width:1;stroke-linecap:round;stroke-linejoin:round;stroke:rgb(100%,100%,100%);stroke-opacity:1;stroke-miterlimit:4;" d="M 989.971718 660.347972 C 1050.277123 659.609344 1071.371132 679.98853 1102.239211 708.497578 " transform="matrix(-0.712584,0,0,0.78799,797.133145,-236.035075)"/>
<path style="fill:none;stroke-width:1;stroke-linecap:round;stroke-linejoin:round;stroke:rgb(100%,100%,100%);stroke-opacity:1;stroke-miterlimit:4;" d="M 989.971718 676.721713 C 1050.277123 675.978128 1071.371132 696.362271 1102.239211 724.866362 " transform="matrix(-0.712584,0,0,0.78799,797.133145,-236.035075)"/>
<path style="fill:none;stroke-width:1;stroke-linecap:round;stroke-linejoin:round;stroke:rgb(100%,100%,100%);stroke-opacity:1;stroke-miterlimit:4;" d="M 989.971718 693.090497 C 1050.277123 692.346912 1071.371132 712.731055 1102.239211 741.240103 " transform="matrix(-0.712584,0,0,0.78799,797.133145,-236.035075)"/>
<path style="fill:none;stroke-width:1;stroke-linecap:round;stroke-linejoin:round;stroke:rgb(100%,100%,100%);stroke-opacity:1;stroke-miterlimit:4;" d="M 989.971718 709.449367 C 1050.277123 708.705782 1071.371132 729.089925 1102.239211 757.598973 " transform="matrix(-0.712584,0,0,0.78799,797.133145,-236.035075)"/>
<path style="fill:none;stroke-width:1;stroke-linecap:butt;stroke-linejoin:miter;stroke:rgb(100%,100%,100%);stroke-opacity:1;stroke-miterlimit:4;" d="M 1088.10162 564.960891 L 1090.721926 765.010036 " transform="matrix(-0.712584,0,0,0.78799,797.133145,-236.035075)"/>
<path style="fill:none;stroke-width:1;stroke-linecap:butt;stroke-linejoin:miter;stroke:rgb(100%,100%,100%);stroke-opacity:1;stroke-miterlimit:4;" d="M 1072.500386 554.050021 L 1075.126173 752.64174 " transform="matrix(-0.712584,0,0,0.78799,797.133145,-236.035075)"/>
<path style="fill:none;stroke-width:1;stroke-linecap:butt;stroke-linejoin:miter;stroke:rgb(100%,100%,100%);stroke-opacity:1;stroke-miterlimit:4;" d="M 1055.599962 543.129236 L 1058.225749 741.720955 " transform="matrix(-0.712584,0,0,0.78799,797.133145,-236.035075)"/>
<path style="fill:none;stroke-width:1;stroke-linecap:butt;stroke-linejoin:miter;stroke:rgb(100%,100%,100%);stroke-opacity:1;stroke-miterlimit:4;" d="M 1037.400348 536.317998 L 1040.026136 734.909716 " transform="matrix(-0.712584,0,0,0.78799,797.133145,-236.035075)"/>
<path style="fill:none;stroke-width:1;stroke-linecap:butt;stroke-linejoin:miter;stroke:rgb(100%,100%,100%);stroke-opacity:1;stroke-miterlimit:4;" d="M 1018.000218 530.860084 L 1020.626006 729.451803 " transform="matrix(-0.712584,0,0,0.78799,797.133145,-236.035075)"/>
<path style="fill:none;stroke-width:1;stroke-linecap:butt;stroke-linejoin:miter;stroke:rgb(100%,100%,100%);stroke-opacity:1;stroke-miterlimit:4;" d="M 999.811569 530.860084 L 1002.431875 729.451803 " transform="matrix(-0.712584,0,0,0.78799,797.133145,-236.035075)"/>
<path style="fill:none;stroke-width:1;stroke-linecap:butt;stroke-linejoin:miter;stroke:rgb(100%,100%,100%);stroke-opacity:1;stroke-miterlimit:4;" d="M 1003.100656 727.09216 L 1039.839754 775.816805 " transform="matrix(-0.712584,0,0,0.78799,797.133145,-236.035075)"/>
<path style="fill:none;stroke-width:1;stroke-linecap:butt;stroke-linejoin:miter;stroke:rgb(100%,100%,100%);stroke-opacity:1;stroke-miterlimit:4;" d="M 1018.597736 728.460356 L 1055.336835 777.185001 " transform="matrix(-0.712584,0,0,0.78799,797.133145,-236.035075)"/>
<path style="fill:none;stroke-width:1;stroke-linecap:butt;stroke-linejoin:miter;stroke:rgb(100%,100%,100%);stroke-opacity:1;stroke-miterlimit:4;" d="M 1038.10202 732.510416 L 1070.526933 777.626195 " transform="matrix(-0.712584,0,0,0.78799,797.133145,-236.035075)"/>
<path style="fill:none;stroke-width:1;stroke-linecap:butt;stroke-linejoin:miter;stroke:rgb(100%,100%,100%);stroke-opacity:1;stroke-miterlimit:4;" d="M 1056.197479 740.640278 L 1083.485935 776.674406 " transform="matrix(-0.712584,0,0,0.78799,797.133145,-236.035075)"/>
<path style="fill:none;stroke-width:1;stroke-linecap:butt;stroke-linejoin:miter;stroke:rgb(100%,100%,100%);stroke-opacity:1;stroke-miterlimit:4;" d="M 1073.097903 750.039192 L 1095.885792 777.170129 " transform="matrix(-0.712584,0,0,0.78799,797.133145,-236.035075)"/>
<path style="fill:none;stroke-width:1;stroke-linecap:round;stroke-linejoin:round;stroke:rgb(100%,100%,100%);stroke-opacity:1;stroke-miterlimit:4;" d="M 999.559406 740.471732 C 1054.728354 739.911565 1074.018847 755.259159 1102.261139 776.723978 " transform="matrix(-0.712584,0,0,0.78799,797.133145,-236.035075)"/>
<path style="fill:none;stroke-width:1;stroke-linecap:round;stroke-linejoin:round;stroke:rgb(100%,100%,100%);stroke-opacity:1;stroke-miterlimit:4;" d="M 1010.002256 755.140185 C 1059.563311 754.80805 1076.896798 763.959103 1102.26662 776.758679 " transform="matrix(-0.712584,0,0,0.78799,797.133145,-236.035075)"/>
<path style="fill:none;stroke-width:1;stroke-linecap:round;stroke-linejoin:round;stroke:rgb(100%,100%,100%);stroke-opacity:1;stroke-miterlimit:4;" d="M 1020.499924 768.881635 C 1064.46405 768.757705 1079.840531 772.108794 1102.348848 776.79338 " transform="matrix(-0.712584,0,0,0.78799,797.133145,-236.035075)"/>
<path style="fill:none;stroke-width:1;stroke-linecap:butt;stroke-linejoin:miter;stroke:rgb(100%,100%,100%);stroke-opacity:1;stroke-miterlimit:4;" d="M 1101.000322 577.740638 L 1102.239211 777.318846 " transform="matrix(-0.712584,0,0,0.78799,797.133145,-236.035075)"/>
<path style="fill:none;stroke-width:4.0464;stroke-linecap:round;stroke-linejoin:round;stroke:rgb(100%,100%,100%);stroke-opacity:1;stroke-miterlimit:4;" d="M 255.002243 776.920916 C 268.872395 776.920916 296.860034 725.95837 296.860034 665.831676 C 296.860034 605.704983 268.872395 559.181547 255.002243 559.181547 " transform="matrix(0.805462,0,0,0.806045,0.000016396,-248.479609)"/>
<path style="fill:none;stroke-width:2;stroke-linecap:round;stroke-linejoin:round;stroke:rgb(100%,100%,100%);stroke-opacity:1;stroke-miterlimit:4;" d="M 1008.601303 78.686419 C 1008.601303 93.429231 996.647388 105.38112 981.907373 105.38112 C 967.167357 105.38112 955.213443 93.429231 955.213443 78.686419 C 955.213443 63.943608 967.167357 51.991719 981.907373 51.991719 C 996.647388 51.991719 1008.601303 63.943608 1008.601303 78.686419 Z M 1008.601303 78.686419 " transform="matrix(0.786549,0,0,0.78799,7.673569,2.152141)"/>
<path style="fill:none;stroke-width:2;stroke-linecap:round;stroke-linejoin:round;stroke:rgb(100%,100%,100%);stroke-opacity:1;stroke-miterlimit:4;" d="M 1008.597699 78.686905 C 1008.597699 93.429716 996.648751 105.376648 981.908735 105.376648 C 967.163753 105.376648 955.214805 93.429716 955.214805 78.686905 C 955.214805 63.944093 967.163753 51.992204 981.908735 51.992204 C 996.648751 51.992204 1008.597699 63.944093 1008.597699 78.686905 Z M 1008.597699 78.686905 " transform="matrix(0.786549,0,0,0.78799,9.246716,454.456446)"/>
<path style="fill:none;stroke-width:2;stroke-linecap:round;stroke-linejoin:round;stroke:rgb(100%,100%,100%);stroke-opacity:1;stroke-miterlimit:4;" d="M 1008.59784 78.686905 C 1008.59784 93.429716 996.648891 105.376648 981.908876 105.376648 C 967.163894 105.376648 955.214946 93.429716 955.214946 78.686905 C 955.214946 63.944093 967.163894 51.992204 981.908876 51.992204 C 996.648891 51.992204 1008.59784 63.944093 1008.59784 78.686905 Z M 1008.59784 78.686905 " transform="matrix(0.786549,0,0,0.78799,-708.089332,454.456446)"/>
<path style="fill:none;stroke-width:2;stroke-linecap:round;stroke-linejoin:round;stroke:rgb(100%,100%,100%);stroke-opacity:1;stroke-miterlimit:4;" d="M 1008.59784 78.684546 C 1008.59784 93.427358 996.648891 105.379247 981.908876 105.379247 C 967.163894 105.379247 955.214946 93.427358 955.214946 78.684546 C 955.214946 63.941735 967.163894 51.994803 981.908876 51.994803 C 996.648891 51.994803 1008.59784 63.941735 1008.59784 78.684546 Z M 1008.59784 78.684546 " transform="matrix(0.786549,0,0,0.78799,-708.089332,3.72393)"/>
<path style="fill:none;stroke-width:3.72;stroke-linecap:round;stroke-linejoin:round;stroke:rgb(100%,100%,100%);stroke-opacity:1;stroke-miterlimit:4;" d="M 79.704858 389.589088 L 970.095883 389.589088 L 970.095883 950.918564 L 79.704858 950.918564 Z M 79.704858 389.589088 " transform="matrix(0.805462,0,0,0.806045,0.000016396,-248.479609)"/>
</g>
</svg>
