<?xml version="1.0" encoding="UTF-8"?>
<svg xmlns="http://www.w3.org/2000/svg" xmlns:xlink="http://www.w3.org/1999/xlink" width="707px" height="500px" viewBox="0 0 707 500" version="1.1">
<defs>
<filter id="alpha" filterUnits="objectBoundingBox" x="0%" y="0%" width="100%" height="100%">
  <feColorMatrix type="matrix" in="SourceGraphic" values="0 0 0 0 1 0 0 0 0 1 0 0 0 0 1 0 0 0 1 0"/>
</filter>
<mask id="mask0">
  <g filter="url(#alpha)">
<rect x="0" y="0" width="707" height="500" style="fill:rgb(0%,0%,0%);fill-opacity:0.580392;stroke:none;"/>
  </g>
</mask>
<clipPath id="clip1">
  <rect x="0" y="0" width="707" height="500"/>
</clipPath>
<g id="surface6" clip-path="url(#clip1)">
<path style=" stroke:none;fill-rule:nonzero;fill:rgb(0%,55.686275%,0%);fill-opacity:1;" d="M 7.183594 22.179688 L 697.789062 22.179688 L 697.789062 467.863281 L 7.183594 467.863281 Z M 7.183594 22.179688 "/>
</g>
</defs>
<g id="surface1">
<use xlink:href="#surface6" mask="url(#mask0)"/>
<path style="fill:none;stroke-width:4.0623;stroke-linecap:round;stroke-linejoin:round;stroke:rgb(100%,100%,100%);stroke-opacity:1;stroke-miterlimit:4;" d="M 794.600215 452.068123 L 969.427159 452.068123 L 969.427159 888.440498 L 794.600215 888.440498 Z M 794.600215 452.068123 " transform="matrix(0.671535,0,0,0.671704,0.0000136698,-207.066341)"/>
<path style="fill:none;stroke-width:3.8602;stroke-linecap:round;stroke-linejoin:round;stroke:rgb(100%,100%,100%);stroke-opacity:1;stroke-miterlimit:4;" d="M 853.990769 516.799667 L 969.229384 516.799667 L 969.229384 823.697323 L 853.990769 823.697323 Z M 853.990769 516.799667 " transform="matrix(0.671535,0,0,0.671704,0.0000136698,-207.066341)"/>
<path style="fill:none;stroke-width:1.2758;stroke-linecap:round;stroke-linejoin:round;stroke:rgb(100%,100%,100%);stroke-opacity:1;stroke-miterlimit:4;" d="M 1611.894989 -741.843622 L 1675.835055 -741.84625 L 1675.835055 -543.154395 L 1611.894989 -543.157716 Z M 1611.894989 -741.843622 " transform="matrix(0.365027,0.51809,0,0.656658,39.501694,-196.695896)"/>
<path style="fill:none;stroke-width:2;stroke-linecap:round;stroke-linejoin:round;stroke:rgb(100%,100%,100%);stroke-opacity:1;stroke-miterlimit:4;" d="M 989.972865 727.917043 C 1050.279425 727.179407 1071.372256 747.559584 1102.242219 776.065658 L 1027.766379 776.065658 Z M 989.972865 727.917043 " transform="matrix(0.5941,0,0,0.656658,39.501694,-196.695896)"/>
<path style="fill:none;stroke-width:2;stroke-linecap:round;stroke-linejoin:round;stroke:rgb(100%,100%,100%);stroke-opacity:1;stroke-miterlimit:4;" d="M 989.972865 530.159131 C 1050.279425 529.415546 1071.372256 549.801672 1102.242219 578.307746 L 1027.766379 578.307746 Z M 989.972865 530.159131 " transform="matrix(0.5941,0,0,0.656658,39.501694,-196.695896)"/>
<path style="fill:none;stroke-width:1;stroke-linecap:round;stroke-linejoin:round;stroke:rgb(100%,100%,100%);stroke-opacity:1;stroke-miterlimit:4;" d="M 989.972865 545.792262 C 1050.279425 545.048677 1071.372256 565.428854 1102.242219 593.940876 " transform="matrix(0.5941,0,0,0.656658,39.501694,-196.695896)"/>
<path style="fill:none;stroke-width:1;stroke-linecap:round;stroke-linejoin:round;stroke:rgb(100%,100%,100%);stroke-opacity:1;stroke-miterlimit:4;" d="M 989.972865 562.151131 C 1050.279425 561.407546 1071.372256 581.793672 1102.242219 610.299746 " transform="matrix(0.5941,0,0,0.656658,39.501694,-196.695896)"/>
<path style="fill:none;stroke-width:1;stroke-linecap:round;stroke-linejoin:round;stroke:rgb(100%,100%,100%);stroke-opacity:1;stroke-miterlimit:4;" d="M 989.972865 578.521898 C 1050.279425 577.778313 1071.372256 598.15849 1102.242219 626.670513 " transform="matrix(0.5941,0,0,0.656658,39.501694,-196.695896)"/>
<path style="fill:none;stroke-width:1;stroke-linecap:round;stroke-linejoin:round;stroke:rgb(100%,100%,100%);stroke-opacity:1;stroke-miterlimit:4;" d="M 989.972865 594.892665 C 1050.279425 594.14908 1071.372256 614.529257 1102.242219 643.035331 " transform="matrix(0.5941,0,0,0.656658,39.501694,-196.695896)"/>
<path style="fill:none;stroke-width:1;stroke-linecap:round;stroke-linejoin:round;stroke:rgb(100%,100%,100%);stroke-opacity:1;stroke-miterlimit:4;" d="M 989.972865 611.251535 C 1050.279425 610.50795 1071.372256 630.888127 1102.242219 659.400149 " transform="matrix(0.5941,0,0,0.656658,39.501694,-196.695896)"/>
<path style="fill:none;stroke-width:1;stroke-linecap:round;stroke-linejoin:round;stroke:rgb(100%,100%,100%);stroke-opacity:1;stroke-miterlimit:4;" d="M 989.972865 626.260054 C 1050.279425 625.516469 1071.372256 645.902595 1102.242219 674.408668 " transform="matrix(0.5941,0,0,0.656658,39.501694,-196.695896)"/>
<path style="fill:none;stroke-width:1;stroke-linecap:round;stroke-linejoin:round;stroke:rgb(100%,100%,100%);stroke-opacity:1;stroke-miterlimit:4;" d="M 989.972865 643.98712 C 1050.279425 643.249483 1071.372256 663.62966 1102.242219 692.135734 " transform="matrix(0.5941,0,0,0.656658,39.501694,-196.695896)"/>
<path style="fill:none;stroke-width:1;stroke-linecap:round;stroke-linejoin:round;stroke:rgb(100%,100%,100%);stroke-opacity:1;stroke-miterlimit:4;" d="M 989.972865 660.351938 C 1050.279425 659.608353 1071.372256 679.98853 1102.242219 708.500552 " transform="matrix(0.5941,0,0,0.656658,39.501694,-196.695896)"/>
<path style="fill:none;stroke-width:1;stroke-linecap:round;stroke-linejoin:round;stroke:rgb(100%,100%,100%);stroke-opacity:1;stroke-miterlimit:4;" d="M 989.972865 676.722705 C 1050.279425 675.97912 1071.372256 696.359297 1102.242219 724.865371 " transform="matrix(0.5941,0,0,0.656658,39.501694,-196.695896)"/>
<path style="fill:none;stroke-width:1;stroke-linecap:round;stroke-linejoin:round;stroke:rgb(100%,100%,100%);stroke-opacity:1;stroke-miterlimit:4;" d="M 989.972865 693.087523 C 1050.279425 692.349887 1071.372256 712.730064 1102.242219 741.236137 " transform="matrix(0.5941,0,0,0.656658,39.501694,-196.695896)"/>
<path style="fill:none;stroke-width:1;stroke-linecap:round;stroke-linejoin:round;stroke:rgb(100%,100%,100%);stroke-opacity:1;stroke-miterlimit:4;" d="M 989.972865 709.452341 C 1050.279425 708.708756 1071.372256 729.088933 1102.242219 757.600956 " transform="matrix(0.5941,0,0,0.656658,39.501694,-196.695896)"/>
<path style="fill:none;stroke-width:1;stroke-linecap:butt;stroke-linejoin:miter;stroke:rgb(100%,100%,100%);stroke-opacity:1;stroke-miterlimit:4;" d="M 1088.09924 564.958908 L 1090.722693 765.007062 " transform="matrix(0.5941,0,0,0.656658,39.501694,-196.695896)"/>
<path style="fill:none;stroke-width:1;stroke-linecap:butt;stroke-linejoin:miter;stroke:rgb(100%,100%,100%);stroke-opacity:1;stroke-miterlimit:4;" d="M 1072.503169 554.049029 L 1075.126622 752.639757 " transform="matrix(0.5941,0,0,0.656658,39.501694,-196.695896)"/>
<path style="fill:none;stroke-width:1;stroke-linecap:butt;stroke-linejoin:miter;stroke:rgb(100%,100%,100%);stroke-opacity:1;stroke-miterlimit:4;" d="M 1055.598659 543.127253 L 1058.222112 741.717981 " transform="matrix(0.5941,0,0,0.656658,39.501694,-196.695896)"/>
<path style="fill:none;stroke-width:1;stroke-linecap:butt;stroke-linejoin:miter;stroke:rgb(100%,100%,100%);stroke-opacity:1;stroke-miterlimit:4;" d="M 1037.398859 536.321964 L 1040.022313 734.912691 " transform="matrix(0.5941,0,0,0.656658,39.501694,-196.695896)"/>
<path style="fill:none;stroke-width:1;stroke-linecap:butt;stroke-linejoin:miter;stroke:rgb(100%,100%,100%);stroke-opacity:1;stroke-miterlimit:4;" d="M 1018.002397 530.861076 L 1020.625851 729.451803 " transform="matrix(0.5941,0,0,0.656658,39.501694,-196.695896)"/>
<path style="fill:none;stroke-width:1;stroke-linecap:butt;stroke-linejoin:miter;stroke:rgb(100%,100%,100%);stroke-opacity:1;stroke-miterlimit:4;" d="M 999.809173 530.861076 L 1002.432626 729.451803 " transform="matrix(0.5941,0,0,0.656658,39.501694,-196.695896)"/>
<path style="fill:none;stroke-width:1;stroke-linecap:butt;stroke-linejoin:miter;stroke:rgb(100%,100%,100%);stroke-opacity:1;stroke-miterlimit:4;" d="M 1003.103284 727.090177 L 1039.838211 775.815813 " transform="matrix(0.5941,0,0,0.656658,39.501694,-196.695896)"/>
<path style="fill:none;stroke-width:1;stroke-linecap:butt;stroke-linejoin:miter;stroke:rgb(100%,100%,100%);stroke-opacity:1;stroke-miterlimit:4;" d="M 1018.600728 728.458373 L 1055.342231 777.189958 " transform="matrix(0.5941,0,0,0.656658,39.501694,-196.695896)"/>
<path style="fill:none;stroke-width:1;stroke-linecap:butt;stroke-linejoin:miter;stroke:rgb(100%,100%,100%);stroke-opacity:1;stroke-miterlimit:4;" d="M 1038.102392 732.509424 L 1070.530647 777.624212 " transform="matrix(0.5941,0,0,0.656658,39.501694,-196.695896)"/>
<path style="fill:none;stroke-width:1;stroke-linecap:butt;stroke-linejoin:miter;stroke:rgb(100%,100%,100%);stroke-opacity:1;stroke-miterlimit:4;" d="M 1056.19699 740.641269 L 1083.483539 776.672423 " transform="matrix(0.5941,0,0,0.656658,39.501694,-196.695896)"/>
<path style="fill:none;stroke-width:1;stroke-linecap:butt;stroke-linejoin:miter;stroke:rgb(100%,100%,100%);stroke-opacity:1;stroke-miterlimit:4;" d="M 1073.1015 750.040184 L 1095.884125 777.172112 " transform="matrix(0.5941,0,0,0.656658,39.501694,-196.695896)"/>
<path style="fill:none;stroke-width:1;stroke-linecap:round;stroke-linejoin:round;stroke:rgb(100%,100%,100%);stroke-opacity:1;stroke-miterlimit:4;" d="M 999.55932 740.468758 C 1054.724174 739.909582 1074.02201 755.257176 1102.261945 776.725961 " transform="matrix(0.5941,0,0,0.656658,39.501694,-196.695896)"/>
<path style="fill:none;stroke-width:1;stroke-linecap:round;stroke-linejoin:round;stroke:rgb(100%,100%,100%);stroke-opacity:1;stroke-miterlimit:4;" d="M 1010.000534 755.138202 C 1059.563427 754.805076 1076.895317 763.960094 1102.26852 776.761653 " transform="matrix(0.5941,0,0,0.656658,39.501694,-196.695896)"/>
<path style="fill:none;stroke-width:1;stroke-linecap:round;stroke-linejoin:round;stroke:rgb(100%,100%,100%);stroke-opacity:1;stroke-miterlimit:4;" d="M 1020.500924 768.879653 C 1064.468431 768.760679 1079.840949 772.109786 1102.347421 776.797345 " transform="matrix(0.5941,0,0,0.656658,39.501694,-196.695896)"/>
<path style="fill:none;stroke-width:1;stroke-linecap:butt;stroke-linejoin:miter;stroke:rgb(100%,100%,100%);stroke-opacity:1;stroke-miterlimit:4;" d="M 1100.999531 577.742621 L 1102.235644 777.320829 " transform="matrix(0.5941,0,0,0.656658,39.501694,-196.695896)"/>
<path style="fill-rule:nonzero;fill:rgb(100%,100%,100%);fill-opacity:1;stroke-width:0.1409;stroke-linecap:round;stroke-linejoin:round;stroke:rgb(0%,0%,0%);stroke-opacity:1;stroke-miterlimit:4;" d="M -527.429978 388.679942 L -522.375091 388.679942 L -522.375091 951.822863 L -527.429978 951.822863 Z M -527.429978 388.679942 " transform="matrix(-0.671535,0,0,0.671704,0.0000136698,-207.066341)"/>
<path style="fill:none;stroke-width:4.0464;stroke-linecap:round;stroke-linejoin:round;stroke:rgb(100%,100%,100%);stroke-opacity:1;stroke-miterlimit:4;" d="M 793.477554 776.918009 C 779.610063 776.918009 751.619138 725.957401 751.619138 665.831676 C 751.619138 605.705952 779.610063 559.182517 793.477554 559.182517 " transform="matrix(0.671535,0,0,0.671704,0.0000136698,-207.066341)"/>
<path style="fill:none;stroke-width:4.041;stroke-linecap:round;stroke-linejoin:round;stroke:rgb(100%,100%,100%);stroke-opacity:1;stroke-miterlimit:4;" d="M -253.901868 452.062307 L -80.907248 452.062307 L -80.907248 888.452129 L -253.901868 888.452129 Z M -253.901868 452.062307 " transform="matrix(-0.671535,0,0,0.671704,0.0000136698,-207.066341)"/>
<path style="fill:none;stroke-width:3.8296;stroke-linecap:round;stroke-linejoin:round;stroke:rgb(100%,100%,100%);stroke-opacity:1;stroke-miterlimit:4;" d="M -194.511314 516.788036 L -81.099206 516.788036 L -81.099206 823.720584 L -194.511314 823.720584 Z M -194.511314 516.788036 " transform="matrix(-0.671535,0,0,0.671704,0.0000136698,-207.066341)"/>
<path style="fill:none;stroke-width:1.2758;stroke-linecap:round;stroke-linejoin:round;stroke:rgb(100%,100%,100%);stroke-opacity:1;stroke-miterlimit:4;" d="M 1611.902688 -741.849696 L 1675.842754 -741.852324 L 1675.842754 -543.160469 L 1611.902688 -543.16379 Z M 1611.902688 -741.849696 " transform="matrix(-0.365027,0.51809,0,0.656658,664.59096,-196.695896)"/>
<path style="fill:none;stroke-width:2;stroke-linecap:round;stroke-linejoin:round;stroke:rgb(100%,100%,100%);stroke-opacity:1;stroke-miterlimit:4;" d="M 989.97102 727.917043 C 1050.27758 727.179407 1071.370411 747.559584 1102.240374 776.065658 L 1027.764534 776.065658 Z M 989.97102 727.917043 " transform="matrix(-0.5941,0,0,0.656658,664.59096,-196.695896)"/>
<path style="fill:none;stroke-width:2;stroke-linecap:round;stroke-linejoin:round;stroke:rgb(100%,100%,100%);stroke-opacity:1;stroke-miterlimit:4;" d="M 989.97102 530.159131 C 1050.27758 529.415546 1071.370411 549.801672 1102.240374 578.307746 L 1027.764534 578.307746 Z M 989.97102 530.159131 " transform="matrix(-0.5941,0,0,0.656658,664.59096,-196.695896)"/>
<path style="fill:none;stroke-width:1;stroke-linecap:round;stroke-linejoin:round;stroke:rgb(100%,100%,100%);stroke-opacity:1;stroke-miterlimit:4;" d="M 989.97102 545.792262 C 1050.27758 545.048677 1071.370411 565.428854 1102.240374 593.940876 " transform="matrix(-0.5941,0,0,0.656658,664.59096,-196.695896)"/>
<path style="fill:none;stroke-width:1;stroke-linecap:round;stroke-linejoin:round;stroke:rgb(100%,100%,100%);stroke-opacity:1;stroke-miterlimit:4;" d="M 989.97102 562.151131 C 1050.27758 561.407546 1071.370411 581.793672 1102.240374 610.299746 " transform="matrix(-0.5941,0,0,0.656658,664.59096,-196.695896)"/>
<path style="fill:none;stroke-width:1;stroke-linecap:round;stroke-linejoin:round;stroke:rgb(100%,100%,100%);stroke-opacity:1;stroke-miterlimit:4;" d="M 989.97102 578.521898 C 1050.27758 577.778313 1071.370411 598.15849 1102.240374 626.670513 " transform="matrix(-0.5941,0,0,0.656658,664.59096,-196.695896)"/>
<path style="fill:none;stroke-width:1;stroke-linecap:round;stroke-linejoin:round;stroke:rgb(100%,100%,100%);stroke-opacity:1;stroke-miterlimit:4;" d="M 989.97102 594.892665 C 1050.27758 594.14908 1071.370411 614.529257 1102.240374 643.035331 " transform="matrix(-0.5941,0,0,0.656658,664.59096,-196.695896)"/>
<path style="fill:none;stroke-width:1;stroke-linecap:round;stroke-linejoin:round;stroke:rgb(100%,100%,100%);stroke-opacity:1;stroke-miterlimit:4;" d="M 989.97102 611.251535 C 1050.27758 610.50795 1071.370411 630.888127 1102.240374 659.400149 " transform="matrix(-0.5941,0,0,0.656658,664.59096,-196.695896)"/>
<path style="fill:none;stroke-width:1;stroke-linecap:round;stroke-linejoin:round;stroke:rgb(100%,100%,100%);stroke-opacity:1;stroke-miterlimit:4;" d="M 989.97102 626.260054 C 1050.27758 625.516469 1071.370411 645.902595 1102.240374 674.408668 " transform="matrix(-0.5941,0,0,0.656658,664.59096,-196.695896)"/>
<path style="fill:none;stroke-width:1;stroke-linecap:round;stroke-linejoin:round;stroke:rgb(100%,100%,100%);stroke-opacity:1;stroke-miterlimit:4;" d="M 989.97102 643.98712 C 1050.27758 643.249483 1071.370411 663.62966 1102.240374 692.135734 " transform="matrix(-0.5941,0,0,0.656658,664.59096,-196.695896)"/>
<path style="fill:none;stroke-width:1;stroke-linecap:round;stroke-linejoin:round;stroke:rgb(100%,100%,100%);stroke-opacity:1;stroke-miterlimit:4;" d="M 989.97102 660.351938 C 1050.27758 659.608353 1071.370411 679.98853 1102.240374 708.500552 " transform="matrix(-0.5941,0,0,0.656658,664.59096,-196.695896)"/>
<path style="fill:none;stroke-width:1;stroke-linecap:round;stroke-linejoin:round;stroke:rgb(100%,100%,100%);stroke-opacity:1;stroke-miterlimit:4;" d="M 989.97102 676.722705 C 1050.27758 675.97912 1071.370411 696.359297 1102.240374 724.865371 " transform="matrix(-0.5941,0,0,0.656658,664.59096,-196.695896)"/>
<path style="fill:none;stroke-width:1;stroke-linecap:round;stroke-linejoin:round;stroke:rgb(100%,100%,100%);stroke-opacity:1;stroke-miterlimit:4;" d="M 989.97102 693.087523 C 1050.27758 692.349887 1071.370411 712.730064 1102.240374 741.236137 " transform="matrix(-0.5941,0,0,0.656658,664.59096,-196.695896)"/>
<path style="fill:none;stroke-width:1;stroke-linecap:round;stroke-linejoin:round;stroke:rgb(100%,100%,100%);stroke-opacity:1;stroke-miterlimit:4;" d="M 989.97102 709.452341 C 1050.27758 708.708756 1071.370411 729.088933 1102.240374 757.600956 " transform="matrix(-0.5941,0,0,0.656658,664.59096,-196.695896)"/>
<path style="fill:none;stroke-width:1;stroke-linecap:butt;stroke-linejoin:miter;stroke:rgb(100%,100%,100%);stroke-opacity:1;stroke-miterlimit:4;" d="M 1088.097395 564.958908 L 1090.720848 765.007062 " transform="matrix(-0.5941,0,0,0.656658,664.59096,-196.695896)"/>
<path style="fill:none;stroke-width:1;stroke-linecap:butt;stroke-linejoin:miter;stroke:rgb(100%,100%,100%);stroke-opacity:1;stroke-miterlimit:4;" d="M 1072.501324 554.049029 L 1075.124777 752.639757 " transform="matrix(-0.5941,0,0,0.656658,664.59096,-196.695896)"/>
<path style="fill:none;stroke-width:1;stroke-linecap:butt;stroke-linejoin:miter;stroke:rgb(100%,100%,100%);stroke-opacity:1;stroke-miterlimit:4;" d="M 1055.596814 543.127253 L 1058.226842 741.717981 " transform="matrix(-0.5941,0,0,0.656658,664.59096,-196.695896)"/>
<path style="fill:none;stroke-width:1;stroke-linecap:butt;stroke-linejoin:miter;stroke:rgb(100%,100%,100%);stroke-opacity:1;stroke-miterlimit:4;" d="M 1037.397014 536.321964 L 1040.027043 734.912691 " transform="matrix(-0.5941,0,0,0.656658,664.59096,-196.695896)"/>
<path style="fill:none;stroke-width:1;stroke-linecap:butt;stroke-linejoin:miter;stroke:rgb(100%,100%,100%);stroke-opacity:1;stroke-miterlimit:4;" d="M 1018.000552 530.861076 L 1020.624006 729.451803 " transform="matrix(-0.5941,0,0,0.656658,664.59096,-196.695896)"/>
<path style="fill:none;stroke-width:1;stroke-linecap:butt;stroke-linejoin:miter;stroke:rgb(100%,100%,100%);stroke-opacity:1;stroke-miterlimit:4;" d="M 999.807328 530.861076 L 1002.437356 729.451803 " transform="matrix(-0.5941,0,0,0.656658,664.59096,-196.695896)"/>
<path style="fill:none;stroke-width:1;stroke-linecap:butt;stroke-linejoin:miter;stroke:rgb(100%,100%,100%);stroke-opacity:1;stroke-miterlimit:4;" d="M 1003.101439 727.090177 L 1039.842941 775.815813 " transform="matrix(-0.5941,0,0,0.656658,664.59096,-196.695896)"/>
<path style="fill:none;stroke-width:1;stroke-linecap:butt;stroke-linejoin:miter;stroke:rgb(100%,100%,100%);stroke-opacity:1;stroke-miterlimit:4;" d="M 1018.598883 728.458373 L 1055.340386 777.189958 " transform="matrix(-0.5941,0,0,0.656658,664.59096,-196.695896)"/>
<path style="fill:none;stroke-width:1;stroke-linecap:butt;stroke-linejoin:miter;stroke:rgb(100%,100%,100%);stroke-opacity:1;stroke-miterlimit:4;" d="M 1038.100547 732.509424 L 1070.528802 777.624212 " transform="matrix(-0.5941,0,0,0.656658,664.59096,-196.695896)"/>
<path style="fill:none;stroke-width:1;stroke-linecap:butt;stroke-linejoin:miter;stroke:rgb(100%,100%,100%);stroke-opacity:1;stroke-miterlimit:4;" d="M 1056.20172 740.641269 L 1083.488269 776.672423 " transform="matrix(-0.5941,0,0,0.656658,664.59096,-196.695896)"/>
<path style="fill:none;stroke-width:1;stroke-linecap:butt;stroke-linejoin:miter;stroke:rgb(100%,100%,100%);stroke-opacity:1;stroke-miterlimit:4;" d="M 1073.099655 750.040184 L 1095.88228 777.172112 " transform="matrix(-0.5941,0,0,0.656658,664.59096,-196.695896)"/>
<path style="fill:none;stroke-width:1;stroke-linecap:round;stroke-linejoin:round;stroke:rgb(100%,100%,100%);stroke-opacity:1;stroke-miterlimit:4;" d="M 999.557475 740.468758 C 1054.728904 739.909582 1074.020165 755.257176 1102.2601 776.725961 " transform="matrix(-0.5941,0,0,0.656658,664.59096,-196.695896)"/>
<path style="fill:none;stroke-width:1;stroke-linecap:round;stroke-linejoin:round;stroke:rgb(100%,100%,100%);stroke-opacity:1;stroke-miterlimit:4;" d="M 1009.998689 755.138202 C 1059.561582 754.805076 1076.900047 763.960094 1102.266675 776.761653 " transform="matrix(-0.5941,0,0,0.656658,664.59096,-196.695896)"/>
<path style="fill:none;stroke-width:1;stroke-linecap:round;stroke-linejoin:round;stroke:rgb(100%,100%,100%);stroke-opacity:1;stroke-miterlimit:4;" d="M 1020.499079 768.879653 C 1064.466586 768.760679 1079.839104 772.109786 1102.352151 776.797345 " transform="matrix(-0.5941,0,0,0.656658,664.59096,-196.695896)"/>
<path style="fill:none;stroke-width:1;stroke-linecap:butt;stroke-linejoin:miter;stroke:rgb(100%,100%,100%);stroke-opacity:1;stroke-miterlimit:4;" d="M 1100.997686 577.742621 L 1102.233799 777.320829 " transform="matrix(-0.5941,0,0,0.656658,664.59096,-196.695896)"/>
<path style="fill:none;stroke-width:4.0464;stroke-linecap:round;stroke-linejoin:round;stroke:rgb(100%,100%,100%);stroke-opacity:1;stroke-miterlimit:4;" d="M 255.001262 776.918009 C 268.868752 776.918009 296.859677 725.957401 296.859677 665.831676 C 296.859677 605.705952 268.868752 559.182517 255.001262 559.182517 " transform="matrix(0.671535,0,0,0.671704,0.0000136698,-207.066341)"/>
<path style="fill:none;stroke-width:2;stroke-linecap:round;stroke-linejoin:round;stroke:rgb(100%,100%,100%);stroke-opacity:1;stroke-miterlimit:4;" d="M 1008.600692 78.688402 C 1008.600692 93.429231 996.65142 105.380129 981.908426 105.380129 C 967.165432 105.380129 955.216161 93.429231 955.216161 78.688402 C 955.216161 63.941625 967.165432 51.990727 981.908426 51.990727 C 996.65142 51.990727 1008.600692 63.941625 1008.600692 78.688402 Z M 1008.600692 78.688402 " transform="matrix(0.655767,0,0,0.656658,6.397657,1.793451)"/>
<path style="fill:none;stroke-width:2;stroke-linecap:round;stroke-linejoin:round;stroke:rgb(100%,100%,100%);stroke-opacity:1;stroke-miterlimit:4;" d="M 1008.602103 78.684922 C 1008.602103 93.425751 996.646875 105.376648 981.909838 105.376648 C 967.166844 105.376648 955.211616 93.425751 955.211616 78.684922 C 955.211616 63.944093 967.166844 51.993196 981.909838 51.993196 C 996.646875 51.993196 1008.602103 63.944093 1008.602103 78.684922 Z M 1008.602103 78.684922 " transform="matrix(0.655767,0,0,0.656658,7.709231,378.713705)"/>
<path style="fill:none;stroke-width:2;stroke-linecap:round;stroke-linejoin:round;stroke:rgb(100%,100%,100%);stroke-opacity:1;stroke-miterlimit:4;" d="M 1008.601359 78.684922 C 1008.601359 93.425751 996.646131 105.376648 981.909093 105.376648 C 967.166099 105.376648 955.216828 93.425751 955.216828 78.684922 C 955.216828 63.944093 967.166099 51.993196 981.909093 51.993196 C 996.646131 51.993196 1008.601359 63.944093 1008.601359 78.684922 Z M 1008.601359 78.684922 " transform="matrix(0.655767,0,0,0.656658,-590.352781,378.713705)"/>
<path style="fill:none;stroke-width:2;stroke-linecap:round;stroke-linejoin:round;stroke:rgb(100%,100%,100%);stroke-opacity:1;stroke-miterlimit:4;" d="M 1008.601359 78.686529 C 1008.601359 93.427358 996.646131 105.378256 981.909093 105.378256 C 967.166099 105.378256 955.216828 93.427358 955.216828 78.686529 C 955.216828 63.945701 967.166099 51.994803 981.909093 51.994803 C 996.646131 51.994803 1008.601359 63.945701 1008.601359 78.686529 Z M 1008.601359 78.686529 " transform="matrix(0.655767,0,0,0.656658,-590.352781,3.103275)"/>
<path style="fill:none;stroke-width:3.72;stroke-linecap:round;stroke-linejoin:round;stroke:rgb(100%,100%,100%);stroke-opacity:1;stroke-miterlimit:4;" d="M 79.70315 389.587149 L 970.096102 389.587149 L 970.096102 950.921472 L 79.70315 950.921472 Z M 79.70315 389.587149 " transform="matrix(0.671535,0,0,0.671704,0.0000136698,-207.066341)"/>
</g>
</svg>
