<svg xmlns="http://www.w3.org/2000/svg" width="354.461" height="119.257" viewBox="0 0 354.461 119.257">
  <g id="Group_14179" data-name="Group 14179" transform="translate(-15 -58.132)">
    <g id="アートワーク_16" data-name="アートワーク 16" transform="matrix(0.995, -0.105, 0.105, 0.995, 63.101, 147.868)">
      <g id="Group_13916" data-name="Group 13916" transform="translate(-44.316 -38.535)">
        <path id="Path_34249" data-name="Path 34249" d="M25.189,37.8a11.391,11.391,0,0,1,11.2-13.266,11.19,11.19,0,0,1,7.808,3.02c3.557,3.263,4.477,7.31,3.294,11.96.073-.284.647-.562.861-.75.95-.835,2.01-1.488,3.013-2.251a1.44,1.44,0,0,1,1.979-.113.584.584,0,0,0,.247.067c0-1.175.047-2.312-.01-3.443a13.724,13.724,0,0,1,.844-5.574,5.681,5.681,0,0,1,.909-1.483,1.664,1.664,0,0,1,1.81-.536,2.955,2.955,0,0,1,2.223,1.9c.245.6.388,1.241.567,1.828.591-1.066,1.143-2.18,1.809-3.221a18.8,18.8,0,0,1,1.581-2.107,1.427,1.427,0,0,1,2.3.009,1.326,1.326,0,0,1,.336.761c.028.247-.082.64.275.694a.993.993,0,0,0,.666-.287,2.8,2.8,0,0,1,1.9-.7c.567,0,1.136.075,1.716.119.045-.145.08-.254.111-.364a17.623,17.623,0,0,0,.416-4.255A15.212,15.212,0,0,0,66.835,8.322c-.825-.863-1.743-1.635-2.61-2.458a9.669,9.669,0,0,0-3.55-2.186,16.287,16.287,0,0,0-7.459-1.046A13.884,13.884,0,0,0,49.263,3.7a17.626,17.626,0,0,0-5.289,3.813,31.1,31.1,0,0,0-2.819,3.544A11.265,11.265,0,0,0,40.024,13.2c-.387.9-.675,1.851-1.028,2.77a1.291,1.291,0,0,1-1.437.844,1.26,1.26,0,0,1-1.351-1A16.052,16.052,0,0,0,33.64,10.12c-1.839-2.6-3.878-4.966-7.124-5.864a2.5,2.5,0,0,1-.327-.127A16.562,16.562,0,0,0,18.5,2.991c-.144.008-.286.043-.431.059A14.172,14.172,0,0,0,14.24,4.177a14.378,14.378,0,0,0-4.059,2.328c-.851.752-1.694,1.517-2.5,2.313a12.951,12.951,0,0,0-3.4,5.116,27.673,27.673,0,0,0-1.41,6.477c-.209,2.644-.335,5.29-.342,7.941,0,.4.077.81.109,1.215a21.269,21.269,0,0,0,.837,4.009,27.468,27.468,0,0,0,2.614,6.552,31.332,31.332,0,0,0,2.9,4.051,63.354,63.354,0,0,0,10.573,9.882,31.427,31.427,0,0,0,5.874,3.423A65.028,65.028,0,0,0,36.458,61.6a4.807,4.807,0,0,0,3.742-.275c1.279-.745,2.524-1.553,3.743-2.394.91-.628,1.77-1.331,2.624-2.035,1.909-1.575,3.823-3.149,5.695-4.769,1.541-1.333,3.021-2.736,4.536-4.1,1.062-.955,2.144-1.888,3.206-2.842.459-.413.446-.736-.037-1.155Q58.78,43,57.572,41.994c-.7-.584-1.382-1.194-2.092-1.767-.642-.519-1.407-.92-2.016-1.47-.425-.384-.77-.275-1.158.029-1.007.788-2.026,1.562-3.035,2.346-2.462,1.913-4.909,3.845-7.387,5.736a16.693,16.693,0,0,1-2.555,1.668,3.622,3.622,0,0,1-3.448.082,51.626,51.626,0,0,1-6.143-4.009c-1.581-1.136-3.029-2.458-4.552-3.677-1.273-1.019-2.582-1.994-3.853-3.016-1.156-.929-2.275-1.906-3.427-2.841a.976.976,0,0,1-.329-1.091.9.9,0,0,1,.925-.673,2.69,2.69,0,0,1,1.9.52c.68.593,1.353,1.2,2.025,1.8A18.639,18.639,0,0,0,25.189,37.8Z" transform="translate(-0.442 -0.443)" fill="#ff6a00"/>
        <path id="Path_34250" data-name="Path 34250" d="M37.691,30.87c-1.952.448-4.8,2.821-5.143,4.246.572,0,.726.439.875.878.083.248.157.5.254.744q.45,1.133.916,2.261a.7.7,0,0,1-.308,1.024A3.438,3.438,0,0,0,32.963,41.5a10.145,10.145,0,0,1-.69,1.008.751.751,0,0,1-.809.386,3.234,3.234,0,0,0-.493,0,1.307,1.307,0,0,0,.609.967c1.422,1.114,2.864,2.206,4.229,3.386a2.41,2.41,0,0,0,2.083.586.7.7,0,0,1,.92.559,6.366,6.366,0,0,0,.238.836,3.054,3.054,0,0,0,.755,1.127c.881.611,1.842,1.108,2.773,1.651.7-.451,1.362-.877,2.022-1.3a1.674,1.674,0,0,0,.786-.992c.2-.7.484-1.37.709-2.06.3-.92.539-1.066,1.5-1.074.694-.007,1.387-.155,2.082-.176a1.339,1.339,0,0,0,1.147-.682,8.477,8.477,0,0,0,1.172-3.43,1.216,1.216,0,0,0-.058-.311,1.536,1.536,0,0,1-1.2-.668,23.071,23.071,0,0,0-2.02-1.781.816.816,0,0,1-.355-.9q.345-1.488.645-2.987a.914.914,0,0,1,.57-.712c.176-.077.341-.181.572-.308a10.371,10.371,0,0,0-5.074-3.8,3.437,3.437,0,0,1-.206.846,2.379,2.379,0,0,1-.645.77c-.565.4-1.188.714-1.767,1.094a.781.781,0,0,1-.882.087c-1-.52-2-1.042-3.028-1.508C38,31.876,37.522,31.662,37.691,30.87Z" transform="translate(-5.428 -5.404)" fill="#fff"/>
        <path id="Path_34251" data-name="Path 34251" d="M78.692,42.27c-.117-.4.658-1.409.811-1.674.59-1.023,1.235-2.013,1.8-3.05.684-1.249,1.344-2.512,1.952-3.8.267-.566.123-.894-.274-1.141a.827.827,0,0,0-1.093.231,4.332,4.332,0,0,0-.739.957c-.426.763-.781,1.565-1.207,2.327-.44.788-.915,1.559-1.414,2.311a.453.453,0,0,1-.836-.321,4.249,4.249,0,0,1,.286-1.093c.6-1.574,1.231-3.139,1.83-4.714a7.275,7.275,0,0,0,.376-1.343c.1-.6-.308-.8-.825-.605a2.771,2.771,0,0,0-1.289,1.464c-.92,1.948-1.811,3.909-2.711,5.867-.2.437-.909,1.415-1.233.52a3,3,0,0,1,.223-1.686c.461-1.563,1-3.1,1.443-4.671a4.341,4.341,0,0,0,.077-1.547c-.059-.655-.948-.485-1.207-.114a25.541,25.541,0,0,0-1.917,3.829c-.5,1.08-.9,2.209-1.387,3.295-.374.829-.8.944-1.589.5a1.285,1.285,0,0,1-.687-1.223c.007-.933-.011-1.867-.07-2.8-.031-.473-.148-1.47-.576-1.765-.76-.522-1.16.518-1.322,1.066a13.78,13.78,0,0,0-.623,2.537,32.257,32.257,0,0,0,.08,6.633,2.036,2.036,0,0,0,.9,1.509c.771.569,1.514,1.179,2.26,1.781,1.2.97,2.391,1.948,3.59,2.926a39.177,39.177,0,0,0,6.232-4.242c.989-.856,1.874-1.832,2.793-2.765a2.323,2.323,0,0,0,.69-1.726c-.034-.41-.357-1.2-.893-.9-.438.248-.621.9-.9,1.3-.421.6-.9,1.155-1.349,1.735-.181.238-.816.793-1.146.487A.2.2,0,0,1,78.692,42.27Z" transform="translate(-11.631 -5.234)" fill="#fff"/>
        <g id="Group_13914" data-name="Group 13914" transform="translate(10.491 36.458)">
          <path id="Path_34252" data-name="Path 34252" d="M34.715,63.188l1.791-2.522a1.86,1.86,0,0,1,.356-.481.487.487,0,0,1,.459,0,.562.562,0,0,1,.1.452c-.021.129-.154.239-.237.358q-1.211,1.759-2.42,3.518c-.049.071-.076.158-.124.23-.145.219-.284.473-.609.383-.356-.1-.389-.4-.374-.7.026-.494.1-.986.106-1.48.018-.894,0-1.789,0-2.88A11.643,11.643,0,0,0,32.5,61.738c-.4.605-.774,1.229-1.172,1.837a1.538,1.538,0,0,1-.4.449.44.44,0,0,1-.4-.026.47.47,0,0,1-.152-.366.874.874,0,0,1,.191-.38q1.366-1.971,2.737-3.936c.016-.024.031-.049.046-.073.173-.279.367-.592.743-.476s.474.448.468.842c-.02,1.16-.007,2.32-.007,3.48Z" transform="translate(-15.815 -46.754)" fill="#fff"/>
          <path id="Path_34253" data-name="Path 34253" d="M18.877,52.4l-.012,0c-.216.034-.707.887-.857,1.072-.176.219-.341.566-.686.306-.326-.246-.12-.5.091-.732.291-.325.567-.665.841-1,.824-1.019,1.64-2.044,2.468-3.059.466-.572.641-.543,1.165-.05a2.248,2.248,0,0,1,.148,3.4,2.674,2.674,0,0,1-1.574.691c-.215.808-.338,1.637-.481,2.461-.015.085,0,.175-.009.261-.018.271-.151.45-.435.437a.416.416,0,0,1-.443-.519c.084-.517.2-1.028.308-1.541a7.157,7.157,0,0,0,.322-1.291C19.72,52.908,18.981,52.451,18.877,52.4Zm.668-.732a1.342,1.342,0,0,0,1.539.5A1.483,1.483,0,0,0,22,50.8a1.1,1.1,0,0,0-.757-1.29Z" transform="translate(-13.497 -44.969)" fill="#fff"/>
          <path id="Path_34254" data-name="Path 34254" d="M62.225,54.752c.424.452.81.873,1.207,1.284a.583.583,0,0,1,.185.594c-.037.141-.285.558-.453.376-.821-.89-1.6-1.822-2.358-2.764a14.876,14.876,0,0,1-1.168-1.53c-.181-.308-.118-.369.092-.683a4.286,4.286,0,0,1,2.011-1.639c1.176-.44,1.954-.277,2.438.574a2.327,2.327,0,0,1-.538,2.847,12.167,12.167,0,0,1-1.043.631A3.9,3.9,0,0,0,62.225,54.752Zm-.514-.619c.51-.336.919-.6,1.325-.873a1.481,1.481,0,0,0,.594-1.54.706.706,0,0,0-.743-.7,2.45,2.45,0,0,0-2.082.908.657.657,0,0,0-.031,1C61.078,53.272,61.343,53.653,61.711,54.132Z" transform="translate(-20.926 -45.249)" fill="#fff"/>
          <path id="Path_34255" data-name="Path 34255" d="M39.447,67.647c-.853,0-1.8-.188-1.408-1.086q.93-2.151,1.872-4.3c.3-.675.68-.765,1.287-.308.209.158.406.329.609.493a2.966,2.966,0,0,1,.694,3.881,2.743,2.743,0,0,1-2.1,1.24A6.615,6.615,0,0,1,39.447,67.647Zm1.148-5a30.689,30.689,0,0,0-1.7,4.137c1.522.323,2.847-.229,3.155-1.376S42.261,63.395,40.595,62.649Z" transform="translate(-17.143 -47.267)" fill="#fff"/>
          <path id="Path_34256" data-name="Path 34256" d="M28.821,59.968A5.116,5.116,0,0,1,27.332,58.7l-.651.939c-.073.1,1.2,1.1,1.287,1.277.219.431-.115.984-.569.591-.527-.454-1.049-.913-1.572-1.372a.448.448,0,0,1-.041-.689c.941-1.18,1.891-2.352,2.822-3.54a.852.852,0,0,1,1.141-.322c.539.263,1.761.629,1.475,1.418-.1.272-.361.274-.581.123-.261-.179-.487-.41-.75-.584a.629.629,0,0,0-.975.168,10.171,10.171,0,0,1-.79.929.518.518,0,0,0,.041.831q.356.32.733.618c.129.1.333.272.327.478C29.219,59.949,29.052,60.037,28.821,59.968Z" transform="translate(-14.986 -46.182)" fill="#fff"/>
          <path id="Path_34257" data-name="Path 34257" d="M55.967,58.828c-.467-.512-.812-.9-1.169-1.278-.165-.174-.37-.347-.181-.592.22-.283.489-.133.686.04a5.4,5.4,0,0,1,.641.71c.664.843,1.315,1.7,1.979,2.54a.482.482,0,0,1-.029.7c-.457.441-1.344-1.058-1.567-1.334L54.543,60.68c-.236.141.713,1,.816,1.094.191.177.393.315.429.6s-.1.561-.43.435c-.407-.156-.816-.757-1.073-1.088-.36-.461-.675-.954-1.032-1.418-.248-.322-.5-.639-.749-.965-.174-.232-.4-.475-.1-.761.227-.22.506-.1.75.3.167.272.327.548.5.816.094.145.209.278.372.495Z" transform="translate(-19.65 -46.414)" fill="#fff"/>
          <path id="Path_34258" data-name="Path 34258" d="M19.131,46.594a.382.382,0,0,1-.085.284c-.308.4-.723-.075-.972-.3-.106-.095-1.417-1.377-1.411-1.384-.5.6-.892,1.235-1.429,1.825a6.419,6.419,0,0,0,.855.829c.191.19.316.654.041.845-.222.153-.355-.087-.536-.256-.078-.072-.967-.851-.911-.925-.27.325-.475.6-.71.847a4.021,4.021,0,0,1-.712.624.471.471,0,0,1-.449-.069.592.592,0,0,1-.076-.465.863.863,0,0,1,.25-.348c.887-.962,1.78-1.917,2.666-2.879.2-.214.377-.442.558-.669.332-.413.567-.463.924-.113.477.469.975.917,1.435,1.4C18.747,46.033,19.1,46.3,19.131,46.594Z" transform="translate(-12.72 -44.206)" fill="#fff"/>
          <path id="Path_34259" data-name="Path 34259" d="M50.2,60.51c.059,0,.118,0,.176,0,.219.011.542.017.62.279a.331.331,0,0,1-.3.42c-.243.043-.522-.106-.761-.056a1.629,1.629,0,0,0-1,1.5c.051.342.209.6.614.619.495.025.992.045,1.481.117.96.143,1.5.632,1.556,1.376a1.227,1.227,0,0,1-.617,1.257c-.453.252-1.34.959-1.825.425-.2-.223-.031-.446.193-.563a7.762,7.762,0,0,0,.945-.446,1.152,1.152,0,0,0,.465-.658c.052-.346-.294-.472-.581-.539a4.856,4.856,0,0,0-1.2-.2c-.76.023-1.466-.118-1.743-.873a2.08,2.08,0,0,1,.482-2.039A1.888,1.888,0,0,1,50.2,60.51Z" transform="translate(-18.925 -47.064)" fill="#fff"/>
          <path id="Path_34260" data-name="Path 34260" d="M27.195,53.893c-.028.327-.528.666-.716.863a18.285,18.285,0,0,0-2.23,2.813c-.228.36-.531,1.2-1.08.791-.265-.2-.223-.441-.029-.682.88-1.082,1.753-2.17,2.638-3.247a10.355,10.355,0,0,1,.722-.752c.2-.2.463-.256.64.009A.314.314,0,0,1,27.195,53.893Z" transform="translate(-14.519 -45.837)" fill="#fff"/>
          <path id="Path_34261" data-name="Path 34261" d="M60.9,58.55a.319.319,0,0,1-.263.426.633.633,0,0,1-.514-.192c-.715-.8-1.4-1.617-2.1-2.425-.208-.239-.464-.44-.652-.694s-.242-.567.073-.758c.283-.172.443.053.63.268.488.562,1.011,1.091,1.517,1.637A5.749,5.749,0,0,1,60.9,58.55Z" transform="translate(-20.519 -46.071)" fill="#fff"/>
        </g>
        <g id="Group_13915" data-name="Group 13915">
          <path id="Path_34262" data-name="Path 34262" d="M71.711,32.1a.125.125,0,0,0,.036.052,2.566,2.566,0,0,1,1.206,3.187,4.493,4.493,0,0,1-.992,1.926,30.08,30.08,0,0,1-6.81,5.711c-.676.4-1.308.875-1.958,1.319-.095.065-.23.134-.256.228-.341,1.2-1.486,1.671-2.268,2.46-1.2,1.217-2.5,2.342-3.771,3.5-.689.627-1.389,1.244-2.1,1.842-2.053,1.725-4.117,3.435-6.171,5.158a31.775,31.775,0,0,0-3.633,3,.579.579,0,0,1-.128.119,31.642,31.642,0,0,1-4.394,2.651c-2.073.824-4.6-.134-6.575-.84-7.066-2.522-12.485-4.545-17.778-8.613A58.367,58.367,0,0,1,5.75,43.435a25,25,0,0,1-4.19-8c-2.124-6.657-1.88-13.52-.463-20.3A20.549,20.549,0,0,1,3.2,10.09c1.523-3.025,4.726-5.55,7.456-7.409A13.022,13.022,0,0,1,15.386.762a20.522,20.522,0,0,1,16.4,4.107c2.351,2.035,3.795,4.85,5.356,7.484.042-.016.111-.024.122-.052a19.359,19.359,0,0,1,7.488-9.29,16.4,16.4,0,0,1,6.2-2.7,18.819,18.819,0,0,1,10.115.953,20.872,20.872,0,0,1,8.594,6.82A17.9,17.9,0,0,1,73,16.716a24.493,24.493,0,0,1-.588,7.54,11.541,11.541,0,0,1-.383,1.428c-.109.322-.087.612.189.777,1.066.639.924,1.64.677,2.557A30.435,30.435,0,0,1,71.711,32.1ZM24.747,37.358a11.391,11.391,0,0,1,11.2-13.266,11.19,11.19,0,0,1,7.808,3.02c3.557,3.263,4.477,7.31,3.294,11.96.073-.284.647-.562.861-.75.95-.835,2.01-1.488,3.013-2.251a1.44,1.44,0,0,1,1.979-.113.584.584,0,0,0,.247.067c0-1.175.047-2.312-.01-3.443a13.724,13.724,0,0,1,.844-5.574,5.681,5.681,0,0,1,.909-1.483,1.664,1.664,0,0,1,1.81-.536,2.955,2.955,0,0,1,2.223,1.9c.245.6.388,1.241.567,1.828.591-1.066,1.143-2.18,1.809-3.221a18.8,18.8,0,0,1,1.581-2.107,1.427,1.427,0,0,1,2.3.009,1.326,1.326,0,0,1,.336.761c.028.247-.082.64.275.694a.993.993,0,0,0,.666-.287,2.8,2.8,0,0,1,1.9-.7c.567,0,1.136.075,1.716.119.045-.145.08-.254.111-.364a17.623,17.623,0,0,0,.416-4.255A15.212,15.212,0,0,0,66.393,7.879c-.825-.863-1.743-1.635-2.61-2.458a9.669,9.669,0,0,0-3.55-2.186A16.287,16.287,0,0,0,52.775,2.19a13.884,13.884,0,0,0-3.954,1.063,17.626,17.626,0,0,0-5.289,3.813,31.1,31.1,0,0,0-2.819,3.544,11.265,11.265,0,0,0-1.132,2.149c-.387.9-.675,1.851-1.028,2.77a1.291,1.291,0,0,1-1.437.844,1.26,1.26,0,0,1-1.351-1A16.052,16.052,0,0,0,33.2,9.676c-1.839-2.6-3.878-4.966-7.124-5.864a2.5,2.5,0,0,1-.327-.127,16.562,16.562,0,0,0-7.691-1.138c-.144.008-.286.043-.431.059A14.172,14.172,0,0,0,13.8,3.734,14.378,14.378,0,0,0,9.739,6.062c-.851.752-1.694,1.517-2.5,2.313a12.951,12.951,0,0,0-3.4,5.116,27.673,27.673,0,0,0-1.41,6.477c-.209,2.644-.335,5.29-.342,7.941,0,.4.077.81.109,1.215a21.269,21.269,0,0,0,.837,4.009,27.468,27.468,0,0,0,2.614,6.552,31.331,31.331,0,0,0,2.9,4.051A63.354,63.354,0,0,0,19.11,53.616a31.428,31.428,0,0,0,5.874,3.423,65.029,65.029,0,0,0,11.032,4.118,4.807,4.807,0,0,0,3.742-.275c1.279-.745,2.524-1.553,3.743-2.394.91-.628,1.77-1.331,2.624-2.035,1.909-1.575,3.823-3.149,5.695-4.769,1.541-1.333,3.021-2.736,4.536-4.1,1.062-.955,2.144-1.888,3.206-2.842.459-.413.446-.736-.037-1.155q-1.186-1.032-2.394-2.039c-.7-.584-1.382-1.194-2.092-1.767-.642-.519-1.407-.92-2.016-1.47-.425-.384-.77-.275-1.158.029-1.007.788-2.026,1.562-3.035,2.346-2.462,1.913-4.909,3.845-7.387,5.736a16.693,16.693,0,0,1-2.555,1.668,3.622,3.622,0,0,1-3.448.082A51.624,51.624,0,0,1,29.3,44.164c-1.581-1.136-3.029-2.458-4.552-3.677-1.273-1.019-2.582-1.994-3.853-3.016-1.156-.929-2.275-1.906-3.427-2.841a.976.976,0,0,1-.329-1.091.9.9,0,0,1,.925-.673,2.69,2.69,0,0,1,1.9.52c.68.593,1.353,1.2,2.025,1.8A18.639,18.639,0,0,0,24.747,37.358Zm7.515-11.892c-1.952.448-4.8,2.821-5.143,4.246.572,0,.726.439.875.878.083.248.157.5.254.744q.45,1.133.916,2.261a.7.7,0,0,1-.308,1.024A3.438,3.438,0,0,0,27.534,36.1a10.145,10.145,0,0,1-.69,1.008.751.751,0,0,1-.809.386,3.234,3.234,0,0,0-.493,0,1.307,1.307,0,0,0,.609.967c1.422,1.114,2.864,2.206,4.229,3.386a2.41,2.41,0,0,0,2.083.586.7.7,0,0,1,.92.559,6.366,6.366,0,0,0,.238.836,3.054,3.054,0,0,0,.755,1.127c.881.611,1.842,1.108,2.773,1.651.7-.451,1.362-.877,2.022-1.3a1.674,1.674,0,0,0,.786-.992c.2-.7.484-1.37.709-2.06.3-.92.539-1.066,1.5-1.074.694-.007,1.387-.155,2.082-.176a1.339,1.339,0,0,0,1.147-.682,8.477,8.477,0,0,0,1.172-3.43,1.216,1.216,0,0,0-.058-.311,1.536,1.536,0,0,1-1.2-.668,23.072,23.072,0,0,0-2.02-1.781.816.816,0,0,1-.355-.9q.345-1.488.645-2.987a.914.914,0,0,1,.57-.712c.176-.077.341-.181.572-.308a10.372,10.372,0,0,0-5.074-3.8,3.436,3.436,0,0,1-.206.846,2.379,2.379,0,0,1-.645.77c-.565.4-1.188.714-1.767,1.094a.781.781,0,0,1-.882.087c-1-.52-2-1.042-3.028-1.508C32.576,26.472,32.093,26.258,32.262,25.466Zm34.8,11.569c-.117-.4.658-1.409.811-1.674.59-1.023,1.235-2.013,1.8-3.05.684-1.249,1.344-2.512,1.952-3.8.267-.566.123-.894-.274-1.141a.827.827,0,0,0-1.093.231,4.331,4.331,0,0,0-.739.957c-.426.763-.781,1.565-1.207,2.327-.44.788-.915,1.559-1.414,2.311a.453.453,0,0,1-.836-.321,4.25,4.25,0,0,1,.286-1.093c.6-1.574,1.231-3.139,1.83-4.714a7.275,7.275,0,0,0,.376-1.343c.1-.6-.308-.8-.825-.605a2.771,2.771,0,0,0-1.289,1.464c-.92,1.948-1.811,3.909-2.711,5.867-.2.437-.909,1.415-1.233.52a3,3,0,0,1,.223-1.686c.461-1.563,1-3.1,1.443-4.671a4.341,4.341,0,0,0,.077-1.547c-.059-.655-.948-.485-1.207-.114a25.538,25.538,0,0,0-1.917,3.829c-.5,1.08-.9,2.209-1.387,3.295-.374.829-.8.944-1.589.5a1.285,1.285,0,0,1-.687-1.223c.007-.933-.011-1.867-.07-2.8-.031-.473-.148-1.47-.576-1.765-.76-.522-1.16.518-1.322,1.066a13.781,13.781,0,0,0-.623,2.537,32.257,32.257,0,0,0,.08,6.633,2.036,2.036,0,0,0,.9,1.509c.771.569,1.514,1.179,2.26,1.781,1.2.97,2.391,1.948,3.59,2.926A39.179,39.179,0,0,0,67.925,39c.989-.856,1.874-1.832,2.793-2.765a2.323,2.323,0,0,0,.69-1.726c-.034-.41-.357-1.2-.893-.9-.438.248-.621.9-.9,1.3-.421.6-.9,1.155-1.349,1.735-.181.238-.816.793-1.146.487A.2.2,0,0,1,67.061,37.036Z" transform="translate(0 0)"/>
          <path id="Path_34263" data-name="Path 34263" d="M21.869,23.034A5.75,5.75,0,0,1,18.614,22a9.117,9.117,0,0,1-3.449-4.244,22.382,22.382,0,0,1-.961-4.515c-.052-.353-.039-.759.37-.881,1.573-.469,1.639,1.279,1.8,2.4a13.655,13.655,0,0,0,1,3.266,5.462,5.462,0,0,0,3.272,2.819c1.787.7,3.267.112,4.717-1.026a7.586,7.586,0,0,0,2.811-4.973c.046-.288.106-.573.165-.859a.885.885,0,0,1,1.193-.757c.553.107.741.429.648,1.109a11.235,11.235,0,0,1-1.536,4.693A8.469,8.469,0,0,1,21.869,23.034Z" transform="translate(-2.486 -2.153)"/>
          <path id="Path_34264" data-name="Path 34264" d="M63.85,20.818a6.785,6.785,0,0,1-6.128-3.182,11.612,11.612,0,0,1-1.532-4.059,10.1,10.1,0,0,1-.162-1.562.991.991,0,0,1,.749-1.043.834.834,0,0,1,1.087.607A5.132,5.132,0,0,1,58.194,13a7.555,7.555,0,0,0,2.124,4.675,4.227,4.227,0,0,0,2.7,1.279,8.032,8.032,0,0,0,5.7-1.757,6.193,6.193,0,0,0,2.328-3.676,1.992,1.992,0,0,1,1.023-1.267.745.745,0,0,1,1.122.8,8.025,8.025,0,0,1-2.96,5.355A10.979,10.979,0,0,1,66,20.588,11.657,11.657,0,0,1,63.85,20.818Z" transform="translate(-9.82 -1.916)"/>
          <path id="Path_34265" data-name="Path 34265" d="M27.317,7.863a1.093,1.093,0,0,1-1.211-1.085.9.9,0,0,1,1.033-.811,1.159,1.159,0,0,1,1.1,1.207C28.218,7.614,27.868,7.875,27.317,7.863Z" transform="translate(-4.576 -1.046)"/>
          <path id="Path_34266" data-name="Path 34266" d="M22.36,5.815a1.259,1.259,0,0,1,1.16,1.263c-.021.343-.485.642-1.008.65a1.018,1.018,0,0,1-1.125-1.043A.864.864,0,0,1,22.36,5.815Z" transform="translate(-3.749 -1.019)"/>
          <path id="Path_34267" data-name="Path 34267" d="M68.421,7.847A1.145,1.145,0,0,1,67.23,6.836c-.017-.6.274-.893.9-.91a1.172,1.172,0,0,1,1.23,1.194C69.368,7.494,68.918,7.843,68.421,7.847Z" transform="translate(-11.784 -1.039)"/>
          <path id="Path_34268" data-name="Path 34268" d="M63.162,8.22a3.179,3.179,0,0,1-.576-.148.829.829,0,0,1-.525-.907.778.778,0,0,1,.581-.773.917.917,0,0,1,1.037.194,2.451,2.451,0,0,1,.283.434C64.337,7.7,64.028,8.227,63.162,8.22Z" transform="translate(-10.877 -1.108)"/>
          <path id="Path_34269" data-name="Path 34269" d="M42.931,47.064c-.638.036-1.275.078-1.913.1a.944.944,0,0,1-.981-.572c-.525-1.071-1.068-2.134-1.6-3.2a5.3,5.3,0,0,0-.487-.925.921.921,0,0,1,.062-1.265,4.1,4.1,0,0,1,.468-.518q1.727-1.609,3.464-3.209c.5-.459.643-.485,1.212-.066q1.9,1.4,3.75,2.853a1.165,1.165,0,0,1,.393,1.454c-.479,1.466-.95,2.934-1.392,4.41-.246.82-.261.864-1.133.87C44.156,47,43.543,47.029,42.931,47.064Z" transform="translate(-6.612 -6.505)"/>
        </g>
      </g>
    </g>
    <g id="アートワーク_20" data-name="アートワーク 20" transform="translate(305 116.373) rotate(9)">
      <g id="Group_13913" data-name="Group 13913" transform="translate(-57.364 -49.882)">
        <path id="Path_34228" data-name="Path 34228" d="M38.1,57.891c-1.67-12.673,8.013-20.8,17.582-20.821a17.564,17.564,0,0,1,12.256,4.74c5.583,5.121,7.026,11.474,5.17,18.772.114-.445,1.015-.882,1.351-1.177,1.491-1.311,3.155-2.335,4.729-3.534,1.032-.784,2.012-1.047,3.107-.177a.916.916,0,0,0,.387.1c0-1.845.074-3.628-.016-5.4a21.541,21.541,0,0,1,1.324-8.749,8.917,8.917,0,0,1,1.426-2.327,2.611,2.611,0,0,1,2.841-.841,4.638,4.638,0,0,1,3.49,2.984c.384.941.61,1.948.889,2.87.928-1.672,1.794-3.421,2.839-5.056a29.5,29.5,0,0,1,2.481-3.307,2.239,2.239,0,0,1,3.613.014,2.082,2.082,0,0,1,.527,1.195c.044.387-.129,1,.431,1.09a1.558,1.558,0,0,0,1.045-.45,4.394,4.394,0,0,1,2.982-1.1c.891-.008,1.782.118,2.694.186.07-.228.126-.4.173-.571a27.66,27.66,0,0,0,.654-6.678,23.875,23.875,0,0,0-6.611-18.035c-1.294-1.354-2.735-2.567-4.1-3.857A15.176,15.176,0,0,0,93.8,4.333C90.012,3.054,86.152,2.144,82.09,2.692A21.792,21.792,0,0,0,75.885,4.36a27.665,27.665,0,0,0-8.3,5.984,48.807,48.807,0,0,0-4.424,5.562,17.681,17.681,0,0,0-1.776,3.373c-.607,1.42-1.059,2.906-1.613,4.348a2.027,2.027,0,0,1-2.255,1.324,1.978,1.978,0,0,1-2.12-1.571,25.194,25.194,0,0,0-4.031-8.938c-2.887-4.088-6.086-7.8-11.181-9.2a3.923,3.923,0,0,1-.513-.2A26,26,0,0,0,27.6,3.254c-.227.013-.449.067-.676.093a22.244,22.244,0,0,0-6.008,1.768,22.567,22.567,0,0,0-6.371,3.654c-1.336,1.181-2.659,2.38-3.93,3.63a20.328,20.328,0,0,0-5.341,8.029A43.434,43.434,0,0,0,3.059,30.594c-.329,4.15-.526,8.3-.537,12.464,0,.636.12,1.271.171,1.907a33.383,33.383,0,0,0,1.314,6.292,43.112,43.112,0,0,0,4.1,10.283A49.177,49.177,0,0,0,12.656,67.9a99.439,99.439,0,0,0,16.595,15.51,49.328,49.328,0,0,0,9.219,5.373,102.067,102.067,0,0,0,17.316,6.463,7.544,7.544,0,0,0,5.873-.432c2.008-1.169,3.962-2.437,5.875-3.758,1.428-.985,2.778-2.089,4.119-3.195,3-2.472,6-4.942,8.938-7.484,2.418-2.092,4.742-4.294,7.119-6.431,1.667-1.5,3.366-2.963,5.032-4.461.721-.649.7-1.155-.058-1.814q-1.862-1.619-3.758-3.2c-1.1-.916-2.17-1.874-3.284-2.774-1.008-.814-2.208-1.443-3.164-2.307-.667-.6-1.209-.431-1.817.045-1.581,1.237-3.179,2.452-4.764,3.683-3.864,3-7.7,6.035-11.594,9a26.2,26.2,0,0,1-4.01,2.617,5.685,5.685,0,0,1-5.412.128,81.03,81.03,0,0,1-9.642-6.292c-2.481-1.784-4.754-3.857-7.145-5.771-2-1.6-4.053-3.13-6.048-4.734-1.815-1.459-3.57-2.991-5.378-4.459a1.532,1.532,0,0,1-.516-1.713A1.408,1.408,0,0,1,27.6,50.841a4.222,4.222,0,0,1,2.975.817c1.068.931,2.123,1.877,3.178,2.823A29.255,29.255,0,0,0,38.1,57.891Z" transform="translate(0.743 0.745)" fill="#e860b9"/>
        <path id="Path_34229" data-name="Path 34229" d="M41.518,30.894c-3.064.7-7.536,4.428-8.072,6.665.9.006,1.139.689,1.373,1.379.131.39.246.786.4,1.168q.707,1.779,1.438,3.549a1.105,1.105,0,0,1-.484,1.608,5.4,5.4,0,0,0-2.075,2.32,15.922,15.922,0,0,1-1.083,1.582,1.179,1.179,0,0,1-1.27.606,5.076,5.076,0,0,0-.774-.006,2.051,2.051,0,0,0,.957,1.517c2.232,1.749,4.5,3.463,6.638,5.315a3.782,3.782,0,0,0,3.27.919,1.1,1.1,0,0,1,1.443.878,9.991,9.991,0,0,0,.374,1.313,4.793,4.793,0,0,0,1.184,1.77c1.382.959,2.89,1.738,4.352,2.591,1.1-.708,2.137-1.376,3.174-2.035A2.627,2.627,0,0,0,53.6,60.473c.312-1.094.76-2.15,1.113-3.234.469-1.443.847-1.672,2.351-1.685,1.09-.01,2.177-.243,3.268-.277a2.1,2.1,0,0,0,1.8-1.071,13.3,13.3,0,0,0,1.839-5.384,1.909,1.909,0,0,0-.091-.488,2.412,2.412,0,0,1-1.891-1.049,36.21,36.21,0,0,0-3.17-2.795,1.281,1.281,0,0,1-.557-1.412q.542-2.336,1.012-4.688a1.435,1.435,0,0,1,.894-1.117c.277-.12.535-.285.9-.483A16.279,16.279,0,0,0,53.1,30.829a5.394,5.394,0,0,1-.324,1.328,3.734,3.734,0,0,1-1.012,1.209c-.887.625-1.864,1.121-2.773,1.718a1.226,1.226,0,0,1-1.385.137c-1.57-.816-3.142-1.635-4.753-2.366C42.012,32.472,41.253,32.136,41.518,30.894Z" transform="translate(9.119 9.077)" fill="#fff"/>
        <path id="Path_34230" data-name="Path 34230" d="M85.718,49.337c-.184-.633,1.033-2.212,1.272-2.628.926-1.605,1.939-3.16,2.828-4.787,1.073-1.96,2.11-3.943,3.064-5.962.419-.888.193-1.4-.43-1.792a1.3,1.3,0,0,0-1.715.362,6.8,6.8,0,0,0-1.16,1.5c-.668,1.2-1.226,2.457-1.9,3.653-.691,1.236-1.436,2.446-2.219,3.627a.711.711,0,0,1-1.313-.5A6.67,6.67,0,0,1,84.6,41.1c.945-2.471,1.933-4.927,2.872-7.4a11.419,11.419,0,0,0,.59-2.109c.161-.938-.483-1.259-1.294-.95a4.348,4.348,0,0,0-2.023,2.3c-1.443,3.057-2.843,6.136-4.255,9.209-.316.686-1.426,2.221-1.935.817a4.7,4.7,0,0,1,.35-2.646c.724-2.453,1.569-4.871,2.265-7.332a6.813,6.813,0,0,0,.12-2.428c-.093-1.028-1.489-.761-1.9-.179a40.085,40.085,0,0,0-3.008,6.01c-.786,1.7-1.408,3.468-2.177,5.171-.586,1.3-1.258,1.482-2.494.784a2.016,2.016,0,0,1-1.078-1.92c.01-1.464-.017-2.931-.11-4.391-.048-.743-.232-2.307-.9-2.77-1.192-.819-1.82.813-2.075,1.672a21.63,21.63,0,0,0-.979,3.982,50.63,50.63,0,0,0,.126,10.411A3.2,3.2,0,0,0,68.109,51.7c1.21.893,2.377,1.85,3.547,2.8,1.882,1.522,3.753,3.057,5.635,4.593a61.493,61.493,0,0,0,9.782-6.659c1.552-1.344,2.941-2.875,4.384-4.34a3.646,3.646,0,0,0,1.083-2.709c-.053-.643-.561-1.89-1.4-1.414-.687.39-.975,1.415-1.412,2.037-.661.94-1.419,1.812-2.118,2.724-.285.373-1.282,1.244-1.8.765A.316.316,0,0,1,85.718,49.337Z" transform="translate(19.539 8.792)" fill="#fff"/>
        <g id="Group_13911" data-name="Group 13911" transform="translate(16.466 57.223)">
          <path id="Path_34231" data-name="Path 34231" d="M37.185,65.722,40,61.764a2.921,2.921,0,0,1,.559-.755.764.764,0,0,1,.721.008.883.883,0,0,1,.15.709c-.034.2-.242.375-.372.562q-1.9,2.761-3.8,5.522c-.076.111-.119.247-.194.361-.228.344-.445.742-.957.6-.559-.153-.611-.63-.586-1.1.041-.775.151-1.548.167-2.322.028-1.4.008-2.808.008-4.52a18.273,18.273,0,0,0-1.98,2.616c-.629.95-1.215,1.929-1.839,2.883a2.414,2.414,0,0,1-.632.7.691.691,0,0,1-.627-.041.738.738,0,0,1-.238-.575,1.372,1.372,0,0,1,.3-.6q2.144-3.093,4.3-6.178c.026-.038.049-.076.072-.115.272-.438.576-.929,1.166-.747s.744.7.734,1.322c-.031,1.82-.01,3.641-.01,5.463Z" transform="translate(-7.521 -39.927)" fill="#fff"/>
          <path id="Path_34232" data-name="Path 34232" d="M19.86,54.594l-.018-.006c-.339.053-1.109,1.392-1.345,1.683-.277.344-.535.888-1.077.48-.511-.386-.188-.781.142-1.148.457-.51.889-1.043,1.32-1.577,1.293-1.6,2.573-3.208,3.873-4.8.731-.9,1.006-.852,1.829-.079a3.528,3.528,0,0,1,.232,5.334,4.2,4.2,0,0,1-2.471,1.085c-.338,1.269-.531,2.569-.755,3.863-.023.133,0,.274-.014.41-.028.425-.237.707-.683.686a.652.652,0,0,1-.7-.814c.132-.812.312-1.614.483-2.418a11.233,11.233,0,0,0,.506-2.026C21.181,55.385,20.023,54.668,19.86,54.594Zm1.049-1.148a2.106,2.106,0,0,0,2.415.783,2.327,2.327,0,0,0,1.438-2.145,1.722,1.722,0,0,0-1.188-2.025Z" transform="translate(-11.415 -42.925)" fill="#fff"/>
          <path id="Path_34233" data-name="Path 34233" d="M63.758,57.371c.665.709,1.271,1.371,1.9,2.015a.915.915,0,0,1,.29.932c-.058.221-.447.876-.711.59-1.289-1.4-2.507-2.859-3.7-4.338a23.349,23.349,0,0,1-1.833-2.4c-.283-.484-.185-.58.145-1.072A6.728,6.728,0,0,1,63,50.525c1.846-.69,3.067-.435,3.826.9a3.653,3.653,0,0,1-.844,4.468,19.1,19.1,0,0,1-1.637.99A6.126,6.126,0,0,0,63.758,57.371Zm-.806-.972c.8-.527,1.442-.946,2.08-1.371a2.325,2.325,0,0,0,.932-2.417,1.108,1.108,0,0,0-1.166-1.1,3.845,3.845,0,0,0-3.267,1.425,1.031,1.031,0,0,0-.048,1.566C61.959,55.048,62.374,55.646,62.952,56.4Z" transform="translate(1.063 -42.455)" fill="#fff"/>
          <path id="Path_34234" data-name="Path 34234" d="M40.3,71.051c-1.338.008-2.818-.3-2.21-1.7q1.46-3.377,2.938-6.747c.466-1.06,1.067-1.2,2.021-.484.327.247.637.516.955.774a4.655,4.655,0,0,1,1.09,6.092A4.306,4.306,0,0,1,41.8,70.928,10.383,10.383,0,0,1,40.3,71.051Zm1.8-7.844a48.168,48.168,0,0,0-2.67,6.493c2.388.507,4.468-.36,4.953-2.159S44.716,64.377,42.1,63.206Z" transform="translate(-5.292 -39.064)" fill="#fff"/>
          <path id="Path_34235" data-name="Path 34235" d="M30.63,62.525a8.029,8.029,0,0,1-2.336-1.992l-1.021,1.473c-.115.164,1.882,1.733,2.019,2,.344.676-.18,1.544-.893.928-.827-.713-1.647-1.433-2.467-2.154a.7.7,0,0,1-.065-1.082c1.477-1.852,2.968-3.692,4.43-5.556a1.338,1.338,0,0,1,1.79-.5c.847.413,2.764.988,2.316,2.225-.155.427-.567.43-.911.193-.409-.281-.764-.643-1.177-.916a.987.987,0,0,0-1.53.264,15.964,15.964,0,0,1-1.24,1.458.812.812,0,0,0,.065,1.3q.559.5,1.151.97c.2.159.523.427.514.749C31.256,62.5,30.994,62.634,30.63,62.525Z" transform="translate(-8.915 -40.888)" fill="#fff"/>
          <path id="Path_34236" data-name="Path 34236" d="M58.08,59.983c-.733-.8-1.274-1.414-1.834-2.006-.259-.273-.581-.545-.283-.929.346-.444.768-.208,1.077.063a8.484,8.484,0,0,1,1.006,1.115c1.042,1.323,2.063,2.664,3.105,3.987a.757.757,0,0,1-.045,1.1c-.717.693-2.11-1.661-2.459-2.094-.94.562-1.861,1.115-2.8,1.678-.37.221,1.12,1.568,1.28,1.718.3.278.616.494.673.935s-.161.88-.674.682c-.638-.245-1.28-1.188-1.684-1.707-.564-.724-1.06-1.5-1.619-2.225-.39-.506-.792-1-1.175-1.515-.273-.364-.628-.746-.164-1.195.356-.346.795-.159,1.177.465.261.427.513.861.783,1.282.148.228.327.436.584.777Z" transform="translate(-1.079 -40.498)" fill="#fff"/>
          <path id="Path_34237" data-name="Path 34237" d="M22.782,47.953a.6.6,0,0,1-.133.445c-.483.634-1.135-.118-1.526-.47-.166-.149-2.224-2.162-2.215-2.172-.786.949-1.4,1.939-2.243,2.865a10.076,10.076,0,0,0,1.342,1.3c.3.3.5,1.026.065,1.326-.348.241-.557-.136-.841-.4-.122-.113-1.518-1.336-1.43-1.451-.423.51-.746.941-1.115,1.329a6.312,6.312,0,0,1-1.117.98.739.739,0,0,1-.705-.109.929.929,0,0,1-.119-.73,1.354,1.354,0,0,1,.392-.546c1.393-1.509,2.793-3.01,4.185-4.519.308-.335.592-.694.876-1.05.522-.649.891-.727,1.45-.177.748.737,1.53,1.439,2.252,2.2C22.18,47.073,22.732,47.5,22.782,47.953Z" transform="translate(-12.72 -44.206)" fill="#fff"/>
          <path id="Path_34238" data-name="Path 34238" d="M51.381,60.51c.093,0,.185,0,.276.005.343.017.85.027.973.438a.519.519,0,0,1-.478.659c-.382.067-.819-.166-1.195-.088a2.557,2.557,0,0,0-1.562,2.36c.08.537.329.938.963.971.777.039,1.557.07,2.325.184,1.507.224,2.358.992,2.443,2.16a1.926,1.926,0,0,1-.968,1.973c-.711.4-2.1,1.505-2.865.667-.317-.35-.049-.7.3-.884a12.186,12.186,0,0,0,1.483-.7,1.808,1.808,0,0,0,.73-1.033c.082-.542-.462-.74-.913-.845a7.622,7.622,0,0,0-1.878-.308c-1.193.036-2.3-.185-2.735-1.37a3.265,3.265,0,0,1,.756-3.2A2.963,2.963,0,0,1,51.381,60.51Z" transform="translate(-2.298 -39.406)" fill="#fff"/>
          <path id="Path_34239" data-name="Path 34239" d="M29.594,54.112c-.044.514-.828,1.046-1.124,1.354a28.7,28.7,0,0,0-3.5,4.415c-.359.566-.834,1.877-1.7,1.241-.416-.307-.351-.693-.045-1.071,1.381-1.7,2.751-3.406,4.141-5.1A16.254,16.254,0,0,1,28.5,53.776c.316-.313.727-.4,1,.014A.493.493,0,0,1,29.594,54.112Z" transform="translate(-9.699 -41.467)" fill="#fff"/>
          <path id="Path_34240" data-name="Path 34240" d="M63,60.659a.5.5,0,0,1-.413.668.994.994,0,0,1-.806-.3c-1.122-1.249-2.2-2.538-3.3-3.806-.326-.375-.729-.691-1.024-1.089s-.379-.891.115-1.19c.444-.269.7.083.989.421.766.882,1.587,1.713,2.38,2.569C61.251,58.274,62.8,59.756,63,60.659Z" transform="translate(0.38 -41.073)" fill="#fff"/>
        </g>
        <g id="Group_13912" data-name="Group 13912">
          <path id="Path_34241" data-name="Path 34241" d="M112.555,50.377a.2.2,0,0,0,.057.082,4.027,4.027,0,0,1,1.892,5,7.052,7.052,0,0,1-1.557,3.023,47.213,47.213,0,0,1-10.688,8.964c-1.061.628-2.053,1.373-3.073,2.07-.149.1-.361.211-.4.357-.535,1.887-2.333,2.623-3.56,3.861-1.89,1.911-3.927,3.676-5.918,5.486-1.082.984-2.18,1.952-3.3,2.892-3.222,2.708-6.462,5.391-9.686,8.1-1.889,1.583-4.046,2.843-5.7,4.708a.909.909,0,0,1-.2.186c-2.3,1.379-4.366,3.156-6.9,4.162-3.254,1.293-7.222-.211-10.319-1.318-11.091-3.958-19.6-7.134-27.9-13.519A91.61,91.61,0,0,1,9.025,68.174,39.234,39.234,0,0,1,2.449,55.613C-.884,45.164-.5,34.393,1.722,23.744c.6-2.888,1.992-5.3,3.3-7.906,2.391-4.748,7.417-8.712,11.7-11.629A20.438,20.438,0,0,1,24.149,1.2C32.533-.535,43.335,1.97,49.89,7.642c3.69,3.195,5.956,7.613,8.406,11.747.066-.026.175-.038.192-.082,2.254-6.2,6.43-10.854,11.754-14.581A25.739,25.739,0,0,1,79.979.489a29.538,29.538,0,0,1,15.876,1.5,32.76,32.76,0,0,1,13.489,10.705,28.093,28.093,0,0,1,5.227,13.546,38.444,38.444,0,0,1-.923,11.835,18.115,18.115,0,0,1-.6,2.242c-.171.5-.136.96.3,1.219,1.672,1,1.45,2.575,1.063,4.013A47.773,47.773,0,0,1,112.555,50.377ZM38.842,58.636c-1.67-12.673,8.013-20.8,17.582-20.821a17.564,17.564,0,0,1,12.256,4.74c5.583,5.121,7.026,11.474,5.17,18.772.114-.445,1.015-.882,1.351-1.177,1.491-1.311,3.155-2.335,4.729-3.534,1.032-.784,2.012-1.047,3.107-.177a.916.916,0,0,0,.387.1c0-1.845.074-3.628-.016-5.4a21.541,21.541,0,0,1,1.324-8.749,8.917,8.917,0,0,1,1.426-2.327A2.611,2.611,0,0,1,89,39.222a4.638,4.638,0,0,1,3.49,2.984c.384.941.61,1.948.889,2.87.928-1.672,1.794-3.421,2.839-5.056A29.5,29.5,0,0,1,98.7,36.712a2.239,2.239,0,0,1,3.613.014,2.082,2.082,0,0,1,.527,1.195c.044.387-.129,1,.431,1.09a1.558,1.558,0,0,0,1.045-.45,4.394,4.394,0,0,1,2.982-1.1c.891-.008,1.782.118,2.694.186.07-.228.126-.4.173-.571a27.66,27.66,0,0,0,.654-6.678,23.875,23.875,0,0,0-6.611-18.035c-1.294-1.354-2.735-2.567-4.1-3.857a15.176,15.176,0,0,0-5.571-3.43C90.755,3.8,86.895,2.889,82.833,3.437a21.791,21.791,0,0,0-6.206,1.669,27.665,27.665,0,0,0-8.3,5.984A48.806,48.806,0,0,0,63.9,16.652a17.681,17.681,0,0,0-1.776,3.373c-.607,1.42-1.059,2.906-1.613,4.348A2.027,2.027,0,0,1,58.258,25.7a1.978,1.978,0,0,1-2.12-1.571,25.194,25.194,0,0,0-4.031-8.938c-2.887-4.088-6.086-7.8-11.181-9.2a3.923,3.923,0,0,1-.513-.2A26,26,0,0,0,28.341,4c-.227.013-.449.067-.676.093A22.244,22.244,0,0,0,21.657,5.86a22.567,22.567,0,0,0-6.371,3.654c-1.336,1.181-2.659,2.38-3.93,3.63a20.328,20.328,0,0,0-5.341,8.029A43.434,43.434,0,0,0,3.8,31.338c-.329,4.15-.526,8.3-.537,12.464,0,.636.12,1.271.171,1.907A33.383,33.383,0,0,0,4.749,52a43.112,43.112,0,0,0,4.1,10.283A49.177,49.177,0,0,0,13.4,68.643a99.438,99.438,0,0,0,16.595,15.51,49.329,49.329,0,0,0,9.219,5.373A102.067,102.067,0,0,0,56.528,95.99a7.544,7.544,0,0,0,5.873-.432c2.008-1.169,3.962-2.437,5.875-3.758C69.7,90.814,71.055,89.71,72.4,88.6c3-2.472,6-4.942,8.938-7.484,2.418-2.092,4.742-4.294,7.119-6.431,1.667-1.5,3.366-2.963,5.032-4.461.721-.649.7-1.155-.058-1.814q-1.862-1.619-3.758-3.2c-1.1-.916-2.169-1.874-3.284-2.774-1.008-.814-2.208-1.443-3.164-2.307-.667-.6-1.209-.431-1.817.045-1.581,1.237-3.179,2.452-4.764,3.683-3.864,3-7.7,6.035-11.594,9a26.2,26.2,0,0,1-4.01,2.617,5.685,5.685,0,0,1-5.412.128,81.03,81.03,0,0,1-9.642-6.292c-2.481-1.784-4.754-3.857-7.145-5.771-2-1.6-4.053-3.13-6.048-4.734-1.815-1.459-3.57-2.991-5.378-4.459a1.532,1.532,0,0,1-.516-1.713,1.408,1.408,0,0,1,1.451-1.056,4.222,4.222,0,0,1,2.975.817c1.068.931,2.123,1.877,3.178,2.823A29.255,29.255,0,0,0,38.842,58.636ZM50.637,39.971c-3.064.7-7.536,4.428-8.072,6.665.9.006,1.139.689,1.373,1.379.131.39.246.786.4,1.168q.707,1.779,1.438,3.549a1.105,1.105,0,0,1-.484,1.608,5.4,5.4,0,0,0-2.075,2.32,15.922,15.922,0,0,1-1.083,1.582,1.179,1.179,0,0,1-1.27.606,5.076,5.076,0,0,0-.774-.006,2.051,2.051,0,0,0,.957,1.517c2.232,1.749,4.5,3.463,6.638,5.315a3.782,3.782,0,0,0,3.27.919,1.1,1.1,0,0,1,1.443.878,9.99,9.99,0,0,0,.374,1.313,4.793,4.793,0,0,0,1.184,1.77c1.382.959,2.89,1.738,4.352,2.591,1.1-.708,2.137-1.376,3.174-2.035a2.627,2.627,0,0,0,1.234-1.557c.312-1.094.76-2.15,1.113-3.234.469-1.443.847-1.672,2.351-1.685,1.09-.01,2.177-.243,3.268-.277a2.1,2.1,0,0,0,1.8-1.071A13.3,13.3,0,0,0,73.087,57.9,1.908,1.908,0,0,0,73,57.412a2.412,2.412,0,0,1-1.891-1.049,36.208,36.208,0,0,0-3.17-2.795,1.281,1.281,0,0,1-.557-1.412q.542-2.336,1.012-4.688a1.435,1.435,0,0,1,.894-1.117c.277-.12.535-.285.9-.483a16.279,16.279,0,0,0-7.963-5.962,5.394,5.394,0,0,1-.324,1.328,3.734,3.734,0,0,1-1.012,1.209c-.887.625-1.864,1.121-2.773,1.718a1.226,1.226,0,0,1-1.385.137c-1.57-.815-3.142-1.635-4.753-2.366C51.131,41.549,50.372,41.214,50.637,39.971ZM105.256,58.13c-.184-.633,1.033-2.212,1.272-2.628.926-1.605,1.939-3.16,2.828-4.787,1.073-1.96,2.11-3.943,3.064-5.962.419-.888.193-1.4-.43-1.792a1.3,1.3,0,0,0-1.715.362,6.8,6.8,0,0,0-1.16,1.5c-.668,1.2-1.226,2.457-1.9,3.653-.691,1.236-1.436,2.446-2.219,3.627a.711.711,0,0,1-1.313-.5,6.67,6.67,0,0,1,.449-1.715c.945-2.471,1.933-4.927,2.872-7.4a11.418,11.418,0,0,0,.59-2.109c.161-.938-.483-1.259-1.294-.95a4.348,4.348,0,0,0-2.023,2.3c-1.443,3.057-2.843,6.136-4.255,9.209-.316.686-1.426,2.221-1.935.817a4.7,4.7,0,0,1,.35-2.646c.724-2.453,1.569-4.871,2.265-7.332a6.813,6.813,0,0,0,.12-2.428c-.093-1.028-1.489-.761-1.9-.179a40.084,40.084,0,0,0-3.008,6.01c-.786,1.7-1.408,3.468-2.177,5.171-.586,1.3-1.258,1.482-2.494.784a2.016,2.016,0,0,1-1.078-1.92c.01-1.464-.017-2.931-.11-4.391-.048-.743-.232-2.307-.9-2.77-1.192-.819-1.82.813-2.075,1.672a21.63,21.63,0,0,0-.979,3.982,50.629,50.629,0,0,0,.126,10.411,3.2,3.2,0,0,0,1.415,2.369c1.21.893,2.377,1.85,3.547,2.8,1.882,1.522,3.753,3.057,5.635,4.593a61.492,61.492,0,0,0,9.782-6.659c1.552-1.344,2.941-2.875,4.384-4.34a3.645,3.645,0,0,0,1.083-2.709c-.053-.643-.56-1.89-1.4-1.414-.687.39-.975,1.415-1.412,2.037-.661.94-1.419,1.812-2.118,2.724-.285.373-1.281,1.244-1.8.765A.316.316,0,0,1,105.256,58.13Z" transform="translate(0 0)"/>
          <path id="Path_34242" data-name="Path 34242" d="M26.246,29.155a9.025,9.025,0,0,1-5.108-1.617,14.309,14.309,0,0,1-5.413-6.661,35.13,35.13,0,0,1-1.508-7.087c-.082-.554-.061-1.191.581-1.382,2.469-.737,2.572,2.008,2.832,3.772a21.432,21.432,0,0,0,1.564,5.126A8.573,8.573,0,0,0,24.33,25.73c2.805,1.1,5.127.176,7.4-1.61a11.907,11.907,0,0,0,4.411-7.805c.072-.452.166-.9.259-1.348a1.388,1.388,0,0,1,1.873-1.188c.869.168,1.164.673,1.017,1.741a17.634,17.634,0,0,1-2.41,7.365C34.567,26.466,30.419,29.188,26.246,29.155Z" transform="translate(4.176 3.617)"/>
          <path id="Path_34243" data-name="Path 34243" d="M68.306,26.448a10.649,10.649,0,0,1-9.619-4.994,18.225,18.225,0,0,1-2.405-6.371,15.855,15.855,0,0,1-.254-2.452A1.555,1.555,0,0,1,57.2,10.994a1.31,1.31,0,0,1,1.706.953,8.054,8.054,0,0,1,.519,2.23,11.859,11.859,0,0,0,3.333,7.338A6.635,6.635,0,0,0,67,23.523a12.607,12.607,0,0,0,8.942-2.758A9.72,9.72,0,0,0,79.595,15,3.126,3.126,0,0,1,81.2,13.007a1.169,1.169,0,0,1,1.76,1.253c-.652,3.285-1.764,6.33-4.646,8.4-2.047,1.473-4.1,2.924-6.635,3.423A18.3,18.3,0,0,1,68.306,26.448Z" transform="translate(16.497 3.219)"/>
          <path id="Path_34244" data-name="Path 34244" d="M28.006,8.943a1.715,1.715,0,0,1-1.9-1.7,1.407,1.407,0,0,1,1.621-1.272,1.819,1.819,0,0,1,1.727,1.894C29.421,8.552,28.872,8.963,28.006,8.943Z" transform="translate(7.687 1.757)"/>
          <path id="Path_34245" data-name="Path 34245" d="M22.914,5.815A1.976,1.976,0,0,1,24.735,7.8c-.032.538-.761,1.008-1.582,1.02a1.6,1.6,0,0,1-1.766-1.637A1.357,1.357,0,0,1,22.914,5.815Z" transform="translate(6.298 1.712)"/>
          <path id="Path_34246" data-name="Path 34246" d="M69.1,8.942A1.8,1.8,0,0,1,67.23,7.354c-.027-.941.43-1.4,1.414-1.428A1.839,1.839,0,0,1,70.575,7.8C70.587,8.387,69.88,8.934,69.1,8.942Z" transform="translate(19.795 1.745)"/>
          <path id="Path_34247" data-name="Path 34247" d="M63.792,9.3a4.989,4.989,0,0,1-.9-.233,1.3,1.3,0,0,1-.825-1.424,1.222,1.222,0,0,1,.911-1.213,1.439,1.439,0,0,1,1.628.3,3.846,3.846,0,0,1,.444.681C65.637,8.49,65.153,9.313,63.792,9.3Z" transform="translate(18.271 1.861)"/>
          <path id="Path_34248" data-name="Path 34248" d="M45.9,52.732c-1,.057-2,.122-3,.157a1.482,1.482,0,0,1-1.539-.9c-.825-1.681-1.676-3.35-2.519-5.022a8.323,8.323,0,0,0-.764-1.452,1.446,1.446,0,0,1,.1-1.986,6.434,6.434,0,0,1,.735-.813q2.711-2.526,5.437-5.037c.784-.72,1.01-.761,1.9-.1q2.975,2.2,5.886,4.477a1.829,1.829,0,0,1,.617,2.282c-.752,2.3-1.491,4.6-2.185,6.921-.386,1.287-.409,1.357-1.779,1.366C47.822,52.631,46.86,52.678,45.9,52.732Z" transform="translate(11.107 10.927)"/>
        </g>
      </g>
    </g>
    <g id="アートワーク_21" data-name="アートワーク 21" transform="translate(222.064 144.478) rotate(8)">
      <g id="Group_14757" data-name="Group 14757" transform="translate(-32.902 -28.61)">
        <path id="Path_37716" data-name="Path 37716" d="M22.928,34.283A10.255,10.255,0,0,1,33.013,22.341a10.074,10.074,0,0,1,7.03,2.719c3.2,2.937,4.03,6.581,2.965,10.767.065-.255.582-.506.775-.675.855-.752,1.809-1.339,2.712-2.027a1.3,1.3,0,0,1,1.782-.1.526.526,0,0,0,.222.06c0-1.058.042-2.081-.009-3.1a12.355,12.355,0,0,1,.76-5.018,5.114,5.114,0,0,1,.818-1.335,1.5,1.5,0,0,1,1.63-.483,2.66,2.66,0,0,1,2,1.711c.221.54.35,1.117.51,1.646.532-.959,1.029-1.962,1.628-2.9a16.922,16.922,0,0,1,1.423-1.9,1.284,1.284,0,0,1,2.072.008,1.194,1.194,0,0,1,.3.685c.025.222-.074.576.247.625a.894.894,0,0,0,.6-.258,2.52,2.52,0,0,1,1.711-.629c.511,0,1.022.068,1.545.107.04-.131.072-.229.1-.327a15.865,15.865,0,0,0,.375-3.83A13.694,13.694,0,0,0,60.42,7.744c-.742-.777-1.569-1.472-2.35-2.213a8.7,8.7,0,0,0-3.2-1.967,14.663,14.663,0,0,0-6.715-.941A12.5,12.5,0,0,0,44.6,3.58a15.868,15.868,0,0,0-4.761,3.432A27.994,27.994,0,0,0,37.3,10.2a10.141,10.141,0,0,0-1.019,1.935c-.348.814-.607,1.667-.925,2.494a1.163,1.163,0,0,1-1.293.76,1.135,1.135,0,0,1-1.216-.9,14.45,14.45,0,0,0-2.312-5.127c-1.656-2.345-3.491-4.471-6.413-5.279a2.25,2.25,0,0,1-.294-.114A14.91,14.91,0,0,0,16.9,2.945c-.13.007-.258.039-.388.053a12.759,12.759,0,0,0-3.446,1.014,12.944,12.944,0,0,0-3.654,2.1c-.766.677-1.525,1.365-2.254,2.082A11.659,11.659,0,0,0,4.1,12.8a24.912,24.912,0,0,0-1.27,5.83c-.189,2.38-.3,4.762-.308,7.149,0,.365.069.729.1,1.094a19.147,19.147,0,0,0,.754,3.609,24.728,24.728,0,0,0,2.353,5.9,28.206,28.206,0,0,0,2.608,3.647,57.035,57.035,0,0,0,9.518,8.9A28.293,28.293,0,0,0,23.141,52a58.542,58.542,0,0,0,9.932,3.707,4.327,4.327,0,0,0,3.369-.248c1.152-.67,2.273-1.4,3.37-2.155.819-.565,1.593-1.2,2.362-1.832,1.719-1.418,3.441-2.835,5.127-4.293,1.387-1.2,2.72-2.463,4.083-3.688.956-.86,1.93-1.7,2.886-2.558.414-.372.4-.662-.033-1.04q-1.068-.929-2.155-1.835c-.632-.526-1.244-1.075-1.884-1.591-.578-.467-1.267-.828-1.815-1.323-.382-.346-.693-.247-1.042.026-.907.71-1.823,1.406-2.732,2.112-2.216,1.722-4.419,3.461-6.65,5.164a15.028,15.028,0,0,1-2.3,1.5,3.261,3.261,0,0,1-3.1.074,46.476,46.476,0,0,1-5.531-3.609C25.6,39.387,24.3,38.2,22.925,37.1c-1.146-.918-2.325-1.8-3.469-2.715-1.041-.837-2.048-1.716-3.085-2.558a.879.879,0,0,1-.3-.982.808.808,0,0,1,.832-.606,2.421,2.421,0,0,1,1.706.468c.613.534,1.218,1.077,1.823,1.619A16.78,16.78,0,0,0,22.928,34.283Z" transform="translate(-0.649 -0.652)" fill="gold"/>
        <path id="Path_37717" data-name="Path 37717" d="M37.02,30.866c-1.757.4-4.323,2.54-4.63,3.823.515,0,.653.395.788.791.075.223.141.451.229.67q.405,1.02.825,2.036a.634.634,0,0,1-.278.922,3.1,3.1,0,0,0-1.19,1.33,9.133,9.133,0,0,1-.621.907.676.676,0,0,1-.728.347,2.911,2.911,0,0,0-.444,0,1.176,1.176,0,0,0,.549.87c1.28,1,2.579,1.986,3.807,3.049a2.169,2.169,0,0,0,1.875.527.631.631,0,0,1,.828.5,5.731,5.731,0,0,0,.215.753,2.749,2.749,0,0,0,.679,1.015c.793.55,1.658,1,2.5,1.486.633-.406,1.226-.789,1.82-1.167a1.507,1.507,0,0,0,.708-.893c.179-.627.436-1.233.639-1.855.269-.828.486-.959,1.348-.967.625-.006,1.249-.14,1.875-.159a1.206,1.206,0,0,0,1.033-.614A7.631,7.631,0,0,0,49.9,41.15a1.1,1.1,0,0,0-.052-.28,1.383,1.383,0,0,1-1.085-.6,20.77,20.77,0,0,0-1.818-1.6.734.734,0,0,1-.319-.81q.311-1.34.581-2.689a.823.823,0,0,1,.513-.641c.159-.069.307-.163.515-.277a9.337,9.337,0,0,0-4.568-3.42,3.094,3.094,0,0,1-.186.762,2.142,2.142,0,0,1-.581.693c-.509.359-1.069.643-1.59.985a.7.7,0,0,1-.794.079c-.9-.468-1.8-.938-2.726-1.357C37.3,31.771,36.868,31.579,37.02,30.866Z" transform="translate(-7.976 -7.94)" fill="#fff"/>
        <path id="Path_37718" data-name="Path 37718" d="M77.462,41.032c-.105-.363.592-1.269.73-1.507.531-.921,1.112-1.812,1.622-2.746.615-1.124,1.21-2.262,1.757-3.42.241-.509.111-.8-.246-1.028a.745.745,0,0,0-.984.208,3.9,3.9,0,0,0-.665.862c-.383.687-.7,1.409-1.087,2.1-.4.709-.823,1.4-1.273,2.08a.408.408,0,0,1-.753-.289,3.826,3.826,0,0,1,.258-.984c.542-1.417,1.108-2.826,1.647-4.244a6.549,6.549,0,0,0,.339-1.209c.092-.538-.277-.722-.742-.545a2.494,2.494,0,0,0-1.16,1.318c-.828,1.754-1.63,3.519-2.44,5.282-.181.394-.818,1.274-1.11.468a2.7,2.7,0,0,1,.2-1.518c.415-1.407.9-2.794,1.3-4.205a3.908,3.908,0,0,0,.069-1.393c-.053-.59-.854-.437-1.087-.1A22.992,22.992,0,0,0,72.111,33.6c-.451.973-.808,1.989-1.249,2.966-.336.746-.722.85-1.431.45a1.156,1.156,0,0,1-.618-1.1c.006-.84-.01-1.681-.063-2.518-.027-.426-.133-1.323-.519-1.589-.684-.47-1.044.466-1.19.959a12.406,12.406,0,0,0-.561,2.284,29.039,29.039,0,0,0,.072,5.972,1.833,1.833,0,0,0,.812,1.359c.694.512,1.363,1.061,2.034,1.6,1.08.873,2.152,1.754,3.232,2.634A35.27,35.27,0,0,0,78.239,42.8c.89-.771,1.687-1.649,2.515-2.489a2.091,2.091,0,0,0,.621-1.554c-.03-.369-.321-1.084-.8-.811-.394.223-.559.812-.81,1.169-.379.539-.814,1.039-1.215,1.562-.163.214-.735.713-1.032.439A.181.181,0,0,1,77.462,41.032Z" transform="translate(-17.09 -7.691)" fill="#fff"/>
        <g id="Group_14755" data-name="Group 14755" transform="translate(9.444 32.821)">
          <path id="Path_37719" data-name="Path 37719" d="M34.283,62.745l1.613-2.27a1.675,1.675,0,0,1,.321-.433.438.438,0,0,1,.414,0,.506.506,0,0,1,.086.407c-.019.116-.139.215-.213.322q-1.09,1.584-2.178,3.167c-.044.064-.068.142-.111.207-.131.2-.255.425-.549.344-.321-.088-.35-.362-.336-.631.024-.445.087-.888.1-1.332.016-.8,0-1.61,0-2.593a10.481,10.481,0,0,0-1.136,1.5c-.361.545-.7,1.106-1.055,1.653a1.385,1.385,0,0,1-.362.4.4.4,0,0,1-.359-.024.423.423,0,0,1-.137-.33.787.787,0,0,1,.172-.342q1.229-1.774,2.464-3.544c.015-.022.028-.044.042-.066.156-.251.33-.533.669-.428s.427.4.421.758c-.018,1.044-.006,2.089-.006,3.133Z" transform="translate(-17.268 -47.949)" fill="#fff"/>
          <path id="Path_37720" data-name="Path 37720" d="M18.705,52.02l-.01,0c-.195.03-.636.8-.771.965-.159.2-.307.509-.618.275-.293-.221-.108-.448.082-.659.262-.293.51-.6.757-.9.742-.917,1.476-1.84,2.221-2.754.419-.515.577-.489,1.049-.045a2.024,2.024,0,0,1,.133,3.06,2.407,2.407,0,0,1-1.417.622c-.194.728-.3,1.474-.433,2.215-.013.076,0,.157-.008.235-.016.244-.136.405-.392.393a.374.374,0,0,1-.4-.467c.076-.466.179-.926.277-1.387a6.443,6.443,0,0,0,.29-1.162C19.464,52.474,18.8,52.063,18.705,52.02Zm.6-.659a1.208,1.208,0,0,0,1.385.449,1.335,1.335,0,0,0,.825-1.23.988.988,0,0,0-.682-1.161Z" transform="translate(-13.862 -45.327)" fill="#fff"/>
          <path id="Path_37721" data-name="Path 37721" d="M61.956,54.293c.382.407.729.786,1.087,1.156a.525.525,0,0,1,.166.535c-.033.127-.256.5-.408.339-.739-.8-1.438-1.64-2.123-2.488a13.392,13.392,0,0,1-1.051-1.377c-.163-.278-.106-.333.083-.615a3.859,3.859,0,0,1,1.811-1.475c1.059-.4,1.759-.249,2.195.517a2.1,2.1,0,0,1-.484,2.563,10.952,10.952,0,0,1-.939.568A3.514,3.514,0,0,0,61.956,54.293Zm-.463-.558c.459-.3.827-.543,1.193-.786a1.333,1.333,0,0,0,.535-1.386.636.636,0,0,0-.669-.63,2.205,2.205,0,0,0-1.874.817.591.591,0,0,0-.027.9C60.924,52.961,61.163,53.3,61.494,53.736Z" transform="translate(-24.777 -45.738)" fill="#fff"/>
          <path id="Path_37722" data-name="Path 37722" d="M39.3,67.051c-.768,0-1.616-.169-1.267-.978q.837-1.937,1.685-3.87c.267-.608.612-.689,1.159-.278.188.142.365.3.548.444a2.67,2.67,0,0,1,.625,3.494,2.47,2.47,0,0,1-1.889,1.117A5.956,5.956,0,0,1,39.3,67.051Zm1.033-4.5A27.628,27.628,0,0,0,38.8,66.275c1.37.291,2.563-.206,2.841-1.238S41.831,63.223,40.331,62.551Z" transform="translate(-19.218 -48.704)" fill="#fff"/>
          <path id="Path_37723" data-name="Path 37723" d="M28.5,59.52a4.605,4.605,0,0,1-1.34-1.143l-.586.845c-.066.094,1.08.994,1.158,1.149.2.388-.1.886-.512.532-.474-.409-.944-.822-1.415-1.235a.4.4,0,0,1-.037-.621c.847-1.062,1.7-2.117,2.541-3.187a.767.767,0,0,1,1.027-.29c.486.237,1.585.566,1.328,1.276-.089.245-.325.246-.523.111-.235-.161-.438-.369-.675-.526a.566.566,0,0,0-.878.151,9.156,9.156,0,0,1-.711.836.466.466,0,0,0,.037.748q.321.288.66.556c.116.091.3.245.295.43C28.862,59.5,28.712,59.582,28.5,59.52Z" transform="translate(-16.049 -47.109)" fill="#fff"/>
          <path id="Path_37724" data-name="Path 37724" d="M55.6,58.626c-.42-.461-.731-.811-1.052-1.151-.148-.157-.333-.313-.163-.533.2-.255.44-.12.618.036a4.866,4.866,0,0,1,.577.639c.6.759,1.183,1.528,1.781,2.287a.434.434,0,0,1-.026.628c-.411.4-1.21-.953-1.411-1.2l-1.606.962c-.212.127.642.9.734.985.172.16.353.284.386.536s-.092.5-.387.391c-.366-.14-.734-.682-.966-.979-.324-.415-.608-.859-.929-1.276-.223-.29-.454-.575-.674-.869-.157-.209-.36-.428-.094-.685.2-.2.456-.091.675.267.15.245.294.494.449.735.085.131.188.25.335.445Z" transform="translate(-22.903 -47.45)" fill="#fff"/>
          <path id="Path_37725" data-name="Path 37725" d="M18.491,46.355a.344.344,0,0,1-.076.255c-.277.364-.651-.068-.875-.27-.1-.085-1.276-1.24-1.27-1.246-.451.544-.8,1.112-1.287,1.643a5.779,5.779,0,0,0,.77.746c.172.171.284.589.037.76-.2.138-.319-.078-.483-.231-.07-.065-.871-.766-.82-.832-.243.293-.428.54-.639.762a3.621,3.621,0,0,1-.641.562.424.424,0,0,1-.4-.062.533.533,0,0,1-.068-.419.777.777,0,0,1,.225-.313c.8-.866,1.6-1.726,2.4-2.592.177-.192.339-.4.5-.6.3-.372.511-.417.832-.1.429.422.878.826,1.292,1.264C18.146,45.851,18.463,46.094,18.491,46.355Z" transform="translate(-12.72 -44.206)" fill="#fff"/>
          <path id="Path_37726" data-name="Path 37726" d="M49.99,60.51c.053,0,.106,0,.158,0,.2.01.488.016.558.251a.3.3,0,0,1-.274.378c-.219.039-.47-.1-.685-.05a1.466,1.466,0,0,0-.9,1.353c.046.308.189.538.552.557.445.022.893.04,1.333.105.864.128,1.353.569,1.4,1.239a1.1,1.1,0,0,1-.555,1.131c-.408.227-1.206.863-1.643.382-.182-.2-.028-.4.174-.507a6.99,6.99,0,0,0,.851-.4,1.037,1.037,0,0,0,.419-.592c.047-.311-.265-.425-.523-.485a4.372,4.372,0,0,0-1.077-.177c-.685.021-1.319-.106-1.569-.786a1.873,1.873,0,0,1,.434-1.835A1.7,1.7,0,0,1,49.99,60.51Z" transform="translate(-21.837 -48.405)" fill="#fff"/>
          <path id="Path_37727" data-name="Path 37727" d="M26.774,53.855c-.025.295-.475.6-.644.777a16.461,16.461,0,0,0-2.008,2.533c-.206.324-.478,1.077-.973.712-.238-.176-.2-.4-.026-.614.792-.974,1.578-1.953,2.375-2.923a9.323,9.323,0,0,1,.65-.677c.181-.18.417-.231.576.008A.283.283,0,0,1,26.774,53.855Z" transform="translate(-15.363 -46.602)" fill="#fff"/>
          <path id="Path_37728" data-name="Path 37728" d="M60.53,58.18a.288.288,0,0,1-.237.383.57.57,0,0,1-.463-.173c-.644-.716-1.261-1.456-1.894-2.183-.187-.215-.418-.4-.587-.624s-.218-.511.066-.682c.255-.154.4.048.567.241.44.506.91.982,1.365,1.474A5.175,5.175,0,0,1,60.53,58.18Z" transform="translate(-24.18 -46.947)" fill="#fff"/>
        </g>
        <g id="Group_14756" data-name="Group 14756">
          <path id="Path_37729" data-name="Path 37729" d="M64.558,28.895a.113.113,0,0,0,.033.047,2.31,2.31,0,0,1,1.085,2.869,4.045,4.045,0,0,1-.893,1.734,27.08,27.08,0,0,1-6.13,5.141c-.609.36-1.178.788-1.763,1.187-.085.059-.207.121-.231.2-.307,1.082-1.338,1.5-2.042,2.215-1.084,1.1-2.253,2.109-3.394,3.147-.621.564-1.25,1.12-1.892,1.659-1.848,1.553-3.706,3.092-5.556,4.643a28.606,28.606,0,0,0-3.271,2.7.522.522,0,0,1-.115.107,28.485,28.485,0,0,1-3.956,2.387c-1.867.742-4.142-.121-5.919-.756-6.361-2.27-11.239-4.092-16.005-7.754A52.545,52.545,0,0,1,5.176,39.1,22.5,22.5,0,0,1,1.4,31.9C-.507,25.9-.287,19.727.987,13.619a18.5,18.5,0,0,1,1.9-4.535c1.371-2.723,4.254-5,6.713-6.67A11.723,11.723,0,0,1,13.851.686a18.475,18.475,0,0,1,14.764,3.7c2.117,1.832,3.416,4.366,4.821,6.738.038-.015.1-.022.11-.047a17.428,17.428,0,0,1,6.741-8.363A14.763,14.763,0,0,1,45.873.281a16.942,16.942,0,0,1,9.106.858,18.79,18.79,0,0,1,7.737,6.14,16.113,16.113,0,0,1,3,7.77,22.05,22.05,0,0,1-.529,6.788,10.39,10.39,0,0,1-.344,1.286c-.1.29-.078.551.17.7.959.575.832,1.477.61,2.3A27.4,27.4,0,0,1,64.558,28.895ZM22.279,33.632A10.255,10.255,0,0,1,32.363,21.689a10.074,10.074,0,0,1,7.03,2.719c3.2,2.937,4.03,6.581,2.965,10.767.065-.255.582-.506.775-.675.855-.752,1.809-1.339,2.712-2.027a1.3,1.3,0,0,1,1.782-.1.526.526,0,0,0,.222.06c0-1.058.042-2.081-.009-3.1a12.355,12.355,0,0,1,.76-5.018,5.114,5.114,0,0,1,.818-1.335,1.5,1.5,0,0,1,1.63-.483,2.66,2.66,0,0,1,2,1.711c.221.54.35,1.117.51,1.646.532-.959,1.029-1.962,1.628-2.9a16.922,16.922,0,0,1,1.423-1.9,1.284,1.284,0,0,1,2.072.008,1.194,1.194,0,0,1,.3.685c.025.222-.074.576.247.625a.894.894,0,0,0,.6-.258,2.52,2.52,0,0,1,1.711-.629c.511,0,1.022.068,1.545.107.04-.131.072-.229.1-.327a15.865,15.865,0,0,0,.375-3.83A13.694,13.694,0,0,0,59.77,7.093C59.028,6.316,58.2,5.62,57.42,4.88a8.7,8.7,0,0,0-3.2-1.967,14.663,14.663,0,0,0-6.715-.941,12.5,12.5,0,0,0-3.559.957A15.868,15.868,0,0,0,39.19,6.361a27.994,27.994,0,0,0-2.538,3.19,10.141,10.141,0,0,0-1.019,1.935c-.348.814-.607,1.667-.925,2.494a1.163,1.163,0,0,1-1.293.76,1.135,1.135,0,0,1-1.216-.9,14.451,14.451,0,0,0-2.312-5.127C28.231,6.367,26.4,4.24,23.473,3.432a2.25,2.25,0,0,1-.294-.114,14.91,14.91,0,0,0-6.924-1.025c-.13.007-.258.039-.388.053a12.759,12.759,0,0,0-3.446,1.014,12.944,12.944,0,0,0-3.654,2.1C8,6.134,7.243,6.822,6.514,7.539A11.659,11.659,0,0,0,3.45,12.144a24.912,24.912,0,0,0-1.27,5.83c-.189,2.38-.3,4.762-.308,7.149,0,.365.069.729.1,1.094a19.147,19.147,0,0,0,.754,3.609,24.728,24.728,0,0,0,2.353,5.9,28.206,28.206,0,0,0,2.608,3.647,57.035,57.035,0,0,0,9.518,8.9,28.293,28.293,0,0,0,5.288,3.082,58.542,58.542,0,0,0,9.932,3.707,4.327,4.327,0,0,0,3.369-.248c1.152-.67,2.273-1.4,3.37-2.155.819-.565,1.593-1.2,2.362-1.832,1.719-1.418,3.441-2.835,5.127-4.293,1.387-1.2,2.72-2.463,4.083-3.688.956-.86,1.93-1.7,2.886-2.558.414-.372.4-.662-.033-1.04q-1.068-.929-2.155-1.835c-.632-.526-1.244-1.075-1.884-1.591-.578-.467-1.267-.828-1.815-1.323-.382-.346-.693-.247-1.042.026-.907.71-1.823,1.406-2.732,2.112-2.216,1.722-4.419,3.461-6.65,5.164a15.028,15.028,0,0,1-2.3,1.5,3.261,3.261,0,0,1-3.1.074,46.476,46.476,0,0,1-5.531-3.609c-1.423-1.023-2.727-2.213-4.1-3.31-1.146-.918-2.325-1.8-3.469-2.715-1.041-.837-2.048-1.716-3.085-2.558a.879.879,0,0,1-.3-.982.808.808,0,0,1,.832-.606,2.421,2.421,0,0,1,1.706.468c.613.534,1.218,1.077,1.823,1.619A16.78,16.78,0,0,0,22.279,33.632Zm6.765-10.705c-1.757.4-4.323,2.54-4.63,3.823.515,0,.653.395.788.791.075.223.141.451.229.67q.405,1.02.825,2.036a.634.634,0,0,1-.278.922,3.1,3.1,0,0,0-1.19,1.33,9.133,9.133,0,0,1-.621.907.676.676,0,0,1-.728.347,2.911,2.911,0,0,0-.444,0,1.176,1.176,0,0,0,.549.87c1.28,1,2.579,1.986,3.807,3.049a2.169,2.169,0,0,0,1.875.527.631.631,0,0,1,.828.5,5.731,5.731,0,0,0,.215.753,2.749,2.749,0,0,0,.679,1.015c.793.55,1.658,1,2.5,1.486.633-.406,1.226-.789,1.82-1.167a1.507,1.507,0,0,0,.708-.893c.179-.627.436-1.233.639-1.855.269-.828.486-.959,1.348-.967.625-.006,1.249-.14,1.875-.159a1.206,1.206,0,0,0,1.033-.614A7.631,7.631,0,0,0,41.92,33.21a1.1,1.1,0,0,0-.052-.28,1.383,1.383,0,0,1-1.085-.6,20.769,20.769,0,0,0-1.818-1.6.734.734,0,0,1-.319-.81q.311-1.34.581-2.689a.823.823,0,0,1,.513-.641c.159-.069.307-.163.515-.277a9.337,9.337,0,0,0-4.568-3.42,3.094,3.094,0,0,1-.186.762,2.142,2.142,0,0,1-.581.693c-.509.359-1.069.643-1.59.985a.7.7,0,0,1-.794.079c-.9-.468-1.8-.938-2.726-1.357C29.327,23.831,28.892,23.639,29.044,22.926ZM60.372,33.341c-.105-.363.592-1.269.73-1.507.531-.921,1.112-1.812,1.622-2.746.615-1.124,1.21-2.262,1.757-3.42.241-.509.111-.8-.246-1.028a.745.745,0,0,0-.984.208,3.9,3.9,0,0,0-.665.862c-.383.687-.7,1.409-1.087,2.1-.4.709-.823,1.4-1.273,2.08a.408.408,0,0,1-.753-.289,3.826,3.826,0,0,1,.258-.984c.542-1.417,1.108-2.826,1.647-4.244a6.548,6.548,0,0,0,.339-1.209c.092-.538-.277-.722-.742-.545a2.494,2.494,0,0,0-1.16,1.318c-.828,1.754-1.63,3.519-2.44,5.282-.181.394-.818,1.274-1.11.468a2.7,2.7,0,0,1,.2-1.518c.415-1.407.9-2.794,1.3-4.205a3.908,3.908,0,0,0,.069-1.393c-.053-.59-.854-.437-1.087-.1a22.991,22.991,0,0,0-1.725,3.447c-.451.973-.808,1.989-1.249,2.966-.336.746-.722.85-1.431.45a1.156,1.156,0,0,1-.618-1.1c.006-.84-.01-1.681-.063-2.518-.027-.426-.133-1.323-.519-1.589-.684-.47-1.044.466-1.19.959a12.406,12.406,0,0,0-.561,2.284,29.039,29.039,0,0,0,.072,5.972,1.833,1.833,0,0,0,.812,1.359c.694.512,1.363,1.061,2.034,1.6,1.08.873,2.152,1.754,3.232,2.634a35.27,35.27,0,0,0,5.611-3.819c.89-.771,1.687-1.649,2.515-2.489a2.091,2.091,0,0,0,.621-1.554c-.03-.369-.321-1.084-.8-.811-.394.223-.559.811-.81,1.169-.379.539-.814,1.039-1.215,1.562-.163.214-.735.713-1.032.439A.181.181,0,0,1,60.372,33.341Z" transform="translate(0 0)"/>
          <path id="Path_37730" data-name="Path 37730" d="M21.1,21.961a5.177,5.177,0,0,1-2.93-.927,8.207,8.207,0,0,1-3.1-3.821,20.149,20.149,0,0,1-.865-4.065c-.047-.318-.035-.683.333-.793,1.416-.422,1.475,1.152,1.624,2.164a12.293,12.293,0,0,0,.9,2.94A4.917,4.917,0,0,0,20,20a4.055,4.055,0,0,0,4.246-.924,6.829,6.829,0,0,0,2.53-4.477c.042-.259.1-.516.148-.773A.8.8,0,0,1,28,13.142c.5.1.667.386.584,1A10.114,10.114,0,0,1,27.2,18.365,7.624,7.624,0,0,1,21.1,21.961Z" transform="translate(-3.653 -3.164)"/>
          <path id="Path_37731" data-name="Path 37731" d="M63.07,19.832a6.108,6.108,0,0,1-5.517-2.864,10.453,10.453,0,0,1-1.379-3.654,9.094,9.094,0,0,1-.146-1.406.892.892,0,0,1,.674-.939.751.751,0,0,1,.979.546,4.62,4.62,0,0,1,.3,1.279A6.8,6.8,0,0,0,59.89,17a3.806,3.806,0,0,0,2.43,1.152,7.231,7.231,0,0,0,5.129-1.582,5.575,5.575,0,0,0,2.1-3.309,1.793,1.793,0,0,1,.921-1.14.671.671,0,0,1,1.01.719,7.225,7.225,0,0,1-2.665,4.821,9.884,9.884,0,0,1-3.806,1.963A10.494,10.494,0,0,1,63.07,19.832Z" transform="translate(-14.43 -2.816)"/>
          <path id="Path_37732" data-name="Path 37732" d="M27.2,7.674a.984.984,0,0,1-1.09-.977.807.807,0,0,1,.93-.73,1.043,1.043,0,0,1,.99,1.086C28.007,7.449,27.693,7.685,27.2,7.674Z" transform="translate(-6.724 -1.537)"/>
          <path id="Path_37733" data-name="Path 37733" d="M22.263,5.815a1.133,1.133,0,0,1,1.045,1.137c-.019.309-.437.578-.907.585A.917.917,0,0,1,21.388,6.6.778.778,0,0,1,22.263,5.815Z" transform="translate(-5.508 -1.498)"/>
          <path id="Path_37734" data-name="Path 37734" d="M68.3,7.656a1.031,1.031,0,0,1-1.072-.911c-.016-.54.246-.8.811-.819A1.055,1.055,0,0,1,69.148,7C69.155,7.337,68.75,7.651,68.3,7.656Z" transform="translate(-17.315 -1.526)"/>
          <path id="Path_37735" data-name="Path 37735" d="M63.051,8.031a2.861,2.861,0,0,1-.519-.134.746.746,0,0,1-.473-.817.7.7,0,0,1,.523-.7.826.826,0,0,1,.934.174,2.206,2.206,0,0,1,.255.391C64.109,7.564,63.831,8.036,63.051,8.031Z" transform="translate(-15.982 -1.628)"/>
          <path id="Path_37736" data-name="Path 37736" d="M42.411,46.071c-.574.033-1.148.07-1.722.09a.85.85,0,0,1-.883-.515c-.473-.964-.961-1.921-1.445-2.881a4.774,4.774,0,0,0-.438-.833.829.829,0,0,1,.056-1.139,3.69,3.69,0,0,1,.422-.466q1.555-1.449,3.118-2.889c.45-.413.579-.437,1.091-.059q1.706,1.26,3.376,2.568a1.049,1.049,0,0,1,.354,1.309c-.431,1.319-.855,2.641-1.253,3.97-.221.738-.235.778-1.02.783C43.514,46.013,42.963,46.04,42.411,46.071Z" transform="translate(-9.715 -9.558)"/>
        </g>
      </g>
    </g>
    <g id="アートワーク_22" data-name="アートワーク 22" transform="translate(143.363 119.525) rotate(-9)">
      <g id="Group_14760" data-name="Group 14760" transform="translate(-52.837 -45.945)">
        <path id="Path_37737" data-name="Path 37737" d="M35.292,53.522c-1.538-11.673,7.38-19.157,16.195-19.178A16.178,16.178,0,0,1,62.776,38.71C67.918,43.427,69.248,49.279,67.538,56c.1-.41.935-.812,1.245-1.084,1.374-1.208,2.906-2.151,4.355-3.255A2.082,2.082,0,0,1,76,51.5a.844.844,0,0,0,.356.1c0-1.7.068-3.342-.014-4.978a19.841,19.841,0,0,1,1.22-8.059,8.213,8.213,0,0,1,1.314-2.144,2.4,2.4,0,0,1,2.617-.775,4.272,4.272,0,0,1,3.214,2.748c.354.867.562,1.794.819,2.643.855-1.54,1.653-3.151,2.615-4.657a27.174,27.174,0,0,1,2.286-3.046,2.063,2.063,0,0,1,3.328.013,1.917,1.917,0,0,1,.485,1.1c.041.356-.119.925.4,1a1.435,1.435,0,0,0,.962-.415,4.047,4.047,0,0,1,2.747-1.01c.82-.007,1.642.109,2.481.172.064-.21.116-.367.16-.526a25.477,25.477,0,0,0,.6-6.151A21.991,21.991,0,0,0,95.5,10.9c-1.192-1.247-2.519-2.364-3.774-3.553a13.978,13.978,0,0,0-5.132-3.16A23.546,23.546,0,0,0,75.811,2.679,20.072,20.072,0,0,0,70.1,4.216a25.482,25.482,0,0,0-7.646,5.512,44.955,44.955,0,0,0-4.075,5.123,16.286,16.286,0,0,0-1.636,3.107c-.559,1.308-.975,2.677-1.486,4a1.867,1.867,0,0,1-2.077,1.22,1.822,1.822,0,0,1-1.953-1.447A23.206,23.206,0,0,0,47.51,13.5c-2.659-3.765-5.606-7.18-10.3-8.477a3.613,3.613,0,0,1-.472-.184A23.944,23.944,0,0,0,25.619,3.2c-.209.012-.414.062-.622.086a20.489,20.489,0,0,0-5.533,1.629,20.786,20.786,0,0,0-5.868,3.366c-1.23,1.087-2.449,2.193-3.62,3.343a18.723,18.723,0,0,0-4.919,7.4,40.006,40.006,0,0,0-2.039,9.363c-.3,3.823-.484,7.647-.495,11.481,0,.585.111,1.171.157,1.756a30.748,30.748,0,0,0,1.21,5.8,39.71,39.71,0,0,0,3.778,9.472,45.3,45.3,0,0,0,4.189,5.857A91.591,91.591,0,0,0,27.142,77.026a45.435,45.435,0,0,0,8.492,4.949,94.012,94.012,0,0,0,15.949,5.953,6.949,6.949,0,0,0,5.409-.4c1.849-1.077,3.65-2.245,5.412-3.461,1.315-.907,2.559-1.924,3.794-2.943,2.76-2.277,5.526-4.552,8.233-6.894,2.227-1.927,4.367-3.955,6.558-5.923,1.536-1.381,3.1-2.729,4.634-4.109.664-.6.645-1.064-.054-1.67q-1.715-1.492-3.461-2.947c-1.015-.844-2-1.726-3.025-2.555-.929-.75-2.034-1.329-2.914-2.125-.614-.556-1.114-.4-1.674.042-1.456,1.14-2.928,2.258-4.388,3.392-3.559,2.766-7.1,5.558-10.679,8.292a24.133,24.133,0,0,1-3.694,2.411,5.237,5.237,0,0,1-4.985.118,74.636,74.636,0,0,1-8.881-5.8c-2.286-1.643-4.379-3.553-6.581-5.315-1.841-1.474-3.733-2.883-5.57-4.36-1.672-1.344-3.288-2.755-4.954-4.107A1.411,1.411,0,0,1,24.286,48a1.3,1.3,0,0,1,1.337-.973,3.888,3.888,0,0,1,2.74.752c.984.857,1.955,1.729,2.927,2.6A26.947,26.947,0,0,0,35.292,53.522Z" transform="translate(0.485 0.486)" fill="#cb0f22"/>
        <path id="Path_37738" data-name="Path 37738" d="M40.686,30.889c-2.822.647-6.942,4.079-7.435,6.139.826.006,1.049.634,1.265,1.27.12.359.227.724.367,1.075q.651,1.638,1.325,3.269a1.018,1.018,0,0,1-.446,1.481,4.97,4.97,0,0,0-1.911,2.137,14.667,14.667,0,0,1-1,1.457,1.086,1.086,0,0,1-1.17.558,4.675,4.675,0,0,0-.713-.006,1.889,1.889,0,0,0,.881,1.4c2.056,1.611,4.141,3.189,6.114,4.9a3.483,3.483,0,0,0,3.012.847,1.013,1.013,0,0,1,1.329.808,9.2,9.2,0,0,0,.345,1.209,4.415,4.415,0,0,0,1.091,1.63c1.273.883,2.662,1.6,4.008,2.387,1.017-.652,1.968-1.267,2.924-1.874a2.42,2.42,0,0,0,1.136-1.434c.287-1.007.7-1.98,1.025-2.978.432-1.329.78-1.54,2.165-1.552,1-.01,2.005-.224,3.011-.255a1.936,1.936,0,0,0,1.658-.986A12.255,12.255,0,0,0,61.364,47.4a1.758,1.758,0,0,0-.083-.449,2.221,2.221,0,0,1-1.742-.966,33.354,33.354,0,0,0-2.92-2.574,1.179,1.179,0,0,1-.513-1.3q.5-2.151.932-4.318a1.322,1.322,0,0,1,.824-1.029c.255-.111.492-.262.827-.445a14.994,14.994,0,0,0-7.335-5.492,4.968,4.968,0,0,1-.3,1.223,3.44,3.44,0,0,1-.932,1.114c-.817.576-1.717,1.033-2.554,1.582a1.129,1.129,0,0,1-1.276.126c-1.446-.751-2.894-1.506-4.378-2.18C41.14,32.342,40.442,32.033,40.686,30.889Z" transform="translate(5.955 5.928)" fill="#fff"/>
        <path id="Path_37739" data-name="Path 37739" d="M84.19,47.8c-.169-.583.951-2.038,1.172-2.42.852-1.478,1.786-2.91,2.605-4.409.988-1.805,1.943-3.632,2.822-5.492.386-.818.178-1.292-.4-1.65a1.2,1.2,0,0,0-1.58.334,6.262,6.262,0,0,0-1.068,1.384c-.615,1.1-1.129,2.263-1.746,3.365-.637,1.139-1.322,2.253-2.044,3.341a.655.655,0,0,1-1.209-.464,6.144,6.144,0,0,1,.414-1.58c.87-2.276,1.78-4.538,2.646-6.815a10.516,10.516,0,0,0,.544-1.942c.148-.864-.445-1.16-1.192-.875a4.005,4.005,0,0,0-1.864,2.116c-1.329,2.816-2.618,5.651-3.919,8.482-.291.632-1.314,2.046-1.782.752a4.33,4.33,0,0,1,.322-2.437C78.581,37.231,79.36,35,80,32.737a6.276,6.276,0,0,0,.111-2.237c-.086-.947-1.371-.7-1.746-.165A36.921,36.921,0,0,0,75.6,35.871c-.724,1.562-1.3,3.194-2.005,4.763-.54,1.2-1.159,1.365-2.3.723a1.857,1.857,0,0,1-.993-1.768c.01-1.348-.016-2.7-.1-4.044-.044-.684-.213-2.125-.833-2.552-1.1-.755-1.676.749-1.911,1.54a19.923,19.923,0,0,0-.9,3.668,46.634,46.634,0,0,0,.116,9.59,2.944,2.944,0,0,0,1.3,2.182c1.115.823,2.189,1.7,3.267,2.575,1.734,1.4,3.456,2.816,5.19,4.23a56.64,56.64,0,0,0,9.01-6.133c1.43-1.238,2.709-2.648,4.038-4a3.358,3.358,0,0,0,1-2.5c-.049-.593-.516-1.741-1.291-1.3-.633.359-.9,1.3-1.3,1.877-.609.866-1.307,1.669-1.951,2.509-.262.343-1.18,1.146-1.657.7A.291.291,0,0,1,84.19,47.8Z" transform="translate(12.76 5.742)" fill="#fff"/>
        <g id="Group_14758" data-name="Group 14758" transform="translate(15.167 52.707)">
          <path id="Path_37740" data-name="Path 37740" d="M36.648,65.171l2.59-3.646a2.69,2.69,0,0,1,.515-.7.7.7,0,0,1,.664.007.813.813,0,0,1,.138.653c-.031.186-.223.346-.342.517q-1.751,2.543-3.5,5.086c-.07.1-.11.228-.179.333-.21.317-.41.683-.881.553-.515-.141-.563-.581-.54-1.013.038-.714.139-1.426.154-2.139.026-1.292.007-2.586.007-4.163a16.831,16.831,0,0,0-1.824,2.41c-.579.875-1.12,1.777-1.694,2.655a2.224,2.224,0,0,1-.582.649.637.637,0,0,1-.577-.038.68.68,0,0,1-.219-.529,1.264,1.264,0,0,1,.277-.55q1.974-2.849,3.957-5.691c.024-.035.045-.07.067-.106.25-.4.531-.856,1.074-.688s.686.647.676,1.217c-.029,1.676-.01,3.354-.01,5.031Z" transform="translate(-9.325 -41.412)" fill="#fff"/>
          <path id="Path_37741" data-name="Path 37741" d="M19.646,54.118l-.017-.006c-.312.049-1.022,1.282-1.239,1.55-.255.317-.492.818-.992.442-.471-.355-.173-.719.131-1.058.421-.47.819-.961,1.216-1.452,1.191-1.472,2.37-2.955,3.567-4.422.674-.826.926-.785,1.685-.073a3.25,3.25,0,0,1,.213,4.913,3.866,3.866,0,0,1-2.276,1c-.311,1.168-.489,2.367-.7,3.558-.021.123,0,.253-.013.378-.026.391-.218.651-.63.632a.6.6,0,0,1-.64-.75c.122-.748.287-1.487.445-2.227a10.347,10.347,0,0,0,.466-1.866C20.863,54.846,19.8,54.186,19.646,54.118Zm.966-1.058a1.94,1.94,0,0,0,2.225.721,2.143,2.143,0,0,0,1.325-1.976,1.586,1.586,0,0,0-1.095-1.865Z" transform="translate(-11.868 -43.369)" fill="#fff"/>
          <path id="Path_37742" data-name="Path 37742" d="M63.425,56.8c.613.653,1.171,1.263,1.746,1.856a.842.842,0,0,1,.267.858c-.054.2-.411.807-.655.544-1.188-1.286-2.309-2.634-3.409-4a21.507,21.507,0,0,1-1.688-2.212c-.261-.446-.17-.534.134-.987A6.2,6.2,0,0,1,62.727,50.5c1.7-.635,2.825-.4,3.524.83a3.364,3.364,0,0,1-.777,4.116,17.589,17.589,0,0,1-1.508.912A5.644,5.644,0,0,0,63.425,56.8Zm-.743-.9c.737-.485,1.328-.872,1.916-1.263a2.141,2.141,0,0,0,.858-2.226,1.021,1.021,0,0,0-1.074-1.011,3.542,3.542,0,0,0-3.009,1.313.949.949,0,0,0-.044,1.443C61.767,54.662,62.15,55.213,62.682,55.906Z" transform="translate(-3.719 -43.063)" fill="#fff"/>
          <path id="Path_37743" data-name="Path 37743" d="M40.114,70.311c-1.233.007-2.6-.272-2.035-1.57q1.345-3.11,2.707-6.214c.429-.976.982-1.106,1.861-.446.3.228.587.476.88.713a4.288,4.288,0,0,1,1,5.611A3.966,3.966,0,0,1,41.5,70.2,9.564,9.564,0,0,1,40.114,70.311Zm1.66-7.225a44.367,44.367,0,0,0-2.46,5.981c2.2.467,4.116-.331,4.562-1.989S44.182,64.163,41.774,63.085Z" transform="translate(-7.869 -40.848)" fill="#fff"/>
          <path id="Path_37744" data-name="Path 37744" d="M30.237,61.969a7.4,7.4,0,0,1-2.152-1.835l-.941,1.357c-.106.151,1.734,1.6,1.86,1.846.317.622-.166,1.422-.823.855-.762-.657-1.517-1.32-2.273-1.984a.647.647,0,0,1-.06-1c1.36-1.706,2.734-3.4,4.08-5.117a1.232,1.232,0,0,1,1.649-.465c.78.38,2.546.91,2.133,2.05-.143.393-.522.4-.839.178-.377-.259-.7-.593-1.084-.844a.909.909,0,0,0-1.409.243A14.7,14.7,0,0,1,29.236,58.6a.748.748,0,0,0,.06,1.2q.515.463,1.06.893c.186.147.482.393.473.69C30.813,61.943,30.572,62.069,30.237,61.969Z" transform="translate(-10.235 -42.039)" fill="#fff"/>
          <path id="Path_37745" data-name="Path 37745" d="M57.62,59.732c-.675-.74-1.173-1.3-1.689-1.848-.238-.252-.535-.5-.261-.856.318-.409.707-.192.992.058a7.815,7.815,0,0,1,.926,1.027c.96,1.219,1.9,2.454,2.86,3.672a.7.7,0,0,1-.042,1.009c-.661.638-1.943-1.53-2.265-1.929-.866.517-1.715,1.027-2.579,1.545-.341.2,1.031,1.444,1.179,1.582.277.256.568.455.62.861s-.148.811-.621.628c-.588-.225-1.179-1.095-1.551-1.573-.52-.666-.976-1.379-1.492-2.05-.359-.466-.73-.924-1.083-1.395-.252-.335-.578-.687-.151-1.1.328-.318.732-.147,1.084.428.241.393.472.793.721,1.18.136.21.3.4.538.715Z" transform="translate(-5.118 -41.785)" fill="#fff"/>
          <path id="Path_37746" data-name="Path 37746" d="M21.988,47.658a.552.552,0,0,1-.123.41c-.445.584-1.046-.108-1.406-.433-.153-.137-2.048-1.991-2.04-2-.724.874-1.29,1.786-2.066,2.639a9.28,9.28,0,0,0,1.236,1.2c.275.274.457.945.06,1.221-.321.222-.513-.125-.775-.371-.112-.1-1.4-1.23-1.317-1.337-.39.47-.687.867-1.027,1.224a5.814,5.814,0,0,1-1.029.9.68.68,0,0,1-.65-.1.855.855,0,0,1-.11-.672,1.247,1.247,0,0,1,.361-.5c1.283-1.39,2.573-2.772,3.855-4.162.284-.309.545-.639.807-.967.48-.6.82-.67,1.335-.163.689.678,1.409,1.326,2.075,2.029C21.433,46.847,21.942,47.238,21.988,47.658Z" transform="translate(-12.72 -44.206)" fill="#fff"/>
          <path id="Path_37747" data-name="Path 37747" d="M51.124,60.51c.086,0,.171,0,.254,0,.316.016.783.025.9.4a.478.478,0,0,1-.44.607c-.352.062-.755-.153-1.1-.081a2.355,2.355,0,0,0-1.439,2.174c.074.495.3.864.887.894.715.036,1.434.064,2.141.169,1.388.206,2.172.913,2.25,1.99a1.774,1.774,0,0,1-.892,1.817c-.655.365-1.937,1.387-2.639.614-.292-.322-.045-.645.279-.814a11.227,11.227,0,0,0,1.366-.645,1.665,1.665,0,0,0,.672-.951c.075-.5-.426-.682-.841-.779a7.021,7.021,0,0,0-1.73-.284c-1.1.033-2.119-.17-2.519-1.261a3.008,3.008,0,0,1,.7-2.947A2.729,2.729,0,0,1,51.124,60.51Z" transform="translate(-5.913 -41.071)" fill="#fff"/>
          <path id="Path_37748" data-name="Path 37748" d="M29.072,54.065c-.041.473-.763.963-1.035,1.247a26.434,26.434,0,0,0-3.224,4.067c-.33.521-.768,1.729-1.562,1.143-.383-.283-.323-.638-.042-.986,1.272-1.564,2.534-3.137,3.814-4.694a14.974,14.974,0,0,1,1.044-1.087c.291-.289.67-.371.925.013A.454.454,0,0,1,29.072,54.065Z" transform="translate(-10.747 -42.418)" fill="#fff"/>
          <path id="Path_37749" data-name="Path 37749" d="M62.54,60.2a.462.462,0,0,1-.38.615.916.916,0,0,1-.743-.278c-1.034-1.151-2.026-2.338-3.042-3.505-.3-.346-.671-.637-.943-1s-.349-.82.106-1.1c.409-.248.64.076.911.387.706.812,1.462,1.577,2.193,2.367A8.312,8.312,0,0,1,62.54,60.2Z" transform="translate(-4.164 -42.16)" fill="#fff"/>
        </g>
        <g id="Group_14759" data-name="Group 14759">
          <path id="Path_37750" data-name="Path 37750" d="M103.672,46.4a.181.181,0,0,0,.052.075,3.709,3.709,0,0,1,1.743,4.607,6.5,6.5,0,0,1-1.434,2.784,43.487,43.487,0,0,1-9.845,8.257c-.978.578-1.891,1.265-2.831,1.906-.137.094-.333.194-.371.329-.492,1.738-2.149,2.416-3.279,3.557-1.741,1.76-3.617,3.386-5.451,5.053-1,.906-2.008,1.8-3.038,2.664C76.252,78.128,73.268,80.6,70.3,83.09c-1.74,1.458-3.727,2.618-5.252,4.336a.838.838,0,0,1-.185.172c-2.122,1.27-4.022,2.907-6.353,3.833-3,1.191-6.652-.194-9.5-1.214-10.216-3.646-18.049-6.571-25.7-12.452A84.381,84.381,0,0,1,8.313,62.795a36.138,36.138,0,0,1-6.057-11.57C-.814,41.6-.461,31.679,1.586,21.87A29.708,29.708,0,0,1,4.63,14.588c2.2-4.373,6.832-8.024,10.78-10.712A18.826,18.826,0,0,1,22.243,1.1c7.722-1.594,17.672.713,23.71,5.938,3.4,2.943,5.486,7.012,7.743,10.82.061-.024.161-.035.176-.075,2.076-5.712,5.922-10,10.826-13.43a23.708,23.708,0,0,1,8.968-3.9A27.207,27.207,0,0,1,88.291,1.829a30.175,30.175,0,0,1,12.425,9.86,25.876,25.876,0,0,1,4.814,12.477,35.41,35.41,0,0,1-.85,10.9,16.686,16.686,0,0,1-.553,2.065c-.157.465-.125.885.273,1.123,1.54.924,1.335,2.371.979,3.7A44.006,44.006,0,0,1,103.672,46.4Zm-67.9,7.607c-1.538-11.673,7.38-19.157,16.195-19.178A16.178,16.178,0,0,1,63.261,39.2c5.142,4.717,6.472,10.569,4.762,17.291.1-.41.935-.812,1.245-1.084,1.374-1.208,2.906-2.151,4.355-3.255a2.082,2.082,0,0,1,2.862-.163.844.844,0,0,0,.356.1c0-1.7.068-3.342-.014-4.978a19.841,19.841,0,0,1,1.22-8.059A8.213,8.213,0,0,1,79.36,36.9a2.4,2.4,0,0,1,2.617-.775,4.272,4.272,0,0,1,3.214,2.748c.354.867.562,1.794.819,2.643.855-1.54,1.653-3.151,2.615-4.657a27.174,27.174,0,0,1,2.286-3.046,2.063,2.063,0,0,1,3.328.013,1.917,1.917,0,0,1,.485,1.1c.041.356-.119.925.4,1a1.435,1.435,0,0,0,.962-.415,4.047,4.047,0,0,1,2.747-1.01c.82-.007,1.642.109,2.481.172.064-.21.116-.367.16-.526a25.477,25.477,0,0,0,.6-6.151A21.991,21.991,0,0,0,95.985,11.39c-1.192-1.247-2.519-2.364-3.774-3.553a13.978,13.978,0,0,0-5.132-3.16A23.546,23.546,0,0,0,76.3,3.166,20.072,20.072,0,0,0,70.58,4.7a25.482,25.482,0,0,0-7.646,5.512,44.955,44.955,0,0,0-4.075,5.123,16.286,16.286,0,0,0-1.636,3.107c-.559,1.308-.975,2.677-1.486,4a1.867,1.867,0,0,1-2.077,1.22,1.822,1.822,0,0,1-1.953-1.447,23.206,23.206,0,0,0-3.713-8.233c-2.659-3.765-5.606-7.18-10.3-8.477a3.613,3.613,0,0,1-.472-.184A23.944,23.944,0,0,0,26.1,3.683c-.209.012-.414.062-.622.086A20.489,20.489,0,0,0,19.948,5.4,20.786,20.786,0,0,0,14.08,8.763c-1.23,1.087-2.449,2.193-3.62,3.343a18.723,18.723,0,0,0-4.919,7.4A40.006,40.006,0,0,0,3.5,28.865c-.3,3.823-.484,7.647-.495,11.481,0,.585.111,1.171.157,1.756a30.748,30.748,0,0,0,1.21,5.8A39.71,39.71,0,0,0,8.153,57.37a45.3,45.3,0,0,0,4.189,5.857A91.591,91.591,0,0,0,27.627,77.512a45.435,45.435,0,0,0,8.492,4.949,94.012,94.012,0,0,0,15.949,5.953,6.949,6.949,0,0,0,5.409-.4c1.849-1.077,3.65-2.245,5.412-3.461,1.315-.907,2.559-1.924,3.794-2.943,2.76-2.277,5.526-4.552,8.233-6.894,2.227-1.927,4.367-3.955,6.558-5.923,1.536-1.381,3.1-2.729,4.634-4.109.664-.6.645-1.064-.054-1.67q-1.715-1.492-3.461-2.947c-1.015-.844-2-1.726-3.025-2.555-.929-.75-2.034-1.329-2.914-2.125-.614-.556-1.114-.4-1.674.042-1.456,1.14-2.928,2.258-4.388,3.392-3.559,2.766-7.1,5.558-10.679,8.292a24.133,24.133,0,0,1-3.694,2.411,5.237,5.237,0,0,1-4.985.118,74.636,74.636,0,0,1-8.881-5.8c-2.286-1.643-4.379-3.553-6.581-5.315-1.841-1.474-3.733-2.883-5.57-4.36-1.672-1.344-3.288-2.755-4.954-4.107a1.411,1.411,0,0,1-.476-1.577,1.3,1.3,0,0,1,1.337-.973,3.888,3.888,0,0,1,2.74.752c.984.857,1.955,1.729,2.927,2.6A26.947,26.947,0,0,0,35.777,54.009ZM46.641,36.817c-2.822.647-6.942,4.079-7.435,6.139.826.006,1.049.634,1.265,1.27.12.359.227.724.367,1.075q.651,1.638,1.325,3.269a1.018,1.018,0,0,1-.446,1.481,4.97,4.97,0,0,0-1.911,2.137,14.667,14.667,0,0,1-1,1.457,1.086,1.086,0,0,1-1.17.558,4.675,4.675,0,0,0-.713-.006,1.889,1.889,0,0,0,.881,1.4c2.056,1.611,4.141,3.189,6.114,4.9a3.483,3.483,0,0,0,3.012.847,1.013,1.013,0,0,1,1.329.808,9.2,9.2,0,0,0,.345,1.209,4.415,4.415,0,0,0,1.091,1.63c1.273.883,2.662,1.6,4.008,2.387,1.017-.652,1.968-1.267,2.924-1.874a2.42,2.42,0,0,0,1.136-1.434c.287-1.007.7-1.98,1.025-2.978.432-1.329.78-1.54,2.165-1.552,1-.01,2.005-.224,3.011-.255a1.936,1.936,0,0,0,1.658-.986,12.255,12.255,0,0,0,1.694-4.959,1.758,1.758,0,0,0-.083-.449,2.221,2.221,0,0,1-1.742-.966,33.354,33.354,0,0,0-2.92-2.574,1.179,1.179,0,0,1-.513-1.3q.5-2.151.932-4.318a1.322,1.322,0,0,1,.824-1.029c.255-.111.492-.262.827-.445a14.994,14.994,0,0,0-7.335-5.492,4.968,4.968,0,0,1-.3,1.223,3.44,3.44,0,0,1-.932,1.114c-.817.576-1.717,1.033-2.554,1.582a1.129,1.129,0,0,1-1.276.126c-1.446-.751-2.894-1.506-4.378-2.18C47.1,38.27,46.4,37.961,46.641,36.817ZM96.95,53.542c-.169-.583.951-2.038,1.172-2.42.852-1.478,1.786-2.91,2.605-4.409.988-1.805,1.943-3.632,2.822-5.492.386-.818.178-1.292-.4-1.65a1.2,1.2,0,0,0-1.58.334,6.262,6.262,0,0,0-1.068,1.384c-.615,1.1-1.129,2.263-1.746,3.365-.637,1.139-1.322,2.253-2.044,3.341a.655.655,0,0,1-1.209-.464,6.144,6.144,0,0,1,.414-1.58c.87-2.276,1.78-4.538,2.646-6.815a10.516,10.516,0,0,0,.544-1.942c.148-.864-.445-1.16-1.192-.875a4.005,4.005,0,0,0-1.864,2.116c-1.329,2.816-2.618,5.651-3.919,8.482-.291.632-1.314,2.046-1.782.752a4.33,4.33,0,0,1,.322-2.437c.666-2.259,1.445-4.487,2.087-6.753a6.276,6.276,0,0,0,.111-2.237c-.086-.947-1.371-.7-1.746-.165a36.921,36.921,0,0,0-2.771,5.536c-.724,1.562-1.3,3.194-2.005,4.763-.54,1.2-1.159,1.365-2.3.723a1.857,1.857,0,0,1-.993-1.768c.01-1.348-.016-2.7-.1-4.044-.044-.684-.213-2.125-.833-2.552-1.1-.755-1.676.749-1.911,1.54a19.923,19.923,0,0,0-.9,3.668,46.634,46.634,0,0,0,.116,9.59,2.944,2.944,0,0,0,1.3,2.182c1.115.823,2.189,1.7,3.267,2.575,1.734,1.4,3.456,2.816,5.19,4.23a56.64,56.64,0,0,0,9.01-6.133c1.43-1.238,2.709-2.648,4.038-4a3.358,3.358,0,0,0,1-2.5c-.049-.593-.516-1.741-1.291-1.3-.633.359-.9,1.3-1.3,1.877-.609.866-1.307,1.669-1.951,2.509-.262.343-1.18,1.146-1.657.7A.291.291,0,0,1,96.95,53.542Z" transform="translate(0 0)"/>
          <path id="Path_37751" data-name="Path 37751" d="M25.294,27.824a8.313,8.313,0,0,1-4.7-1.489A13.18,13.18,0,0,1,15.6,20.2a32.358,32.358,0,0,1-1.389-6.528c-.075-.51-.056-1.1.535-1.273,2.274-.678,2.369,1.849,2.609,3.474a19.741,19.741,0,0,0,1.44,4.721,7.9,7.9,0,0,0,4.731,4.075c2.584,1.015,4.723.162,6.819-1.483A10.967,10.967,0,0,0,34.412,16c.067-.416.153-.829.238-1.241a1.279,1.279,0,0,1,1.725-1.095c.8.155,1.072.62.937,1.6a16.242,16.242,0,0,1-2.22,6.784C32.958,25.347,29.138,27.854,25.294,27.824Z" transform="translate(2.727 2.362)"/>
          <path id="Path_37752" data-name="Path 37752" d="M67.337,25.224a9.809,9.809,0,0,1-8.86-4.6,16.787,16.787,0,0,1-2.215-5.868,14.605,14.605,0,0,1-.234-2.258,1.433,1.433,0,0,1,1.083-1.508,1.206,1.206,0,0,1,1.571.878,7.419,7.419,0,0,1,.478,2.054,10.923,10.923,0,0,0,3.07,6.759,6.112,6.112,0,0,0,3.9,1.849,11.612,11.612,0,0,0,8.236-2.541,8.953,8.953,0,0,0,3.366-5.314,2.879,2.879,0,0,1,1.48-1.831A1.077,1.077,0,0,1,80.836,14c-.6,3.026-1.625,5.83-4.279,7.742a15.873,15.873,0,0,1-6.112,3.152A16.853,16.853,0,0,1,67.337,25.224Z" transform="translate(10.774 2.102)"/>
          <path id="Path_37753" data-name="Path 37753" d="M27.856,8.708a1.58,1.58,0,0,1-1.75-1.569A1.3,1.3,0,0,1,27.6,5.967a1.675,1.675,0,0,1,1.591,1.744C29.159,8.348,28.654,8.726,27.856,8.708Z" transform="translate(5.02 1.147)"/>
          <path id="Path_37754" data-name="Path 37754" d="M22.794,5.815a1.82,1.82,0,0,1,1.678,1.827c-.03.5-.7.929-1.457.94a1.472,1.472,0,0,1-1.626-1.508A1.25,1.25,0,0,1,22.794,5.815Z" transform="translate(4.113 1.118)"/>
          <path id="Path_37755" data-name="Path 37755" d="M68.952,8.7A1.656,1.656,0,0,1,67.23,7.241c-.025-.867.4-1.291,1.3-1.315a1.694,1.694,0,0,1,1.779,1.726C70.322,8.193,69.671,8.7,68.952,8.7Z" transform="translate(12.928 1.139)"/>
          <path id="Path_37756" data-name="Path 37756" d="M63.655,9.067a4.6,4.6,0,0,1-.833-.215,1.2,1.2,0,0,1-.759-1.312A1.125,1.125,0,0,1,62.9,6.424a1.326,1.326,0,0,1,1.5.28,3.544,3.544,0,0,1,.409.627C65.354,8.318,64.908,9.077,63.655,9.067Z" transform="translate(11.933 1.215)"/>
          <path id="Path_37757" data-name="Path 37757" d="M45.253,51.5c-.922.052-1.843.112-2.765.144a1.365,1.365,0,0,1-1.418-.826c-.759-1.549-1.544-3.086-2.32-4.626a7.666,7.666,0,0,0-.7-1.338,1.331,1.331,0,0,1,.089-1.829,5.927,5.927,0,0,1,.677-.749q2.5-2.327,5.008-4.639c.723-.663.93-.7,1.751-.1q2.74,2.023,5.421,4.124a1.685,1.685,0,0,1,.569,2.1c-.693,2.119-1.374,4.241-2.013,6.375-.355,1.185-.377,1.25-1.638,1.258C47.025,51.406,46.139,51.449,45.253,51.5Z" transform="translate(7.254 7.136)"/>
        </g>
      </g>
    </g>
  </g>
</svg>
