<svg xmlns="http://www.w3.org/2000/svg" width="37.368" height="33.811" viewBox="0 0 37.368 33.811">
  <g id="アートワーク_41" data-name="アートワーク 41" transform="translate(15.013 13.584)">
    <path id="Path_38398" data-name="Path 38398" d="M5.353,17.71H.906A.942.942,0,0,1,0,16.8a.839.839,0,0,1,.345-.69L18,.227a.919.919,0,0,1,1.208,0L37.08,16.155a.927.927,0,0,1,.086,1.252,1.11,1.11,0,0,1-.69.3H32.029V32.9a.9.9,0,0,1-.862.907H23.655a.942.942,0,0,1-.907-.907V23.1h-8.5v9.8a.9.9,0,0,1-.863.907H6.259a.912.912,0,0,1-.907-.907ZM3.238,15.9H6.259a.9.9,0,0,1,.863.906V32h5.353V22.242a.885.885,0,0,1,.906-.906H23.655a.876.876,0,0,1,.863.906V32h5.741V16.8a.911.911,0,0,1,.907-.906h2.978L18.6,2.083Z" transform="translate(-15.013 -13.584)" fill="#fff"/>
  </g>
</svg>
