<svg xmlns="http://www.w3.org/2000/svg" width="21.275" height="19.194" viewBox="0 0 21.275 19.194">
  <g id="アートワーク_32" data-name="アートワーク 32" transform="translate(10.637 9.597)">
    <path id="Path_37843" data-name="Path 37843" d="M4.447,8.954H1.126v7.8H4.447Zm1.126-.6,4.42-4.64.878-2.553a1.83,1.83,0,0,1,.741-.933,2,2,0,0,1,1.044-.22A1.909,1.909,0,0,1,13.7.362a2.291,2.291,0,0,1,.878,1.263,7.413,7.413,0,0,1,.165,3.761,7.719,7.719,0,0,1-.714,2.031h5.49a1.76,1.76,0,0,1,1.262.522h0a1.741,1.741,0,0,1,.495,1.235v.275a1.843,1.843,0,0,1-.495,1.235,1.82,1.82,0,0,1,.385,1.153v.275a1.583,1.583,0,0,1-.714,1.235l-.082.055a1.724,1.724,0,0,1,.384,1.1v.275a1.552,1.552,0,0,1-1.345,1.674,2.069,2.069,0,0,1,.137.714v.275a1.781,1.781,0,0,1-1.757,1.757h-7.3a.822.822,0,0,1-.275-.055L5.573,17.025V17.3a.557.557,0,0,1-.549.577H.577A.563.563,0,0,1,0,17.3V8.405a.563.563,0,0,1,.577-.577H5.024a.565.565,0,0,1,.549.522ZM10.9,4.4,5.792,9.75V15.9l4.8,2.169h7.192a.646.646,0,0,0,.439-.192.546.546,0,0,0,.193-.439v-.275a.545.545,0,0,0-.193-.439h0a.646.646,0,0,0-.439-.192h-.521V15.405H18.42c.521,0,1.207-.055,1.207-.631V14.5A.657.657,0,0,0,19,13.868h-.549V12.742H19a1.544,1.544,0,0,0,.769-.274c.137-.138.247-.248.247-.357v-.275a.875.875,0,0,0-.138-.494.521.521,0,0,0-.356-.137H19V10.08h.522a.648.648,0,0,0,.439-.192h0a.547.547,0,0,0,.192-.439V9.174a.546.546,0,0,0-.192-.439h0a.6.6,0,0,0-.439-.192H13.011a.717.717,0,0,1-.3-.083.609.609,0,0,1-.164-.8,6.866,6.866,0,0,0,1.1-2.5,6.619,6.619,0,0,0-.165-3.239,1.3,1.3,0,0,0-.412-.659,1.105,1.105,0,0,0-.466-.137.541.541,0,0,0-.412.082.531.531,0,0,0-.247.329l-.934,2.636a.8.8,0,0,1-.11.219Z" transform="translate(-10.637 -9.597)"/>
  </g>
</svg>
