<svg xmlns="http://www.w3.org/2000/svg" width="57.776" height="57.776" viewBox="0 0 57.776 57.776">
  <g id="Line" transform="translate(-269.635 -256.428)">
    <path id="Path_39963" data-name="Path 39963" d="M28.638,0A28.638,28.638,0,0,1,57.276,28.638h0A28.638,28.638,0,1,1,28.638,0Z" transform="translate(269.885 256.678)" fill="#22a130" stroke="#909090" stroke-width="0.5"/>
    <path id="Path_39955" data-name="Path 39955" d="M35.448,22.15c10.346,0,18.733,6.716,18.733,15a12.819,12.819,0,0,1-2.8,7.887,3.888,3.888,0,0,1-.347.434l-.011.012a16.256,16.256,0,0,1-2.037,2.033C43.809,52.3,35.282,58,34.157,57.125c-.978-.764,1.611-4.5-1.377-5.126-.208-.024-.416-.05-.622-.079h0c-8.775-1.247-15.439-7.385-15.439-14.769,0-8.285,8.387-15,18.733-15Z" transform="translate(263.074 247.654)" fill="#fff" stroke="#909090" stroke-width="0.5" fill-rule="evenodd"/>
    <path id="Path_39956" data-name="Path 39956" d="M29.314,49.212h3.778a.98.98,0,0,0,.977-.977v-.082a.98.98,0,0,0-.977-.977h-2.72V40.989a.979.979,0,0,0-.977-.977h-.082a.98.98,0,0,0-.977.977v7.246A.98.98,0,0,0,29.314,49.212Zm23.412-4.542v-.082a.98.98,0,0,0-.977-.977H49.029V42.065h2.719a.98.98,0,0,0,.977-.977v-.081a.98.98,0,0,0-.977-.977H47.97a.979.979,0,0,0-.977.977v7.246a.979.979,0,0,0,.977.977h3.778a.98.98,0,0,0,.977-.977v-.082a.98.98,0,0,0-.977-.977H49.029V45.647h2.719a.98.98,0,0,0,.977-.977ZM45.46,48.921h0a.975.975,0,0,0,.283-.685V40.99a.98.98,0,0,0-.977-.977h-.082a.979.979,0,0,0-.977.977v4.254l-3.532-4.736a.978.978,0,0,0-.848-.494h-.082a.98.98,0,0,0-.977.977v7.246a.98.98,0,0,0,.977.977h.082a.979.979,0,0,0,.977-.977V43.9l3.557,4.858a.965.965,0,0,0,.071.1h0a.817.817,0,0,0,.38.28.965.965,0,0,0,.37.073h.082a.966.966,0,0,0,.456-.114.7.7,0,0,0,.238-.177Zm-9.625.291h.082a.979.979,0,0,0,.977-.977V40.989a.979.979,0,0,0-.977-.977h-.082a.979.979,0,0,0-.977.977v7.247a.98.98,0,0,0,.977.977Z" transform="translate(258.339 240.376)" fill="#22a130" stroke="#909090" stroke-width="0.5" fill-rule="evenodd"/>
  </g>
</svg>
