<svg xmlns="http://www.w3.org/2000/svg" width="68.597" height="55.868" viewBox="0 0 68.597 55.868">
  <g id="アートワーク_37" data-name="アートワーク 37" transform="translate(34.299 27.934)">
    <g id="Group_14917" data-name="Group 14917" transform="translate(-34.049 -27.684)">
      <g id="Group_14913" data-name="Group 14913" transform="translate(22.276)">
        <path id="Path_38287" data-name="Path 38287" d="M10.122,14.378H17.37V21.1h6.013V14.378h6.894a1.6,1.6,0,0,0,1.592-1.59V1.827A1.6,1.6,0,0,0,30.276.237H10.122a1.593,1.593,0,0,0-1.59,1.59V12.789A1.593,1.593,0,0,0,10.122,14.378Z" transform="translate(-7.896 0.399)" fill="#ffd749" stroke="#909090" stroke-width="0.5"/>
        <path id="Path_38288" data-name="Path 38288" d="M24.416,22.133h-7.28V15.414H10.521a2.229,2.229,0,0,1-2.226-2.226V2.226A2.229,2.229,0,0,1,10.521,0H30.675A2.229,2.229,0,0,1,32.9,2.226V13.188a2.229,2.229,0,0,1-2.226,2.226h-6.26Zm-6.01-1.273h4.74V14.144h7.53a.956.956,0,0,0,.956-.956V2.226a.956.956,0,0,0-.956-.956H10.521a.958.958,0,0,0-.956.956V13.188a.958.958,0,0,0,.956.956h7.884Z" transform="translate(-8.295)" fill="#ffd749" stroke="#909090" stroke-width="0.5"/>
      </g>
      <g id="Group_14914" data-name="Group 14914" transform="translate(0 42.078)">
        <rect id="Rectangle_7996" data-name="Rectangle 7996" width="19.094" height="12.022" rx="1.591" transform="translate(0.635 0.634)" fill="#ffd749" stroke="#909090" stroke-width="0.5"/>
        <path id="Path_38289" data-name="Path 38289" d="M18.137,28.959H2.226A2.227,2.227,0,0,1,0,26.733V17.9a2.227,2.227,0,0,1,2.226-2.226H18.137A2.227,2.227,0,0,1,20.364,17.9v8.838A2.227,2.227,0,0,1,18.137,28.959ZM2.226,16.939a.956.956,0,0,0-.956.956v8.838a.956.956,0,0,0,.956.956H18.137a.956.956,0,0,0,.956-.956V17.9a.956.956,0,0,0-.956-.956Z" transform="translate(0 -15.669)" fill="#ffd749" stroke="#909090" stroke-width="0.5"/>
      </g>
      <path id="Path_38290" data-name="Path 38290" d="M8.971,15.864H27V22.4h6.364V15.864H50.341V22.4H56.7V12.5a3.191,3.191,0,0,0-3.182-3.182H5.789A3.191,3.191,0,0,0,2.607,12.5v9.9H8.971Z" transform="translate(4.394 15.712)" fill="#ffd749" stroke="#909090" stroke-width="0.5"/>
      <g id="Group_14915" data-name="Group 14915" transform="translate(24.574 42.078)">
        <rect id="Rectangle_7997" data-name="Rectangle 7997" width="19.094" height="12.022" rx="1.591" transform="translate(0.635 0.634)" fill="#ffd749" stroke="#909090" stroke-width="0.5"/>
        <path id="Path_38291" data-name="Path 38291" d="M27.288,28.959H11.377a2.227,2.227,0,0,1-2.226-2.226V17.9a2.227,2.227,0,0,1,2.226-2.226H27.288A2.227,2.227,0,0,1,29.515,17.9v8.838A2.227,2.227,0,0,1,27.288,28.959ZM11.377,16.939a.956.956,0,0,0-.956.956v8.838a.956.956,0,0,0,.956.956H27.288a.956.956,0,0,0,.956-.956V17.9a.956.956,0,0,0-.956-.956Z" transform="translate(-9.151 -15.669)" fill="#ffd749" stroke="#909090" stroke-width="0.5"/>
      </g>
      <g id="Group_14916" data-name="Group 14916" transform="translate(47.734 42.078)">
        <rect id="Rectangle_7998" data-name="Rectangle 7998" width="19.094" height="12.022" rx="1.591" transform="translate(0.636 0.634)" fill="#ffd749" stroke="#909090" stroke-width="0.5"/>
        <path id="Path_38292" data-name="Path 38292" d="M35.912,28.959H20a2.227,2.227,0,0,1-2.226-2.226V17.9A2.227,2.227,0,0,1,20,15.669H35.912A2.227,2.227,0,0,1,38.139,17.9v8.838A2.227,2.227,0,0,1,35.912,28.959ZM20,16.939a.956.956,0,0,0-.956.956v8.838a.956.956,0,0,0,.956.956H35.912a.955.955,0,0,0,.956-.956V17.9a.955.955,0,0,0-.956-.956Z" transform="translate(-17.775 -15.669)" fill="#ffd749" stroke="#909090" stroke-width="0.5"/>
      </g>
    </g>
  </g>
</svg>
