<svg xmlns="http://www.w3.org/2000/svg" width="41.145" height="33.454" viewBox="0 0 41.145 33.454">
  <g id="アートワーク_37" data-name="アートワーク 37" transform="translate(12.679 10.309)">
    <g id="Group_14939" data-name="Group 14939" transform="translate(-12.679 -10.309)">
      <g id="Group_14935" data-name="Group 14935" transform="translate(13.459)">
        <path id="Path_38406" data-name="Path 38406" d="M9.493,8.781h4.379v4.06H17.5V8.781H21.67a.964.964,0,0,0,.962-.961V1.2A.964.964,0,0,0,21.67.237H9.493a.963.963,0,0,0-.961.961V7.821A.963.963,0,0,0,9.493,8.781Z" transform="translate(-8.147 0.148)" fill="#fff"/>
        <path id="Path_38407" data-name="Path 38407" d="M18.035,13.373h-4.4V9.314h-4A1.347,1.347,0,0,1,8.3,7.968V1.345A1.347,1.347,0,0,1,9.64,0H21.818a1.347,1.347,0,0,1,1.345,1.345V7.968a1.347,1.347,0,0,1-1.345,1.345H18.035ZM14.4,12.6h2.864V8.546h4.55a.578.578,0,0,0,.578-.578V1.345a.578.578,0,0,0-.578-.578H9.64a.579.579,0,0,0-.578.578V7.968a.579.579,0,0,0,.578.578H14.4Z" transform="translate(-8.295)" fill="#fff"/>
      </g>
      <g id="Group_14936" data-name="Group 14936" transform="translate(0 25.424)">
        <path id="Rectangle_8003" data-name="Rectangle 8003" d="M.592,0H10.944a.592.592,0,0,1,.592.592V6.671a.593.593,0,0,1-.593.593H.592A.592.592,0,0,1,0,6.671V.592A.592.592,0,0,1,.592,0Z" transform="translate(0.384 0.383)" fill="#fff"/>
        <path id="Path_38408" data-name="Path 38408" d="M10.959,23.7H1.345A1.346,1.346,0,0,1,0,22.354v-5.34a1.346,1.346,0,0,1,1.345-1.345h9.614A1.346,1.346,0,0,1,12.3,17.014v5.34A1.346,1.346,0,0,1,10.959,23.7ZM1.345,16.436a.578.578,0,0,0-.578.578v5.34a.578.578,0,0,0,.578.578h9.614a.578.578,0,0,0,.578-.578v-5.34a.578.578,0,0,0-.578-.578Z" transform="translate(0 -15.669)" fill="#fff"/>
      </g>
      <path id="Path_38409" data-name="Path 38409" d="M6.453,13.275h10.9v3.951h3.846V13.275H31.448v3.951h3.846V11.245a1.928,1.928,0,0,0-1.923-1.923H4.53a1.928,1.928,0,0,0-1.923,1.923v5.981H6.453Z" transform="translate(1.623 5.804)" fill="#fff"/>
      <g id="Group_14937" data-name="Group 14937" transform="translate(14.848 25.424)">
        <path id="Rectangle_8004" data-name="Rectangle 8004" d="M.592,0H10.944a.592.592,0,0,1,.592.592V6.671a.593.593,0,0,1-.593.593H.592A.592.592,0,0,1,0,6.671V.592A.592.592,0,0,1,.592,0Z" transform="translate(0.384 0.383)" fill="#fff"/>
        <path id="Path_38410" data-name="Path 38410" d="M20.11,23.7H10.5a1.346,1.346,0,0,1-1.345-1.345v-5.34A1.346,1.346,0,0,1,10.5,15.669H20.11a1.346,1.346,0,0,1,1.345,1.345v5.34A1.346,1.346,0,0,1,20.11,23.7ZM10.5,16.436a.578.578,0,0,0-.578.578v5.34a.578.578,0,0,0,.578.578H20.11a.578.578,0,0,0,.578-.578v-5.34a.578.578,0,0,0-.578-.578Z" transform="translate(-9.151 -15.669)" fill="#fff"/>
      </g>
      <g id="Group_14938" data-name="Group 14938" transform="translate(28.841 25.424)">
        <path id="Rectangle_8005" data-name="Rectangle 8005" d="M.592,0H10.944a.593.593,0,0,1,.593.593V6.671a.593.593,0,0,1-.593.593H.592A.592.592,0,0,1,0,6.671V.592A.592.592,0,0,1,.592,0Z" transform="translate(0.384 0.383)" fill="#fff"/>
        <path id="Path_38411" data-name="Path 38411" d="M28.734,23.7H19.12a1.346,1.346,0,0,1-1.345-1.345v-5.34a1.346,1.346,0,0,1,1.345-1.345h9.614a1.346,1.346,0,0,1,1.345,1.345v5.34A1.346,1.346,0,0,1,28.734,23.7ZM19.12,16.436a.578.578,0,0,0-.578.578v5.34a.578.578,0,0,0,.578.578h9.614a.577.577,0,0,0,.578-.578v-5.34a.577.577,0,0,0-.578-.578Z" transform="translate(-17.775 -15.669)" fill="#fff"/>
      </g>
    </g>
  </g>
</svg>
