<?xml version="1.0" encoding="UTF-8"?>
<svg xmlns="http://www.w3.org/2000/svg" xmlns:xlink="http://www.w3.org/1999/xlink" width="800px" height="500px" viewBox="0 0 798 500" version="1.1">
<g id="surface1">
<rect x="0" y="0" width="798" height="500" style="fill:rgb(0%,50.196078%,0%);fill-opacity:1;stroke:none;"/>
<path style="fill:none;stroke-width:1;stroke-linecap:butt;stroke-linejoin:miter;stroke:rgb(100%,100%,100%);stroke-opacity:1;stroke-miterlimit:4;" d="M 0 0 L 1150 0 L 1150 720 L 0 720 Z M 0 0 " transform="matrix(0.693913,0,0,0.694444,0,0)"/>
<path style="fill-rule:nonzero;fill:rgb(0%,50.196078%,0%);fill-opacity:1;stroke-width:2;stroke-linecap:butt;stroke-linejoin:miter;stroke:rgb(100%,100%,100%);stroke-opacity:1;stroke-miterlimit:4;" d="M 575 20.0025 L 49.99951 20.0025 L 49.99951 699.9975 L 1100.00049 699.9975 L 1100.00049 20.0025 L 575 20.0025 L 575 699.9975 Z M 575 20.0025 " transform="matrix(0.693913,0,0,0.694444,0,0)"/>
<path style="fill:none;stroke-width:2;stroke-linecap:butt;stroke-linejoin:miter;stroke:rgb(100%,100%,100%);stroke-opacity:1;stroke-miterlimit:4;" d="M 666.498766 360 C 666.498766 410.535 625.534295 451.501875 575 451.501875 C 524.465705 451.501875 483.501234 410.535 483.501234 360 C 483.501234 309.465 524.465705 268.498125 575 268.498125 C 625.534295 268.498125 666.498766 309.465 666.498766 360 Z M 666.498766 360 " transform="matrix(0.693913,0,0,0.694444,0,0)"/>
<path style="fill-rule:nonzero;fill:rgb(100%,100%,100%);fill-opacity:1;stroke-width:1;stroke-linecap:butt;stroke-linejoin:miter;stroke:rgb(100%,100%,100%);stroke-opacity:1;stroke-miterlimit:4;" d="M 576.998404 360 C 576.998404 361.1025 576.103344 362.0025 575 362.0025 C 573.896656 362.0025 573.001596 361.1025 573.001596 360 C 573.001596 358.8975 573.896656 357.9975 575 357.9975 C 576.103344 357.9975 576.998404 358.8975 576.998404 360 Z M 576.998404 360 " transform="matrix(0.693913,0,0,0.694444,0,0)"/>
<path style="fill-rule:nonzero;fill:rgb(100%,100%,100%);fill-opacity:1;stroke-width:1;stroke-linecap:butt;stroke-linejoin:miter;stroke:rgb(100%,100%,100%);stroke-opacity:1;stroke-miterlimit:4;" d="M 162.000215 360 C 162.000215 361.1025 161.105155 362.0025 160.001811 362.0025 C 158.892838 362.0025 157.997778 361.1025 157.997778 360 C 157.997778 358.8975 158.892838 357.9975 160.001811 357.9975 C 161.105155 357.9975 162.000215 358.8975 162.000215 360 Z M 162.000215 360 " transform="matrix(0.693913,0,0,0.694444,0,0)"/>
<path style="fill-rule:nonzero;fill:rgb(100%,100%,100%);fill-opacity:1;stroke-width:1;stroke-linecap:butt;stroke-linejoin:miter;stroke:rgb(100%,100%,100%);stroke-opacity:1;stroke-miterlimit:4;" d="M 992.002222 360 C 992.002222 361.1025 991.107162 362.0025 989.998189 362.0025 C 988.894845 362.0025 987.999785 361.1025 987.999785 360 C 987.999785 358.8975 988.894845 357.9975 989.998189 357.9975 C 991.107162 357.9975 992.002222 358.8975 992.002222 360 Z M 992.002222 360 " transform="matrix(0.693913,0,0,0.694444,0,0)"/>
<path style="fill:none;stroke-width:2;stroke-linecap:butt;stroke-linejoin:miter;stroke:rgb(100%,100%,100%);stroke-opacity:1;stroke-miterlimit:4;" d="M 49.99951 324.399375 L 40.00186 324.399375 L 40.00186 396.601875 L 49.99951 396.601875 Z M 49.99951 324.399375 " transform="matrix(0.693913,0,0,0.694444,0,0)"/>
<path style="fill:none;stroke-width:2;stroke-linecap:butt;stroke-linejoin:miter;stroke:rgb(100%,100%,100%);stroke-opacity:1;stroke-miterlimit:4;" d="M 1100.00049 324.399375 L 1109.99814 324.399375 L 1109.99814 396.601875 L 1100.00049 396.601875 Z M 1100.00049 324.399375 " transform="matrix(0.693913,0,0,0.694444,0,0)"/>
<path style="fill:none;stroke-width:2;stroke-linecap:butt;stroke-linejoin:miter;stroke:rgb(100%,100%,100%);stroke-opacity:1;stroke-miterlimit:4;" d="M 49.99951 269.398125 L 104.997846 269.398125 L 104.997846 451.5975 L 49.99951 451.5975 Z M 49.99951 269.398125 " transform="matrix(0.693913,0,0,0.694444,0,0)"/>
<path style="fill:none;stroke-width:2;stroke-linecap:butt;stroke-linejoin:miter;stroke:rgb(100%,100%,100%);stroke-opacity:1;stroke-miterlimit:4;" d="M 1100.00049 269.398125 L 1045.002154 269.398125 L 1045.002154 451.5975 L 1100.00049 451.5975 Z M 1100.00049 269.398125 " transform="matrix(0.693913,0,0,0.694444,0,0)"/>
<path style="fill:none;stroke-width:2;stroke-linecap:butt;stroke-linejoin:miter;stroke:rgb(100%,100%,100%);stroke-opacity:1;stroke-miterlimit:4;" d="M 49.99951 159.40125 L 215.000147 159.40125 L 215.000147 561.6 L 49.99951 561.6 Z M 49.99951 159.40125 " transform="matrix(0.693913,0,0,0.694444,0,0)"/>
<path style="fill:none;stroke-width:2;stroke-linecap:butt;stroke-linejoin:miter;stroke:rgb(100%,100%,100%);stroke-opacity:1;stroke-miterlimit:4;" d="M 1100.00049 159.40125 L 934.999853 159.40125 L 934.999853 561.6 L 1100.00049 561.6 Z M 1100.00049 159.40125 " transform="matrix(0.693913,0,0,0.694444,0,0)"/>
<path style="fill-rule:nonzero;fill:rgb(0%,50.196078%,0%);fill-opacity:1;stroke-width:2;stroke-linecap:butt;stroke-linejoin:miter;stroke:rgb(100%,100%,100%);stroke-opacity:1;stroke-miterlimit:4;" d="M 215.000147 286.880625 C 237.978981 304.16625 251.494948 331.245 251.494948 360 C 251.494948 388.755 237.978981 415.83375 215.000147 433.119375 Z M 215.000147 286.880625 " transform="matrix(0.693913,0,0,0.694444,0,0)"/>
<path style="fill-rule:nonzero;fill:rgb(0%,50.196078%,0%);fill-opacity:1;stroke-width:2;stroke-linecap:butt;stroke-linejoin:miter;stroke:rgb(100%,100%,100%);stroke-opacity:1;stroke-miterlimit:4;" d="M 934.999853 286.880625 C 912.021019 304.16625 898.505052 331.245 898.505052 360 C 898.505052 388.755 912.021019 415.83375 934.999853 433.119375 Z M 934.999853 286.880625 " transform="matrix(0.693913,0,0,0.694444,0,0)"/>
<path style="fill:none;stroke-width:2;stroke-linecap:butt;stroke-linejoin:miter;stroke:rgb(100%,100%,100%);stroke-opacity:1;stroke-miterlimit:4;" d="M 49.99951 29.998125 C 55.521861 29.998125 60.00279 25.520625 60.00279 20.0025 L 49.99951 20.0025 Z M 49.99951 29.998125 " transform="matrix(0.693913,0,0,0.694444,0,0)"/>
<path style="fill:none;stroke-width:2;stroke-linecap:butt;stroke-linejoin:miter;stroke:rgb(100%,100%,100%);stroke-opacity:1;stroke-miterlimit:4;" d="M 60.00279 699.9975 C 60.00279 694.479375 55.521861 690.001875 49.99951 690.001875 L 49.99951 699.9975 Z M 60.00279 699.9975 " transform="matrix(0.693913,0,0,0.694444,0,0)"/>
<path style="fill:none;stroke-width:2;stroke-linecap:butt;stroke-linejoin:miter;stroke:rgb(100%,100%,100%);stroke-opacity:1;stroke-miterlimit:4;" d="M 1100.00049 690.001875 C 1094.478139 690.001875 1089.99721 694.479375 1089.99721 699.9975 L 1100.00049 699.9975 Z M 1100.00049 690.001875 " transform="matrix(0.693913,0,0,0.694444,0,0)"/>
<path style="fill:none;stroke-width:2;stroke-linecap:butt;stroke-linejoin:miter;stroke:rgb(100%,100%,100%);stroke-opacity:1;stroke-miterlimit:4;" d="M 1089.99721 20.0025 C 1089.99721 25.520625 1094.478139 29.998125 1100.00049 29.998125 L 1100.00049 20.0025 Z M 1089.99721 20.0025 " transform="matrix(0.693913,0,0,0.694444,0,0)"/>
</g>
</svg>
