<svg xmlns="http://www.w3.org/2000/svg" width="124.5" height="90.511" viewBox="0 0 124.5 90.511">
  <g id="アートワーク_4" data-name="アートワーク 4" transform="translate(0)">
    <g id="Group_109" data-name="Group 109">
      <path id="Path_1011" data-name="Path 1011" d="M124.413,84.544a4.2,4.2,0,0,0-2.888-2.774,2.822,2.822,0,0,0-3.29.617,3.7,3.7,0,0,1-3.659.829,12.594,12.594,0,0,0-2.625-6.331c-1.835-2.323-3.893-4.1-7.2-3.776-1.256.123-1.539.653-1.6,1.643a13.861,13.861,0,0,0,5.367,12.4,1.9,1.9,0,0,1,.727,1.285C108.8,98.42,103.3,107.09,97.544,114.8a36.228,36.228,0,0,1-15.359,12.383,45.28,45.28,0,0,1-8.614,2.449c-5.569.971-10.841-.224-16.154-1.867a26.165,26.165,0,0,1-12.907-9,54.876,54.876,0,0,1-4.025-5.9A42.632,42.632,0,0,1,35.05,99.431c-1.639-8.648-1.659-16.376-2.771-25.081a8.724,8.724,0,0,0-4.856-6.727,7.314,7.314,0,0,0-3.759-1.1c-2.617.241-3.478.913-6.032,3.468-.554.554-1.151,1.682-1.82,2.5-.1-.584-.143-.835-.191-1.084a4.975,4.975,0,0,0-4.839-4.315,12.4,12.4,0,0,0-7.8,2.729C1.011,71.4-1.089,73.047.644,75.606c.042.063.072.135.119.193a2.823,2.823,0,0,0,4.063.518c.916-.716,2.9-3.822,4.264-3.375a.835.835,0,0,1,.255.133c.724.562.215,2.22.165,2.952q-.137,2.039-.274,4.076c-.18,2.638-.369,5.276-.6,7.91-.254,2.888-.67,5.763-1.125,8.625-.392,2.469-.977,4.907-1.4,7.371-.232,1.344-.437,2.645.553,3.94,1.938,2.534,4.881,2.054,5.72-.965,1.044-3.757,1.7-7.608,2.6-11.4,1.372-5.755,2.449-11.616,5.009-17a33.291,33.291,0,0,1,3.424-5.7c.73-1.022,1.939-1.528,2.213-.3a35.5,35.5,0,0,1,.756,4.361c.334,3.515.449,7.053.877,10.555.526,4.291,1.161,8.576,1.967,12.822,1.047,5.52,3.839,10.371,6.469,15.22a38.2,38.2,0,0,0,11.688,12.865,35.08,35.08,0,0,0,15.447,6.273c5.79.912,11.9,1.43,17.557-.485a43.875,43.875,0,0,0,13.4-7.38,56.084,56.084,0,0,0,10.046-10.293,98.116,98.116,0,0,0,5.553-8.349A38.544,38.544,0,0,0,114.148,96c.4-2.108.664-4.241.986-6.331,1.783-.256,3.558-.426,5.293-.787C122.513,88.444,125,87.091,124.413,84.544Z" transform="translate(0 -44.993)" fill="#fff"/>
      <path id="Path_1012" data-name="Path 1012" d="M246.359,117.029c3.85,4.442,11.63,5.122,14.129-1.06.809-2,1.464-4.065,2.224-6.085,1.229-3.265-3.421-5.844-5.418-2.882-.7,1.036-.835,2.647-1.347,3.82-.615,1.409-1.719,4.879-3.937,4.07a4.393,4.393,0,0,1-2.351-2.183c-1.512-2.941-1.2-3.277-1.072-6.425.03-.729.231-2.775.382-3.664,1.6.7,2.8,1.552,4.61.917,5.282-1.851,6.49-8.516,4.555-13.393a17.1,17.1,0,0,0-2.986-4.781,6.447,6.447,0,0,0-3.9-2.048,4.258,4.258,0,0,0-4.529,2.879A48.042,48.042,0,0,0,243.03,107.2C243.222,110.788,243.9,114.193,246.359,117.029Zm3.736-23.21a22.015,22.015,0,0,1,1.045-4.268c.447-.976,1.44-.447,1.906.807a6.848,6.848,0,0,1,.355,2.609c-.03.8-.54,4.439-2.012,4.15l-.047-.01C250.354,96.862,249.93,94.644,250.095,93.82Z" transform="translate(-164.582 -56.346)" fill="#fff"/>
      <path id="Path_1013" data-name="Path 1013" d="M175.05,106.786a18.132,18.132,0,0,0,1.726,8.2c2.011,4.041,6.8,6.83,11.773,4.678,3.007-1.3,5.613-3.883,5.931-7.269a3.463,3.463,0,0,0-3.69-3.761c-2.149.073-1.836,2-2.436,3.535a6.82,6.82,0,0,1-3.216,3.325,1.918,1.918,0,0,1-2.855-.6,9.2,9.2,0,0,1-1.257-3.915,72.808,72.808,0,0,1,1.524-18.573,14.18,14.18,0,0,1,1.419-3.316c1.014-1.776,1.881.984,2.159,1.751.434,1.2.887,2.375,2.157,2.894,4.149,1.7,2.811-3.439,1.859-5.426a11.019,11.019,0,0,0-4.938-4.7,5.187,5.187,0,0,0-6.373,1.647c-1.463,2.207-1.784,5.1-2.42,7.614A84,84,0,0,0,175.05,106.786Z" transform="translate(-118.578 -56.226)" fill="#fff"/>
      <path id="Path_1014" data-name="Path 1014" d="M116.446,20.548c1.188-.469,2.366-.962,3.676-1.5,0,1.611-.529,5.283,2.38,4.427,1.355-.4,1.821-2.43,2.518-3.451,1.15,1.239,1.736,2.654,3.177,3.713.829.609,1.392.389,2.252-.053a1.068,1.068,0,0,0,.409-1.636c-.867-1.407-1.628-2.878-2.468-4.3-1.213-2.054-1.192-1.994.827-3.342a35.268,35.268,0,0,0,3.8-2.973c1.269-1.127.384-2.156-1.079-1.857-1.419.29-3.336.788-4.86,1.013,0-.535,1.461-4.715,1.975-6.373,1.03-3.321-4.784-5.983-5.683-2.762-.2.733-1.079,4.451-1.381,5.7-.226-.242-.337-.341-.425-.458a5.57,5.57,0,0,0-4.794-2.555c-2.913.115-.747,3.064.072,4.343l2.87,4.489c-.075-.13-4.867,1.924-5.225,2.082-.741.326-2.591.841-2.924,1.629-.343.813.5,1.859.82,2.516C112.895,20.265,115.337,20.986,116.446,20.548Z" transform="translate(-75.516 0)" fill="#fff"/>
      <path id="Path_1015" data-name="Path 1015" d="M135.6,117.924a5.327,5.327,0,0,0,3.52,4.194c1.592.561,3.2.157,3.111-1.815-.116-2.553-.613-5.1-.587-7.645.058-5.686.359-16.448.521-22.133a6.391,6.391,0,0,0-.33-2.106,4.079,4.079,0,0,0-5.174-2.255,1.564,1.564,0,0,0-1.341,1.851c.152,2.642.385,5.288.362,7.931-.038,4.348-.252,13.773-.407,18.566C135.349,115.359,135.392,116.655,135.6,117.924Z" transform="translate(-91.633 -58.148)" fill="#fff"/>
    </g>
  </g>
</svg>
