<?xml version="1.0"?>
<svg xmlns:rdf="http://www.w3.org/1999/02/22-rdf-syntax-ns#" xmlns="http://www.w3.org/2000/svg" xmlns:cc="http://creativecommons.org/ns#" xmlns:dc="http://purl.org/dc/elements/1.1/" xmlns:svg="http://www.w3.org/2000/svg" id="svg2" viewBox="0 0 1000 750" version="1.0">
  <defs id="defs4">
    <marker id="Arrow2Mstart" refY="0" refX="0" overflow="visible" orient="auto">
      <path id="path6265" stroke-linejoin="round" d="m8.7186 4.0337l-10.926-4.0177 10.926-4.0177c-1.7455 2.3721-1.7355 5.6174 0 8.0354z" fill-rule="evenodd" transform="matrix(.6 0 0 .6 -3 0)" stroke-width=".625"/>
    </marker>
    <marker id="Arrow2Mend" refY="0" refX="0" overflow="visible" orient="auto">
      <path id="path6262" stroke-linejoin="round" d="m8.7186 4.0337l-10.926-4.0177 10.926-4.0177c-1.7455 2.3721-1.7355 5.6174 0 8.0354z" fill-rule="evenodd" transform="matrix(-.6 0 0 -.6 3 0)" stroke-width=".625"/>
    </marker>
  </defs>
  <g id="layer3">
    <rect id="rect1317" fill-rule="evenodd" height="750" width="1e3" y="-1.5765e-14" x="0" fill="#009c00"/>
  </g>
  <g id="layer1" fill-opacity=".5">
    <path id="path3128" d="m159.65 253.45a1.4677 1.3046 0 1 1 -2.93 0 1.4677 1.3046 0 1 1 2.93 0z" fill-rule="evenodd" fill-opacity="1" transform="matrix(2.7254 0 0 3.066 -285.35 -402.08)" fill="#fff"/>
    <path id="path2196" d="m66.119 522.44h121.17v-291.55h-120.46 0.005" stroke="#fff" stroke-width="3.0052" fill="none"/>
    <path id="path2198" d="m67.06 307.54h42.21l-1.37 134.14h-42.434" stroke="#fff" stroke-width="3.0052" fill="none"/>
    <path id="path2200" d="m64.835 348.61h-21.901v53.38h21.901" stroke="#fff" stroke-width="3.0052" fill="none"/>
    <path id="path2206" d="m187.06 427.34c38.33-22.24 36.79-82.35-0.16-104.25" stroke="#fff" stroke-width="3.0052" fill="none"/>
    <path id="path3117" d="m66.892 58.792s8.094-1.93 10.099-10.395" stroke="#fff" stroke-width="3.0052" fill="none"/>
    <path id="path3120" d="m76.35 702.94s-1.931-8.1-10.396-10.1" stroke="#fff" stroke-width="3.0052" fill="none"/>
    <path id="path3122" d="m938.01 692.05s-8.1 1.93-10.1 10.4" stroke="#fff" stroke-width="3.0052" fill="none"/>
    <path id="path2194" d="m66.579 702.43v-654.27l870.54 1.372 1.36 652.9h-871.9z" stroke="#fff" stroke-width="3.0052" fill="none"/>
    <path id="path2212" stroke-linejoin="round" d="m370.97 254.39a34.843 35.526 0 1 1 -69.68 0 34.843 35.526 0 1 1 69.68 0z" transform="matrix(1.9081 0 0 1.8714 -141.37 -101.07)" stroke="#fff" stroke-width="1.6054" fill="none"/>
    <path id="path3091" d="m938.03 522.6l-118.88-0.16v-291.55h118.32" stroke="#fff" stroke-width="3.0052" fill="none"/>
    <path id="path3093" d="m938.23 307.54h-41.06l1.36 134.14h39.5" stroke="#fff" stroke-width="3.0052" fill="none"/>
    <path id="path3095" d="m937.64 348.61h23.86v53.38h-23.37" stroke="#fff" stroke-width="3.0052" fill="none"/>
    <path id="path3097" d="m818.88 427.34c-38.32-22.24-36.79-81.53 0.16-103.43" stroke="#fff" stroke-width="3.0052" fill="none"/>
    <path id="path3107" d="m500 48.163v652.91" stroke="#fff" stroke-width="3.0052" fill="none"/>
    <path id="path3124" d="m925.8 50.03s1.93 8.094 10.4 10.098" stroke="#fff" stroke-width="3.0052" fill="none"/>
    <path id="path3126" d="m514.92 253.57a1.06 1.3454 0 1 1 -2.12 0 1.06 1.3454 0 1 1 2.12 0z" fill-rule="evenodd" fill-opacity="1" transform="matrix(3.7736 0 0 2.9731 -1077.9 -378.9)" fill="#fff"/>
    <path id="path3130" d="m337.5 253.03a1.3664 1.3664 0 1 1 -2.74 0 1.3664 1.3664 0 1 1 2.74 0z" fill-rule="evenodd" fill-opacity="1" transform="matrix(2.9274 0 0 2.9274 -484 -365.72)" fill="#fff"/>
  </g>
  <g id="layer2">
    <path id="text5147" d="m474.77 26.73c0 0.853-0.11 1.646-0.33 2.379-0.22 0.734-0.55 1.352-1 1.853-0.48 0.542-1.08 0.95-1.8 1.224-0.71 0.268-1.55 0.403-2.5 0.403-0.34 0-0.7-0.021-1.09-0.062-0.4-0.041-0.65-0.077-0.78-0.109v-2.003h0.28c0.13 0.064 0.33 0.132 0.58 0.205s0.6 0.109 1.04 0.109c0.35 0 0.7-0.043 1.04-0.129 0.35-0.092 0.64-0.233 0.89-0.424 0.26-0.205 0.49-0.461 0.66-0.766 0.17-0.31 0.29-0.681 0.35-1.114-0.4 0.228-0.77 0.403-1.11 0.526-0.34 0.119-0.76 0.178-1.26 0.178-0.39 0-0.75-0.046-1.11-0.137-0.34-0.095-0.66-0.241-0.95-0.437-0.37-0.269-0.68-0.622-0.9-1.06-0.23-0.442-0.34-0.998-0.34-1.668 0-1.089 0.38-1.975 1.14-2.659 0.76-0.688 1.75-1.032 2.98-1.032 0.64 0 1.2 0.084 1.68 0.253 0.5 0.164 0.92 0.417 1.28 0.759 0.41 0.391 0.72 0.891 0.93 1.497s0.32 1.344 0.32 2.214m-2.62-0.382c0-0.556-0.06-1.012-0.17-1.368-0.1-0.36-0.25-0.638-0.43-0.834-0.14-0.145-0.29-0.25-0.46-0.314s-0.36-0.096-0.55-0.096c-0.18 0-0.35 0.032-0.51 0.096-0.16 0.059-0.32 0.164-0.47 0.314-0.14 0.146-0.25 0.338-0.34 0.575s-0.13 0.519-0.13 0.847c0 0.319 0.04 0.588 0.14 0.807 0.1 0.214 0.23 0.385 0.4 0.513 0.16 0.123 0.34 0.209 0.56 0.259 0.22 0.051 0.45 0.076 0.71 0.076 0.2 0 0.43-0.025 0.67-0.076 0.24-0.054 0.43-0.109 0.56-0.164v-0.212c0.01-0.095 0.02-0.236 0.02-0.423m12.75 0.95c0 0.857-0.08 1.625-0.23 2.304-0.16 0.674-0.4 1.228-0.73 1.661-0.34 0.442-0.77 0.777-1.3 1.005-0.53 0.223-1.18 0.335-1.95 0.335-0.76 0-1.41-0.114-1.95-0.342s-0.97-0.565-1.31-1.012c-0.33-0.447-0.58-1-0.73-1.661-0.15-0.665-0.22-1.427-0.22-2.283 0-0.884 0.07-1.652 0.23-2.304 0.15-0.652 0.4-1.203 0.74-1.654 0.33-0.447 0.77-0.782 1.31-1.005 0.54-0.224 1.18-0.335 1.93-0.335 0.78 0 1.43 0.116 1.96 0.348 0.53 0.228 0.96 0.57 1.3 1.026 0.33 0.446 0.57 0.998 0.72 1.654 0.15 0.652 0.23 1.406 0.23 2.263m-2.65 0c0-1.231-0.12-2.106-0.36-2.625-0.24-0.524-0.64-0.786-1.2-0.786s-0.97 0.262-1.21 0.786c-0.24 0.519-0.36 1.399-0.36 2.639 0 1.207 0.12 2.078 0.37 2.611s0.65 0.8 1.2 0.8 0.95-0.267 1.19-0.8c0.25-0.533 0.37-1.408 0.37-2.625m9.38 1.552h-5.21v-1.969h5.21v1.969m9.37 3.541h-6.79v-1.778h2.14v-5.38h-2.14v-1.661c0.33 0 0.64-0.018 0.94-0.054 0.3-0.041 0.55-0.11 0.75-0.206 0.24-0.113 0.42-0.262 0.54-0.444s0.18-0.41 0.2-0.683h2.26v8.428h2.1v1.778m10.6 0h-7.99v-1.682c0.61-0.442 1.22-0.911 1.83-1.408s1.11-0.925 1.48-1.285c0.55-0.534 0.94-0.998 1.17-1.395 0.23-0.396 0.35-0.788 0.35-1.176 0-0.465-0.15-0.822-0.45-1.073-0.3-0.255-0.73-0.383-1.29-0.383-0.42 0-0.86 0.087-1.32 0.26s-0.89 0.394-1.29 0.663h-0.22v-2.263c0.33-0.141 0.8-0.282 1.43-0.423 0.64-0.142 1.27-0.212 1.9-0.212 1.28 0 2.25 0.269 2.92 0.806 0.67 0.534 1.01 1.29 1.01 2.27 0 0.642-0.16 1.253-0.49 1.832-0.32 0.579-0.81 1.176-1.47 1.791-0.41 0.383-0.83 0.736-1.25 1.059-0.42 0.319-0.72 0.543-0.89 0.67h4.57v1.949m9.88-5.093c0 0.857-0.07 1.625-0.23 2.304-0.15 0.674-0.4 1.228-0.72 1.661-0.34 0.442-0.77 0.777-1.3 1.005-0.53 0.223-1.18 0.335-1.96 0.335-0.76 0-1.41-0.114-1.95-0.342-0.53-0.228-0.97-0.565-1.3-1.012-0.34-0.447-0.58-1-0.73-1.661-0.15-0.665-0.23-1.427-0.23-2.283 0-0.884 0.08-1.652 0.23-2.304 0.16-0.652 0.4-1.203 0.74-1.654 0.34-0.447 0.78-0.782 1.31-1.005 0.54-0.224 1.19-0.335 1.93-0.335 0.78 0 1.44 0.116 1.96 0.348 0.53 0.228 0.97 0.57 1.3 1.026 0.34 0.446 0.58 0.998 0.73 1.654 0.15 0.652 0.22 1.406 0.22 2.263m-2.64 0c0-1.231-0.12-2.106-0.36-2.625-0.25-0.524-0.65-0.786-1.21-0.786s-0.96 0.262-1.2 0.786c-0.24 0.519-0.36 1.399-0.36 2.639 0 1.207 0.12 2.078 0.37 2.611 0.24 0.533 0.64 0.8 1.19 0.8s0.95-0.267 1.2-0.8c0.24-0.533 0.37-1.408 0.37-2.625m12.08-0.349v5.442h-2.48v-3.835c0-0.374-0.01-0.691-0.02-0.951-0.02-0.264-0.07-0.478-0.16-0.642-0.08-0.164-0.2-0.283-0.37-0.356-0.17-0.077-0.4-0.116-0.7-0.116-0.24 0-0.47 0.05-0.7 0.151-0.23 0.095-0.44 0.198-0.62 0.307v5.442h-2.46v-7.677h2.46v0.848c0.43-0.333 0.83-0.593 1.22-0.78s0.81-0.28 1.28-0.28c0.51 0 0.96 0.114 1.34 0.342 0.39 0.223 0.69 0.553 0.91 0.991 0.5-0.415 0.97-0.741 1.44-0.978 0.46-0.237 0.92-0.355 1.37-0.355 0.83 0 1.45 0.248 1.88 0.745 0.44 0.497 0.65 1.212 0.65 2.147v4.997h-2.47v-3.835c0-0.379-0.01-0.698-0.03-0.957-0.01-0.26-0.06-0.472-0.14-0.636s-0.2-0.283-0.37-0.356c-0.17-0.077-0.41-0.116-0.71-0.116-0.21 0-0.41 0.037-0.61 0.11-0.19 0.068-0.43 0.184-0.71 0.348"/>
    <path id="text5155" d="m433.62 366.72c0 0.86-0.11 1.65-0.33 2.38-0.22 0.74-0.55 1.35-1 1.86-0.48 0.54-1.08 0.95-1.79 1.22-0.72 0.27-1.55 0.4-2.5 0.4-0.34 0-0.71-0.02-1.1-0.06s-0.65-0.08-0.77-0.11v-2h0.27c0.14 0.06 0.33 0.13 0.58 0.2 0.26 0.08 0.6 0.11 1.04 0.11 0.36 0 0.71-0.04 1.05-0.13s0.63-0.23 0.88-0.42c0.27-0.21 0.49-0.46 0.66-0.77 0.18-0.31 0.29-0.68 0.35-1.11-0.39 0.23-0.76 0.4-1.11 0.53-0.33 0.11-0.75 0.17-1.26 0.17-0.38 0-0.75-0.04-1.1-0.13-0.35-0.1-0.66-0.25-0.95-0.44-0.38-0.27-0.68-0.62-0.91-1.06-0.22-0.44-0.34-1-0.34-1.67 0-1.09 0.38-1.97 1.14-2.66s1.76-1.03 2.99-1.03c0.63 0 1.19 0.08 1.68 0.25s0.91 0.42 1.27 0.76c0.41 0.39 0.73 0.89 0.94 1.5 0.21 0.6 0.31 1.34 0.31 2.21m-2.62-0.38c0-0.56-0.05-1.01-0.16-1.37s-0.25-0.63-0.44-0.83c-0.13-0.15-0.28-0.25-0.46-0.31-0.17-0.07-0.35-0.1-0.54-0.1-0.18 0-0.35 0.03-0.52 0.1-0.16 0.05-0.31 0.16-0.46 0.31-0.14 0.15-0.26 0.34-0.35 0.57-0.09 0.24-0.13 0.52-0.13 0.85 0 0.32 0.05 0.59 0.14 0.81 0.1 0.21 0.23 0.38 0.4 0.51 0.16 0.12 0.35 0.21 0.56 0.26 0.22 0.05 0.46 0.08 0.71 0.08 0.21 0 0.43-0.03 0.67-0.08s0.43-0.11 0.56-0.16c0-0.05 0-0.12 0.01-0.22 0.01-0.09 0.01-0.23 0.01-0.42m7.37 6.04h-2.55v-2.68h2.55v2.68m9.87 0h-6.8v-1.77h2.15v-5.38h-2.15v-1.66c0.33 0 0.64-0.02 0.94-0.06 0.31-0.04 0.56-0.11 0.76-0.2 0.23-0.12 0.41-0.27 0.53-0.45s0.19-0.41 0.21-0.68h2.26v8.43h2.1v1.77m10.37-3.44c0 0.53-0.1 1.02-0.3 1.48-0.19 0.45-0.48 0.83-0.86 1.16-0.42 0.34-0.9 0.6-1.45 0.77-0.54 0.16-1.16 0.25-1.86 0.25-0.81-0.01-1.5-0.07-2.07-0.2-0.56-0.13-1.02-0.26-1.37-0.42v-2.25h0.28c0.42 0.25 0.87 0.45 1.34 0.62 0.48 0.16 0.96 0.24 1.43 0.24 0.29 0 0.6-0.03 0.93-0.09 0.34-0.07 0.61-0.19 0.8-0.37 0.16-0.14 0.27-0.28 0.35-0.43 0.08-0.14 0.12-0.37 0.12-0.67 0-0.24-0.05-0.44-0.16-0.61-0.1-0.17-0.24-0.31-0.41-0.42-0.25-0.15-0.54-0.25-0.89-0.29-0.35-0.05-0.66-0.08-0.94-0.08-0.41 0-0.81 0.04-1.18 0.11-0.38 0.07-0.71 0.14-0.99 0.21h-0.3v-5.74h7.24v1.94h-4.77v1.66c0.14 0 0.32-0.01 0.53-0.02 0.22-0.01 0.41-0.01 0.58-0.01 0.56 0 1.05 0.05 1.49 0.16s0.82 0.26 1.14 0.45c0.42 0.25 0.74 0.58 0.97 1 0.24 0.41 0.35 0.92 0.35 1.55m9.59-2v5.44h-2.48v-3.83c0-0.37-0.01-0.69-0.02-0.95-0.02-0.27-0.07-0.48-0.16-0.64-0.08-0.17-0.2-0.29-0.37-0.36-0.17-0.08-0.4-0.12-0.7-0.12-0.24 0-0.47 0.05-0.7 0.15s-0.44 0.2-0.62 0.31v5.44h-2.46v-7.67h2.46v0.84c0.43-0.33 0.83-0.59 1.22-0.77 0.39-0.19 0.81-0.28 1.28-0.28 0.51 0 0.96 0.11 1.34 0.34 0.39 0.22 0.69 0.55 0.91 0.99 0.5-0.42 0.97-0.74 1.44-0.98 0.46-0.24 0.92-0.35 1.37-0.35 0.83 0 1.45 0.24 1.88 0.74 0.44 0.5 0.65 1.21 0.65 2.15v4.99h-2.47v-3.83c0-0.38-0.01-0.7-0.03-0.96-0.01-0.26-0.06-0.47-0.14-0.63-0.08-0.17-0.2-0.29-0.37-0.36-0.17-0.08-0.41-0.12-0.71-0.12-0.21 0-0.41 0.04-0.6 0.11-0.2 0.07-0.44 0.19-0.72 0.35"/>
    <path id="text5177" d="m177.33 383.13c0 0.85-0.11 1.64-0.33 2.38-0.22 0.73-0.55 1.35-1 1.85-0.48 0.54-1.08 0.95-1.8 1.22-0.71 0.27-1.55 0.41-2.5 0.41-0.34 0-0.7-0.02-1.09-0.07-0.4-0.04-0.65-0.07-0.78-0.1v-2.01h0.28c0.13 0.07 0.33 0.13 0.58 0.21 0.25 0.07 0.6 0.11 1.04 0.11 0.35 0 0.7-0.05 1.04-0.13 0.35-0.09 0.64-0.24 0.89-0.43 0.26-0.2 0.49-0.46 0.66-0.76 0.17-0.31 0.29-0.68 0.35-1.12-0.4 0.23-0.77 0.41-1.11 0.53s-0.76 0.18-1.27 0.18c-0.38 0-0.74-0.05-1.1-0.14-0.34-0.09-0.66-0.24-0.95-0.44-0.37-0.27-0.68-0.62-0.91-1.06-0.22-0.44-0.33-0.99-0.33-1.66 0-1.09 0.38-1.98 1.13-2.66 0.77-0.69 1.76-1.04 2.99-1.04 0.64 0 1.2 0.09 1.68 0.26 0.5 0.16 0.92 0.41 1.28 0.76 0.41 0.39 0.72 0.89 0.93 1.49 0.21 0.61 0.32 1.35 0.32 2.22m-2.62-0.38c0-0.56-0.06-1.02-0.17-1.37-0.1-0.36-0.25-0.64-0.43-0.84-0.14-0.14-0.29-0.25-0.46-0.31s-0.36-0.1-0.55-0.1c-0.18 0-0.35 0.04-0.51 0.1s-0.32 0.16-0.47 0.31c-0.14 0.15-0.25 0.34-0.34 0.58s-0.13 0.52-0.13 0.85c0 0.31 0.04 0.58 0.14 0.8 0.09 0.22 0.23 0.39 0.4 0.52 0.16 0.12 0.34 0.2 0.56 0.25 0.21 0.06 0.45 0.08 0.71 0.08 0.2 0 0.43-0.02 0.67-0.08 0.24-0.05 0.43-0.1 0.56-0.16v-0.21c0.01-0.1 0.02-0.24 0.02-0.42m7.37 6.04h-2.56v-2.69h2.56v2.69m9.86 0h-6.79v-1.78h2.14v-5.38h-2.14v-1.66c0.32 0 0.64-0.02 0.94-0.05 0.3-0.05 0.55-0.11 0.75-0.21 0.24-0.11 0.42-0.26 0.54-0.44 0.11-0.19 0.18-0.41 0.2-0.69h2.26v8.43h2.1v1.78m10.38-3.45c0 0.53-0.1 1.02-0.3 1.48-0.2 0.45-0.49 0.84-0.86 1.16-0.42 0.35-0.91 0.61-1.45 0.77-0.55 0.17-1.17 0.25-1.86 0.25-0.82 0-1.51-0.07-2.07-0.2-0.56-0.12-1.02-0.26-1.38-0.42v-2.24h0.29c0.41 0.24 0.86 0.45 1.34 0.61 0.48 0.17 0.95 0.25 1.43 0.25 0.29 0 0.6-0.03 0.93-0.1s0.6-0.19 0.8-0.36c0.15-0.14 0.27-0.29 0.35-0.43 0.08-0.15 0.12-0.37 0.12-0.68 0-0.24-0.06-0.44-0.16-0.61-0.11-0.17-0.25-0.31-0.42-0.41-0.24-0.15-0.54-0.25-0.88-0.3-0.35-0.05-0.66-0.07-0.95-0.07-0.41 0-0.8 0.03-1.18 0.11-0.37 0.06-0.7 0.13-0.98 0.2h-0.3v-5.74h7.23v1.95h-4.77v1.66c0.14-0.01 0.32-0.02 0.54-0.02 0.21-0.01 0.41-0.02 0.57-0.02 0.56 0 1.06 0.06 1.5 0.17 0.44 0.1 0.82 0.25 1.14 0.44 0.41 0.25 0.74 0.59 0.97 1s0.35 0.93 0.35 1.55m9.58-1.99v5.44h-2.47v-3.84c0-0.37-0.01-0.69-0.03-0.95s-0.07-0.48-0.15-0.64-0.21-0.28-0.38-0.36c-0.16-0.07-0.39-0.11-0.69-0.11-0.24 0-0.48 0.05-0.71 0.15-0.23 0.09-0.43 0.2-0.61 0.31v5.44h-2.46v-7.68h2.46v0.85c0.42-0.33 0.83-0.59 1.21-0.78 0.39-0.19 0.82-0.28 1.29-0.28 0.51 0 0.95 0.11 1.34 0.34 0.39 0.22 0.69 0.55 0.91 0.99 0.49-0.41 0.97-0.74 1.43-0.98 0.47-0.23 0.92-0.35 1.37-0.35 0.83 0 1.46 0.25 1.89 0.74 0.43 0.5 0.65 1.22 0.65 2.15v5h-2.48v-3.84c0-0.38-0.01-0.69-0.02-0.95-0.02-0.26-0.07-0.48-0.15-0.64s-0.2-0.28-0.37-0.36c-0.17-0.07-0.4-0.11-0.71-0.11-0.2 0-0.4 0.04-0.6 0.11s-0.44 0.18-0.72 0.35"/>
    <path id="text5181" d="m80.916 423.34c0 0.53-0.1 1.02-0.301 1.48-0.196 0.45-0.483 0.84-0.861 1.16-0.419 0.35-0.902 0.61-1.449 0.77-0.543 0.17-1.162 0.25-1.86 0.25-0.815 0-1.506-0.07-2.071-0.2-0.561-0.12-1.019-0.26-1.374-0.42v-2.24h0.287c0.415 0.24 0.861 0.45 1.34 0.61 0.478 0.17 0.955 0.25 1.429 0.25 0.287 0 0.597-0.03 0.929-0.1 0.338-0.07 0.604-0.19 0.8-0.36 0.155-0.14 0.271-0.29 0.349-0.43 0.082-0.15 0.123-0.37 0.123-0.68 0-0.24-0.055-0.44-0.164-0.61-0.105-0.17-0.242-0.31-0.41-0.41-0.246-0.15-0.543-0.25-0.889-0.3s-0.661-0.07-0.943-0.07c-0.411 0-0.805 0.03-1.183 0.11-0.374 0.06-0.702 0.13-0.984 0.2h-0.301v-5.74h7.239v1.95h-4.771v1.66c0.141-0.01 0.319-0.02 0.533-0.02 0.219-0.01 0.41-0.02 0.574-0.02 0.561 0 1.06 0.06 1.497 0.17 0.442 0.1 0.823 0.25 1.142 0.44 0.414 0.25 0.738 0.59 0.97 1 0.233 0.41 0.349 0.93 0.349 1.55m4.724 3.45h-2.557v-2.69h2.557v2.69m10.288-3.45c0 0.53-0.101 1.02-0.301 1.48-0.196 0.45-0.483 0.84-0.861 1.16-0.42 0.35-0.903 0.61-1.45 0.77-0.542 0.17-1.162 0.25-1.859 0.25-0.816 0-1.506-0.07-2.071-0.2-0.561-0.12-1.019-0.26-1.374-0.42v-2.24h0.287c0.415 0.24 0.861 0.45 1.34 0.61 0.478 0.17 0.954 0.25 1.428 0.25 0.287 0 0.597-0.03 0.93-0.1 0.337-0.07 0.604-0.19 0.8-0.36 0.155-0.14 0.271-0.29 0.349-0.43 0.082-0.15 0.123-0.37 0.123-0.68 0-0.24-0.055-0.44-0.165-0.61-0.104-0.17-0.241-0.31-0.41-0.41-0.246-0.15-0.542-0.25-0.888-0.3-0.347-0.05-0.661-0.07-0.944-0.07-0.41 0-0.804 0.03-1.182 0.11-0.374 0.06-0.702 0.13-0.985 0.2h-0.3v-5.74h7.239v1.95h-4.772v1.66c0.142-0.01 0.319-0.02 0.534-0.02 0.218-0.01 0.41-0.02 0.574-0.02 0.56 0 1.059 0.06 1.497 0.17 0.442 0.1 0.822 0.25 1.141 0.44 0.415 0.25 0.739 0.59 0.971 1 0.233 0.41 0.349 0.93 0.349 1.55m9.582-1.99v5.44h-2.47v-3.84c0-0.37-0.01-0.69-0.03-0.95s-0.07-0.48-0.15-0.64-0.21-0.28-0.38-0.36c-0.16-0.07-0.39-0.11-0.69-0.11-0.25 0-0.48 0.05-0.71 0.15-0.23 0.09-0.43 0.2-0.61 0.31v5.44h-2.464v-7.68h2.464v0.85c0.42-0.33 0.83-0.59 1.21-0.78 0.39-0.19 0.82-0.28 1.29-0.28 0.5 0 0.95 0.11 1.34 0.34 0.39 0.22 0.69 0.55 0.91 0.99 0.49-0.41 0.97-0.74 1.43-0.98 0.47-0.23 0.92-0.35 1.37-0.35 0.83 0 1.46 0.25 1.89 0.74 0.43 0.5 0.65 1.22 0.65 2.15v5h-2.48v-3.84c0-0.38-0.01-0.69-0.03-0.95-0.01-0.26-0.06-0.48-0.14-0.64s-0.2-0.28-0.37-0.36c-0.17-0.07-0.4-0.11-0.71-0.11-0.2 0-0.4 0.04-0.6 0.11s-0.44 0.18-0.72 0.35"/>
    <path id="text5185" d="m79.759 293.34c0 0.53-0.1 1.02-0.301 1.48-0.196 0.45-0.483 0.84-0.861 1.16-0.42 0.35-0.903 0.61-1.45 0.77-0.542 0.17-1.162 0.25-1.859 0.25-0.816 0-1.506-0.07-2.071-0.2-0.561-0.12-1.019-0.26-1.374-0.42v-2.24h0.287c0.415 0.24 0.861 0.45 1.34 0.61 0.478 0.17 0.954 0.25 1.428 0.25 0.288 0 0.597-0.03 0.93-0.1 0.337-0.07 0.604-0.19 0.8-0.36 0.155-0.14 0.271-0.29 0.349-0.43 0.082-0.15 0.123-0.37 0.123-0.68 0-0.24-0.055-0.44-0.164-0.61-0.105-0.17-0.242-0.31-0.411-0.41-0.246-0.15-0.542-0.25-0.888-0.3-0.347-0.05-0.661-0.07-0.944-0.07-0.41 0-0.804 0.03-1.182 0.11-0.374 0.06-0.702 0.13-0.985 0.2h-0.3v-5.74h7.239v1.95h-4.772v1.66c0.142-0.01 0.319-0.02 0.534-0.02 0.218-0.01 0.41-0.02 0.574-0.02 0.56 0 1.059 0.06 1.497 0.17 0.442 0.1 0.822 0.25 1.141 0.44 0.415 0.25 0.739 0.59 0.971 1 0.233 0.41 0.349 0.93 0.349 1.55m4.723 3.45h-2.556v-2.69h2.556v2.69m10.289-3.45c-0.001 0.53-0.101 1.02-0.301 1.48-0.196 0.45-0.483 0.84-0.862 1.16-0.419 0.35-0.902 0.61-1.449 0.77-0.542 0.17-1.162 0.25-1.859 0.25-0.816 0-1.506-0.07-2.071-0.2-0.561-0.12-1.019-0.26-1.375-0.42v-2.24h0.288c0.414 0.24 0.861 0.45 1.339 0.61 0.479 0.17 0.955 0.25 1.429 0.25 0.287 0 0.597-0.03 0.93-0.1 0.337-0.07 0.604-0.19 0.8-0.36 0.155-0.14 0.271-0.29 0.348-0.43 0.082-0.15 0.123-0.37 0.123-0.68 0-0.24-0.054-0.44-0.164-0.61-0.105-0.17-0.241-0.31-0.41-0.41-0.246-0.15-0.542-0.25-0.889-0.3-0.346-0.05-0.66-0.07-0.943-0.07-0.41 0-0.804 0.03-1.183 0.11-0.373 0.06-0.701 0.13-0.984 0.2h-0.301v-5.74h7.24v1.95h-4.772v1.66c0.141-0.01 0.319-0.02 0.533-0.02 0.219-0.01 0.41-0.02 0.574-0.02 0.561 0 1.06 0.06 1.498 0.17 0.442 0.1 0.822 0.25 1.141 0.44 0.415 0.25 0.738 0.59 0.971 1 0.232 0.41 0.348 0.93 0.349 1.55m9.579-1.99v5.44h-2.47v-3.84c0-0.37-0.01-0.69-0.03-0.95s-0.07-0.48-0.15-0.64-0.21-0.28-0.37-0.36c-0.17-0.07-0.4-0.11-0.7-0.11-0.24 0-0.48 0.05-0.705 0.15-0.228 0.09-0.433 0.2-0.615 0.31v5.44h-2.461v-7.68h2.461v0.85c0.423-0.33 0.83-0.59 1.22-0.78 0.38-0.19 0.81-0.28 1.28-0.28 0.51 0 0.95 0.11 1.34 0.34 0.39 0.22 0.69 0.55 0.91 0.99 0.49-0.41 0.97-0.74 1.44-0.98 0.46-0.23 0.92-0.35 1.36-0.35 0.83 0 1.46 0.25 1.89 0.74 0.43 0.5 0.65 1.22 0.65 2.15v5h-2.48v-3.84c0-0.38 0-0.69-0.02-0.95s-0.06-0.48-0.15-0.64c-0.07-0.16-0.2-0.28-0.37-0.36-0.16-0.07-0.4-0.11-0.71-0.11-0.2 0-0.4 0.04-0.6 0.11-0.19 0.07-0.43 0.18-0.72 0.35"/>
    <path id="text5189" d="m94.795 371h-6.795v-1.78h2.146v-5.38h-2.146v-1.66c0.328 0 0.643-0.02 0.943-0.05 0.301-0.04 0.552-0.11 0.752-0.21 0.237-0.11 0.415-0.26 0.534-0.44 0.118-0.18 0.186-0.41 0.205-0.69h2.262v8.43h2.099v1.78m9.955 0h-6.797v-1.78h2.147v-5.38h-2.147v-1.66c0.328 0 0.643-0.02 0.943-0.05 0.301-0.04 0.552-0.11 0.752-0.21 0.237-0.11 0.412-0.26 0.532-0.44s0.19-0.41 0.21-0.69h2.26v8.43h2.1v1.78m10.01-5.44v5.44h-2.48v-3.83c0-0.38-0.01-0.7-0.03-0.96-0.01-0.26-0.06-0.47-0.15-0.64-0.08-0.16-0.2-0.28-0.37-0.35-0.17-0.08-0.4-0.12-0.7-0.12-0.24 0-0.48 0.05-0.7 0.15-0.23 0.1-0.44 0.2-0.62 0.31v5.44h-2.46v-7.68h2.46v0.85c0.42-0.33 0.83-0.59 1.22-0.78s0.81-0.28 1.28-0.28c0.51 0 0.96 0.12 1.34 0.34 0.39 0.23 0.69 0.56 0.91 0.99 0.49-0.41 0.97-0.74 1.44-0.97 0.46-0.24 0.92-0.36 1.36-0.36 0.83 0 1.46 0.25 1.89 0.75 0.43 0.49 0.65 1.21 0.65 2.14v5h-2.47v-3.83c0-0.38-0.01-0.7-0.03-0.96-0.01-0.26-0.06-0.47-0.14-0.64-0.08-0.16-0.21-0.28-0.37-0.35-0.17-0.08-0.41-0.12-0.71-0.12-0.21 0-0.41 0.04-0.61 0.11-0.19 0.07-0.43 0.18-0.71 0.35"/>
    <path id="text5193" d="m255.24 328.05h-1.39v2.37h-2.5v-2.37h-4.93v-1.93l4.76-5.91h2.67v5.98h1.39v1.86m-3.89-1.86v-3.68l-2.96 3.68h2.96m13.63-0.89c0 0.85-0.07 1.62-0.23 2.3-0.15 0.68-0.4 1.23-0.72 1.66-0.34 0.44-0.77 0.78-1.3 1.01-0.53 0.22-1.18 0.33-1.96 0.33-0.76 0-1.41-0.11-1.95-0.34-0.53-0.23-0.97-0.56-1.3-1.01-0.34-0.45-0.58-1-0.73-1.66-0.15-0.67-0.23-1.43-0.23-2.29 0-0.88 0.08-1.65 0.23-2.3 0.16-0.65 0.4-1.2 0.74-1.65s0.78-0.78 1.31-1.01c0.54-0.22 1.19-0.33 1.93-0.33 0.78 0 1.44 0.11 1.96 0.35 0.53 0.22 0.97 0.57 1.3 1.02 0.34 0.45 0.58 1 0.73 1.66 0.15 0.65 0.22 1.4 0.22 2.26m-2.64 0c0-1.23-0.12-2.11-0.36-2.63-0.25-0.52-0.65-0.78-1.21-0.78s-0.96 0.26-1.2 0.78-0.36 1.4-0.36 2.64c0 1.21 0.12 2.08 0.37 2.61 0.24 0.54 0.64 0.8 1.19 0.8s0.95-0.26 1.2-0.8c0.24-0.53 0.37-1.41 0.37-2.62m7.22 5.09h-2.56v-2.69h2.56v2.69m9.51-4.77c0.22 0.19 0.4 0.41 0.53 0.67 0.13 0.25 0.2 0.59 0.2 1.02 0 0.48-0.1 0.92-0.29 1.34-0.19 0.41-0.48 0.77-0.87 1.06-0.38 0.29-0.83 0.51-1.35 0.67-0.52 0.15-1.14 0.22-1.88 0.22-0.84 0-1.57-0.06-2.18-0.2-0.6-0.13-1.09-0.28-1.47-0.44v-2.24h0.27c0.39 0.24 0.86 0.45 1.4 0.62 0.55 0.17 1.05 0.26 1.5 0.26 0.26 0 0.55-0.02 0.86-0.06 0.31-0.05 0.57-0.14 0.79-0.29 0.17-0.11 0.3-0.25 0.4-0.41s0.15-0.4 0.15-0.7-0.07-0.53-0.2-0.69c-0.14-0.16-0.32-0.28-0.54-0.35-0.23-0.07-0.5-0.11-0.81-0.11-0.32-0.01-0.61-0.02-0.88-0.02h-0.56v-1.81h0.58c0.36 0 0.67-0.02 0.95-0.04 0.27-0.02 0.5-0.07 0.7-0.16 0.2-0.08 0.35-0.2 0.45-0.34s0.15-0.35 0.15-0.63c0-0.21-0.06-0.37-0.16-0.49-0.11-0.13-0.24-0.23-0.4-0.31-0.17-0.08-0.38-0.13-0.63-0.16-0.24-0.03-0.44-0.04-0.62-0.04-0.43 0-0.89 0.07-1.39 0.22s-0.99 0.36-1.46 0.64h-0.25v-2.21c0.37-0.15 0.88-0.29 1.52-0.43 0.65-0.14 1.3-0.21 1.96-0.21 0.64 0 1.2 0.06 1.69 0.17 0.48 0.11 0.88 0.26 1.19 0.45 0.38 0.22 0.65 0.49 0.84 0.81 0.18 0.32 0.27 0.69 0.27 1.12 0 0.56-0.18 1.07-0.53 1.52-0.35 0.44-0.81 0.72-1.38 0.85v0.09c0.23 0.03 0.47 0.1 0.73 0.19 0.26 0.1 0.5 0.24 0.72 0.42m10.36-0.67v5.44h-2.48v-3.83c0-0.38-0.01-0.69-0.02-0.95-0.02-0.27-0.07-0.48-0.15-0.65-0.09-0.16-0.21-0.28-0.38-0.35-0.16-0.08-0.4-0.12-0.7-0.12-0.24 0-0.47 0.05-0.7 0.15s-0.43 0.2-0.62 0.31v5.44h-2.46v-7.68h2.46v0.85c0.43-0.33 0.83-0.59 1.22-0.78 0.39-0.18 0.82-0.28 1.29-0.28 0.5 0 0.95 0.12 1.34 0.34 0.38 0.23 0.69 0.56 0.9 0.99 0.5-0.41 0.98-0.74 1.44-0.97 0.47-0.24 0.92-0.36 1.37-0.36 0.83 0 1.46 0.25 1.88 0.75 0.44 0.49 0.65 1.21 0.65 2.14v5h-2.47v-3.83c0-0.38-0.01-0.7-0.03-0.96-0.01-0.26-0.06-0.47-0.14-0.64-0.08-0.16-0.2-0.28-0.37-0.35-0.17-0.08-0.41-0.12-0.71-0.12-0.21 0-0.41 0.04-0.6 0.11-0.2 0.07-0.44 0.19-0.72 0.35"/>
    <path id="text5197" d="m81.244 493h-6.795v-1.78h2.146v-5.38h-2.146v-1.66c0.328 0 0.643-0.02 0.943-0.05 0.301-0.04 0.552-0.11 0.752-0.21 0.237-0.11 0.415-0.26 0.533-0.44 0.119-0.18 0.187-0.41 0.206-0.69h2.262v8.43h2.099v1.78m9.953 0h-6.795v-1.78h2.147v-5.38h-2.147v-1.66c0.328 0 0.643-0.02 0.943-0.05 0.301-0.04 0.552-0.11 0.752-0.21 0.237-0.11 0.415-0.26 0.534-0.44 0.118-0.18 0.186-0.41 0.205-0.69h2.262v8.43h2.099v1.78m10.003-5.44v5.44h-2.47v-3.83c0-0.38-0.009-0.7-0.027-0.96s-0.068-0.47-0.151-0.64c-0.082-0.16-0.207-0.28-0.375-0.35-0.165-0.08-0.397-0.12-0.698-0.12-0.241 0-0.476 0.05-0.704 0.15s-0.433 0.2-0.615 0.31v5.44h-2.461v-7.68h2.461v0.85c0.424-0.33 0.829-0.59 1.217-0.78 0.387-0.19 0.815-0.28 1.285-0.28 0.506 0 0.952 0.12 1.338 0.34 0.39 0.23 0.69 0.56 0.91 0.99 0.49-0.41 0.97-0.74 1.44-0.97 0.46-0.24 0.92-0.36 1.36-0.36 0.83 0 1.46 0.25 1.89 0.75 0.43 0.49 0.65 1.21 0.65 2.14v5h-2.47v-3.83c0-0.38-0.01-0.7-0.03-0.96s-0.06-0.47-0.15-0.64c-0.07-0.16-0.2-0.28-0.36-0.35-0.17-0.08-0.41-0.12-0.72-0.12-0.2 0-0.4 0.04-0.6 0.11-0.19 0.07-0.43 0.18-0.72 0.35"/>
    <path id="text5201" d="m-326.64 47.443h-1.39v2.372h-2.5v-2.372h-4.93v-1.927l4.76-5.907h2.67v5.975h1.39v1.859m-3.89-1.859v-3.678l-2.96 3.678h2.96m13.48 0.759c0 0.528-0.1 1.021-0.3 1.476-0.19 0.452-0.48 0.839-0.86 1.162-0.42 0.347-0.9 0.604-1.45 0.773-0.54 0.164-1.16 0.246-1.86 0.246-0.81-0.005-1.5-0.071-2.07-0.198-0.56-0.123-1.02-0.262-1.37-0.417v-2.249h0.28c0.42 0.246 0.87 0.451 1.34 0.615 0.48 0.164 0.96 0.246 1.43 0.246 0.29 0 0.6-0.032 0.93-0.096 0.34-0.068 0.61-0.189 0.8-0.362 0.16-0.141 0.27-0.285 0.35-0.431 0.08-0.145 0.12-0.371 0.12-0.676 0-0.237-0.05-0.44-0.16-0.609-0.1-0.173-0.24-0.312-0.41-0.417-0.25-0.15-0.54-0.248-0.89-0.294-0.35-0.05-0.66-0.075-0.94-0.075-0.41 0-0.81 0.037-1.18 0.109-0.38 0.069-0.71 0.137-0.99 0.206h-0.3v-5.743h7.24v1.949h-4.77v1.661c0.14-0.009 0.32-0.016 0.53-0.021 0.22-0.009 0.41-0.013 0.58-0.013 0.56 0 1.05 0.054 1.49 0.164 0.44 0.104 0.82 0.253 1.14 0.444 0.42 0.251 0.74 0.583 0.97 0.998 0.24 0.41 0.35 0.927 0.35 1.552m6.89-0.096h-5.22v-1.969h5.22v1.969m9.79-2.119c0 0.852-0.11 1.645-0.33 2.379-0.21 0.734-0.55 1.351-0.99 1.852-0.49 0.543-1.09 0.951-1.8 1.224-0.72 0.269-1.55 0.403-2.5 0.403-0.34 0-0.7-0.02-1.1-0.061-0.39-0.041-0.65-0.078-0.77-0.11v-2.003h0.27c0.14 0.064 0.33 0.133 0.59 0.206 0.25 0.072 0.6 0.109 1.03 0.109 0.36 0 0.71-0.043 1.05-0.13 0.34-0.091 0.64-0.232 0.88-0.424 0.27-0.205 0.49-0.46 0.66-0.765 0.18-0.31 0.29-0.682 0.35-1.115-0.39 0.228-0.76 0.404-1.1 0.527-0.34 0.118-0.76 0.177-1.27 0.177-0.38 0-0.75-0.045-1.1-0.136-0.35-0.096-0.66-0.242-0.95-0.438-0.38-0.269-0.68-0.622-0.91-1.059-0.22-0.442-0.33-0.998-0.33-1.668 0-1.089 0.37-1.976 1.13-2.659 0.76-0.689 1.76-1.033 2.99-1.033 0.63 0 1.19 0.085 1.68 0.253 0.49 0.164 0.92 0.417 1.27 0.759 0.42 0.392 0.73 0.891 0.94 1.497s0.31 1.344 0.31 2.215m-2.62-0.383c0-0.556-0.05-1.012-0.16-1.367-0.1-0.36-0.25-0.638-0.44-0.834-0.13-0.146-0.28-0.251-0.45-0.315-0.18-0.063-0.36-0.095-0.55-0.095-0.18 0-0.35 0.032-0.51 0.095-0.16 0.06-0.32 0.165-0.47 0.315-0.14 0.146-0.26 0.337-0.35 0.574-0.08 0.237-0.13 0.52-0.13 0.848 0 0.319 0.05 0.588 0.15 0.806 0.09 0.215 0.22 0.386 0.39 0.513 0.16 0.123 0.35 0.21 0.56 0.26 0.22 0.05 0.46 0.075 0.71 0.075 0.21 0 0.43-0.025 0.67-0.075 0.25-0.055 0.43-0.109 0.56-0.164 0-0.05 0.01-0.121 0.01-0.212 0.01-0.096 0.01-0.237 0.01-0.424m12.75 0.95c0 0.857-0.07 1.625-0.23 2.304-0.15 0.675-0.4 1.228-0.72 1.661-0.34 0.442-0.77 0.777-1.3 1.005-0.53 0.223-1.18 0.335-1.96 0.335-0.76 0-1.41-0.114-1.95-0.342-0.53-0.228-0.97-0.565-1.3-1.012-0.34-0.446-0.58-1-0.73-1.661-0.15-0.665-0.23-1.426-0.23-2.283 0-0.884 0.08-1.652 0.23-2.304 0.16-0.651 0.41-1.203 0.74-1.654 0.34-0.446 0.78-0.781 1.31-1.005 0.54-0.223 1.19-0.335 1.93-0.335 0.78 0 1.44 0.117 1.96 0.349 0.53 0.228 0.97 0.57 1.3 1.025 0.34 0.447 0.58 0.998 0.73 1.655 0.15 0.651 0.22 1.406 0.22 2.262m-2.64 0c0-1.23-0.12-2.105-0.36-2.625-0.25-0.524-0.65-0.786-1.21-0.786s-0.96 0.262-1.2 0.786c-0.24 0.52-0.36 1.399-0.36 2.639 0 1.208 0.12 2.078 0.37 2.611 0.24 0.534 0.64 0.8 1.19 0.8s0.95-0.266 1.2-0.8c0.25-0.533 0.37-1.408 0.37-2.625m12.08-0.348v5.441h-2.48v-3.835c0-0.374-0.01-0.69-0.02-0.95-0.02-0.264-0.07-0.479-0.16-0.643-0.08-0.164-0.2-0.282-0.37-0.355-0.17-0.078-0.4-0.116-0.7-0.116-0.24 0-0.47 0.05-0.7 0.15-0.23 0.096-0.44 0.198-0.62 0.308v5.441h-2.46v-7.677h2.46v0.848c0.43-0.333 0.83-0.592 1.22-0.779s0.81-0.281 1.28-0.281c0.51 0 0.96 0.114 1.34 0.342 0.39 0.224 0.69 0.554 0.91 0.991 0.5-0.414 0.97-0.74 1.44-0.977 0.46-0.237 0.92-0.356 1.37-0.356 0.83 0 1.45 0.249 1.88 0.746 0.44 0.496 0.65 1.212 0.65 2.146v4.997h-2.47v-3.835c0-0.378-0.01-0.697-0.03-0.957-0.01-0.26-0.06-0.472-0.14-0.636s-0.2-0.282-0.37-0.355c-0.17-0.078-0.41-0.116-0.71-0.116-0.21 0-0.41 0.036-0.6 0.109-0.2 0.068-0.44 0.185-0.72 0.349" transform="rotate(-90)"/>
    <path id="text5205" d="m89.162 698h-6.795v-1.78h2.147v-5.38h-2.147v-1.66c0.328 0 0.643-0.02 0.944-0.05 0.3-0.04 0.551-0.11 0.751-0.21 0.237-0.11 0.415-0.26 0.534-0.44 0.118-0.18 0.187-0.41 0.205-0.69h2.262v8.43h2.099v1.78m14.798-5.44v5.44h-2.48v-3.83c0-0.38-0.01-0.7-0.03-0.96s-0.07-0.47-0.15-0.64c-0.08-0.16-0.2-0.28-0.37-0.35-0.17-0.08-0.4-0.12-0.7-0.12-0.242 0-0.477 0.05-0.705 0.15-0.227 0.1-0.433 0.2-0.615 0.31v5.44h-2.461v-7.68h2.461v0.85c0.424-0.33 0.83-0.59 1.22-0.78 0.38-0.19 0.81-0.28 1.28-0.28 0.51 0 0.95 0.12 1.34 0.34 0.39 0.23 0.69 0.56 0.91 0.99 0.49-0.41 0.97-0.74 1.44-0.97 0.46-0.24 0.92-0.36 1.36-0.36 0.83 0 1.46 0.25 1.89 0.75 0.43 0.49 0.65 1.21 0.65 2.14v5h-2.47v-3.83c0-0.38-0.01-0.7-0.03-0.96s-0.06-0.47-0.15-0.64c-0.07-0.16-0.2-0.28-0.36-0.35-0.17-0.08-0.41-0.12-0.72-0.12-0.2 0-0.4 0.04-0.6 0.11-0.19 0.07-0.43 0.18-0.71 0.35"/>
    <path id="text5209" d="m953.48 299.29c-0.45 0.18-1.06 0.36-1.81 0.53-0.75 0.18-1.5 0.26-2.25 0.26-1.73 0-3.09-0.46-4.07-1.4-0.98-0.95-1.47-2.25-1.47-3.91 0-1.58 0.5-2.85 1.49-3.82s2.37-1.45 4.13-1.45c0.67 0 1.31 0.06 1.92 0.18 0.6 0.12 1.28 0.36 2.02 0.72v2.38h-0.29c-0.13-0.09-0.32-0.23-0.56-0.4-0.25-0.18-0.49-0.33-0.71-0.45-0.27-0.15-0.58-0.27-0.93-0.38-0.35-0.1-0.73-0.15-1.12-0.15-0.47 0-0.89 0.06-1.27 0.2s-0.72 0.35-1.02 0.63c-0.29 0.27-0.51 0.62-0.68 1.05-0.17 0.42-0.25 0.9-0.25 1.45 0 1.13 0.3 1.99 0.9 2.59 0.59 0.59 1.48 0.89 2.64 0.89 0.1 0 0.21 0 0.33-0.01 0.12 0 0.24-0.01 0.34-0.02v-1.99h-2.03v-1.92h4.69v5.02m10.09-3.25c0 1.26-0.37 2.26-1.11 2.98-0.74 0.73-1.77 1.09-3.1 1.09s-2.36-0.36-3.1-1.09c-0.74-0.72-1.1-1.72-1.1-2.98 0-1.27 0.37-2.27 1.1-3 0.75-0.72 1.78-1.08 3.1-1.08 1.34 0 2.38 0.36 3.1 1.09 0.74 0.73 1.11 1.73 1.11 2.99m-3.03 1.86c0.16-0.19 0.28-0.43 0.35-0.7 0.08-0.28 0.13-0.66 0.13-1.15 0-0.45-0.05-0.83-0.13-1.13-0.08-0.31-0.19-0.55-0.34-0.73-0.15-0.19-0.32-0.32-0.53-0.4-0.2-0.08-0.42-0.12-0.66-0.12s-0.45 0.03-0.63 0.1c-0.19 0.06-0.36 0.19-0.53 0.38-0.15 0.18-0.27 0.42-0.36 0.73s-0.13 0.7-0.13 1.17c0 0.42 0.04 0.79 0.11 1.1 0.08 0.3 0.19 0.55 0.35 0.73 0.14 0.18 0.31 0.31 0.51 0.39 0.21 0.09 0.44 0.13 0.7 0.13 0.23 0 0.44-0.04 0.64-0.11 0.2-0.08 0.38-0.21 0.52-0.39m9.42-0.03v-1.6c-0.33 0.03-0.69 0.07-1.08 0.12-0.38 0.04-0.68 0.1-0.88 0.16-0.24 0.08-0.43 0.19-0.57 0.34-0.12 0.15-0.19 0.34-0.19 0.58 0 0.16 0.02 0.29 0.04 0.39 0.03 0.1 0.1 0.2 0.21 0.29 0.1 0.09 0.23 0.16 0.38 0.21 0.14 0.04 0.37 0.06 0.68 0.06 0.24 0 0.49-0.05 0.74-0.15 0.26-0.1 0.48-0.24 0.67-0.4m0 1.19c-0.13 0.1-0.29 0.22-0.49 0.36-0.19 0.14-0.38 0.25-0.55 0.34-0.24 0.11-0.49 0.19-0.75 0.24s-0.55 0.08-0.86 0.08c-0.73 0-1.34-0.23-1.83-0.68s-0.74-1.03-0.74-1.73c0-0.56 0.13-1.02 0.38-1.37 0.25-0.36 0.6-0.64 1.06-0.84 0.46-0.21 1.02-0.35 1.7-0.44 0.67-0.09 1.37-0.15 2.1-0.19v-0.04c0-0.43-0.18-0.72-0.52-0.88-0.35-0.16-0.86-0.24-1.53-0.24-0.41 0-0.84 0.07-1.3 0.21-0.46 0.15-0.79 0.26-0.99 0.33h-0.23v-1.85c0.26-0.07 0.68-0.15 1.27-0.24 0.58-0.1 1.17-0.14 1.76-0.14 1.4 0 2.41 0.21 3.03 0.65 0.62 0.42 0.93 1.1 0.93 2.02v5.22h-2.44v-0.81m7.14 0.81h-2.46v-10.63h2.46v10.63m-23.86 6.48l-6.46 8.22h-2.98l6.69-8.3h-5.22l0.44-1.88h7.98l-0.45 1.96m2.83 8.22h-2.57l0.61-2.68h2.57l-0.61 2.68m9.6-0.76c-0.45 0.32-0.96 0.57-1.54 0.74-0.57 0.16-1.2 0.24-1.91 0.24-0.83 0-1.56-0.07-2.21-0.22-0.65-0.16-1.18-0.34-1.59-0.55l0.48-2.22 0.27 0.01c0.41 0.3 0.88 0.53 1.39 0.71 0.52 0.18 1.03 0.27 1.53 0.27 0.73 0 1.3-0.14 1.71-0.41 0.42-0.28 0.63-0.67 0.63-1.18 0-0.22-0.04-0.39-0.13-0.53-0.07-0.14-0.2-0.24-0.38-0.32-0.19-0.09-0.43-0.14-0.72-0.17-0.3-0.02-0.62-0.04-0.99-0.04h-0.56l0.39-1.8h0.58c0.94 0 1.59-0.1 1.96-0.3 0.37-0.21 0.56-0.52 0.56-0.93 0-0.33-0.16-0.57-0.47-0.73-0.31-0.15-0.74-0.23-1.3-0.23-0.47 0-0.97 0.08-1.49 0.23s-0.98 0.32-1.39 0.53l-0.25-0.01 0.47-2.19c0.4-0.14 0.91-0.26 1.51-0.36 0.6-0.11 1.2-0.17 1.78-0.17s1.1 0.05 1.56 0.14 0.86 0.22 1.18 0.4c0.35 0.18 0.62 0.42 0.8 0.71 0.2 0.28 0.29 0.64 0.29 1.08 0 0.41-0.07 0.78-0.22 1.1-0.14 0.31-0.33 0.57-0.57 0.78-0.23 0.21-0.5 0.38-0.8 0.51s-0.6 0.23-0.88 0.29l-0.02 0.1c0.49 0.08 0.91 0.28 1.24 0.59 0.34 0.32 0.51 0.73 0.51 1.23 0 0.56-0.13 1.08-0.39 1.54-0.25 0.46-0.6 0.85-1.03 1.16m10.84 0.76h-7.99l0.39-1.68c0.76-0.48 1.47-0.96 2.13-1.43 0.67-0.47 1.23-0.89 1.69-1.26 0.71-0.58 1.24-1.09 1.57-1.55s0.5-0.9 0.5-1.32c0-0.39-0.14-0.68-0.4-0.87s-0.63-0.29-1.09-0.29c-0.48 0-0.96 0.08-1.45 0.25-0.49 0.16-0.96 0.38-1.41 0.67h-0.22l0.51-2.26c0.33-0.14 0.84-0.27 1.52-0.42 0.68-0.14 1.32-0.21 1.93-0.21 1.1 0 1.94 0.2 2.52 0.6 0.58 0.41 0.88 1.01 0.88 1.82 0 0.83-0.22 1.56-0.66 2.2-0.44 0.63-1.13 1.32-2.09 2.07-0.46 0.37-0.91 0.7-1.34 1-0.43 0.29-0.79 0.53-1.11 0.73h4.57l-0.45 1.95m15.7-5.97c0 0.15-0.01 0.3-0.03 0.46-0.02 0.17-0.05 0.34-0.09 0.52l-1.15 4.99h-2.49l0.89-3.83c0.06-0.27 0.11-0.52 0.15-0.76 0.05-0.24 0.08-0.44 0.08-0.59 0-0.26-0.07-0.46-0.22-0.58s-0.41-0.18-0.78-0.18c-0.18 0-0.38 0.04-0.61 0.13-0.22 0.08-0.49 0.2-0.81 0.37l-1.26 5.44h-2.49l0.89-3.83c0.05-0.23 0.1-0.47 0.15-0.73s0.08-0.45 0.08-0.59c0-0.28-0.07-0.48-0.21-0.6-0.14-0.13-0.4-0.19-0.78-0.19-0.19 0-0.41 0.04-0.64 0.13s-0.49 0.22-0.79 0.37l-1.25 5.44h-2.48l1.78-7.67h2.47l-0.19 0.84c0.5-0.33 0.95-0.59 1.35-0.78 0.4-0.18 0.84-0.28 1.31-0.28 0.51 0 0.93 0.12 1.28 0.35 0.35 0.22 0.59 0.55 0.72 0.99 0.62-0.45 1.16-0.78 1.65-1 0.48-0.22 0.95-0.34 1.4-0.34 0.67 0 1.19 0.17 1.54 0.5 0.36 0.34 0.53 0.81 0.53 1.42m-24.02 19.15l-1.27 1.28-3.01-3.02-2.96 2.98-1.28-1.28 2.98-2.96-3.02-3 1.28-1.28 3 3.01 2.97-2.98 1.28 1.28-2.98 2.97 3.01 3m-16.64 16.22h-7.99l0.39-1.68c0.75-0.48 1.46-0.96 2.13-1.43 0.66-0.47 1.23-0.89 1.69-1.26 0.71-0.58 1.23-1.09 1.56-1.55 0.34-0.46 0.5-0.9 0.5-1.32 0-0.39-0.13-0.68-0.39-0.87-0.27-0.19-0.63-0.29-1.1-0.29s-0.96 0.08-1.45 0.25c-0.49 0.16-0.96 0.38-1.41 0.67h-0.21l0.5-2.26c0.34-0.14 0.85-0.27 1.53-0.42 0.67-0.14 1.32-0.21 1.92-0.21 1.1 0 1.94 0.2 2.53 0.6 0.58 0.41 0.87 1.01 0.87 1.82 0 0.83-0.22 1.56-0.66 2.2-0.43 0.63-1.13 1.32-2.08 2.07-0.47 0.37-0.92 0.7-1.35 1-0.42 0.29-0.79 0.53-1.1 0.73h4.57l-0.45 1.95m4.52 0h-2.57l0.61-2.68h2.57l-0.61 2.68m11.18-2.34h-1.39l-0.54 2.37h-2.51l0.54-2.37h-4.93l0.45-1.93 6.12-5.91h2.68l-1.38 5.98h1.39l-0.43 1.86m-3.47-1.86l0.84-3.61-3.73 3.61h2.89m13.42 1.86h-1.38l-0.55 2.37h-2.51l0.55-2.37h-4.93l0.44-1.93 6.13-5.91h2.67l-1.37 5.98h1.38l-0.43 1.86m-3.46-1.86l0.83-3.61-3.72 3.61h2.89m18.47-1.77c0 0.15-0.01 0.3-0.03 0.46-0.02 0.17-0.05 0.34-0.09 0.52l-1.15 4.99h-2.49l0.89-3.83c0.06-0.27 0.11-0.52 0.15-0.76 0.05-0.24 0.08-0.44 0.08-0.59 0-0.26-0.07-0.46-0.22-0.58s-0.41-0.18-0.78-0.18c-0.18 0-0.38 0.04-0.61 0.13-0.22 0.08-0.49 0.2-0.81 0.37l-1.26 5.44h-2.49l0.89-3.83c0.05-0.23 0.1-0.47 0.15-0.73s0.08-0.45 0.08-0.59c0-0.28-0.07-0.48-0.21-0.6-0.14-0.13-0.4-0.19-0.78-0.19-0.19 0-0.41 0.04-0.64 0.13s-0.49 0.22-0.79 0.37l-1.25 5.44h-2.48l1.78-7.67h2.47l-0.19 0.84c0.5-0.33 0.95-0.59 1.35-0.78 0.4-0.18 0.84-0.28 1.31-0.28 0.51 0 0.93 0.12 1.28 0.35 0.35 0.22 0.59 0.55 0.72 0.99 0.62-0.45 1.16-0.78 1.65-1 0.48-0.22 0.95-0.34 1.4-0.34 0.67 0 1.19 0.17 1.54 0.5 0.36 0.34 0.53 0.81 0.53 1.42"/>
    <path id="text5219" d="m513.11 377.38c-0.76 0-1.45-0.11-2.1-0.33-0.64-0.23-1.18-0.56-1.64-1-0.47-0.44-0.82-0.99-1.08-1.66-0.25-0.66-0.37-1.42-0.37-2.29 0-0.8 0.12-1.53 0.36-2.19s0.59-1.22 1.05-1.69c0.44-0.45 0.99-0.8 1.64-1.04 0.66-0.25 1.37-0.37 2.15-0.37 0.43 0 0.81 0.02 1.15 0.07 0.35 0.05 0.67 0.11 0.96 0.19 0.31 0.08 0.58 0.18 0.83 0.29s0.47 0.2 0.65 0.29v2.47h-0.3c-0.12-0.11-0.29-0.24-0.48-0.39s-0.41-0.3-0.66-0.44c-0.25-0.15-0.52-0.27-0.81-0.37s-0.61-0.15-0.94-0.15c-0.37 0-0.72 0.06-1.05 0.18-0.33 0.11-0.64 0.3-0.92 0.57-0.27 0.26-0.49 0.6-0.66 1.03-0.16 0.43-0.25 0.95-0.25 1.56 0 0.64 0.09 1.17 0.27 1.6s0.41 0.77 0.68 1.01c0.28 0.25 0.59 0.43 0.93 0.54 0.35 0.11 0.68 0.16 1.02 0.16 0.31 0 0.63-0.05 0.94-0.14 0.31-0.1 0.6-0.23 0.87-0.39 0.22-0.14 0.43-0.28 0.62-0.43s0.35-0.28 0.47-0.39h0.27v2.44c-0.25 0.11-0.5 0.22-0.73 0.32s-0.47 0.18-0.73 0.26c-0.33 0.09-0.64 0.17-0.94 0.22-0.29 0.05-0.69 0.07-1.2 0.07m12.97-3.58h-5.63c0.03 0.6 0.26 1.06 0.68 1.38s1.05 0.48 1.87 0.48c0.52 0 1.02-0.09 1.51-0.28 0.48-0.19 0.87-0.39 1.15-0.6h0.28v1.97c-0.56 0.23-1.08 0.39-1.58 0.49-0.49 0.1-1.03 0.15-1.63 0.15-1.54 0-2.72-0.35-3.54-1.04s-1.23-1.68-1.23-2.96c0-1.27 0.39-2.27 1.16-3.01 0.78-0.74 1.85-1.11 3.2-1.11 1.25 0 2.19 0.31 2.82 0.95 0.62 0.63 0.94 1.53 0.94 2.72v0.86m-2.45-1.44c-0.01-0.52-0.14-0.9-0.38-1.16s-0.62-0.39-1.13-0.39c-0.47 0-0.86 0.12-1.17 0.36-0.3 0.25-0.47 0.65-0.51 1.19h3.19m11.9 4.82h-2.48v-3.8c0-0.31-0.01-0.62-0.05-0.93-0.03-0.31-0.08-0.53-0.16-0.68-0.09-0.17-0.23-0.29-0.4-0.37-0.18-0.08-0.42-0.12-0.73-0.12-0.23 0-0.46 0.04-0.69 0.11-0.23 0.08-0.47 0.19-0.74 0.35v5.44h-2.46v-7.67h2.46v0.84c0.43-0.34 0.85-0.6 1.25-0.78 0.41-0.18 0.86-0.28 1.35-0.28 0.83 0 1.48 0.25 1.94 0.73 0.47 0.48 0.71 1.2 0.71 2.17v4.99m7.15-0.06c-0.27 0.06-0.55 0.12-0.84 0.15-0.3 0.04-0.66 0.06-1.09 0.06-0.96 0-1.67-0.19-2.14-0.58-0.47-0.38-0.7-1.05-0.7-1.99v-3.59h-1.01v-1.66h1.01v-2.2h2.46v2.2h2.31v1.66h-2.31v2.73c0 0.26 0.01 0.5 0.01 0.7s0.04 0.38 0.11 0.54c0.06 0.16 0.17 0.29 0.33 0.38 0.17 0.09 0.41 0.14 0.72 0.14 0.12 0 0.29-0.03 0.49-0.08 0.21-0.06 0.36-0.11 0.44-0.15h0.21v1.69m7.02-5.27h-0.21c-0.11-0.03-0.28-0.06-0.51-0.08s-0.43-0.03-0.58-0.03c-0.35 0-0.66 0.02-0.93 0.07s-0.56 0.12-0.87 0.23v5.14h-2.46v-7.67h2.46v1.12c0.54-0.46 1.01-0.77 1.42-0.92 0.4-0.15 0.77-0.23 1.1-0.23 0.09 0 0.19 0 0.3 0.01 0.11 0 0.2 0.01 0.28 0.02v2.34m8.95 1.95h-5.64c0.04 0.6 0.27 1.06 0.69 1.38s1.04 0.48 1.86 0.48c0.52 0 1.03-0.09 1.51-0.28 0.49-0.19 0.88-0.39 1.16-0.6h0.27v1.97c-0.55 0.23-1.08 0.39-1.57 0.49s-1.04 0.15-1.63 0.15c-1.54 0-2.72-0.35-3.55-1.04-0.82-0.69-1.23-1.68-1.23-2.96 0-1.27 0.39-2.27 1.17-3.01s1.84-1.11 3.2-1.11c1.24 0 2.18 0.31 2.81 0.95 0.63 0.63 0.95 1.53 0.95 2.72v0.86m-2.45-1.44c-0.02-0.52-0.14-0.9-0.38-1.16-0.25-0.26-0.62-0.39-1.13-0.39-0.48 0-0.87 0.12-1.17 0.36-0.31 0.25-0.48 0.65-0.51 1.19h3.19m15.64 2.39c0 0.79-0.36 1.43-1.07 1.92-0.71 0.48-1.68 0.73-2.92 0.73-0.68 0-1.3-0.07-1.86-0.2-0.55-0.12-1-0.26-1.34-0.42v-2.02h0.23c0.12 0.08 0.26 0.18 0.42 0.28 0.17 0.1 0.4 0.21 0.69 0.33 0.26 0.11 0.55 0.2 0.87 0.28 0.33 0.07 0.67 0.1 1.04 0.1 0.48 0 0.84-0.05 1.07-0.15 0.24-0.11 0.35-0.27 0.35-0.48 0-0.19-0.07-0.32-0.2-0.4-0.14-0.09-0.4-0.17-0.78-0.25-0.18-0.04-0.43-0.08-0.75-0.13-0.31-0.05-0.59-0.11-0.84-0.18-0.7-0.18-1.22-0.46-1.56-0.85-0.33-0.38-0.5-0.86-0.5-1.44 0-0.74 0.35-1.35 1.04-1.84 0.71-0.49 1.66-0.74 2.88-0.74 0.57 0 1.12 0.06 1.64 0.18 0.53 0.12 0.94 0.24 1.24 0.37v1.94h-0.21c-0.37-0.25-0.78-0.45-1.25-0.61-0.47-0.15-0.94-0.23-1.42-0.23-0.39 0-0.73 0.05-1 0.16s-0.41 0.26-0.41 0.46c0 0.19 0.07 0.33 0.19 0.42 0.12 0.1 0.41 0.19 0.87 0.29 0.25 0.05 0.52 0.1 0.8 0.15 0.3 0.04 0.59 0.1 0.88 0.18 0.65 0.17 1.12 0.43 1.43 0.8 0.31 0.36 0.47 0.81 0.47 1.35m9.65-1.51c0 0.63-0.1 1.21-0.29 1.73s-0.45 0.95-0.76 1.28c-0.33 0.36-0.7 0.63-1.12 0.81-0.41 0.18-0.85 0.27-1.33 0.27-0.44 0-0.81-0.04-1.11-0.14-0.31-0.09-0.62-0.22-0.94-0.39v3.2h-2.46v-10.49h2.46v0.8c0.38-0.3 0.76-0.55 1.16-0.73 0.39-0.19 0.85-0.29 1.36-0.29 0.96 0 1.7 0.36 2.23 1.06s0.8 1.66 0.8 2.89m-2.53 0.05c0-0.75-0.13-1.29-0.39-1.63-0.25-0.34-0.66-0.51-1.21-0.51-0.23 0-0.47 0.04-0.72 0.11-0.24 0.07-0.48 0.17-0.7 0.3v3.87c0.16 0.06 0.34 0.1 0.53 0.12 0.18 0.02 0.37 0.03 0.55 0.03 0.65 0 1.14-0.19 1.46-0.57s0.48-0.96 0.48-1.72m12.16 0.06c0 1.26-0.37 2.26-1.11 2.99-0.73 0.72-1.77 1.08-3.1 1.08s-2.36-0.36-3.1-1.08c-0.74-0.73-1.1-1.73-1.1-2.99 0-1.27 0.37-2.27 1.11-3 0.74-0.72 1.77-1.08 3.09-1.08 1.34 0 2.38 0.36 3.11 1.09s1.1 1.73 1.1 2.99m-3.03 1.86c0.16-0.19 0.28-0.43 0.35-0.7 0.09-0.28 0.13-0.66 0.13-1.15 0-0.45-0.04-0.83-0.13-1.13-0.08-0.31-0.19-0.55-0.34-0.73-0.14-0.19-0.32-0.32-0.52-0.4-0.21-0.08-0.43-0.12-0.67-0.12-0.23 0-0.45 0.04-0.63 0.1-0.19 0.06-0.36 0.19-0.53 0.38-0.15 0.18-0.27 0.42-0.36 0.73s-0.13 0.7-0.13 1.17c0 0.42 0.04 0.79 0.11 1.1 0.08 0.3 0.2 0.55 0.35 0.73 0.14 0.18 0.31 0.31 0.52 0.39 0.2 0.09 0.43 0.13 0.69 0.13 0.23 0 0.44-0.04 0.64-0.11 0.2-0.08 0.38-0.21 0.52-0.39m9.68 1.91c-0.26 0.06-0.54 0.12-0.84 0.15-0.29 0.04-0.65 0.06-1.08 0.06-0.96 0-1.67-0.19-2.14-0.58-0.47-0.38-0.7-1.05-0.7-1.99v-3.59h-1.01v-1.66h1.01v-2.2h2.46v2.2h2.3v1.66h-2.3v2.73c0 0.26 0 0.5 0.01 0.7 0 0.2 0.04 0.38 0.11 0.54 0.06 0.16 0.17 0.29 0.33 0.38 0.17 0.09 0.4 0.14 0.71 0.14 0.13 0 0.3-0.03 0.5-0.08 0.21-0.06 0.36-0.11 0.44-0.15h0.2v1.69"/>
    <path id="text5223" d="m525.72 209.68h-2.63v-4.49h-3.87v4.49h-2.63v-10.18h2.63v3.72h3.87v-3.72h2.63v10.18m7.12-2.01v-1.6c-0.34 0.03-0.7 0.07-1.08 0.12-0.39 0.05-0.69 0.1-0.89 0.16-0.24 0.08-0.43 0.2-0.56 0.35-0.13 0.14-0.19 0.34-0.19 0.58 0 0.16 0.01 0.29 0.04 0.39 0.02 0.1 0.09 0.19 0.2 0.28 0.11 0.1 0.23 0.16 0.38 0.21 0.14 0.04 0.37 0.06 0.68 0.06 0.25 0 0.5-0.05 0.75-0.15s0.47-0.23 0.67-0.4m0 1.19c-0.14 0.1-0.3 0.22-0.5 0.37-0.19 0.14-0.38 0.25-0.55 0.33-0.24 0.11-0.49 0.19-0.75 0.24s-0.55 0.08-0.86 0.08c-0.73 0-1.34-0.22-1.83-0.67-0.49-0.46-0.74-1.03-0.74-1.73 0-0.56 0.13-1.02 0.38-1.38 0.25-0.35 0.61-0.63 1.07-0.84 0.45-0.2 1.02-0.35 1.69-0.44 0.68-0.08 1.38-0.15 2.1-0.19v-0.04c0-0.42-0.17-0.71-0.52-0.87-0.35-0.17-0.86-0.25-1.53-0.25-0.41 0-0.84 0.07-1.3 0.22-0.46 0.14-0.79 0.25-0.99 0.33h-0.23v-1.86c0.26-0.06 0.68-0.14 1.27-0.23 0.59-0.1 1.17-0.15 1.76-0.15 1.4 0 2.41 0.22 3.03 0.65s0.94 1.1 0.94 2.02v5.23h-2.44v-0.82m7.13 0.82h-2.46v-10.64h2.46v10.64m7.3-8.83h-0.18c-0.11-0.04-0.25-0.07-0.43-0.11-0.17-0.05-0.36-0.07-0.56-0.07-0.49 0-0.81 0.09-0.99 0.26-0.17 0.18-0.25 0.51-0.25 1.01v0.06h1.9v1.67h-1.82v6.01h-2.46v-6.01h-1.05v-1.67h1.05v-0.21c0-0.94 0.25-1.64 0.75-2.11s1.25-0.71 2.27-0.71c0.36 0 0.69 0.02 0.99 0.04 0.29 0.03 0.56 0.06 0.78 0.1v1.74m5.77 5.29h-5.22v-1.97h5.22v1.97m14.16-4.14l-2.38 7.68h-2.61l-1.57-5.18-1.53 5.18h-2.65l-2.36-7.68h2.59l1.31 5.29 1.64-5.29h2.18l1.56 5.29 1.29-5.29h2.53m6.13 5.67v-1.6c-0.33 0.03-0.69 0.07-1.08 0.12s-0.68 0.1-0.88 0.16c-0.25 0.08-0.43 0.2-0.57 0.35-0.12 0.14-0.19 0.34-0.19 0.58 0 0.16 0.02 0.29 0.04 0.39 0.03 0.1 0.1 0.19 0.21 0.28 0.1 0.1 0.23 0.16 0.37 0.21 0.15 0.04 0.38 0.06 0.69 0.06 0.24 0 0.49-0.05 0.74-0.15 0.26-0.1 0.48-0.23 0.67-0.4m0 1.19c-0.13 0.1-0.29 0.22-0.49 0.37-0.2 0.14-0.38 0.25-0.55 0.33-0.25 0.11-0.5 0.19-0.76 0.24s-0.54 0.08-0.85 0.08c-0.73 0-1.34-0.22-1.83-0.67-0.49-0.46-0.74-1.03-0.74-1.73 0-0.56 0.12-1.02 0.38-1.38 0.25-0.35 0.6-0.63 1.06-0.84 0.46-0.2 1.02-0.35 1.7-0.44 0.67-0.08 1.37-0.15 2.1-0.19v-0.04c0-0.42-0.18-0.71-0.52-0.87-0.35-0.17-0.86-0.25-1.53-0.25-0.41 0-0.84 0.07-1.3 0.22-0.46 0.14-0.79 0.25-0.99 0.33h-0.23v-1.86c0.26-0.06 0.68-0.14 1.26-0.23 0.59-0.1 1.18-0.15 1.77-0.15 1.4 0 2.41 0.22 3.03 0.65s0.93 1.1 0.93 2.02v5.23h-2.44v-0.82m8.14-1.9l1.75-4.96h2.53l-4.26 10.49h-2.67l1.22-2.87-2.99-7.62h2.59l1.83 4.96m12.89 2.72h-2.46v-10.64h2.46v10.64m4.78 0h-2.46v-7.68h2.46v7.68m0.07-8.77h-2.59v-1.87h2.59v1.87m9.97 8.77h-2.47v-3.81c0-0.31-0.02-0.62-0.05-0.92-0.03-0.31-0.09-0.54-0.17-0.69-0.09-0.17-0.22-0.29-0.4-0.37-0.17-0.07-0.42-0.11-0.73-0.11-0.22 0-0.45 0.03-0.68 0.11-0.23 0.07-0.48 0.19-0.75 0.35v5.44h-2.46v-7.68h2.46v0.85c0.44-0.34 0.86-0.61 1.26-0.79s0.85-0.27 1.34-0.27c0.83 0 1.48 0.24 1.95 0.72 0.47 0.49 0.7 1.21 0.7 2.17v5m9.8-3.39h-5.63c0.04 0.6 0.26 1.07 0.68 1.38 0.43 0.32 1.05 0.48 1.87 0.48 0.52 0 1.02-0.09 1.51-0.28 0.49-0.18 0.87-0.39 1.16-0.6h0.27v1.98c-0.56 0.22-1.08 0.38-1.57 0.48-0.5 0.1-1.04 0.15-1.64 0.15-1.54 0-2.72-0.34-3.54-1.04-0.82-0.69-1.23-1.68-1.23-2.96 0-1.26 0.39-2.27 1.16-3 0.78-0.75 1.85-1.12 3.2-1.12 1.25 0 2.19 0.32 2.82 0.95s0.94 1.54 0.94 2.72v0.86m-2.44-1.44c-0.02-0.51-0.15-0.9-0.39-1.16s-0.61-0.39-1.13-0.39c-0.47 0-0.86 0.12-1.16 0.37-0.31 0.24-0.48 0.64-0.52 1.18h3.2"/>
    <path id="text5227" d="m555.2 321.73c-0.76 0-1.46-0.11-2.1-0.34-0.64-0.22-1.19-0.55-1.65-0.99-0.46-0.45-0.82-1-1.07-1.66s-0.38-1.42-0.38-2.29c0-0.81 0.12-1.54 0.36-2.19 0.24-0.66 0.59-1.22 1.06-1.69 0.44-0.45 0.98-0.8 1.64-1.05 0.65-0.24 1.37-0.37 2.14-0.37 0.43 0 0.82 0.03 1.16 0.08 0.34 0.04 0.66 0.11 0.95 0.18 0.31 0.09 0.59 0.19 0.83 0.3 0.25 0.1 0.47 0.2 0.66 0.29v2.47h-0.3c-0.13-0.11-0.29-0.24-0.49-0.39-0.19-0.15-0.41-0.3-0.65-0.45-0.26-0.14-0.53-0.26-0.82-0.36-0.29-0.11-0.6-0.16-0.93-0.16-0.37 0-0.72 0.06-1.06 0.18-0.33 0.12-0.64 0.31-0.92 0.58-0.27 0.26-0.49 0.6-0.66 1.03-0.16 0.43-0.24 0.95-0.24 1.56 0 0.64 0.09 1.17 0.26 1.6 0.19 0.43 0.41 0.76 0.69 1.01s0.59 0.43 0.93 0.54c0.34 0.1 0.68 0.16 1.01 0.16 0.32 0 0.63-0.05 0.94-0.15 0.32-0.09 0.61-0.22 0.87-0.39 0.22-0.13 0.43-0.27 0.62-0.42s0.35-0.28 0.47-0.39h0.28v2.43c-0.26 0.12-0.5 0.22-0.73 0.32-0.24 0.1-0.48 0.19-0.74 0.26-0.33 0.1-0.64 0.17-0.93 0.22s-0.69 0.08-1.2 0.08m12.96-3.58h-5.63c0.04 0.6 0.26 1.06 0.68 1.38 0.43 0.32 1.05 0.48 1.87 0.48 0.52 0 1.02-0.1 1.51-0.28 0.49-0.19 0.87-0.39 1.16-0.61h0.27v1.98c-0.56 0.22-1.08 0.38-1.57 0.48s-1.04 0.15-1.64 0.15c-1.54 0-2.72-0.34-3.54-1.03-0.82-0.7-1.23-1.68-1.23-2.96 0-1.27 0.39-2.27 1.16-3.01 0.78-0.74 1.85-1.12 3.2-1.12 1.25 0 2.19 0.32 2.82 0.95s0.94 1.54 0.94 2.72v0.87m-2.44-1.45c-0.02-0.51-0.15-0.9-0.39-1.16s-0.61-0.39-1.12-0.39c-0.48 0-0.87 0.12-1.17 0.37-0.31 0.25-0.48 0.64-0.52 1.18h3.2m11.89 4.83h-2.47v-3.81c0-0.31-0.02-0.62-0.05-0.92-0.03-0.31-0.09-0.54-0.17-0.68-0.09-0.17-0.22-0.3-0.4-0.37-0.17-0.08-0.42-0.12-0.73-0.12-0.22 0-0.45 0.04-0.68 0.11s-0.48 0.19-0.75 0.35v5.44h-2.46v-7.68h2.46v0.85c0.44-0.34 0.86-0.6 1.26-0.79 0.4-0.18 0.85-0.27 1.34-0.27 0.83 0 1.48 0.24 1.95 0.73 0.47 0.48 0.7 1.2 0.7 2.16v5m7.15-0.07c-0.26 0.07-0.54 0.12-0.84 0.16s-0.66 0.06-1.09 0.06c-0.95 0-1.67-0.19-2.14-0.58-0.46-0.39-0.69-1.05-0.69-1.99v-3.59h-1.02v-1.67h1.02v-2.19h2.46v2.19h2.3v1.67h-2.3v3.43c0.01 0.2 0.04 0.38 0.11 0.54s0.18 0.28 0.34 0.38c0.16 0.09 0.4 0.14 0.71 0.14 0.13 0 0.29-0.03 0.5-0.09 0.21-0.05 0.35-0.1 0.44-0.15h0.2v1.69m7.03-5.26h-0.22c-0.11-0.04-0.27-0.07-0.51-0.08-0.23-0.02-0.42-0.03-0.58-0.03-0.35 0-0.66 0.02-0.93 0.07-0.27 0.04-0.56 0.12-0.87 0.23v5.14h-2.46v-7.68h2.46v1.13c0.55-0.46 1.02-0.77 1.42-0.92 0.4-0.16 0.77-0.23 1.11-0.23h0.29c0.11 0.01 0.21 0.01 0.29 0.02v2.35m8.94 1.95h-5.63c0.03 0.6 0.26 1.06 0.68 1.38s1.05 0.48 1.87 0.48c0.52 0 1.02-0.1 1.51-0.28 0.48-0.19 0.87-0.39 1.15-0.61h0.28v1.98c-0.56 0.22-1.08 0.38-1.58 0.48-0.49 0.1-1.03 0.15-1.63 0.15-1.54 0-2.72-0.34-3.54-1.03-0.82-0.7-1.23-1.68-1.23-2.96 0-1.27 0.39-2.27 1.16-3.01 0.78-0.74 1.85-1.12 3.2-1.12 1.25 0 2.19 0.32 2.82 0.95s0.94 1.54 0.94 2.72v0.87m-2.45-1.45c-0.01-0.51-0.14-0.9-0.38-1.16s-0.62-0.39-1.13-0.39c-0.47 0-0.86 0.12-1.17 0.37-0.3 0.25-0.47 0.64-0.51 1.18h3.19m12.97 5.03c-0.67 0-1.28-0.07-1.84-0.23-0.55-0.16-1.03-0.41-1.44-0.74-0.41-0.34-0.72-0.75-0.94-1.26-0.23-0.51-0.34-1.1-0.34-1.78 0-0.71 0.12-1.33 0.36-1.85s0.57-0.95 1-1.29c0.42-0.33 0.89-0.56 1.44-0.71 0.54-0.15 1.1-0.23 1.68-0.23 0.53 0 1.01 0.06 1.45 0.17 0.45 0.12 0.86 0.26 1.24 0.45v2.1h-0.35c-0.09-0.09-0.21-0.18-0.35-0.29-0.13-0.11-0.29-0.22-0.49-0.32-0.18-0.1-0.39-0.19-0.61-0.25-0.23-0.07-0.49-0.1-0.78-0.1-0.66 0-1.16 0.21-1.52 0.63-0.35 0.41-0.53 0.98-0.53 1.69 0 0.74 0.18 1.3 0.54 1.68 0.37 0.39 0.88 0.58 1.55 0.58 0.31 0 0.59-0.04 0.83-0.1 0.25-0.08 0.46-0.16 0.62-0.26 0.16-0.09 0.3-0.18 0.41-0.28 0.12-0.1 0.23-0.2 0.33-0.3h0.35v2.1c-0.39 0.18-0.79 0.33-1.22 0.43-0.41 0.11-0.88 0.16-1.39 0.16m6.72-0.2h-2.46v-7.68h2.46v7.68m0.07-8.77h-2.6v-1.87h2.6v1.87m7.82 3.44h-0.22c-0.11-0.04-0.27-0.07-0.51-0.08-0.23-0.02-0.42-0.03-0.58-0.03-0.35 0-0.66 0.02-0.93 0.07-0.27 0.04-0.56 0.12-0.87 0.23v5.14h-2.46v-7.68h2.46v1.13c0.55-0.46 1.02-0.77 1.42-0.92 0.4-0.16 0.77-0.23 1.11-0.23h0.29c0.11 0.01 0.21 0.01 0.29 0.02v2.35m5.38 5.53c-0.67 0-1.28-0.07-1.84-0.23-0.55-0.16-1.03-0.41-1.44-0.74-0.41-0.34-0.72-0.75-0.95-1.26-0.22-0.51-0.33-1.1-0.33-1.78 0-0.71 0.12-1.33 0.35-1.85 0.25-0.52 0.58-0.95 1.01-1.29 0.41-0.33 0.89-0.56 1.43-0.71 0.55-0.15 1.11-0.23 1.69-0.23 0.53 0 1.01 0.06 1.45 0.17 0.44 0.12 0.86 0.26 1.24 0.45v2.1h-0.35c-0.09-0.09-0.21-0.18-0.35-0.29-0.13-0.11-0.29-0.22-0.49-0.32-0.19-0.1-0.39-0.19-0.62-0.25-0.22-0.07-0.48-0.1-0.77-0.1-0.66 0-1.17 0.21-1.52 0.63-0.35 0.41-0.53 0.98-0.53 1.69 0 0.74 0.18 1.3 0.54 1.68 0.37 0.39 0.88 0.58 1.55 0.58 0.31 0 0.58-0.04 0.83-0.1 0.25-0.08 0.46-0.16 0.62-0.26 0.16-0.09 0.29-0.18 0.41-0.28s0.23-0.2 0.33-0.3h0.35v2.1c-0.39 0.18-0.79 0.33-1.22 0.43-0.42 0.11-0.88 0.16-1.39 0.16m6.72-0.2h-2.46v-10.64h2.46v10.64m9.88-3.38h-5.63c0.04 0.6 0.26 1.06 0.68 1.38 0.43 0.32 1.05 0.48 1.87 0.48 0.52 0 1.02-0.1 1.51-0.28 0.49-0.19 0.87-0.39 1.16-0.61h0.27v1.98c-0.56 0.22-1.08 0.38-1.57 0.48-0.5 0.1-1.04 0.15-1.64 0.15-1.54 0-2.72-0.34-3.54-1.03-0.82-0.7-1.23-1.68-1.23-2.96 0-1.27 0.39-2.27 1.16-3.01 0.78-0.74 1.85-1.12 3.2-1.12 1.25 0 2.19 0.32 2.82 0.95s0.94 1.54 0.94 2.72v0.87m-2.44-1.45c-0.02-0.51-0.15-0.9-0.39-1.16s-0.61-0.39-1.13-0.39c-0.47 0-0.86 0.12-1.16 0.37-0.31 0.25-0.48 0.64-0.52 1.18h3.2"/>
    <path id="text5231" d="m842.4 242.52c0 0.45-0.08 0.9-0.24 1.34-0.16 0.43-0.39 0.8-0.68 1.09-0.41 0.4-0.86 0.71-1.36 0.91-0.5 0.21-1.12 0.31-1.86 0.31h-1.64v3.31h-2.62v-10.18h4.32c0.65 0 1.19 0.06 1.63 0.18 0.45 0.11 0.84 0.27 1.19 0.49 0.41 0.27 0.72 0.62 0.93 1.04 0.22 0.42 0.33 0.92 0.33 1.51m-2.71 0.06c0-0.29-0.08-0.53-0.23-0.74-0.16-0.21-0.34-0.35-0.54-0.44-0.28-0.11-0.55-0.17-0.8-0.17-0.26-0.02-0.61-0.02-1.04-0.02h-0.46v3.04h0.76c0.44 0 0.81-0.02 1.1-0.08 0.29-0.05 0.53-0.16 0.73-0.33 0.17-0.14 0.29-0.32 0.36-0.52 0.08-0.2 0.12-0.45 0.12-0.74m11.99 3.52h-5.64c0.04 0.6 0.27 1.06 0.69 1.38s1.04 0.48 1.86 0.48c0.52 0 1.03-0.09 1.52-0.28 0.48-0.19 0.87-0.39 1.15-0.6h0.27v1.97c-0.55 0.23-1.08 0.39-1.57 0.49s-1.03 0.15-1.63 0.15c-1.54 0-2.72-0.35-3.54-1.04s-1.23-1.68-1.23-2.96c0-1.27 0.38-2.27 1.16-3.01s1.84-1.11 3.2-1.11c1.25 0 2.19 0.31 2.81 0.95 0.63 0.63 0.95 1.53 0.95 2.72v0.86m-2.45-1.44c-0.01-0.52-0.14-0.9-0.38-1.16s-0.62-0.39-1.13-0.39c-0.47 0-0.86 0.12-1.17 0.36-0.3 0.25-0.48 0.65-0.51 1.19h3.19m11.89 4.82h-2.47v-3.8c0-0.31-0.02-0.62-0.05-0.93s-0.08-0.53-0.16-0.68c-0.09-0.17-0.23-0.29-0.4-0.37-0.18-0.08-0.42-0.12-0.74-0.12-0.22 0-0.45 0.04-0.68 0.11-0.23 0.08-0.48 0.19-0.74 0.35v5.44h-2.47v-7.67h2.47v0.84c0.43-0.34 0.85-0.6 1.25-0.78 0.41-0.18 0.86-0.28 1.35-0.28 0.83 0 1.48 0.25 1.94 0.73 0.47 0.48 0.7 1.2 0.7 2.17v4.99m6.9-2v-1.6c-0.34 0.03-0.7 0.07-1.08 0.12-0.39 0.04-0.69 0.1-0.89 0.16-0.24 0.08-0.43 0.19-0.56 0.34s-0.2 0.34-0.2 0.58c0 0.16 0.02 0.29 0.05 0.39 0.02 0.1 0.09 0.2 0.2 0.29s0.23 0.16 0.38 0.21c0.14 0.04 0.37 0.06 0.68 0.06 0.25 0 0.5-0.05 0.75-0.15s0.47-0.24 0.67-0.4m0 1.19c-0.14 0.1-0.3 0.22-0.5 0.36-0.19 0.14-0.38 0.26-0.55 0.34-0.24 0.11-0.49 0.19-0.75 0.24s-0.55 0.08-0.86 0.08c-0.73 0-1.34-0.23-1.83-0.68s-0.74-1.03-0.74-1.73c0-0.56 0.13-1.02 0.38-1.37 0.25-0.36 0.61-0.64 1.07-0.84 0.45-0.21 1.02-0.35 1.69-0.44 0.68-0.09 1.37-0.15 2.1-0.19v-0.04c0-0.43-0.17-0.72-0.52-0.88s-0.86-0.24-1.53-0.24c-0.41 0-0.84 0.07-1.3 0.22-0.46 0.14-0.79 0.25-0.99 0.32h-0.23v-1.85c0.26-0.07 0.68-0.15 1.27-0.24s1.17-0.14 1.76-0.14c1.4 0 2.41 0.21 3.03 0.65 0.62 0.43 0.94 1.1 0.94 2.02v5.22h-2.44v-0.81m7.13 0.81h-2.46v-10.63h2.46v10.63m7.23-0.06c-0.26 0.06-0.54 0.12-0.84 0.15-0.29 0.04-0.65 0.06-1.08 0.06-0.96 0-1.67-0.19-2.14-0.58-0.47-0.38-0.7-1.05-0.7-1.99v-3.59h-1.01v-1.66h1.01v-2.2h2.46v2.2h2.3v1.66h-2.3v2.73c0 0.26 0 0.5 0.01 0.7 0 0.2 0.04 0.38 0.11 0.54 0.06 0.16 0.17 0.29 0.33 0.38 0.17 0.09 0.4 0.14 0.71 0.14 0.13 0 0.3-0.03 0.5-0.08 0.21-0.06 0.36-0.11 0.44-0.15h0.2v1.69m4.93-2.65l1.75-4.96h2.53l-4.26 10.49h-2.67l1.22-2.87-2.99-7.62h2.58l1.84 4.96m15.08 0.71v-1.6c-0.34 0.03-0.7 0.07-1.08 0.12-0.39 0.04-0.68 0.1-0.89 0.16-0.24 0.08-0.43 0.19-0.56 0.34s-0.19 0.34-0.19 0.58c0 0.16 0.01 0.29 0.04 0.39 0.02 0.1 0.09 0.2 0.2 0.29s0.23 0.16 0.38 0.21c0.14 0.04 0.37 0.06 0.68 0.06 0.25 0 0.5-0.05 0.75-0.15s0.48-0.24 0.67-0.4m0 1.19c-0.14 0.1-0.3 0.22-0.5 0.36-0.19 0.14-0.38 0.26-0.55 0.34-0.24 0.11-0.49 0.19-0.75 0.24s-0.55 0.08-0.86 0.08c-0.72 0-1.34-0.23-1.83-0.68s-0.74-1.03-0.74-1.73c0-0.56 0.13-1.02 0.38-1.37 0.25-0.36 0.61-0.64 1.07-0.84 0.45-0.21 1.02-0.35 1.69-0.44 0.68-0.09 1.38-0.15 2.1-0.19v-0.04c0-0.43-0.17-0.72-0.52-0.88s-0.86-0.24-1.53-0.24c-0.41 0-0.84 0.07-1.3 0.22-0.46 0.14-0.79 0.25-0.99 0.32h-0.23v-1.85c0.26-0.07 0.69-0.15 1.27-0.24 0.59-0.09 1.17-0.14 1.76-0.14 1.4 0 2.41 0.21 3.03 0.65 0.62 0.43 0.94 1.1 0.94 2.02v5.22h-2.44v-0.81m10.24-4.52h-0.22c-0.11-0.03-0.28-0.06-0.51-0.08s-0.42-0.03-0.58-0.03c-0.35 0-0.66 0.02-0.93 0.07s-0.56 0.12-0.87 0.23v5.14h-2.46v-7.67h2.46v1.12c0.55-0.46 1.02-0.77 1.42-0.92s0.77-0.23 1.11-0.23c0.08 0 0.18 0 0.29 0.01 0.11 0 0.2 0.01 0.29 0.02v2.34m8.94 1.95h-5.63c0.03 0.6 0.26 1.06 0.68 1.38s1.05 0.48 1.87 0.48c0.51 0 1.02-0.09 1.51-0.28 0.48-0.19 0.87-0.39 1.15-0.6h0.27v1.97c-0.55 0.23-1.08 0.39-1.57 0.49s-1.03 0.15-1.63 0.15c-1.54 0-2.72-0.35-3.54-1.04s-1.23-1.68-1.23-2.96c0-1.27 0.38-2.27 1.16-3.01s1.85-1.11 3.2-1.11c1.25 0 2.19 0.31 2.81 0.95 0.63 0.63 0.95 1.53 0.95 2.72v0.86m-2.45-1.44c-0.01-0.52-0.14-0.9-0.38-1.16s-0.62-0.39-1.13-0.39c-0.47 0-0.86 0.12-1.17 0.36-0.3 0.25-0.47 0.65-0.51 1.19h3.19m8.83 2.82v-1.6c-0.33 0.03-0.69 0.07-1.08 0.12-0.38 0.04-0.68 0.1-0.88 0.16-0.24 0.08-0.43 0.19-0.57 0.34-0.12 0.15-0.19 0.34-0.19 0.58 0 0.16 0.02 0.29 0.04 0.39 0.03 0.1 0.1 0.2 0.21 0.29 0.1 0.09 0.23 0.16 0.37 0.21 0.15 0.04 0.38 0.06 0.69 0.06 0.24 0 0.49-0.05 0.74-0.15 0.26-0.1 0.48-0.24 0.67-0.4m0 1.19c-0.13 0.1-0.29 0.22-0.49 0.36s-0.38 0.26-0.55 0.34c-0.24 0.11-0.49 0.19-0.75 0.24s-0.55 0.08-0.86 0.08c-0.73 0-1.34-0.23-1.83-0.68s-0.74-1.03-0.74-1.73c0-0.56 0.13-1.02 0.38-1.37 0.25-0.36 0.6-0.64 1.06-0.84 0.46-0.21 1.02-0.35 1.7-0.44 0.67-0.09 1.37-0.15 2.1-0.19v-0.04c0-0.43-0.18-0.72-0.52-0.88-0.35-0.16-0.86-0.24-1.53-0.24-0.41 0-0.84 0.07-1.3 0.22-0.46 0.14-0.79 0.25-0.99 0.32h-0.23v-1.85c0.26-0.07 0.68-0.15 1.27-0.24 0.58-0.09 1.17-0.14 1.76-0.14 1.4 0 2.41 0.21 3.03 0.65 0.62 0.43 0.93 1.1 0.93 2.02v5.22h-2.44v-0.81m-87.52 15.51h-6.79l0.41-1.77h2.14l1.23-5.38h-2.13l0.38-1.66c0.31 0 0.63-0.03 0.95-0.07s0.59-0.1 0.8-0.19c0.24-0.11 0.45-0.25 0.62-0.43s0.3-0.42 0.38-0.7h2.27l-1.94 8.43h2.09l-0.41 1.77m12.09-8.1c0 0.57-0.2 1.08-0.6 1.53-0.4 0.46-0.98 0.82-1.74 1.09l-0.01 0.04c0.52 0.25 0.93 0.54 1.22 0.88 0.29 0.33 0.44 0.76 0.44 1.28 0 1.06-0.45 1.91-1.33 2.55-0.89 0.64-2.02 0.97-3.38 0.97-1.24 0-2.22-0.23-2.95-0.69-0.72-0.46-1.08-1.08-1.08-1.87 0-0.69 0.21-1.27 0.62-1.76 0.42-0.49 1.07-0.87 1.93-1.16l0.01-0.04c-0.45-0.26-0.78-0.54-1-0.83-0.22-0.3-0.33-0.66-0.33-1.08 0-0.44 0.09-0.85 0.28-1.22 0.18-0.38 0.46-0.72 0.84-1.03 0.36-0.29 0.82-0.53 1.36-0.7 0.55-0.18 1.18-0.27 1.88-0.27 1.2 0 2.14 0.21 2.82 0.63s1.02 0.98 1.02 1.68m-2.63 0.41c0-0.31-0.13-0.56-0.39-0.73-0.25-0.18-0.57-0.26-0.96-0.26-0.47 0-0.85 0.11-1.13 0.33-0.29 0.22-0.43 0.49-0.43 0.82 0 0.21 0.06 0.38 0.18 0.52 0.12 0.13 0.32 0.26 0.58 0.4 0.13 0.06 0.29 0.14 0.5 0.22 0.21 0.09 0.45 0.18 0.73 0.29 0.26-0.23 0.47-0.48 0.65-0.75 0.18-0.26 0.27-0.54 0.27-0.84m-0.72 4.8c0-0.24-0.06-0.44-0.19-0.61s-0.4-0.35-0.82-0.56c-0.13-0.07-0.33-0.16-0.6-0.27s-0.49-0.21-0.68-0.29c-0.38 0.28-0.66 0.57-0.84 0.87s-0.28 0.62-0.28 0.94c0 0.41 0.16 0.73 0.46 0.96 0.31 0.23 0.71 0.34 1.21 0.34 0.45 0 0.85-0.13 1.21-0.39 0.35-0.26 0.53-0.59 0.53-0.99m9.34-0.65h-5.22l0.45-1.97h5.22l-0.45 1.97m3.93 6.36h-2.7l1.95-2.97-1.26-7.52h2.51l0.67 5.03 2.92-5.03h2.6l-6.69 10.49m11.76-6.44c-0.44 0.04-0.85 0.08-1.23 0.13s-0.71 0.12-0.98 0.22-0.49 0.24-0.63 0.42c-0.15 0.19-0.22 0.43-0.22 0.73 0 0.26 0.1 0.45 0.29 0.56 0.19 0.1 0.48 0.16 0.84 0.16 0.25 0 0.5-0.06 0.78-0.17 0.27-0.11 0.53-0.26 0.78-0.43l0.37-1.62m-0.65 2.81c-0.15 0.1-0.34 0.22-0.56 0.36s-0.42 0.26-0.61 0.34c-0.25 0.1-0.49 0.18-0.71 0.24-0.23 0.05-0.54 0.08-0.93 0.08-0.64 0-1.16-0.18-1.57-0.53-0.4-0.36-0.6-0.83-0.6-1.41 0-0.6 0.14-1.11 0.43-1.53 0.29-0.43 0.71-0.77 1.28-1.02 0.53-0.23 1.16-0.4 1.89-0.51 0.73-0.1 1.52-0.18 2.37-0.23 0.01-0.03 0.02-0.07 0.03-0.13s0.02-0.14 0.02-0.21c0-0.33-0.15-0.55-0.45-0.68s-0.75-0.2-1.35-0.2c-0.4 0-0.85 0.07-1.34 0.21-0.49 0.13-0.86 0.25-1.1 0.34h-0.23l0.36-1.82c0.29-0.07 0.73-0.15 1.34-0.25 0.6-0.09 1.2-0.13 1.79-0.13 1.21 0 2.09 0.16 2.65 0.47s0.85 0.8 0.85 1.46c0 0.09-0.01 0.21-0.03 0.36-0.01 0.14-0.03 0.27-0.06 0.38l-1.2 5.22h-2.45l0.18-0.81m11.32-4.52h-0.22c-0.11-0.03-0.26-0.06-0.46-0.08s-0.4-0.03-0.6-0.03c-0.32 0-0.63 0.03-0.93 0.08-0.3 0.04-0.61 0.12-0.93 0.22l-1.19 5.14h-2.48l1.78-7.67h2.48l-0.26 1.12c0.46-0.34 0.92-0.62 1.38-0.83 0.47-0.21 0.94-0.32 1.41-0.32 0.08 0 0.18 0 0.28 0.01 0.11 0 0.21 0.01 0.29 0.02l-0.55 2.34m10.11-5.3l-2.46 10.63h-2.48l0.19-0.8c-0.24 0.15-0.45 0.29-0.63 0.41s-0.38 0.23-0.6 0.33c-0.2 0.09-0.41 0.16-0.61 0.21-0.19 0.04-0.43 0.07-0.71 0.07-0.74 0-1.33-0.25-1.78-0.73-0.44-0.48-0.66-1.17-0.66-2.06 0-0.73 0.11-1.41 0.34-2.05 0.24-0.64 0.56-1.21 0.97-1.7 0.41-0.48 0.88-0.86 1.43-1.14 0.54-0.28 1.12-0.43 1.71-0.43 0.42 0 0.79 0.05 1.1 0.13 0.31 0.09 0.63 0.22 0.95 0.39l0.76-3.26h2.48m-3.58 4.75c-0.13-0.07-0.3-0.12-0.52-0.17-0.21-0.06-0.4-0.09-0.57-0.09-0.39 0-0.74 0.09-1.06 0.26-0.31 0.18-0.58 0.41-0.79 0.72-0.2 0.26-0.36 0.61-0.47 1.03-0.11 0.41-0.17 0.81-0.17 1.2 0 0.46 0.11 0.8 0.32 1.01s0.54 0.31 0.98 0.31c0.22 0 0.46-0.05 0.7-0.15 0.25-0.1 0.49-0.22 0.71-0.36l0.87-3.76m17.28 0.66c0 0.7-0.11 1.37-0.34 2.03-0.22 0.66-0.53 1.23-0.92 1.72-0.4 0.49-0.87 0.89-1.41 1.19-0.54 0.29-1.13 0.43-1.78 0.43-0.43 0-0.82-0.04-1.16-0.13-0.34-0.08-0.64-0.22-0.9-0.4l-0.19 0.38h-2.37l2.46-10.63h2.47l-0.87 3.76c0.44-0.31 0.86-0.55 1.26-0.73 0.4-0.19 0.85-0.29 1.34-0.29 0.79 0 1.39 0.24 1.8 0.72 0.41 0.47 0.61 1.12 0.61 1.95m-2.6 0.46c0-0.43-0.1-0.76-0.28-0.98-0.19-0.22-0.51-0.33-0.97-0.33-0.24 0-0.48 0.04-0.71 0.13-0.24 0.08-0.48 0.19-0.74 0.32l-0.89 3.86c0.16 0.06 0.33 0.12 0.51 0.16 0.17 0.03 0.37 0.05 0.6 0.05 0.76 0 1.36-0.3 1.81-0.89 0.44-0.61 0.67-1.38 0.67-2.32m12.17-0.1c0 0.72-0.12 1.39-0.36 2.02s-0.58 1.17-1.02 1.62c-0.45 0.47-0.98 0.83-1.58 1.09-0.61 0.25-1.31 0.37-2.11 0.37-1.14 0-2.02-0.27-2.63-0.82-0.61-0.54-0.92-1.3-0.92-2.27 0-0.68 0.12-1.33 0.34-1.95 0.23-0.61 0.57-1.15 1.02-1.62 0.43-0.46 0.96-0.82 1.59-1.09s1.34-0.4 2.13-0.4c1.14 0 2.02 0.27 2.63 0.81s0.91 1.28 0.91 2.24m-3.2 2.51c0.21-0.32 0.37-0.67 0.48-1.04 0.1-0.38 0.16-0.84 0.16-1.38 0-0.47-0.1-0.83-0.31-1.08-0.2-0.26-0.53-0.39-0.98-0.39-0.34 0-0.65 0.09-0.91 0.26-0.26 0.16-0.49 0.4-0.69 0.71-0.19 0.29-0.34 0.65-0.45 1.07-0.1 0.42-0.15 0.86-0.15 1.31 0 0.52 0.11 0.9 0.34 1.12 0.24 0.23 0.56 0.34 0.96 0.34 0.3 0 0.58-0.08 0.86-0.24 0.27-0.17 0.5-0.39 0.69-0.68m6.95-1.55l-2.16-3.77h2.65l1.22 2.33 2.21-2.33h2.85l-3.93 3.85 2.18 3.82h-2.65l-1.24-2.36-2.28 2.36h-2.84l3.99-3.9"/>
    <path id="text5237" d="m819.4 386.67c0 0.46-0.08 0.9-0.24 1.34-0.16 0.43-0.39 0.8-0.68 1.09-0.41 0.41-0.86 0.71-1.36 0.91-0.5 0.21-1.12 0.31-1.86 0.31h-1.64v3.32h-2.62v-10.18h4.32c0.65 0 1.19 0.05 1.63 0.17 0.45 0.11 0.84 0.27 1.19 0.5 0.41 0.27 0.72 0.61 0.93 1.03 0.22 0.42 0.33 0.92 0.33 1.51m-2.71 0.06c0-0.28-0.08-0.53-0.23-0.74-0.16-0.21-0.34-0.35-0.54-0.43-0.28-0.11-0.55-0.17-0.8-0.18-0.26-0.01-0.61-0.02-1.04-0.02h-0.46v3.05h0.76c0.44 0 0.81-0.03 1.1-0.08 0.29-0.06 0.53-0.17 0.73-0.33 0.17-0.15 0.29-0.32 0.36-0.52 0.08-0.21 0.12-0.46 0.12-0.75m11.99 3.52h-5.64c0.04 0.6 0.27 1.06 0.69 1.38s1.04 0.48 1.86 0.48c0.52 0 1.03-0.09 1.52-0.28 0.48-0.18 0.87-0.39 1.15-0.6h0.27v1.98c-0.55 0.22-1.08 0.38-1.57 0.48s-1.03 0.15-1.63 0.15c-1.54 0-2.72-0.34-3.54-1.04-0.82-0.69-1.23-1.68-1.23-2.96 0-1.26 0.38-2.27 1.16-3.01s1.84-1.11 3.2-1.11c1.25 0 2.19 0.32 2.81 0.95 0.63 0.63 0.95 1.54 0.95 2.72v0.86m-2.45-1.44c-0.01-0.51-0.14-0.9-0.38-1.16s-0.62-0.39-1.13-0.39c-0.47 0-0.86 0.12-1.17 0.37-0.3 0.24-0.48 0.64-0.51 1.18h3.19m11.89 4.83h-2.47v-3.81c0-0.31-0.02-0.62-0.05-0.92-0.03-0.31-0.08-0.54-0.16-0.69-0.09-0.17-0.23-0.29-0.4-0.37-0.18-0.07-0.42-0.11-0.74-0.11-0.22 0-0.45 0.03-0.68 0.11-0.23 0.07-0.48 0.19-0.74 0.35v5.44h-2.47v-7.68h2.47v0.85c0.43-0.34 0.85-0.61 1.25-0.79 0.41-0.18 0.86-0.27 1.35-0.27 0.83 0 1.48 0.24 1.94 0.72 0.47 0.49 0.7 1.21 0.7 2.17v5m6.9-2.01v-1.6c-0.34 0.03-0.7 0.07-1.08 0.12-0.39 0.05-0.69 0.1-0.89 0.16-0.24 0.08-0.43 0.2-0.56 0.35-0.13 0.14-0.2 0.34-0.2 0.58 0 0.16 0.02 0.29 0.05 0.39 0.02 0.1 0.09 0.19 0.2 0.28 0.11 0.1 0.23 0.16 0.38 0.21 0.14 0.04 0.37 0.06 0.68 0.06 0.25 0 0.5-0.05 0.75-0.15s0.47-0.23 0.67-0.4m0 1.19c-0.14 0.1-0.3 0.22-0.5 0.37-0.19 0.14-0.38 0.25-0.55 0.33-0.24 0.11-0.49 0.19-0.75 0.24s-0.55 0.08-0.86 0.08c-0.73 0-1.34-0.22-1.83-0.67-0.49-0.46-0.74-1.03-0.74-1.73 0-0.56 0.13-1.02 0.38-1.38 0.25-0.35 0.61-0.63 1.07-0.84 0.45-0.2 1.02-0.35 1.69-0.44 0.68-0.08 1.37-0.15 2.1-0.19v-0.04c0-0.42-0.17-0.71-0.52-0.87-0.35-0.17-0.86-0.25-1.53-0.25-0.41 0-0.84 0.07-1.3 0.22-0.46 0.14-0.79 0.25-0.99 0.33h-0.23v-1.86c0.26-0.06 0.68-0.14 1.27-0.24 0.59-0.09 1.17-0.14 1.76-0.14 1.4 0 2.41 0.22 3.03 0.65s0.94 1.1 0.94 2.02v5.23h-2.44v-0.82m7.13 0.82h-2.46v-10.64h2.46v10.64m7.23-0.07c-0.26 0.07-0.54 0.12-0.84 0.16-0.29 0.04-0.65 0.06-1.08 0.06-0.96 0-1.67-0.2-2.14-0.58-0.47-0.39-0.7-1.05-0.7-1.99v-3.59h-1.01v-1.67h1.01v-2.19h2.46v2.19h2.3v1.67h-2.3v2.72c0 0.27 0 0.5 0.01 0.7 0 0.2 0.04 0.38 0.11 0.54 0.06 0.16 0.17 0.29 0.33 0.39 0.17 0.09 0.4 0.13 0.71 0.13 0.13 0 0.3-0.03 0.5-0.08 0.21-0.05 0.36-0.1 0.44-0.15h0.2v1.69m4.93-2.65l1.75-4.96h2.53l-4.26 10.49h-2.67l1.22-2.87-2.99-7.62h2.58l1.84 4.96m17.1 0.28c0 0.8-0.36 1.44-1.07 1.92-0.71 0.49-1.68 0.73-2.92 0.73-0.68 0-1.3-0.07-1.85-0.19-0.56-0.13-1.01-0.27-1.34-0.43v-2.02h0.22c0.12 0.09 0.27 0.18 0.43 0.29 0.16 0.1 0.39 0.21 0.69 0.33 0.25 0.1 0.54 0.19 0.86 0.27 0.33 0.07 0.67 0.11 1.04 0.11 0.49 0 0.84-0.05 1.08-0.16 0.23-0.11 0.34-0.27 0.34-0.48 0-0.18-0.06-0.32-0.2-0.4-0.14-0.09-0.4-0.17-0.78-0.25-0.18-0.04-0.43-0.08-0.74-0.13s-0.6-0.11-0.85-0.17c-0.7-0.19-1.22-0.47-1.55-0.85-0.34-0.39-0.51-0.87-0.51-1.44 0-0.74 0.35-1.36 1.05-1.84 0.7-0.5 1.65-0.74 2.87-0.74 0.57 0 1.12 0.06 1.64 0.18 0.53 0.11 0.95 0.23 1.24 0.36v1.95h-0.21c-0.36-0.25-0.78-0.46-1.25-0.61-0.47-0.16-0.94-0.24-1.42-0.24-0.39 0-0.73 0.05-1 0.16s-0.4 0.27-0.4 0.47c0 0.18 0.06 0.32 0.18 0.41 0.12 0.1 0.41 0.2 0.87 0.29 0.25 0.05 0.52 0.1 0.8 0.15 0.3 0.05 0.59 0.11 0.88 0.18 0.65 0.17 1.13 0.44 1.44 0.8s0.46 0.81 0.46 1.35m9.65-1.51c0 0.64-0.1 1.21-0.29 1.73s-0.45 0.95-0.76 1.29c-0.33 0.35-0.7 0.62-1.11 0.8-0.42 0.19-0.86 0.28-1.34 0.28-0.44 0-0.81-0.05-1.11-0.15-0.31-0.09-0.62-0.22-0.94-0.39v3.2h-2.46v-10.49h2.46v0.8c0.38-0.3 0.77-0.54 1.16-0.73s0.85-0.28 1.36-0.28c0.96 0 1.7 0.35 2.23 1.05 0.54 0.7 0.8 1.67 0.8 2.89m-2.53 0.05c0-0.75-0.13-1.29-0.39-1.63-0.25-0.33-0.65-0.5-1.21-0.5-0.23 0-0.47 0.03-0.71 0.11-0.25 0.07-0.48 0.17-0.71 0.3v3.86c0.17 0.06 0.34 0.1 0.53 0.12 0.18 0.02 0.37 0.03 0.55 0.03 0.65 0 1.14-0.19 1.46-0.57s0.48-0.95 0.48-1.72m12.16 0.06c0 1.26-0.37 2.26-1.11 2.99-0.73 0.72-1.77 1.09-3.1 1.09s-2.36-0.37-3.1-1.09c-0.73-0.73-1.1-1.73-1.1-2.99 0-1.27 0.37-2.27 1.11-2.99 0.74-0.73 1.77-1.09 3.09-1.09 1.34 0 2.38 0.37 3.11 1.09 0.73 0.73 1.1 1.73 1.1 2.99m-3.03 1.87c0.16-0.2 0.28-0.43 0.35-0.71 0.09-0.27 0.13-0.66 0.13-1.14 0-0.46-0.04-0.83-0.13-1.14-0.08-0.3-0.19-0.55-0.34-0.73-0.14-0.19-0.32-0.32-0.52-0.4-0.21-0.07-0.43-0.11-0.67-0.11-0.23 0-0.45 0.03-0.63 0.09-0.18 0.07-0.36 0.19-0.53 0.39-0.15 0.17-0.27 0.42-0.36 0.73s-0.13 0.7-0.13 1.17c0 0.41 0.04 0.78 0.12 1.09 0.07 0.3 0.19 0.55 0.34 0.74 0.14 0.18 0.32 0.31 0.52 0.39s0.43 0.12 0.69 0.12c0.23 0 0.44-0.04 0.64-0.11 0.2-0.08 0.38-0.2 0.52-0.38m9.69 1.9c-0.27 0.07-0.55 0.12-0.85 0.16-0.29 0.04-0.65 0.06-1.08 0.06-0.96 0-1.67-0.2-2.14-0.58-0.47-0.39-0.7-1.05-0.7-1.99v-3.59h-1.01v-1.67h1.01v-2.19h2.46v2.19h2.31v1.67h-2.31v2.72c0 0.27 0 0.5 0.01 0.7 0 0.2 0.04 0.38 0.11 0.54 0.06 0.16 0.17 0.29 0.33 0.39 0.17 0.09 0.4 0.13 0.71 0.13 0.13 0 0.3-0.03 0.5-0.08 0.21-0.05 0.36-0.1 0.44-0.15h0.21v1.69"/>
    <path id="path8058" marker-end="url(#Arrow2Mend)" d="m238.45 524v-293" marker-start="url(#Arrow2Mstart)" stroke="#000" stroke-width="1px" fill="none"/>
    <path id="path8935" marker-end="url(#Arrow2Mend)" d="m69.301 37.586h864.39" marker-start="url(#Arrow2Mstart)" stroke="#000" fill="none"/>
    <path id="path11558" marker-end="url(#Arrow2Mend)" d="m498.71 372.71l-44.56-31.13" marker-start="url(#Arrow2Mstart)" stroke="#000" fill="none"/>
    <path id="path12433" marker-end="url(#Arrow2Mend)" d="m197.11 410.53l-44.56-31.14" marker-start="url(#Arrow2Mstart)" stroke="#000" fill="none"/>
    <path id="path16804" marker-end="url(#Arrow2Mend)" d="m57.476 51.853v647.75" marker-start="url(#Arrow2Mstart)" stroke="#000" fill="none"/>
    <path id="path17681" marker-end="url(#Arrow2Mend)" d="m78.345 693.96v3.74" marker-start="url(#Arrow2Mstart)" stroke="#000" stroke-width=".68398px" fill="none"/>
    <path id="path22056" marker-end="url(#Arrow2Mend)" d="m73.369 302.42h29.411" marker-start="url(#Arrow2Mstart)" stroke="#000" stroke-width="1.0659" fill="none"/>
    <path id="path23022" marker-end="url(#Arrow2Mend)" d="m72 220.54h111.58" marker-start="url(#Arrow2Mstart)" stroke="#000" stroke-width="1px" fill="none"/>
    <path id="text24770" d="m107.5 213.43h-6.79v-1.78h2.15v-5.38h-2.15v-1.66c0.33 0 0.64-0.02 0.94-0.06s0.55-0.11 0.75-0.2c0.24-0.12 0.42-0.26 0.54-0.45 0.12-0.18 0.18-0.41 0.2-0.68h2.27v8.43h2.09v1.78m10.59-3.47c0 0.53-0.1 1.02-0.29 1.48s-0.46 0.85-0.81 1.16c-0.37 0.34-0.8 0.59-1.28 0.77-0.49 0.18-1.05 0.27-1.71 0.27-0.61 0-1.16-0.08-1.67-0.25-0.5-0.17-0.93-0.42-1.29-0.76-0.42-0.39-0.73-0.9-0.95-1.52s-0.33-1.36-0.33-2.22c0-0.9 0.1-1.69 0.31-2.38 0.2-0.69 0.54-1.31 1-1.84 0.45-0.51 1.03-0.91 1.74-1.19s1.56-0.42 2.55-0.42c0.33 0 0.7 0.02 1.09 0.06 0.4 0.05 0.66 0.08 0.77 0.11v2h-0.26c-0.12-0.06-0.33-0.12-0.62-0.2-0.3-0.08-0.63-0.11-1-0.11-0.88 0-1.56 0.21-2.05 0.64-0.48 0.43-0.78 1.02-0.88 1.79 0.35-0.21 0.72-0.38 1.11-0.51s0.81-0.19 1.26-0.19c0.4 0 0.77 0.04 1.1 0.13 0.35 0.09 0.66 0.24 0.95 0.44 0.38 0.26 0.69 0.62 0.91 1.07 0.23 0.44 0.35 1 0.35 1.67m-3.11 1.54c0.14-0.16 0.25-0.34 0.33-0.55 0.09-0.21 0.13-0.5 0.13-0.87 0-0.33-0.05-0.6-0.14-0.81-0.1-0.21-0.23-0.38-0.4-0.51-0.16-0.13-0.36-0.22-0.58-0.26-0.22-0.05-0.45-0.08-0.69-0.08-0.2 0-0.41 0.03-0.63 0.07-0.22 0.05-0.42 0.1-0.6 0.17 0 0.05 0 0.12-0.01 0.23 0 0.1-0.01 0.23-0.01 0.39 0 0.56 0.06 1.03 0.17 1.39s0.26 0.64 0.45 0.83c0.13 0.14 0.28 0.25 0.45 0.31 0.17 0.07 0.36 0.1 0.56 0.1 0.15 0 0.32-0.04 0.5-0.1 0.18-0.07 0.34-0.17 0.47-0.31m7.62 1.93h-2.55v-2.69h2.55v2.69m10.29-3.45c0 0.53-0.1 1.02-0.3 1.48-0.19 0.45-0.48 0.84-0.86 1.16-0.42 0.35-0.9 0.6-1.45 0.77-0.54 0.17-1.16 0.25-1.86 0.25-0.81-0.01-1.5-0.07-2.07-0.2-0.56-0.12-1.02-0.26-1.37-0.42v-2.25h0.28c0.42 0.25 0.86 0.46 1.34 0.62s0.96 0.25 1.43 0.25c0.29 0 0.6-0.04 0.93-0.1 0.34-0.07 0.61-0.19 0.8-0.36 0.16-0.14 0.27-0.29 0.35-0.43 0.08-0.15 0.12-0.37 0.12-0.68 0-0.24-0.05-0.44-0.16-0.61s-0.24-0.31-0.41-0.42c-0.25-0.15-0.54-0.24-0.89-0.29s-0.66-0.07-0.94-0.07c-0.41 0-0.81 0.03-1.19 0.11-0.37 0.06-0.7 0.13-0.98 0.2h-0.3v-5.74h7.24v1.95h-4.77v1.66c0.14-0.01 0.32-0.02 0.53-0.02 0.22-0.01 0.41-0.02 0.57-0.02 0.57 0 1.06 0.06 1.5 0.17 0.44 0.1 0.82 0.25 1.14 0.44 0.42 0.25 0.74 0.58 0.97 1 0.24 0.41 0.35 0.93 0.35 1.55m9.59-1.99v5.44h-2.48v-3.84c0-0.37-0.01-0.69-0.03-0.95-0.01-0.26-0.06-0.48-0.15-0.64-0.08-0.17-0.2-0.28-0.37-0.36-0.17-0.07-0.4-0.11-0.7-0.11-0.24 0-0.48 0.05-0.7 0.15-0.23 0.09-0.44 0.2-0.62 0.31v5.44h-2.46v-7.68h2.46v0.85c0.43-0.34 0.83-0.59 1.22-0.78s0.81-0.28 1.28-0.28c0.51 0 0.96 0.11 1.34 0.34 0.39 0.22 0.69 0.55 0.91 0.99 0.49-0.41 0.97-0.74 1.44-0.98 0.46-0.23 0.92-0.35 1.37-0.35 0.82 0 1.45 0.25 1.88 0.74 0.43 0.5 0.65 1.22 0.65 2.15v5h-2.47v-3.84c0-0.38-0.01-0.7-0.03-0.96-0.01-0.26-0.06-0.47-0.14-0.63-0.08-0.17-0.2-0.28-0.37-0.36-0.17-0.07-0.41-0.11-0.71-0.11-0.21 0-0.41 0.03-0.61 0.11-0.19 0.07-0.43 0.18-0.71 0.35"/>
    <path id="path25666" marker-end="url(#Arrow2Mend)" d="m72.324 374.58h66.996" marker-start="url(#Arrow2Mstart)" stroke="#000" stroke-width="1px" fill="none"/>
    <path id="path26541" marker-end="url(#Arrow2Mend)" d="m70.328 408.16v28.16" marker-start="url(#Arrow2Mstart)" stroke="#000" stroke-width=".96206px" fill="none"/>
    <path id="path27416" marker-end="url(#Arrow2Mend)" d="m70.563 447.35v69.56" marker-start="url(#Arrow2Mstart)" stroke="#000" stroke-width="1.0071px" fill="none"/>
  </g>
  <metadata>
    <rdf:RDF>
      <cc:Work>
        <dc:format>image/svg+xml</dc:format>
        <dc:type rdf:resource="http://purl.org/dc/dcmitype/StillImage"/>
        <cc:license rdf:resource="http://creativecommons.org/licenses/publicdomain/"/>
        <dc:publisher>
          <cc:Agent rdf:about="http://openclipart.org/">
            <dc:title>Openclipart</dc:title>
          </cc:Agent>
        </dc:publisher>
        <dc:title>Football Pitch Measurements</dc:title>
        <dc:date>2008-01-30T04:04:32</dc:date>
        <dc:description>clip art, clipart, football pitch metric soc, football pitch metric soc, image, media, public domain, svg, </dc:description>
        <dc:source>http://openclipart.org/detail/12161/football-pitch-measurements-by-focadima</dc:source>
        <dc:creator>
          <cc:Agent>
            <dc:title>focadima</dc:title>
          </cc:Agent>
        </dc:creator>
        <dc:subject>
          <rdf:Bag>
            <rdf:li>clip art</rdf:li>
            <rdf:li>clipart</rdf:li>
            <rdf:li>football pitch metric soc</rdf:li>
            <rdf:li>image</rdf:li>
            <rdf:li>media</rdf:li>
            <rdf:li>public domain</rdf:li>
            <rdf:li>svg</rdf:li>
          </rdf:Bag>
        </dc:subject>
      </cc:Work>
      <cc:License rdf:about="http://creativecommons.org/licenses/publicdomain/">
        <cc:permits rdf:resource="http://creativecommons.org/ns#Reproduction"/>
        <cc:permits rdf:resource="http://creativecommons.org/ns#Distribution"/>
        <cc:permits rdf:resource="http://creativecommons.org/ns#DerivativeWorks"/>
      </cc:License>
    </rdf:RDF>
  </metadata>
</svg>
