<svg xmlns="http://www.w3.org/2000/svg" xmlns:xlink="http://www.w3.org/1999/xlink" width="377" height="876" viewBox="0 0 377 876">
  <defs>
    <clipPath id="clip-path">
      <rect id="Rectangle_7946" data-name="Rectangle 7946" width="377" height="876" fill="#8ac3e2"/>
    </clipPath>
  </defs>
  <g id="Mask_Group_1" data-name="Mask Group 1" clip-path="url(#clip-path)">
    <g id="Group_115" data-name="Group 115" transform="matrix(1, 0.017, -0.017, 1, -155.324, 160.982)">
      <path id="Path_1025" data-name="Path 1025" d="M230.312,91.525C291.945,50.37,350.819,47.2,407.85,44.039S525.6,60.658,569.749,82.026s77.577,53.818,103.947,90.228c28.268,39.021,38.21,67.126,41.583,79.995A145.362,145.362,0,0,1,745,231.007c-2.216-5.357-5.809-13.4-11.506-24.722-11.962-23.743-52.437-80.729-69.914-94.973s-48.755-41.948-101.187-64.9S462.125,17.921,415.208,14.753,321.38,21.877,284.587,32.165,194.994,75.172,169.6,93.9c-38.632,28.493-53.736,54.358-68.071,74.4C84.139,192.61,71.319,226.24,66.662,239.43c11.364,7.765,22.125,16.552,32.871,25.329a286.079,286.079,0,0,1,24.993-70.344C145.435,153.53,168.682,132.68,230.312,91.525Z" transform="translate(-48.16 286.886)" fill="gold" stroke="#2364bf" stroke-width="1"/>
      <path id="Path_1026" data-name="Path 1026" d="M194.279,115.42c25.395-18.728,78.195-51.443,114.988-61.735s83.71-20.575,130.622-17.412,94.75,8.706,147.182,31.66,83.71,50.654,101.187,64.9,57.952,71.23,69.914,94.973c5.7,11.317,9.29,19.365,11.506,24.722,1.922-1.046,3.868-2.067,5.854-3.045a163.136,163.136,0,0,1,26.145-10.035c-7.51-15.856-26.517-53.948-47.186-79.7-20.6-25.667-34.954-41.155-57.03-59.36s-51.515-34.824-94.75-56.192c-37.626-18.6-88.308-30.074-134.3-34.824S364.458,8.574,312.026,24.4s-75.351,28.974-115.9,54.611c-45.078,28.493-72.454,59.6-94.75,87.849a250.162,250.162,0,0,0-41.034,77.029,166.674,166.674,0,0,1,31,17.058c4.657-13.19,17.477-46.82,34.866-71.133C140.542,169.778,155.647,143.913,194.279,115.42Z" transform="translate(-72.84 265.366)" fill="#ff6a00" stroke="#2364bf" stroke-width="1"/>
      <path id="Path_1027" data-name="Path 1027" d="M220.459,97.8c40.553-25.637,63.472-38.78,115.9-54.611S446.748,23.4,492.743,28.151s96.677,16.227,134.3,34.824c43.235,21.368,72.669,37.987,94.75,56.192s36.435,33.694,57.031,59.36c20.669,25.755,39.676,63.848,47.186,79.7a282.171,282.171,0,0,1,32.18-7.242c-6.775-12.3-12.869-23.878-19.492-35.229-12.595-21.6-27.415-42.7-42.858-62.882-17.2-22.474-32.121-35.119-52.285-49.865-14.761-10.794-29.6-21.592-45.794-30.783-31.15-17.678-58.707-34.537-94.333-45.192-11.472-3.429-25.728-8.225-37.465-11.553-11.854-3.366-26.625-5.99-38.881-7.909-38.877-6.082-60.453-6.057-91.7-5.88-12.952.072-25.856,1.236-38.71,2.535-11.8,1.194-23.757,2.134-35.2,5.019A531.589,531.589,0,0,0,302.3,27.645c-34.773,13.236-60.948,26.017-97.123,50.6-9.834,6.681-19.963,13.059-29.194,20.348-8.319,6.563-41.343,34.765-48.657,42.682-8.07,8.74-16.149,17.471-23.674,26.569A293.6,293.6,0,0,0,83.548,194.8c-6.192,9.55-11.266,19.643-16.708,29.547-3.883,7.065-12.884,30.079-12.737,30.2a119.708,119.708,0,0,1,30.572,8.124,250.163,250.163,0,0,1,41.034-77.029C148.005,157.4,175.381,126.292,220.459,97.8Z" transform="translate(-97.177 246.581)" fill="#cb0f22" stroke="#2364bf" stroke-width="1"/>
      <path id="Path_1028" data-name="Path 1028" d="M285.1,62.663c39.558-9.5,97.51-15.83,137.985-11.081,32.724,3.838,64.389,13.455,100.265,32.449s63.472,48.279,82.793,72.023c15.129,18.6,26.292,40.071,33.964,54.227.775.371,1.564.73,2.28,1.13,11.457,6.4,22.777,13.038,31.484,22.36,1.682,1.8,3.525,3.484,5.736,5.656q4.552-5.119,9.511-9.71c-3.373-12.869-13.315-40.974-41.583-79.995C621.16,113.313,587.74,80.868,543.583,59.5S438.719,18.34,381.684,21.508s-115.9,6.331-177.538,47.486S119.269,131,98.36,171.884a286.075,286.075,0,0,0-24.993,70.344q3.456,2.822,6.917,5.635c1.574-1.839,3.069-4.167,5.187-5.947q6.81-5.732,14.148-10.992a99.748,99.748,0,0,1,20.821-11.068c3.706-16.539,14.016-50.873,39.553-78.046C193.939,105.683,245.542,72.162,285.1,62.663Z" transform="translate(-21.994 309.417)" fill="#00a12f" stroke="#2364bf" stroke-width="1"/>
      <path id="Path_1029" data-name="Path 1029" d="M334.093,54.939c50.594-2.371,81.362,1.624,142.584,36.41,42.205,23.979,74.052,76.4,81.847,90.055,15.664-.531,32.945,1.616,44.107,6.909-7.672-14.156-18.835-35.63-33.964-54.227-19.321-23.743-46.917-53.029-82.793-72.023S418.333,33.453,385.609,29.614C345.134,24.865,287.182,31.2,247.624,40.7s-91.157,43.02-125.1,79.147c-25.537,27.172-35.847,61.507-39.553,78.046,8.741-3.543,17.914-6.348,27.013-9.259a137.427,137.427,0,0,1,13.952-4.176c7.167-18.893,10.261-36.1,43.661-66.986C223.479,65.775,283.5,57.314,334.093,54.939Z" transform="translate(15.477 331.385)" fill="#0064bf" stroke="#2364bf" stroke-width="1"/>
      <path id="Path_1030" data-name="Path 1030" d="M502.113,164.712c6.388-1.97,14.825-3.134,23.8-3.438-7.8-13.654-39.642-66.075-81.847-90.055-61.222-34.786-91.99-38.78-142.584-36.41S190.87,45.646,134.986,97.338c-33.4,30.889-36.494,48.094-43.661,66.986.5-.1.99-.236,1.49-.321a141.829,141.829,0,0,1,23.449-2.362c7.751.013,10.374-3.619,12.589-8.955,8.364-20.1,22.218-36.984,41.946-49.95,11.805-7.757,23.826-15.484,36.7-21.769,17.262-8.415,38.337-13.46,57.545-17.471,18.781-3.927,36.234-4.311,55.334-3.931,21.855.439,38.8,2.851,54.344,8.111,15.35,5.2,22.679,8.984,36.95,15.9,21,10.17,38.641,26.4,52.667,42.986,10.481,12.393,19.532,25.675,29.606,39.076C496.2,165.4,499.363,165.56,502.113,164.712Z" transform="translate(48.086 351.515)" fill="#960a9d" stroke="#2364bf" stroke-width="1"/>
    </g>
  </g>
</svg>
