<?xml version="1.0" encoding="UTF-8"?>
<svg xmlns="http://www.w3.org/2000/svg" xmlns:xlink="http://www.w3.org/1999/xlink" width="707px" height="500px" viewBox="0 0 706 500" version="1.1">
<defs>
<filter id="alpha" filterUnits="objectBoundingBox" x="0%" y="0%" width="100%" height="100%">
  <feColorMatrix type="matrix" in="SourceGraphic" values="0 0 0 0 1 0 0 0 0 1 0 0 0 0 1 0 0 0 1 0"/>
</filter>
<mask id="mask0">
  <g filter="url(#alpha)">
<rect x="0" y="0" width="706" height="500" style="fill:rgb(0%,0%,0%);fill-opacity:0.396078;stroke:none;"/>
  </g>
</mask>
<clipPath id="clip1">
  <rect x="0" y="0" width="706" height="500"/>
</clipPath>
<g id="surface5" clip-path="url(#clip1)">
<path style=" stroke:none;fill-rule:nonzero;fill:rgb(90.196078%,90.196078%,90.196078%);fill-opacity:1;" d="M 18.183594 68.039062 C 18.183594 69.710938 16.101562 71.066406 13.535156 71.066406 C 10.964844 71.066406 8.886719 69.710938 8.886719 68.039062 C 8.886719 66.371094 10.964844 65.015625 13.535156 65.015625 C 16.101562 65.015625 18.183594 66.371094 18.183594 68.039062 Z M 18.183594 68.039062 "/>
</g>
<mask id="mask1">
  <g filter="url(#alpha)">
<rect x="0" y="0" width="706" height="500" style="fill:rgb(0%,0%,0%);fill-opacity:0.439216;stroke:none;"/>
  </g>
</mask>
<clipPath id="clip2">
  <rect x="0" y="0" width="706" height="500"/>
</clipPath>
<g id="surface8" clip-path="url(#clip2)">
<path style=" stroke:none;fill-rule:nonzero;fill:rgb(100%,100%,100%);fill-opacity:1;" d="M 224.617188 311.980469 C 221.316406 311.980469 221.367188 313.140625 221.367188 316.101562 C 221.367188 316.730469 218.757812 318.5625 218.976562 319.121094 C 216.085938 319.945312 213.984375 322.382812 213.984375 325.253906 C 213.984375 325.511719 214.015625 325.757812 214.050781 326.007812 C 213.683594 326.8125 213.460938 327.761719 213.460938 328.800781 C 213.460938 331.597656 214.988281 333.863281 216.878906 333.863281 C 218.09375 333.863281 219.164062 332.9375 219.773438 331.53125 C 220.222656 331.609375 221.191406 330.359375 221.664062 330.359375 C 222.542969 330.359375 224.792969 328.457031 223.632812 331.28125 C 223.367188 331.953125 223.214844 332.667969 223.214844 333.421875 C 223.214844 336.972656 227.90625 336.761719 230.386719 339.847656 C 233.992188 344.339844 235.816406 339.347656 235.816406 335.800781 C 235.816406 332.25 231.441406 329.371094 227.484375 329.371094 C 226.609375 329.371094 230.710938 327.289062 229.933594 327.546875 C 230.203125 326.871094 228.308594 326.011719 228.308594 325.253906 C 228.308594 324.101562 227.980469 323.015625 227.386719 322.082031 C 229.296875 321.1875 227.609375 318.695312 227.609375 316.632812 C 227.609375 313.671875 227.921875 311.980469 224.621094 311.980469 Z M 224.617188 311.980469 "/>
</g>
<mask id="mask2">
  <g filter="url(#alpha)">
<rect x="0" y="0" width="706" height="500" style="fill:rgb(0%,0%,0%);fill-opacity:0.439216;stroke:none;"/>
  </g>
</mask>
<clipPath id="clip3">
  <rect x="0" y="0" width="706" height="500"/>
</clipPath>
<g id="surface11" clip-path="url(#clip3)">
<path style=" stroke:none;fill-rule:nonzero;fill:rgb(60%,60%,60%);fill-opacity:1;" d="M 196.800781 341.792969 C 196.941406 343.089844 196.625 344.167969 196.085938 344.207031 C 195.550781 344.242188 195.003906 343.21875 194.863281 341.925781 C 194.71875 340.628906 195.039062 339.546875 195.578125 339.511719 C 196.113281 339.476562 196.660156 340.496094 196.800781 341.792969 Z M 196.800781 341.792969 "/>
</g>
<mask id="mask3">
  <g filter="url(#alpha)">
<rect x="0" y="0" width="706" height="500" style="fill:rgb(0%,0%,0%);fill-opacity:0.439216;stroke:none;"/>
  </g>
</mask>
<clipPath id="clip4">
  <rect x="0" y="0" width="706" height="500"/>
</clipPath>
<g id="surface14" clip-path="url(#clip4)">
<path style=" stroke:none;fill-rule:nonzero;fill:rgb(0%,0%,0%);fill-opacity:0.988235;" d="M 183.824219 326.304688 C 183.039062 327.585938 181.363281 327.589844 180.082031 326.3125 C 178.800781 325.039062 178.398438 322.964844 179.183594 321.6875 C 179.972656 320.40625 181.648438 320.402344 182.929688 321.675781 C 184.210938 322.953125 184.613281 325.023438 183.824219 326.304688 Z M 183.824219 326.304688 "/>
</g>
</defs>
<g id="surface1">
<path style=" stroke:none;fill-rule:nonzero;fill:rgb(0%,0%,0%);fill-opacity:1;" d="M -67.117188 26.265625 L 778.167969 32.339844 L 779.148438 495.65625 L -64.113281 495.65625 Z M -67.117188 26.265625 "/>
<path style="fill-rule:nonzero;fill:rgb(83.137255%,0%,0%);fill-opacity:1;stroke-width:9;stroke-linecap:butt;stroke-linejoin:miter;stroke:rgb(97.647059%,97.647059%,97.647059%);stroke-opacity:1;stroke-miterlimit:4;" d="M -577.238736 108.49198 C -897.542981 108.49198 -1195.589082 151.975293 -1453.723023 222.376293 L -1453.723023 694.310605 L -195.899214 691.148605 L -195.899214 128.02198 C -318.650785 115.23448 -446.256774 108.49198 -577.238736 108.49198 Z M -577.238736 108.49198 " transform="matrix(0.671103,0,0,0.672043,907.81614,29.748879)"/>
<path style=" stroke:none;fill-rule:nonzero;fill:rgb(57.647059%,92.941176%,31.764706%);fill-opacity:1;" d="M 144.675781 162.34375 L -64.089844 210.679688 L -62.671875 496.722656 L 773.515625 492.113281 L 776.90625 195.691406 Z M 144.675781 162.34375 "/>
<use xlink:href="#surface5" mask="url(#mask0)"/>
<path style=" stroke:none;fill-rule:nonzero;fill:rgb(100%,100%,100%);fill-opacity:1;" d="M 296.054688 429.34375 C 315.960938 426.816406 295.046875 449.0625 294.558594 450.746094 C 293.898438 453.035156 294.167969 438.839844 292.503906 440.730469 C 290.027344 443.539062 288.535156 445.566406 287.160156 445.523438 C 276.550781 445.179688 290.0625 436.992188 290.0625 428.546875 C 290.0625 424.253906 282.085938 421.617188 284.5625 418.929688 C 286.953125 416.332031 292.652344 414.144531 294.683594 414.144531 C 296.144531 414.144531 309.058594 419.523438 308.238281 422.109375 C 306.742188 426.832031 290.652344 430.03125 296.054688 429.34375 Z M 296.054688 429.34375 "/>
<path style=" stroke:none;fill-rule:nonzero;fill:rgb(20%,20%,20%);fill-opacity:1;" d="M 296.089844 407.136719 C 294.746094 407.136719 293.617188 407.359375 293.617188 408.816406 C 293.617188 410.277344 294.957031 414.234375 296.300781 414.234375 C 297.644531 414.234375 299.675781 410.714844 299.675781 409.257812 C 299.675781 407.800781 297.4375 407.136719 296.089844 407.136719 Z M 291.015625 414.78125 C 290.824219 414.796875 290.589844 414.914062 290.324219 415.074219 C 289.78125 415.175781 289.386719 415.417969 289.253906 415.8125 C 289.238281 415.859375 289.222656 415.90625 289.210938 415.957031 C 288.511719 416.648438 287.746094 417.59375 287.011719 418.707031 C 286.671875 419.222656 286.394531 419.730469 286.128906 420.222656 C 285.964844 420.027344 285.78125 419.851562 285.585938 419.695312 C 284.628906 418.941406 283.710938 419.039062 283.550781 419.90625 C 283.390625 420.773438 284.042969 422.070312 284.996094 422.824219 C 285.011719 422.835938 285.023438 422.855469 285.039062 422.867188 C 284.886719 423.542969 284.917969 424.035156 285.1875 424.210938 C 285.871094 424.667969 287.785156 422.953125 289.484375 420.367188 C 289.976562 419.621094 290.394531 418.886719 290.722656 418.203125 C 291.152344 418.515625 291.636719 418.828125 292.191406 419.066406 C 292.355469 419.136719 292.511719 419.175781 292.671875 419.234375 C 292.015625 421.210938 291.625 423.703125 291.625 426.417969 C 291.625 430.058594 292.328125 433.300781 293.429688 435.425781 C 291.65625 438.523438 290.800781 441.296875 291.519531 441.726562 C 292.175781 442.117188 293.917969 440.421875 295.652344 437.820312 C 295.8125 437.886719 295.984375 437.933594 296.15625 437.96875 C 295.503906 439 294.816406 440.359375 294.203125 441.914062 C 292.800781 445.480469 292.335938 448.628906 293.15625 448.949219 C 293.972656 449.273438 295.777344 446.65625 297.183594 443.089844 C 298.21875 440.457031 298.730469 438.042969 298.609375 436.832031 C 300.230469 434.953125 301.355469 431.003906 301.355469 426.417969 C 301.355469 423.796875 300.984375 421.386719 300.371094 419.445312 C 300.660156 419.605469 300.972656 419.753906 301.3125 419.886719 C 301.792969 420.066406 302.261719 420.191406 302.699219 420.261719 C 302.625 420.433594 302.550781 420.605469 302.488281 420.789062 C 302.214844 421.585938 302.109375 422.34375 302.132812 422.972656 C 301.996094 422.960938 301.875 422.992188 301.796875 423.054688 C 301.210938 423.503906 302.339844 425.808594 304.292969 428.222656 C 304.953125 429.039062 305.597656 429.761719 306.222656 430.34375 C 306.160156 430.714844 306.136719 431.117188 306.136719 431.539062 C 306.136719 433.390625 306.796875 434.902344 307.605469 434.902344 C 308.410156 434.902344 309.050781 433.390625 309.050781 431.539062 C 309.050781 429.691406 308.410156 428.203125 307.605469 428.203125 C 307.59375 428.203125 307.574219 428.199219 307.5625 428.203125 C 307.21875 427.6875 306.828125 427.148438 306.390625 426.605469 C 305.53125 425.542969 304.65625 424.660156 303.894531 424.023438 C 304.40625 423.550781 304.914062 422.730469 305.257812 421.734375 C 305.855469 419.984375 305.726562 418.363281 304.960938 418.101562 C 304.742188 418.023438 304.484375 418.078125 304.230469 418.226562 C 303.761719 417.824219 303.121094 417.445312 302.363281 417.15625 C 301.117188 416.679688 299.9375 416.589844 299.257812 416.859375 C 298.472656 415.574219 297.515625 414.824219 296.488281 414.824219 C 295.699219 414.824219 294.949219 415.285156 294.289062 416.082031 C 293.996094 415.910156 293.675781 415.722656 293.34375 415.578125 C 292.695312 415.300781 292.070312 415.148438 291.5 415.074219 C 291.460938 414.980469 291.40625 414.914062 291.332031 414.867188 C 291.246094 414.808594 291.136719 414.773438 291.015625 414.78125 Z M 296.53125 414.90625 C 297.339844 414.90625 298 417.738281 298 421.230469 C 298 424.71875 297.339844 427.550781 296.53125 427.550781 C 295.726562 427.550781 295.0625 424.71875 295.0625 421.230469 C 295.0625 420.652344 295.09375 420.101562 295.125 419.570312 C 295.71875 419.484375 294.777344 418.535156 294.917969 418.121094 C 295.097656 417.585938 296.125 417.617188 295.460938 416.964844 C 295.730469 415.707031 296.105469 414.90625 296.53125 414.90625 Z M 296.53125 414.90625 "/>
<path style=" stroke:none;fill-rule:nonzero;fill:rgb(100%,100%,100%);fill-opacity:1;" d="M 498.226562 371.953125 C 501.855469 378.804688 489.742188 388.132812 489.328125 388.132812 C 485.199219 388.132812 483.441406 379.511719 483.441406 371.066406 C 483.441406 366.773438 484.257812 364.226562 486.730469 361.539062 C 489.121094 358.941406 494.824219 356.75 496.851562 356.75 C 500.984375 356.75 494.273438 364.496094 498.226562 371.953125 Z M 498.226562 371.953125 "/>
<path style=" stroke:none;fill-rule:nonzero;fill:rgb(20%,20%,20%);fill-opacity:1;" d="M 493.039062 354.445312 C 491.109375 354.445312 489.558594 356.105469 489.558594 358.160156 C 489.558594 360.21875 491.109375 361.898438 493.039062 361.898438 C 494.96875 361.898438 496.542969 360.21875 496.542969 358.160156 C 496.542969 356.105469 494.96875 354.445312 493.039062 354.445312 Z M 490.648438 361.730469 C 489.519531 361.757812 488.488281 362.382812 487.941406 363.347656 C 486.800781 363.921875 486.035156 364.984375 486.035156 365.804688 C 486.035156 366.398438 484.890625 368.542969 486.265625 369.273438 L 485.488281 375.949219 C 485.175781 377.691406 487.003906 379.980469 488.738281 380.296875 L 491.613281 380.589844 C 488.746094 391.496094 495.90625 379.890625 496.121094 378.132812 L 497.339844 368.199219 C 498.03125 368.003906 501.109375 369.703125 501.617188 369.417969 C 502.585938 368.875 501.34375 365.675781 501.34375 364.925781 C 501.34375 363.765625 499.96875 362.265625 497.714844 361.859375 C 496.621094 361.660156 495.105469 362.292969 493.855469 362.257812 L 491.277344 361.796875 C 491.058594 361.753906 490.859375 361.726562 490.648438 361.730469 Z M 493.792969 362.699219 C 494.675781 362.699219 496.628906 364.433594 496.628906 367.128906 C 496.628906 369.820312 494.675781 372.441406 493.792969 372.441406 C 492.914062 372.441406 496.625 370.433594 493.261719 368.007812 C 491.078125 366.433594 492.914062 362.699219 493.792969 362.699219 Z M 488.804688 384.140625 C 488.046875 384.140625 487.417969 385.695312 487.417969 387.605469 C 487.417969 389.515625 488.046875 391.050781 488.804688 391.050781 C 489.5625 391.050781 490.164062 389.515625 490.164062 387.605469 C 490.164062 385.695312 489.5625 384.140625 488.804688 384.140625 Z M 488.804688 384.140625 "/>
<use xlink:href="#surface8" mask="url(#mask1)"/>
<path style=" stroke:none;fill-rule:nonzero;fill:rgb(30.196078%,30.196078%,30.196078%);fill-opacity:1;" d="M 227.890625 311.371094 C 226.695312 311.328125 225.382812 312.324219 224.785156 313.808594 C 224.351562 314.886719 224.398438 315.960938 224.828125 316.707031 C 223.308594 316.902344 223.003906 316.070312 221.152344 317.589844 C 218.355469 319.882812 214.371094 323.980469 214.976562 325.503906 C 214.503906 326.5625 214.851562 328.445312 214.574219 330.019531 C 214.21875 332.023438 214.183594 333.824219 214.40625 335.058594 C 213.304688 334.851562 213.511719 333.742188 212.246094 334.539062 C 209.636719 336.179688 204.441406 336.414062 204.589844 337.582031 C 204.742188 338.746094 210.101562 339.835938 213.257812 338.574219 C 216.269531 337.371094 216.027344 337.5 215.875 336.332031 C 215.847656 336.109375 216.671875 336.066406 216.460938 335.878906 C 217.183594 334.855469 217.882812 332.941406 218.285156 330.671875 C 218.53125 329.285156 218.636719 327.992188 218.601562 326.910156 C 219.332031 326.765625 220.347656 327.621094 221.199219 327.179688 C 221.246094 328.0625 220.507812 329.105469 220.957031 330.175781 C 221.980469 332.625 221.679688 333.328125 225.5 332.667969 C 225.519531 332.65625 225.542969 332.65625 225.5625 332.644531 C 225.949219 333.054688 226.550781 333.460938 227.261719 333.800781 C 227.558594 333.941406 227.839844 334.066406 228.121094 334.15625 C 228.085938 334.632812 229.433594 334.925781 229.449219 335.441406 C 229.542969 338.59375 229.25 341.3125 230.492188 341.277344 C 231.734375 341.238281 232.660156 338.652344 232.566406 335.5 C 232.472656 332.347656 232.207031 329.128906 230.964844 329.167969 C 230.289062 329.1875 228.898438 330.664062 228.519531 331.867188 C 228.425781 331.816406 228.328125 331.769531 228.226562 331.722656 C 227.519531 331.382812 226.832031 331.199219 226.277344 331.152344 C 226.367188 330.160156 226.113281 328.8125 225.542969 327.414062 C 224.996094 326.082031 227.753906 323.417969 223.507812 324.371094 C 223.527344 324.355469 223.550781 324.34375 223.570312 324.328125 C 226.457031 321.960938 227.992188 319.046875 227.21875 317.566406 C 228.160156 317.265625 229.0625 316.414062 229.527344 315.257812 C 230.210938 313.5625 229.703125 311.855469 228.394531 311.453125 C 228.230469 311.40625 228.0625 311.378906 227.890625 311.371094 Z M 227.890625 311.371094 "/>
<path style=" stroke:none;fill-rule:nonzero;fill:rgb(100%,100%,100%);fill-opacity:1;" d="M 209.238281 339.945312 C 209.238281 343.492188 208.136719 346.371094 206.777344 346.371094 C 205.417969 346.371094 204.316406 343.492188 204.316406 339.945312 C 204.316406 336.394531 205.417969 333.519531 206.777344 333.519531 C 208.136719 333.519531 209.238281 336.394531 209.238281 339.945312 Z M 209.238281 339.945312 "/>
<path style=" stroke:none;fill-rule:nonzero;fill:rgb(30.196078%,30.196078%,30.196078%);fill-opacity:1;" d="M 231.863281 344.773438 C 231.863281 346.089844 229.601562 347.15625 226.8125 347.160156 C 224.023438 347.164062 221.761719 346.101562 221.761719 344.785156 C 221.761719 343.472656 224.019531 342.402344 226.808594 342.398438 C 229.597656 342.398438 231.859375 343.460938 231.863281 344.773438 Z M 231.863281 344.773438 "/>
<path style=" stroke:none;fill-rule:nonzero;fill:rgb(100%,100%,100%);fill-opacity:1;" d="M 229.980469 344.65625 C 229.980469 347.15625 228.683594 349.1875 227.082031 349.1875 C 225.480469 349.1875 224.179688 347.15625 224.179688 344.65625 C 224.179688 342.152344 225.480469 340.121094 227.082031 340.121094 C 228.683594 340.121094 229.980469 342.152344 229.980469 344.65625 Z M 229.980469 344.65625 "/>
<path style=" stroke:none;fill-rule:nonzero;fill:rgb(100%,100%,100%);fill-opacity:1;" d="M 179.003906 324.742188 L 183.882812 326.796875 C 185.507812 327.480469 185.300781 330.433594 186.261719 331.917969 L 189.730469 336.828125 L 193.179688 337.539062 C 195.347656 339.914062 197.207031 339.128906 198.503906 343.351562 L 192.941406 345.679688 L 191.601562 342.277344 L 186.074219 342.214844 C 184.308594 342.195312 184.632812 345.660156 182.886719 345.40625 L 177.761719 344.660156 C 177.234375 344.582031 176.207031 348.105469 175.5625 347.796875 C 174.703125 347.386719 164.722656 345.878906 164.199219 345.238281 C 163.804688 344.753906 173.164062 341.117188 173.269531 340.597656 L 175.878906 327.621094 C 176.183594 326.117188 177.378906 324.058594 179.003906 324.742188 Z M 179.003906 324.742188 "/>
<path style=" stroke:none;fill-rule:nonzero;fill:rgb(60%,60%,60%);fill-opacity:1;" d="M 182.457031 338.066406 C 181.957031 341.902344 181 344.9375 180.320312 344.847656 C 179.636719 344.761719 179.492188 341.578125 179.992188 337.746094 C 180.492188 333.910156 181.449219 330.875 182.132812 330.964844 C 182.8125 331.050781 182.957031 334.234375 182.457031 338.066406 Z M 182.457031 338.066406 "/>
<use xlink:href="#surface11" mask="url(#mask2)"/>
<path style=" stroke:none;fill-rule:nonzero;fill:rgb(60%,60%,60%);fill-opacity:1;" d="M 176.128906 335.59375 C 175.964844 339.457031 175.277344 342.566406 174.59375 342.539062 C 173.90625 342.507812 173.480469 339.351562 173.644531 335.488281 C 173.722656 333.558594 174.992188 330.972656 175.269531 329.71875 C 175.550781 328.460938 176.109375 326.507812 176.453125 326.523438 C 176.796875 326.535156 175.816406 330.21875 177.027344 329.789062 C 178.472656 329.28125 176.207031 333.660156 176.128906 335.59375 Z M 176.128906 335.59375 "/>
<use xlink:href="#surface14" mask="url(#mask3)"/>
<path style=" stroke:none;fill-rule:nonzero;fill:rgb(30.196078%,30.196078%,30.196078%);fill-opacity:0.988235;" d="M 360.953125 298.355469 C 360.953125 302.316406 360.382812 305.527344 359.675781 305.527344 C 358.972656 305.527344 358.402344 302.316406 358.402344 298.355469 C 358.402344 294.390625 358.972656 291.179688 359.675781 291.179688 C 360.382812 291.179688 360.953125 294.390625 360.953125 298.355469 Z M 360.953125 298.355469 "/>
<path style=" stroke:none;fill-rule:nonzero;fill:rgb(30.196078%,30.196078%,30.196078%);fill-opacity:0.988235;" d="M 348.117188 307.191406 C 347.535156 311.277344 346.359375 314.433594 345.488281 314.242188 C 344.613281 314.050781 344.378906 310.585938 344.957031 306.503906 C 345.535156 302.421875 346.714844 299.265625 347.585938 299.453125 C 348.457031 299.644531 348.695312 303.109375 348.117188 307.191406 Z M 348.117188 307.191406 "/>
<path style=" stroke:none;fill-rule:nonzero;fill:rgb(30.196078%,30.196078%,30.196078%);fill-opacity:0.988235;" d="M 355.023438 299.199219 C 355.675781 303.285156 355.375 306.714844 354.351562 306.855469 C 353.332031 306.996094 351.976562 303.796875 351.324219 299.710938 C 350.671875 295.621094 350.972656 292.195312 351.992188 292.054688 C 353.015625 291.914062 354.371094 295.113281 355.023438 299.199219 Z M 355.023438 299.199219 "/>
<path style=" stroke:none;fill-rule:nonzero;fill:rgb(100%,100%,100%);fill-opacity:0.988235;" d="M 352.535156 295.492188 L 356.183594 287.835938 C 356.941406 286.238281 359.371094 289.257812 359.371094 291.027344 L 359.371094 307.882812 C 359.371094 308.671875 362.324219 309.460938 361.789062 310.183594 C 361.117188 311.078125 356.875 311.769531 356.183594 311.074219 C 353.757812 308.636719 353.914062 304.910156 352.777344 301.832031 L 349.195312 310.984375 C 348.550781 312.632812 341.84375 321.570312 346.449219 307.53125 L 349.347656 298.683594 C 349.898438 297.003906 351.777344 297.089844 352.535156 295.492188 Z M 352.535156 295.492188 "/>
<path style=" stroke:none;fill-rule:nonzero;fill:rgb(10.196078%,10.196078%,10.196078%);fill-opacity:0.988235;" d="M 355.152344 289.421875 C 355.152344 290.878906 354.046875 292.0625 352.691406 292.0625 C 351.332031 292.0625 350.226562 290.878906 350.226562 289.421875 C 350.226562 287.960938 351.332031 286.777344 352.691406 286.777344 C 354.046875 286.777344 355.152344 287.960938 355.152344 289.421875 Z M 355.152344 289.421875 "/>
<path style=" stroke:none;fill-rule:nonzero;fill:rgb(100%,99.607843%,96.078431%);fill-opacity:1;" d="M 348.734375 314.460938 C 348.734375 315.070312 347.257812 315.5625 345.4375 315.5625 C 343.617188 315.5625 342.140625 315.070312 342.140625 314.460938 C 342.140625 313.855469 343.617188 313.363281 345.4375 313.363281 C 347.257812 313.363281 348.734375 313.855469 348.734375 314.460938 Z M 348.734375 314.460938 "/>
<path style="fill:none;stroke-width:4.061127;stroke-linecap:butt;stroke-linejoin:miter;stroke:rgb(100%,100%,100%);stroke-opacity:1;stroke-miterlimit:4;" d="M -381.74075 388.172043 C -467.636001 413.886543 -577.081579 419.379356 -688.343198 399.529668 C -773.016113 384.428793 -825.564892 364.631418 -839.074608 334.412231 " transform="matrix(0.671103,0,0,0.672043,907.81614,29.748879)"/>
<path style=" stroke:none;fill-rule:nonzero;fill:rgb(100%,100%,100%);fill-opacity:1;" d="M 479.34375 151.410156 L 479.238281 152.648438 L 476.617188 179.699219 L 401.375 175.113281 L 400.703125 175.046875 L 400.242188 175.550781 L 375.375 206.945312 L 373.570312 208.984375 L 376.277344 209.195312 L 693.8125 232.167969 L 695.261719 232.273438 L 695.261719 230.804688 L 694.988281 194.351562 L 721.414062 195.445312 L 774.367188 197.921875 L 774.367188 195.214844 L 762.285156 194.648438 L 762.285156 194.4375 L 721.707031 192.757812 L 693.6875 191.457031 L 692.261719 191.390625 L 692.261719 191.539062 L 598.289062 187.851562 L 604.707031 154.519531 L 605.023438 152.945312 L 603.40625 152.925781 L 480.582031 151.433594 Z M 481.777344 154.140625 L 601.769531 155.589844 L 595.355469 188.878906 L 595.058594 190.410156 L 596.632812 190.476562 L 692.304688 194.25 L 692.554688 229.375 L 379.191406 206.695312 L 401.816406 177.839844 L 477.707031 182.492188 L 479.050781 182.621094 L 479.175781 181.296875 Z M 144.167969 162.453125 L 143.960938 162.515625 L -62.5625 210.988281 L -61.785156 213.546875 L 144.503906 165.164062 L 277.285156 172.640625 L 150.050781 230.550781 L 145.984375 232.546875 L 150.472656 233.09375 L 762.078125 305.78125 L 762.621094 305.84375 L 763.0625 305.507812 L 774.367188 296.75 L 774.367188 293.347656 L 761.847656 303.050781 L 155.296875 230.953125 L 283.304688 172.664062 L 282.761719 170.121094 L 144.402344 162.476562 Z M 144.167969 162.453125 "/>
<path style=" stroke:none;fill-rule:nonzero;fill:rgb(100%,49.803922%,16.470588%);fill-opacity:1;" d="M 472.339844 198.136719 C 471.117188 197.660156 471.527344 199.738281 471.527344 201.707031 C 471.527344 202.589844 471.722656 203.394531 472.078125 204.015625 C 471.257812 204.199219 470.300781 204.511719 469.359375 204.960938 C 467.292969 205.953125 462.613281 207.738281 468.070312 208.75 C 468.828125 208.890625 469.460938 207.714844 471.527344 206.726562 C 472.515625 206.253906 473.273438 205.722656 473.761719 205.257812 C 473.785156 205.257812 473.804688 205.253906 473.828125 205.257812 C 474.25 205.507812 472.222656 206.351562 472.832031 206.488281 C 472.636719 207.195312 474.1875 206.632812 474.1875 207.511719 C 474.1875 208.785156 475.289062 210.683594 475.671875 211.535156 C 475.367188 211.410156 475.101562 211.34375 474.832031 211.386719 C 473.59375 211.585938 473.304688 213.613281 474.183594 215.925781 C 475.0625 218.238281 474.480469 220.03125 475.71875 219.835938 C 476.957031 219.636719 477.289062 217.257812 476.410156 214.945312 C 476.089844 214.105469 477.898438 213.605469 477.421875 212.984375 C 476.398438 205.445312 482.425781 209.996094 482.425781 207.46875 C 482.425781 206.375 479.332031 206.183594 479.039062 205.382812 C 479.167969 205.242188 479.257812 205.074219 479.265625 204.898438 C 479.3125 204.070312 477.925781 203.203125 476.160156 202.96875 C 476.148438 202.964844 474.460938 203.03125 474.449219 203.027344 C 474.546875 202.636719 475.167969 201.964844 475.167969 201.519531 C 475.167969 199.550781 475.269531 199.277344 473.457031 198.574219 Z M 472.339844 198.136719 "/>
<path style=" stroke:none;fill-rule:nonzero;fill:rgb(20%,20%,20%);fill-opacity:1;" d="M 472.359375 198.488281 C 471.511719 198.488281 470.828125 200.089844 470.828125 202.058594 C 470.828125 202.945312 470.957031 203.746094 471.1875 204.367188 C 470.652344 204.550781 470.035156 204.863281 469.425781 205.3125 C 468.085938 206.304688 467.320312 207.496094 467.703125 207.980469 C 468.089844 208.464844 469.492188 208.066406 470.828125 207.078125 C 471.46875 206.605469 471.960938 206.074219 472.277344 205.609375 C 472.292969 205.609375 472.304688 205.605469 472.320312 205.609375 C 472.59375 205.859375 472.929688 206.078125 473.324219 206.21875 C 473.199219 206.925781 473.117188 207.730469 473.117188 208.613281 C 473.117188 209.882812 473.265625 211.035156 473.515625 211.886719 C 473.316406 211.761719 473.144531 211.695312 472.96875 211.742188 C 472.167969 211.9375 471.980469 213.964844 472.550781 216.277344 C 473.121094 218.589844 474.222656 220.296875 475.023438 220.097656 C 475.824219 219.902344 474.644531 217.003906 474.078125 214.691406 C 473.867188 213.847656 474.957031 213.957031 474.648438 213.335938 C 475.40625 213.191406 476.011719 211.140625 476.011719 208.613281 C 476.011719 207.519531 477.996094 207.285156 477.808594 206.480469 C 477.890625 206.339844 475.835938 205.425781 475.84375 205.25 C 475.871094 204.421875 474.972656 203.554688 473.828125 203.320312 C 473.820312 203.316406 473.816406 203.320312 473.808594 203.320312 C 473.871094 202.925781 473.914062 202.503906 473.914062 202.058594 C 473.914062 200.089844 473.210938 198.488281 472.359375 198.488281 Z M 472.359375 198.488281 "/>
<path style=" stroke:none;fill-rule:nonzero;fill:rgb(100%,100%,100%);fill-opacity:1;" d="M 475.570312 207.753906 C 476.164062 209.667969 475.871094 211.460938 474.921875 211.757812 C 473.96875 212.050781 472.71875 210.738281 472.128906 208.820312 C 471.535156 206.90625 470.789062 204.792969 471.75 204.539062 C 478.574219 202.75 474.980469 205.839844 475.570312 207.753906 Z M 475.570312 207.753906 "/>
<path style=" stroke:none;fill-rule:nonzero;fill:rgb(90.196078%,90.196078%,90.196078%);fill-opacity:0.627451;" d="M 20.914062 62.238281 C 22.507812 63.875 20.4375 66.386719 16.296875 67.847656 C 12.152344 69.3125 7.507812 69.167969 5.917969 67.53125 C 4.324219 65.894531 6.390625 63.382812 10.535156 61.921875 C 14.675781 60.457031 19.324219 60.601562 20.914062 62.238281 Z M 20.914062 62.238281 "/>
<path style=" stroke:none;fill-rule:nonzero;fill:rgb(90.196078%,90.196078%,90.196078%);fill-opacity:0.627451;" d="M 25.019531 42.664062 C 28.597656 43.308594 30.171875 46.5 28.53125 49.785156 C 26.894531 53.074219 22.667969 55.214844 19.09375 54.566406 C 15.515625 53.917969 13.945312 50.730469 15.582031 47.441406 C 17.21875 44.15625 21.445312 42.015625 25.019531 42.664062 Z M 25.019531 42.664062 "/>
<path style=" stroke:none;fill-rule:nonzero;fill:rgb(90.196078%,90.196078%,90.196078%);fill-opacity:0.627451;" d="M 85.417969 58.46875 C 86.121094 60.835938 81.828125 63.28125 75.832031 63.921875 C 69.835938 64.566406 64.410156 63.164062 63.714844 60.796875 C 63.011719 58.425781 67.304688 55.984375 73.300781 55.34375 C 79.296875 54.699219 84.722656 56.097656 85.417969 58.46875 Z M 85.417969 58.46875 "/>
<path style=" stroke:none;fill-rule:nonzero;fill:rgb(90.196078%,90.196078%,90.196078%);fill-opacity:0.627451;" d="M 135.78125 77.203125 C 138.707031 78.019531 139.394531 80.867188 137.316406 83.554688 C 135.238281 86.246094 131.183594 87.757812 128.261719 86.9375 C 125.335938 86.117188 124.644531 83.273438 126.722656 80.582031 C 128.800781 77.894531 132.855469 76.378906 135.78125 77.203125 Z M 135.78125 77.203125 "/>
<path style=" stroke:none;fill-rule:nonzero;fill:rgb(90.196078%,90.196078%,90.196078%);fill-opacity:0.627451;" d="M 325.503906 81.738281 C 325.070312 82.890625 322.347656 83.503906 319.429688 83.105469 C 316.507812 82.703125 314.492188 81.445312 314.929688 80.292969 C 315.359375 79.136719 318.082031 78.523438 321.003906 78.925781 C 323.925781 79.324219 325.9375 80.582031 325.503906 81.738281 Z M 325.503906 81.738281 "/>
<path style=" stroke:none;fill-rule:nonzero;fill:rgb(90.196078%,90.196078%,90.196078%);fill-opacity:0.627451;" d="M 408.785156 102.125 C 407.996094 102.789062 405.992188 102.734375 404.316406 102.003906 C 402.644531 101.273438 401.929688 100.148438 402.722656 99.484375 C 403.515625 98.824219 405.515625 98.878906 407.191406 99.605469 C 408.867188 100.335938 409.582031 101.464844 408.785156 102.125 Z M 408.785156 102.125 "/>
<path style=" stroke:none;fill-rule:nonzero;fill:rgb(90.196078%,90.196078%,90.196078%);fill-opacity:0.627451;" d="M 500.15625 98.355469 C 501.355469 98.886719 501.230469 100.214844 499.878906 101.316406 C 498.527344 102.414062 496.460938 102.875 495.261719 102.339844 C 494.066406 101.808594 494.1875 100.480469 495.539062 99.378906 C 496.890625 98.277344 498.960938 97.820312 500.15625 98.355469 Z M 500.15625 98.355469 "/>
<path style=" stroke:none;fill-rule:nonzero;fill:rgb(90.196078%,90.196078%,90.196078%);fill-opacity:0.627451;" d="M 308.085938 93.777344 C 306.890625 94.980469 303.457031 95.058594 300.421875 93.957031 C 297.382812 92.855469 295.890625 90.992188 297.089844 89.792969 C 298.289062 88.589844 301.722656 88.511719 304.757812 89.613281 C 307.796875 90.714844 309.285156 92.578125 308.085938 93.777344 Z M 308.085938 93.777344 "/>
<path style=" stroke:none;fill-rule:nonzero;fill:rgb(90.196078%,90.196078%,90.196078%);fill-opacity:0.627451;" d="M 582.050781 93.6875 C 585.238281 94.4375 586.277344 97.425781 584.371094 100.355469 C 582.464844 103.285156 578.332031 105.050781 575.144531 104.296875 C 571.957031 103.542969 570.917969 100.558594 572.824219 97.625 C 574.730469 94.695312 578.863281 92.929688 582.050781 93.6875 Z M 582.050781 93.6875 "/>
<path style=" stroke:none;fill-rule:nonzero;fill:rgb(90.196078%,90.196078%,90.196078%);fill-opacity:0.627451;" d="M 595.371094 90.066406 C 596.722656 91.097656 595.703125 92.941406 593.089844 94.183594 C 590.480469 95.425781 587.269531 95.597656 585.917969 94.5625 C 584.566406 93.53125 585.585938 91.691406 588.199219 90.449219 C 590.808594 89.207031 594.019531 89.035156 595.371094 90.066406 Z M 595.371094 90.066406 "/>
<path style=" stroke:none;fill-rule:nonzero;fill:rgb(90.196078%,90.196078%,90.196078%);fill-opacity:0.627451;" d="M 631.175781 93.460938 C 632.542969 93.796875 632.960938 95.085938 632.109375 96.34375 C 631.257812 97.601562 629.457031 98.347656 628.089844 98.011719 C 626.722656 97.675781 626.304688 96.382812 627.15625 95.125 C 628.007812 93.867188 629.808594 93.121094 631.175781 93.460938 Z M 631.175781 93.460938 "/>
<path style=" stroke:none;fill-rule:nonzero;fill:rgb(90.196078%,90.196078%,90.196078%);fill-opacity:0.627451;" d="M 690.117188 99.035156 C 692.453125 99.832031 692.707031 102.214844 690.6875 104.359375 C 688.667969 106.503906 685.140625 107.59375 682.808594 106.796875 C 680.476562 106 680.222656 103.613281 682.242188 101.472656 C 684.257812 99.328125 687.789062 98.234375 690.117188 99.035156 Z M 690.117188 99.035156 "/>
<path style=" stroke:none;fill-rule:nonzero;fill:rgb(90.196078%,90.196078%,90.196078%);fill-opacity:0.627451;" d="M 668.988281 96.566406 C 672.113281 98.144531 671.40625 101.75 667.414062 104.621094 C 663.417969 107.496094 657.644531 108.542969 654.523438 106.960938 C 651.398438 105.386719 652.101562 101.777344 656.097656 98.90625 C 660.09375 96.035156 665.863281 94.984375 668.988281 96.566406 Z M 668.988281 96.566406 "/>
<path style=" stroke:none;fill-rule:nonzero;fill:rgb(90.196078%,90.196078%,90.196078%);fill-opacity:0.627451;" d="M 712.023438 88.992188 C 712.371094 89.828125 710.9375 90.761719 708.824219 91.082031 C 706.710938 91.398438 704.714844 90.980469 704.371094 90.144531 C 704.023438 89.308594 705.457031 88.375 707.570312 88.054688 C 709.683594 87.738281 711.679688 88.15625 712.023438 88.992188 Z M 712.023438 88.992188 "/>
<path style=" stroke:none;fill-rule:nonzero;fill:rgb(90.196078%,90.196078%,90.196078%);fill-opacity:0.627451;" d="M 402.609375 77.832031 C 404.554688 79.042969 403.648438 81.476562 400.578125 83.261719 C 397.511719 85.050781 393.449219 85.515625 391.507812 84.304688 C 389.5625 83.09375 390.472656 80.660156 393.539062 78.875 C 396.605469 77.085938 400.667969 76.621094 402.609375 77.832031 Z M 402.609375 77.832031 "/>
<path style=" stroke:none;fill-rule:nonzero;fill:rgb(90.196078%,90.196078%,90.196078%);fill-opacity:0.627451;" d="M 694.042969 97.511719 C 692.890625 98.914062 689.085938 99.191406 685.542969 98.132812 C 681.996094 97.074219 680.058594 95.078125 681.210938 93.679688 C 682.363281 92.277344 686.167969 92 689.714844 93.0625 C 693.257812 94.121094 695.195312 96.113281 694.042969 97.511719 Z M 694.042969 97.511719 "/>
<path style=" stroke:none;fill-rule:nonzero;fill:rgb(90.196078%,90.196078%,90.196078%);fill-opacity:0.627451;" d="M 481.65625 93.230469 C 479.546875 94.542969 475.140625 94.03125 471.816406 92.089844 C 468.496094 90.148438 467.515625 87.511719 469.628906 86.199219 C 471.738281 84.886719 476.144531 85.394531 479.46875 87.335938 C 482.789062 89.277344 483.769531 91.917969 481.65625 93.230469 Z M 481.65625 93.230469 "/>
<path style=" stroke:none;fill-rule:nonzero;fill:rgb(90.196078%,90.196078%,90.196078%);fill-opacity:0.627451;" d="M 678.878906 94.433594 C 681.082031 95.082031 681.539062 97.246094 679.894531 99.273438 C 678.253906 101.296875 675.136719 102.410156 672.933594 101.761719 C 670.730469 101.113281 670.277344 98.945312 671.917969 96.921875 C 673.5625 94.898438 676.679688 93.78125 678.878906 94.433594 Z M 678.878906 94.433594 "/>
<path style=" stroke:none;fill-rule:nonzero;fill:rgb(90.196078%,90.196078%,90.196078%);fill-opacity:0.627451;" d="M 651.789062 97.703125 C 653.9375 99.71875 651.546875 102.949219 646.449219 104.921875 C 641.351562 106.894531 635.480469 106.859375 633.335938 104.84375 C 631.1875 102.832031 633.578125 99.601562 638.675781 97.628906 C 643.773438 95.65625 649.644531 95.6875 651.789062 97.703125 Z M 651.789062 97.703125 "/>
<path style=" stroke:none;fill-rule:nonzero;fill:rgb(90.196078%,90.196078%,90.196078%);fill-opacity:0.627451;" d="M 622.9375 84.90625 C 622.089844 86.296875 618.546875 86.792969 615.023438 86.011719 C 611.503906 85.230469 609.339844 83.46875 610.191406 82.078125 C 611.039062 80.6875 614.582031 80.191406 618.105469 80.972656 C 621.625 81.753906 623.789062 83.515625 622.9375 84.90625 Z M 622.9375 84.90625 "/>
<path style=" stroke:none;fill-rule:nonzero;fill:rgb(90.196078%,90.196078%,90.196078%);fill-opacity:0.627451;" d="M 631 75.390625 C 632.851562 75.761719 633.59375 77.441406 632.65625 79.140625 C 631.71875 80.84375 629.460938 81.921875 627.609375 81.550781 C 625.757812 81.183594 625.015625 79.503906 625.953125 77.800781 C 626.886719 76.097656 629.148438 75.019531 631 75.390625 Z M 631 75.390625 "/>
<path style=" stroke:none;fill-rule:nonzero;fill:rgb(90.196078%,90.196078%,90.196078%);fill-opacity:0.627451;" d="M 552.449219 96.5 C 549.515625 97.039062 546.039062 95.285156 544.683594 92.589844 C 543.332031 89.890625 544.613281 87.269531 547.546875 86.738281 C 550.480469 86.199219 553.957031 87.953125 555.3125 90.648438 C 556.664062 93.347656 555.382812 95.96875 552.449219 96.5 Z M 552.449219 96.5 "/>
<path style=" stroke:none;fill-rule:nonzero;fill:rgb(90.196078%,90.196078%,90.196078%);fill-opacity:0.627451;" d="M 571.09375 92.992188 C 569.382812 93.566406 566.816406 92.757812 565.363281 91.179688 C 563.910156 89.605469 564.121094 87.863281 565.832031 87.289062 C 567.546875 86.714844 570.113281 87.527344 571.566406 89.101562 C 573.019531 90.675781 572.808594 92.417969 571.09375 92.992188 Z M 571.09375 92.992188 "/>
<path style=" stroke:none;fill-rule:nonzero;fill:rgb(90.196078%,90.196078%,90.196078%);fill-opacity:0.627451;" d="M 462.265625 101.585938 C 460.542969 102.351562 457.570312 101.6875 455.632812 100.105469 C 453.691406 98.519531 453.515625 96.613281 455.242188 95.847656 C 456.964844 95.078125 459.9375 95.742188 461.878906 97.328125 C 463.816406 98.914062 463.992188 100.820312 462.265625 101.585938 Z M 462.265625 101.585938 "/>
<path style=" stroke:none;fill-rule:nonzero;fill:rgb(90.196078%,90.196078%,90.196078%);fill-opacity:0.627451;" d="M 446.277344 93.074219 C 448.152344 94.699219 446.34375 97.410156 442.234375 99.136719 C 438.121094 100.859375 433.269531 100.941406 431.398438 99.316406 C 429.519531 97.691406 431.328125 94.976562 435.441406 93.253906 C 439.550781 91.53125 444.402344 91.449219 446.277344 93.074219 Z M 446.277344 93.074219 "/>
<path style=" stroke:none;fill-rule:nonzero;fill:rgb(90.196078%,90.196078%,90.196078%);fill-opacity:0.627451;" d="M 422.25 57.878906 C 423.175781 58.722656 422.199219 60.097656 420.066406 60.949219 C 417.929688 61.800781 415.449219 61.808594 414.527344 60.964844 C 413.597656 60.121094 414.574219 58.746094 416.710938 57.894531 C 418.84375 57.042969 421.324219 57.035156 422.25 57.878906 Z M 422.25 57.878906 "/>
<path style=" stroke:none;fill-rule:nonzero;fill:rgb(90.196078%,90.196078%,90.196078%);fill-opacity:0.627451;" d="M 361.515625 76.578125 C 358.6875 77.804688 353.882812 76.691406 350.78125 74.09375 C 347.679688 71.492188 347.457031 68.394531 350.285156 67.167969 C 353.109375 65.941406 357.917969 67.054688 361.019531 69.652344 C 364.121094 72.253906 364.34375 75.351562 361.515625 76.578125 Z M 361.515625 76.578125 "/>
<path style=" stroke:none;fill-rule:nonzero;fill:rgb(90.196078%,90.196078%,90.196078%);fill-opacity:0.627451;" d="M 279.042969 66.617188 C 277.714844 66.835938 276.191406 66.023438 275.636719 64.800781 C 275.085938 63.582031 275.714844 62.414062 277.042969 62.195312 C 278.371094 61.976562 279.898438 62.789062 280.449219 64.011719 C 281 65.234375 280.371094 66.398438 279.042969 66.617188 Z M 279.042969 66.617188 "/>
<path style=" stroke:none;fill-rule:nonzero;fill:rgb(90.196078%,90.196078%,90.196078%);fill-opacity:0.627451;" d="M 178.03125 39.207031 C 179.785156 39.621094 180.351562 41.265625 179.296875 42.878906 C 178.246094 44.488281 175.96875 45.457031 174.214844 45.042969 C 172.460938 44.625 171.894531 42.980469 172.949219 41.371094 C 174 39.757812 176.277344 38.789062 178.03125 39.207031 Z M 178.03125 39.207031 "/>
<path style=" stroke:none;fill-rule:nonzero;fill:rgb(90.196078%,90.196078%,90.196078%);fill-opacity:0.627451;" d="M 185.945312 62.664062 C 186.914062 64.898438 183.113281 67.429688 177.457031 68.320312 C 171.800781 69.207031 166.433594 68.117188 165.46875 65.878906 C 164.5 63.644531 168.300781 61.113281 173.957031 60.226562 C 179.613281 59.335938 184.980469 60.429688 185.945312 62.664062 Z M 185.945312 62.664062 "/>
<path style=" stroke:none;fill-rule:nonzero;fill:rgb(90.196078%,90.196078%,90.196078%);fill-opacity:0.627451;" d="M 187.347656 72.855469 C 187.777344 73.878906 186.019531 75.027344 183.429688 75.417969 C 180.839844 75.808594 178.394531 75.296875 177.96875 74.273438 C 177.542969 73.25 179.296875 72.101562 181.886719 71.710938 C 184.476562 71.320312 186.921875 71.832031 187.347656 72.855469 Z M 187.347656 72.855469 "/>
<path style=" stroke:none;fill-rule:nonzero;fill:rgb(90.196078%,90.196078%,90.196078%);fill-opacity:0.627451;" d="M 188.027344 56.777344 C 187.703125 58.789062 183.304688 60.179688 178.207031 59.878906 C 173.113281 59.578125 169.246094 57.703125 169.574219 55.6875 C 169.898438 53.675781 174.296875 52.285156 179.390625 52.585938 C 184.488281 52.886719 188.355469 54.761719 188.027344 56.777344 Z M 188.027344 56.777344 "/>
<path style=" stroke:none;fill-rule:nonzero;fill:rgb(90.196078%,90.196078%,90.196078%);fill-opacity:0.627451;" d="M 172.226562 69.890625 C 172.9375 71.070312 171.085938 72.558594 168.097656 73.210938 C 165.105469 73.863281 162.105469 73.433594 161.398438 72.25 C 160.6875 71.070312 162.539062 69.582031 165.527344 68.929688 C 168.519531 68.277344 171.519531 68.707031 172.226562 69.890625 Z M 172.226562 69.890625 "/>
<path style=" stroke:none;fill-rule:nonzero;fill:rgb(90.196078%,90.196078%,90.196078%);fill-opacity:0.627451;" d="M 199.941406 71.007812 C 197.164062 72.320312 192.214844 71.308594 188.898438 68.753906 C 185.578125 66.195312 185.140625 63.058594 187.925781 61.75 C 190.703125 60.4375 195.652344 61.445312 198.972656 64 C 202.292969 66.558594 202.726562 69.695312 199.941406 71.007812 Z M 199.941406 71.007812 "/>
<path style=" stroke:none;fill-rule:nonzero;fill:rgb(90.196078%,90.196078%,90.196078%);fill-opacity:0.627451;" d="M 168.746094 80.703125 C 169.035156 82.4375 165.707031 84.0625 161.3125 84.328125 C 156.921875 84.589844 153.125 83.398438 152.839844 81.664062 C 152.550781 79.925781 155.875 78.304688 160.269531 78.039062 C 164.664062 77.773438 168.457031 78.964844 168.746094 80.703125 Z M 168.746094 80.703125 "/>
<path style=" stroke:none;fill-rule:nonzero;fill:rgb(90.196078%,90.196078%,90.196078%);fill-opacity:0.627451;" d="M 164.867188 67.105469 C 163.367188 68.84375 158.582031 69.136719 154.175781 67.757812 C 149.769531 66.378906 147.417969 63.847656 148.921875 62.109375 C 150.421875 60.367188 155.207031 60.074219 159.613281 61.457031 C 164.015625 62.835938 166.367188 65.363281 164.867188 67.105469 Z M 164.867188 67.105469 "/>
<path style=" stroke:none;fill-rule:nonzero;fill:rgb(90.196078%,90.196078%,90.196078%);fill-opacity:0.627451;" d="M 168.144531 77.824219 C 166.902344 78.308594 164.902344 77.773438 163.683594 76.632812 C 162.460938 75.488281 162.476562 74.171875 163.722656 73.691406 C 164.964844 73.207031 166.960938 73.742188 168.183594 74.882812 C 169.40625 76.027344 169.386719 77.34375 168.144531 77.824219 Z M 168.144531 77.824219 "/>
<path style=" stroke:none;fill-rule:nonzero;fill:rgb(90.196078%,90.196078%,90.196078%);fill-opacity:0.627451;" d="M 245.621094 68.984375 C 247.019531 69.605469 246.875 71.15625 245.292969 72.441406 C 243.710938 73.726562 241.292969 74.261719 239.898438 73.636719 C 238.496094 73.011719 238.644531 71.464844 240.226562 70.175781 C 241.808594 68.890625 244.226562 68.359375 245.621094 68.984375 Z M 245.621094 68.984375 "/>
<path style=" stroke:none;fill-rule:nonzero;fill:rgb(90.196078%,90.196078%,90.196078%);fill-opacity:0.627451;" d="M 320.320312 69.914062 C 322.914062 70.765625 323.257812 73.390625 321.09375 75.769531 C 318.929688 78.152344 315.078125 79.390625 312.488281 78.53125 C 309.898438 77.679688 309.550781 75.054688 311.714844 72.675781 C 313.878906 70.292969 317.734375 69.058594 320.320312 69.914062 Z M 320.320312 69.914062 "/>
<path style=" stroke:none;fill-rule:nonzero;fill:rgb(90.196078%,90.196078%,90.196078%);fill-opacity:0.627451;" d="M 399.808594 59.113281 C 399.429688 60.019531 397.265625 60.472656 394.972656 60.125 C 392.679688 59.777344 391.125 58.761719 391.503906 57.855469 C 391.878906 56.949219 394.046875 56.496094 396.339844 56.84375 C 398.632812 57.191406 400.183594 58.207031 399.808594 59.113281 Z M 399.808594 59.113281 "/>
<path style=" stroke:none;fill-rule:nonzero;fill:rgb(90.196078%,90.196078%,90.196078%);fill-opacity:0.627451;" d="M 449.832031 67.367188 C 450.824219 69.101562 448.070312 71.246094 443.679688 72.15625 C 439.289062 73.070312 434.929688 72.402344 433.941406 70.664062 C 432.949219 68.933594 435.703125 66.785156 440.09375 65.875 C 444.480469 64.964844 448.84375 65.632812 449.832031 67.367188 Z M 449.832031 67.367188 "/>
<path style=" stroke:none;fill-rule:nonzero;fill:rgb(90.196078%,90.196078%,90.196078%);fill-opacity:0.627451;" d="M 444.554688 81.191406 C 442.867188 82.222656 439.378906 81.800781 436.769531 80.246094 C 434.15625 78.695312 433.410156 76.597656 435.101562 75.566406 C 436.792969 74.535156 440.277344 74.957031 442.890625 76.511719 C 445.5 78.066406 446.246094 80.160156 444.554688 81.191406 Z M 444.554688 81.191406 "/>
<path style=" stroke:none;fill-rule:nonzero;fill:rgb(90.196078%,90.196078%,90.196078%);fill-opacity:0.627451;" d="M 433.417969 65.914062 C 432.605469 66.625 430.488281 66.59375 428.6875 65.84375 C 426.890625 65.09375 426.09375 63.910156 426.910156 63.203125 C 427.726562 62.492188 429.84375 62.523438 431.640625 63.273438 C 433.441406 64.019531 434.234375 65.203125 433.417969 65.914062 Z M 433.417969 65.914062 "/>
<path style=" stroke:none;fill-rule:nonzero;fill:rgb(90.196078%,90.196078%,90.196078%);fill-opacity:0.627451;" d="M 410.050781 74.382812 C 410.152344 75.300781 408.355469 76.117188 406.042969 76.207031 C 403.726562 76.300781 401.769531 75.632812 401.667969 74.71875 C 401.566406 73.804688 403.363281 72.988281 405.675781 72.894531 C 407.992188 72.804688 409.949219 73.46875 410.050781 74.382812 Z M 410.050781 74.382812 "/>
<path style=" stroke:none;fill-rule:nonzero;fill:rgb(90.196078%,90.196078%,90.196078%);fill-opacity:0.627451;" d="M 460.523438 87.746094 C 458.550781 88.109375 456.207031 86.933594 455.289062 85.121094 C 454.371094 83.304688 455.226562 81.542969 457.199219 81.179688 C 459.171875 80.816406 461.515625 81.992188 462.433594 83.804688 C 463.351562 85.621094 462.496094 87.386719 460.523438 87.746094 Z M 460.523438 87.746094 "/>
<path style=" stroke:none;fill-rule:nonzero;fill:rgb(90.196078%,90.196078%,90.196078%);fill-opacity:0.627451;" d="M 423.566406 64.117188 C 425.113281 64.878906 424.800781 66.652344 422.863281 68.074219 C 420.929688 69.496094 418.105469 70.027344 416.558594 69.261719 C 415.011719 68.5 415.328125 66.726562 417.261719 65.304688 C 419.195312 63.882812 422.019531 63.351562 423.566406 64.117188 Z M 423.566406 64.117188 "/>
<path style=" stroke:none;fill-rule:nonzero;fill:rgb(90.196078%,90.196078%,90.196078%);fill-opacity:0.627451;" d="M 408.191406 53.914062 C 409.3125 54.511719 408.996094 55.828125 407.488281 56.859375 C 405.976562 57.886719 403.84375 58.238281 402.726562 57.640625 C 401.605469 57.042969 401.921875 55.726562 403.429688 54.695312 C 404.941406 53.667969 407.074219 53.316406 408.191406 53.914062 Z M 408.191406 53.914062 "/>
<path style=" stroke:none;fill-rule:nonzero;fill:rgb(90.196078%,90.196078%,90.196078%);fill-opacity:0.627451;" d="M 338.539062 95.335938 C 341.539062 96.886719 340.789062 100.375 336.867188 103.128906 C 332.941406 105.886719 327.332031 106.863281 324.335938 105.3125 C 321.339844 103.761719 322.085938 100.273438 326.011719 97.515625 C 329.933594 94.761719 335.542969 93.785156 338.539062 95.335938 Z M 338.539062 95.335938 "/>
<path style=" stroke:none;fill-rule:nonzero;fill:rgb(90.196078%,90.196078%,90.196078%);fill-opacity:0.627451;" d="M 309.980469 114.390625 C 308.769531 116.746094 302.953125 117.75 296.992188 116.632812 C 291.035156 115.515625 287.191406 112.699219 288.410156 110.34375 C 289.625 107.988281 295.4375 106.988281 301.398438 108.105469 C 307.355469 109.222656 311.199219 112.039062 309.980469 114.390625 Z M 309.980469 114.390625 "/>
<path style=" stroke:none;fill-rule:nonzero;fill:rgb(90.196078%,90.196078%,90.196078%);fill-opacity:0.627451;" d="M 242.375 103.761719 C 240.714844 104.21875 238.429688 103.347656 237.277344 101.820312 C 236.121094 100.292969 236.535156 98.683594 238.195312 98.230469 C 239.859375 97.773438 242.140625 98.640625 243.296875 100.167969 C 244.449219 101.695312 244.039062 103.304688 242.375 103.761719 Z M 242.375 103.761719 "/>
<path style=" stroke:none;fill-rule:nonzero;fill:rgb(90.196078%,90.196078%,90.196078%);fill-opacity:0.627451;" d="M 206.316406 99.890625 C 207.585938 100.125 208.128906 101.265625 207.527344 102.4375 C 206.921875 103.605469 205.402344 104.359375 204.132812 104.121094 C 202.859375 103.882812 202.320312 102.742188 202.921875 101.574219 C 203.527344 100.402344 205.046875 99.648438 206.316406 99.890625 Z M 206.316406 99.890625 "/>
<path style=" stroke:none;fill-rule:nonzero;fill:rgb(90.196078%,90.196078%,90.196078%);fill-opacity:0.627451;" d="M 187.097656 87.171875 C 190.308594 88.605469 189.960938 92.160156 186.328125 95.109375 C 182.695312 98.054688 177.148438 99.28125 173.945312 97.84375 C 170.738281 96.410156 171.082031 92.855469 174.714844 89.910156 C 178.347656 86.960938 183.894531 85.734375 187.097656 87.171875 Z M 187.097656 87.171875 "/>
<path style=" stroke:none;fill-rule:nonzero;fill:rgb(90.196078%,90.196078%,90.196078%);fill-opacity:0.627451;" d="M 223.667969 81.835938 C 225.269531 82.261719 225.695312 83.796875 224.617188 85.269531 C 223.542969 86.738281 221.371094 87.585938 219.773438 87.160156 C 218.171875 86.738281 217.75 85.199219 218.824219 83.730469 C 219.898438 82.257812 222.070312 81.410156 223.667969 81.835938 Z M 223.667969 81.835938 "/>
<path style=" stroke:none;fill-rule:nonzero;fill:rgb(90.196078%,90.196078%,90.196078%);fill-opacity:0.627451;" d="M 263.546875 86.367188 C 265.332031 88.394531 262.621094 91.367188 257.488281 93.003906 C 252.359375 94.644531 246.753906 94.332031 244.972656 92.300781 C 243.1875 90.277344 245.898438 87.300781 251.03125 85.664062 C 256.160156 84.023438 261.765625 84.339844 263.546875 86.367188 Z M 263.546875 86.367188 "/>
<path style=" stroke:none;fill-rule:nonzero;fill:rgb(90.196078%,90.196078%,90.196078%);fill-opacity:0.627451;" d="M 224.945312 111.015625 C 225.253906 113.355469 220.703125 115.480469 214.78125 115.761719 C 208.859375 116.042969 203.8125 114.371094 203.511719 112.03125 C 203.203125 109.691406 207.753906 107.566406 213.675781 107.289062 C 219.597656 107.007812 224.644531 108.675781 224.945312 111.015625 Z M 224.945312 111.015625 "/>
<path style=" stroke:none;fill-rule:nonzero;fill:rgb(90.196078%,90.196078%,90.196078%);fill-opacity:0.627451;" d="M 211.214844 91.460938 C 213.15625 93.679688 210.175781 96.925781 204.554688 98.710938 C 198.9375 100.496094 192.808594 100.140625 190.871094 97.917969 C 188.929688 95.699219 191.910156 92.453125 197.527344 90.667969 C 203.148438 88.886719 209.277344 89.238281 211.214844 91.460938 Z M 211.214844 91.460938 "/>
<path style=" stroke:none;fill-rule:nonzero;fill:rgb(90.196078%,90.196078%,90.196078%);fill-opacity:0.627451;" d="M 201.347656 80.910156 C 203.910156 81.417969 204.949219 83.734375 203.667969 86.089844 C 202.386719 88.445312 199.273438 89.945312 196.710938 89.4375 C 194.148438 88.933594 193.109375 86.613281 194.390625 84.257812 C 195.671875 81.902344 198.789062 80.402344 201.347656 80.910156 Z M 201.347656 80.910156 "/>
<path style=" stroke:none;fill-rule:nonzero;fill:rgb(90.196078%,90.196078%,90.196078%);fill-opacity:0.627451;" d="M 245.542969 79.070312 C 247.140625 79.429688 247.699219 80.914062 246.785156 82.386719 C 245.871094 83.855469 243.835938 84.757812 242.234375 84.394531 C 240.636719 84.035156 240.078125 82.550781 240.992188 81.078125 C 241.90625 79.609375 243.941406 78.710938 245.542969 79.070312 Z M 245.542969 79.070312 "/>
<path style=" stroke:none;fill-rule:nonzero;fill:rgb(90.196078%,90.196078%,90.196078%);fill-opacity:0.627451;" d="M 217.554688 85.082031 C 216.449219 85.65625 214.375 85.292969 212.921875 84.277344 C 211.472656 83.257812 211.195312 81.96875 212.304688 81.394531 C 213.410156 80.820312 215.484375 81.183594 216.933594 82.199219 C 218.382812 83.21875 218.660156 84.507812 217.554688 85.082031 Z M 217.554688 85.082031 "/>
<path style=" stroke:none;fill-rule:nonzero;fill:rgb(90.196078%,90.196078%,90.196078%);fill-opacity:0.627451;" d="M 169.761719 99.296875 C 166.882812 100.574219 161.929688 99.460938 158.703125 96.8125 C 155.472656 94.160156 155.195312 90.980469 158.078125 89.707031 C 160.957031 88.429688 165.910156 89.542969 169.136719 92.191406 C 172.363281 94.839844 172.644531 98.023438 169.761719 99.296875 Z M 169.761719 99.296875 "/>
<path style=" stroke:none;fill-rule:nonzero;fill:rgb(90.196078%,90.196078%,90.196078%);fill-opacity:0.627451;" d="M 137.824219 118.855469 C 134.949219 119.488281 131.320312 117.863281 129.71875 115.21875 C 128.113281 112.578125 129.144531 109.921875 132.019531 109.292969 C 134.894531 108.65625 138.523438 110.285156 140.125 112.925781 C 141.726562 115.566406 140.695312 118.222656 137.824219 118.855469 Z M 137.824219 118.855469 "/>
<path style=" stroke:none;fill-rule:nonzero;fill:rgb(90.196078%,90.196078%,90.196078%);fill-opacity:0.627451;" d="M 114.699219 113.410156 C 113.386719 115.03125 109 115.363281 104.902344 114.152344 C 100.808594 112.945312 98.554688 110.652344 99.871094 109.035156 C 101.183594 107.417969 105.570312 107.082031 109.664062 108.292969 C 113.761719 109.5 116.015625 111.792969 114.699219 113.410156 Z M 114.699219 113.410156 "/>
<path style=" stroke:none;fill-rule:nonzero;fill:rgb(90.196078%,90.196078%,90.196078%);fill-opacity:0.627451;" d="M 68.324219 119.558594 C 64.585938 120.617188 59.378906 118.691406 56.695312 115.25 C 54.015625 111.808594 54.878906 108.164062 58.621094 107.105469 C 62.359375 106.042969 67.566406 107.972656 70.25 111.414062 C 72.929688 114.855469 72.066406 118.5 68.324219 119.558594 Z M 68.324219 119.558594 "/>
<path style=" stroke:none;fill-rule:nonzero;fill:rgb(90.196078%,90.196078%,90.196078%);fill-opacity:0.627451;" d="M 11.53125 98.085938 C 13.722656 98.820312 13.992188 101.054688 12.132812 103.070312 C 10.269531 105.085938 6.980469 106.125 4.789062 105.386719 C 2.59375 104.652344 2.324219 102.421875 4.1875 100.40625 C 6.046875 98.386719 9.335938 97.351562 11.53125 98.085938 Z M 11.53125 98.085938 "/>
<path style=" stroke:none;fill-rule:nonzero;fill:rgb(90.196078%,90.196078%,90.196078%);fill-opacity:0.627451;" d="M 3.382812 120.628906 C 0.703125 121.289062 -2.824219 119.828125 -4.5 117.363281 C -6.171875 114.898438 -5.351562 112.363281 -2.671875 111.703125 C 0.0078125 111.042969 3.539062 112.503906 5.210938 114.96875 C 6.882812 117.433594 6.066406 119.96875 3.382812 120.628906 Z M 3.382812 120.628906 "/>
<path style=" stroke:none;fill-rule:nonzero;fill:rgb(90.196078%,90.196078%,90.196078%);fill-opacity:0.627451;" d="M 32.363281 115.824219 C 34.960938 116.894531 34.863281 119.699219 32.148438 122.085938 C 29.429688 124.476562 25.125 125.539062 22.527344 124.464844 C 19.929688 123.390625 20.027344 120.585938 22.742188 118.199219 C 25.460938 115.8125 29.769531 114.75 32.363281 115.824219 Z M 32.363281 115.824219 "/>
<path style=" stroke:none;fill-rule:nonzero;fill:rgb(90.196078%,90.196078%,90.196078%);fill-opacity:0.627451;" d="M 55.136719 120.625 C 55.316406 122.90625 50.78125 124.882812 45.011719 125.046875 C 39.242188 125.207031 34.425781 123.488281 34.253906 121.207031 C 34.074219 118.929688 38.609375 116.949219 44.378906 116.789062 C 50.144531 116.628906 54.964844 118.347656 55.136719 120.625 Z M 55.136719 120.625 "/>
<path style=" stroke:none;fill-rule:nonzero;fill:rgb(90.196078%,90.196078%,90.196078%);fill-opacity:0.627451;" d="M 102.261719 126.078125 C 100.738281 126.503906 98.628906 125.714844 97.550781 124.316406 C 96.472656 122.914062 96.832031 121.433594 98.355469 121.007812 C 99.878906 120.582031 101.988281 121.371094 103.066406 122.773438 C 104.144531 124.171875 103.785156 125.652344 102.261719 126.078125 Z M 102.261719 126.078125 "/>
<path style=" stroke:none;fill-rule:nonzero;fill:rgb(90.196078%,90.196078%,90.196078%);fill-opacity:0.627451;" d="M 127.59375 124.019531 C 129.496094 126.195312 126.574219 129.371094 121.066406 131.117188 C 115.5625 132.859375 109.5625 132.511719 107.667969 130.335938 C 105.765625 128.160156 108.691406 124.984375 114.195312 123.238281 C 119.699219 121.496094 125.703125 121.84375 127.59375 124.019531 Z M 127.59375 124.019531 "/>
<path style=" stroke:none;fill-rule:nonzero;fill:rgb(90.196078%,90.196078%,90.196078%);fill-opacity:0.627451;" d="M 117.210938 87.613281 C 119.757812 88.269531 120.476562 90.699219 118.8125 93.039062 C 117.152344 95.378906 113.742188 96.742188 111.195312 96.085938 C 108.652344 95.429688 107.933594 93 109.59375 90.660156 C 111.257812 88.320312 114.667969 86.957031 117.210938 87.613281 Z M 117.210938 87.613281 "/>
<path style=" stroke:none;fill-rule:nonzero;fill:rgb(90.196078%,90.196078%,90.196078%);fill-opacity:0.627451;" d="M 195.949219 117.953125 C 195.347656 119.007812 192.695312 119.417969 190.019531 118.863281 C 187.347656 118.308594 185.667969 117.003906 186.269531 115.949219 C 186.871094 114.890625 189.527344 114.484375 192.199219 115.039062 C 194.875 115.589844 196.554688 116.894531 195.949219 117.953125 Z M 195.949219 117.953125 "/>
<path style=" stroke:none;fill-rule:nonzero;fill:rgb(90.196078%,90.196078%,90.196078%);fill-opacity:0.627451;" d="M 175.746094 117.210938 C 176.71875 118.925781 173.980469 121.042969 169.632812 121.929688 C 165.285156 122.820312 160.976562 122.148438 160.011719 120.433594 C 159.042969 118.714844 161.78125 116.601562 166.128906 115.710938 C 170.472656 114.820312 174.78125 115.492188 175.746094 117.210938 Z M 175.746094 117.210938 "/>
<path style=" stroke:none;fill-rule:nonzero;fill:rgb(90.196078%,90.196078%,90.196078%);fill-opacity:0.627451;" d="M 117.429688 137.757812 C 117.410156 139.058594 114.726562 140.097656 111.441406 140.078125 C 108.152344 140.058594 105.503906 138.988281 105.527344 137.691406 C 105.546875 136.390625 108.226562 135.355469 111.515625 135.371094 C 114.800781 135.390625 117.449219 136.460938 117.429688 137.757812 Z M 117.429688 137.757812 "/>
<path style=" stroke:none;fill-rule:nonzero;fill:rgb(90.196078%,90.196078%,90.196078%);fill-opacity:0.627451;" d="M 76.425781 111.476562 C 77.546875 111.882812 77.621094 113.046875 76.589844 114.078125 C 75.558594 115.109375 73.8125 115.613281 72.695312 115.203125 C 71.574219 114.796875 71.5 113.632812 72.53125 112.601562 C 73.5625 111.570312 75.308594 111.066406 76.425781 111.476562 Z M 76.425781 111.476562 "/>
<path style=" stroke:none;fill-rule:nonzero;fill:rgb(90.196078%,90.196078%,90.196078%);fill-opacity:0.627451;" d="M 74.765625 106.375 C 72.976562 107.160156 69.921875 106.464844 67.941406 104.820312 C 65.960938 103.175781 65.804688 101.210938 67.59375 100.425781 C 69.378906 99.644531 72.433594 100.339844 74.417969 101.984375 C 76.398438 103.628906 76.554688 105.59375 74.765625 106.375 Z M 74.765625 106.375 "/>
<path style=" stroke:none;fill-rule:nonzero;fill:rgb(90.196078%,90.196078%,90.196078%);fill-opacity:0.627451;" d="M 8.585938 106.402344 C 9.804688 107.46875 8.597656 109.246094 5.890625 110.363281 C 3.183594 111.484375 0 111.523438 -1.214844 110.453125 C -2.4375 109.382812 -1.226562 107.609375 1.480469 106.488281 C 4.1875 105.371094 7.371094 105.328125 8.585938 106.402344 Z M 8.585938 106.402344 "/>
<path style=" stroke:none;fill-rule:nonzero;fill:rgb(90.196078%,90.196078%,90.196078%);fill-opacity:0.627451;" d="M 20.585938 120.027344 C 21.09375 121.601562 18.269531 123.261719 14.28125 123.726562 C 10.289062 124.191406 6.640625 123.292969 6.136719 121.714844 C 5.625 120.136719 8.449219 118.480469 12.441406 118.015625 C 16.433594 117.546875 20.078125 118.449219 20.585938 120.027344 Z M 20.585938 120.027344 "/>
<path style=" stroke:none;fill-rule:nonzero;fill:rgb(90.196078%,90.196078%,90.196078%);fill-opacity:0.627451;" d="M 70.382812 120.9375 C 73.554688 122.363281 73.195312 125.882812 69.582031 128.796875 C 65.96875 131.710938 60.46875 132.917969 57.300781 131.488281 C 54.128906 130.058594 54.488281 126.539062 58.101562 123.625 C 61.714844 120.710938 67.214844 119.507812 70.382812 120.9375 Z M 70.382812 120.9375 "/>
<path style=" stroke:none;fill-rule:nonzero;fill:rgb(90.196078%,90.196078%,90.196078%);fill-opacity:0.627451;" d="M 145.9375 119.476562 C 148.925781 120.714844 148.800781 123.949219 145.660156 126.691406 C 142.519531 129.4375 137.550781 130.652344 134.566406 129.410156 C 131.582031 128.171875 131.707031 124.941406 134.847656 122.195312 C 137.988281 119.453125 142.957031 118.234375 145.9375 119.476562 Z M 145.9375 119.476562 "/>
<path style=" stroke:none;fill-rule:nonzero;fill:rgb(90.196078%,90.196078%,90.196078%);fill-opacity:0.627451;" d="M 186.164062 99.074219 C 189.835938 100.195312 190.511719 103.835938 187.675781 107.210938 C 184.835938 110.582031 179.5625 112.40625 175.894531 111.285156 C 172.226562 110.164062 171.550781 106.523438 174.386719 103.148438 C 177.222656 99.777344 182.5 97.953125 186.164062 99.074219 Z M 186.164062 99.074219 "/>
<path style=" stroke:none;fill-rule:nonzero;fill:rgb(90.196078%,90.196078%,90.196078%);fill-opacity:0.627451;" d="M 205.984375 74.925781 C 207.652344 75.703125 207.414062 77.574219 205.449219 79.105469 C 203.488281 80.640625 200.542969 81.253906 198.875 80.476562 C 197.207031 79.703125 197.445312 77.832031 199.410156 76.296875 C 201.375 74.761719 204.316406 74.148438 205.984375 74.925781 Z M 205.984375 74.925781 "/>
<path style=" stroke:none;fill-rule:nonzero;fill:rgb(90.196078%,90.196078%,90.196078%);fill-opacity:0.627451;" d="M 269.53125 61.203125 C 269.328125 62.636719 266.222656 63.648438 262.589844 63.460938 C 258.960938 63.273438 256.183594 61.957031 256.390625 60.519531 C 256.59375 59.085938 259.703125 58.074219 263.332031 58.265625 C 266.964844 58.453125 269.738281 59.769531 269.53125 61.203125 Z M 269.53125 61.203125 "/>
<path style=" stroke:none;fill-rule:nonzero;fill:rgb(90.196078%,90.196078%,90.196078%);fill-opacity:0.627451;" d="M 278.207031 70.386719 C 279.875 70.769531 280.4375 72.324219 279.460938 73.859375 C 278.488281 75.390625 276.34375 76.320312 274.675781 75.933594 C 273.007812 75.550781 272.449219 73.996094 273.421875 72.460938 C 274.398438 70.929688 276.539062 70 278.207031 70.386719 Z M 278.207031 70.386719 "/>
<path style=" stroke:none;fill-rule:nonzero;fill:rgb(90.196078%,90.196078%,90.196078%);fill-opacity:0.627451;" d="M 262.300781 52.519531 C 261.113281 53.667969 257.792969 53.714844 254.882812 52.625 C 251.972656 51.53125 250.578125 49.714844 251.769531 48.566406 C 252.953125 47.414062 256.277344 47.367188 259.1875 48.460938 C 262.09375 49.550781 263.488281 51.371094 262.300781 52.519531 Z M 262.300781 52.519531 "/>
<path style=" stroke:none;fill-rule:nonzero;fill:rgb(90.196078%,90.196078%,90.196078%);fill-opacity:0.627451;" d="M 292.613281 61.792969 C 293.964844 62.53125 293.539062 64.136719 291.667969 65.378906 C 289.792969 66.617188 287.183594 67.023438 285.832031 66.28125 C 284.484375 65.542969 284.90625 63.9375 286.78125 62.695312 C 288.652344 61.457031 291.265625 61.050781 292.613281 61.792969 Z M 292.613281 61.792969 "/>
<path style=" stroke:none;fill-rule:nonzero;fill:rgb(90.196078%,90.196078%,90.196078%);fill-opacity:0.627451;" d="M 363.679688 58.21875 C 360.535156 59.035156 356.320312 57.347656 354.261719 54.457031 C 352.207031 51.566406 353.089844 48.5625 356.238281 47.753906 C 359.382812 46.9375 363.597656 48.625 365.65625 51.515625 C 367.710938 54.40625 366.824219 57.410156 363.679688 58.21875 Z M 363.679688 58.21875 "/>
<path style=" stroke:none;fill-rule:nonzero;fill:rgb(90.196078%,90.196078%,90.196078%);fill-opacity:0.627451;" d="M 396.359375 70.105469 C 397.679688 72.253906 394.339844 74.976562 388.902344 76.1875 C 383.464844 77.398438 377.988281 76.640625 376.671875 74.488281 C 375.351562 72.339844 378.691406 69.617188 384.128906 68.40625 C 389.566406 67.195312 395.042969 67.953125 396.359375 70.105469 Z M 396.359375 70.105469 "/>
<path style=" stroke:none;fill-rule:nonzero;fill:rgb(90.196078%,90.196078%,90.196078%);fill-opacity:0.627451;" d="M 380.140625 91.648438 C 376.917969 92.699219 372.144531 91.152344 369.480469 88.191406 C 366.816406 85.226562 367.273438 81.972656 370.496094 80.921875 C 373.71875 79.867188 378.492188 81.414062 381.15625 84.378906 C 383.816406 87.339844 383.363281 90.597656 380.140625 91.648438 Z M 380.140625 91.648438 "/>
<path style=" stroke:none;fill-rule:nonzero;fill:rgb(90.196078%,90.196078%,90.196078%);fill-opacity:0.627451;" d="M 427.1875 70.84375 C 428.621094 72.34375 426.703125 74.628906 422.902344 75.945312 C 419.101562 77.257812 414.863281 77.105469 413.433594 75.605469 C 412.003906 74.105469 413.921875 71.820312 417.722656 70.507812 C 421.519531 69.191406 425.761719 69.34375 427.1875 70.84375 Z M 427.1875 70.84375 "/>
<path style=" stroke:none;fill-rule:nonzero;fill:rgb(90.196078%,90.196078%,90.196078%);fill-opacity:0.627451;" d="M 439.539062 82.03125 C 442.425781 82.941406 442.894531 85.832031 440.589844 88.480469 C 438.285156 91.132812 434.074219 92.542969 431.191406 91.632812 C 428.308594 90.722656 427.835938 87.832031 430.144531 85.183594 C 432.449219 82.53125 436.65625 81.121094 439.539062 82.03125 Z M 439.539062 82.03125 "/>
<path style=" stroke:none;fill-rule:nonzero;fill:rgb(90.196078%,90.196078%,90.196078%);fill-opacity:0.627451;" d="M 490.65625 84.425781 C 488.855469 85.523438 485.144531 85.070312 482.371094 83.414062 C 479.59375 81.757812 478.804688 79.527344 480.605469 78.433594 C 482.40625 77.335938 486.117188 77.785156 488.890625 79.441406 C 491.667969 81.097656 492.457031 83.328125 490.65625 84.425781 Z M 490.65625 84.425781 "/>
<path style=" stroke:none;fill-rule:nonzero;fill:rgb(90.196078%,90.196078%,90.196078%);fill-opacity:0.627451;" d="M 462.484375 87.996094 C 464.554688 88.625 464.941406 90.675781 463.351562 92.578125 C 461.761719 94.480469 458.792969 95.511719 456.726562 94.882812 C 454.65625 94.253906 454.269531 92.203125 455.859375 90.300781 C 457.449219 88.398438 460.417969 87.367188 462.484375 87.996094 Z M 462.484375 87.996094 "/>
<path style=" stroke:none;fill-rule:nonzero;fill:rgb(90.196078%,90.196078%,90.196078%);fill-opacity:0.627451;" d="M 526.914062 89.625 C 528.917969 91.292969 527.121094 94.140625 522.898438 95.980469 C 518.675781 97.824219 513.628906 97.960938 511.628906 96.292969 C 509.621094 94.625 511.417969 91.78125 515.644531 89.9375 C 519.867188 88.097656 524.914062 87.957031 526.914062 89.625 Z M 526.914062 89.625 "/>
<path style=" stroke:none;fill-rule:nonzero;fill:rgb(90.196078%,90.196078%,90.196078%);fill-opacity:0.627451;" d="M 504.511719 88.859375 C 507.214844 89.628906 507.820312 92.265625 505.871094 94.746094 C 503.917969 97.226562 500.148438 98.613281 497.449219 97.84375 C 494.75 97.074219 494.140625 94.4375 496.09375 91.953125 C 498.042969 89.472656 501.816406 88.085938 504.511719 88.859375 Z M 504.511719 88.859375 "/>
<path style=" stroke:none;fill-rule:nonzero;fill:rgb(90.196078%,90.196078%,90.196078%);fill-opacity:0.627451;" d="M 537.5 60.863281 C 539.6875 61.351562 540.453125 63.378906 539.214844 65.386719 C 537.976562 67.398438 535.199219 68.628906 533.011719 68.136719 C 530.828125 67.648438 530.058594 65.625 531.300781 63.613281 C 532.539062 61.605469 535.316406 60.375 537.5 60.863281 Z M 537.5 60.863281 "/>
<path style=" stroke:none;fill-rule:nonzero;fill:rgb(90.196078%,90.196078%,90.196078%);fill-opacity:0.627451;" d="M 566.253906 77.820312 C 567.453125 78.9375 566.125 80.738281 563.289062 81.835938 C 560.457031 82.9375 557.1875 82.917969 555.996094 81.796875 C 554.796875 80.679688 556.125 78.878906 558.957031 77.78125 C 561.792969 76.679688 565.058594 76.699219 566.253906 77.820312 Z M 566.253906 77.820312 "/>
<path style=" stroke:none;fill-rule:nonzero;fill:rgb(90.196078%,90.196078%,90.196078%);fill-opacity:0.627451;" d="M 615.515625 63.140625 C 615.476562 64.628906 612.386719 65.808594 608.617188 65.769531 C 604.847656 65.730469 601.824219 64.492188 601.867188 63.003906 C 601.910156 61.511719 605 60.335938 608.769531 60.375 C 612.539062 60.414062 615.5625 61.652344 615.515625 63.140625 Z M 615.515625 63.140625 "/>
<path style=" stroke:none;fill-rule:nonzero;fill:rgb(90.196078%,90.196078%,90.196078%);fill-opacity:0.627451;" d="M 648.171875 85.027344 C 645.042969 86.449219 639.59375 85.261719 636.007812 82.382812 C 632.417969 79.503906 632.050781 76.019531 635.1875 74.601562 C 638.316406 73.183594 643.765625 74.367188 647.351562 77.25 C 650.941406 80.128906 651.308594 83.613281 648.171875 85.027344 Z M 648.171875 85.027344 "/>
<path style=" stroke:none;fill-rule:nonzero;fill:rgb(90.196078%,90.196078%,90.196078%);fill-opacity:0.627451;" d="M 497.550781 80.527344 C 495.621094 80.949219 493.1875 79.855469 492.121094 78.078125 C 491.050781 76.304688 491.75 74.523438 493.683594 74.101562 C 495.613281 73.679688 498.042969 74.777344 499.113281 76.550781 C 500.179688 78.324219 499.480469 80.105469 497.550781 80.527344 Z M 497.550781 80.527344 "/>
<path style=" stroke:none;fill-rule:nonzero;fill:rgb(90.196078%,90.196078%,90.196078%);fill-opacity:0.627451;" d="M 549.367188 52.527344 C 551.105469 54.367188 548.738281 57.152344 544.082031 58.746094 C 539.429688 60.34375 534.246094 60.144531 532.515625 58.300781 C 530.777344 56.464844 533.144531 53.679688 537.800781 52.085938 C 542.457031 50.488281 547.636719 50.6875 549.367188 52.527344 Z M 549.367188 52.527344 "/>
<path style=" stroke:none;fill-rule:nonzero;fill:rgb(90.196078%,90.196078%,90.196078%);fill-opacity:0.627451;" d="M 526.222656 57.738281 C 529.90625 58.328125 531.679688 61.554688 530.179688 64.941406 C 528.679688 68.324219 524.480469 70.589844 520.796875 69.996094 C 517.113281 69.40625 515.339844 66.183594 516.839844 62.796875 C 518.339844 59.410156 522.539062 57.144531 526.222656 57.738281 Z M 526.222656 57.738281 "/>
<path style=" stroke:none;fill-rule:nonzero;fill:rgb(90.196078%,90.196078%,90.196078%);fill-opacity:0.627451;" d="M 568.675781 76.296875 C 566.355469 76.996094 563.035156 75.835938 561.261719 73.703125 C 559.488281 71.570312 559.933594 69.269531 562.253906 68.570312 C 564.574219 67.867188 567.894531 69.03125 569.667969 71.164062 C 571.445312 73.296875 571 75.59375 568.675781 76.296875 Z M 568.675781 76.296875 "/>
<path style=" stroke:none;fill-rule:nonzero;fill:rgb(90.196078%,90.196078%,90.196078%);fill-opacity:0.627451;" d="M 587.917969 54.863281 C 590.007812 55.398438 590.601562 57.386719 589.242188 59.308594 C 587.886719 61.226562 585.089844 62.347656 583.003906 61.8125 C 580.914062 61.273438 580.320312 59.285156 581.679688 57.363281 C 583.039062 55.445312 585.832031 54.324219 587.917969 54.863281 Z M 587.917969 54.863281 "/>
<path style=" stroke:none;fill-rule:nonzero;fill:rgb(90.196078%,90.196078%,90.196078%);fill-opacity:0.627451;" d="M 581.714844 48.929688 C 579.972656 50.441406 575.453125 50.371094 571.621094 48.769531 C 567.792969 47.164062 566.101562 44.640625 567.84375 43.125 C 569.585938 41.613281 574.105469 41.683594 577.9375 43.285156 C 581.765625 44.890625 583.457031 47.414062 581.714844 48.929688 Z M 581.714844 48.929688 "/>
<path style=" stroke:none;fill-rule:nonzero;fill:rgb(90.196078%,90.196078%,90.196078%);fill-opacity:0.627451;" d="M 660.566406 71.675781 C 658.542969 72.957031 654.273438 72.488281 651.03125 70.628906 C 647.785156 68.769531 646.800781 66.21875 648.824219 64.941406 C 650.847656 63.65625 655.117188 64.125 658.359375 65.988281 C 661.605469 67.847656 662.589844 70.394531 660.566406 71.675781 Z M 660.566406 71.675781 "/>
<path style=" stroke:none;fill-rule:nonzero;fill:rgb(90.196078%,90.196078%,90.196078%);fill-opacity:0.627451;" d="M 663.449219 76.363281 C 663.171875 77.292969 661.042969 77.835938 658.695312 77.578125 C 656.347656 77.324219 654.671875 76.363281 654.949219 75.433594 C 655.230469 74.507812 657.359375 73.964844 659.707031 74.21875 C 662.054688 74.476562 663.730469 75.4375 663.449219 76.363281 Z M 663.449219 76.363281 "/>
<path style=" stroke:none;fill-rule:nonzero;fill:rgb(90.196078%,90.196078%,90.196078%);fill-opacity:0.627451;" d="M 691.652344 62.289062 C 691.261719 63.152344 689.175781 63.558594 686.992188 63.199219 C 684.808594 62.839844 683.355469 61.847656 683.75 60.984375 C 684.136719 60.121094 686.226562 59.714844 688.410156 60.074219 C 690.59375 60.433594 692.046875 61.425781 691.652344 62.289062 Z M 691.652344 62.289062 "/>
<path style=" stroke:none;fill-rule:nonzero;fill:rgb(90.196078%,90.196078%,90.196078%);fill-opacity:0.627451;" d="M 309.851562 73.828125 C 308.671875 74.910156 305.5 74.90625 302.765625 73.820312 C 300.03125 72.730469 298.773438 70.976562 299.957031 69.894531 C 301.136719 68.816406 304.308594 68.820312 307.042969 69.90625 C 309.777344 70.992188 311.035156 72.75 309.851562 73.828125 Z M 309.851562 73.828125 "/>
<path style=" stroke:none;fill-rule:nonzero;fill:rgb(90.196078%,90.196078%,90.196078%);fill-opacity:0.627451;" d="M 322.316406 83.621094 C 323.164062 84.242188 322.574219 85.375 321 86.152344 C 319.429688 86.929688 317.46875 87.054688 316.625 86.433594 C 315.777344 85.8125 316.367188 84.679688 317.9375 83.902344 C 319.511719 83.125 321.472656 83 322.316406 83.621094 Z M 322.316406 83.621094 "/>
<path style=" stroke:none;fill-rule:nonzero;fill:rgb(90.196078%,90.196078%,90.196078%);fill-opacity:0.627451;" d="M 303.371094 64.097656 C 301.113281 64.589844 298.269531 63.308594 297.019531 61.234375 C 295.773438 59.160156 296.589844 57.078125 298.847656 56.582031 C 301.105469 56.089844 303.949219 57.371094 305.195312 59.445312 C 306.445312 61.519531 305.628906 63.601562 303.371094 64.097656 Z M 303.371094 64.097656 "/>
<path style=" stroke:none;fill-rule:nonzero;fill:rgb(90.196078%,90.196078%,90.196078%);fill-opacity:0.627451;" d="M 323.863281 67.070312 C 324.425781 67.816406 323.34375 68.839844 321.453125 69.355469 C 319.5625 69.867188 317.578125 69.679688 317.019531 68.929688 C 316.460938 68.183594 317.539062 67.164062 319.429688 66.648438 C 321.320312 66.132812 323.308594 66.324219 323.863281 67.070312 Z M 323.863281 67.070312 "/>
<path style=" stroke:none;fill-rule:nonzero;fill:rgb(90.196078%,90.196078%,90.196078%);fill-opacity:0.627451;" d="M 290.851562 73.28125 C 293.253906 74.261719 293.183594 76.847656 290.695312 79.054688 C 288.210938 81.261719 284.246094 82.253906 281.847656 81.269531 C 279.445312 80.289062 279.515625 77.703125 282.003906 75.496094 C 284.488281 73.289062 288.453125 72.296875 290.851562 73.28125 Z M 290.851562 73.28125 "/>
<path style=" stroke:none;fill-rule:nonzero;fill:rgb(90.196078%,90.196078%,90.196078%);fill-opacity:0.627451;" d="M 297.304688 83.167969 C 299.082031 85.027344 296.710938 87.855469 292.007812 89.488281 C 287.304688 91.121094 282.054688 90.9375 280.28125 89.078125 C 278.503906 87.222656 280.875 84.390625 285.578125 82.757812 C 290.28125 81.128906 295.53125 81.3125 297.304688 83.167969 Z M 297.304688 83.167969 "/>
<path style=" stroke:none;fill-rule:nonzero;fill:rgb(90.196078%,90.196078%,90.196078%);fill-opacity:0.627451;" d="M 327.167969 54.253906 C 330.734375 55.195312 331.695312 58.613281 329.316406 61.890625 C 326.933594 65.167969 322.117188 67.0625 318.550781 66.117188 C 314.984375 65.179688 314.023438 61.761719 316.402344 58.484375 C 318.785156 55.207031 323.601562 53.3125 327.167969 54.253906 Z M 327.167969 54.253906 "/>
<path style=" stroke:none;fill-rule:nonzero;fill:rgb(90.196078%,90.196078%,90.196078%);fill-opacity:0.627451;" d="M 347.625 62.644531 C 349.441406 64.304688 347.5 67 343.296875 68.667969 C 339.09375 70.332031 334.21875 70.335938 332.40625 68.671875 C 330.59375 67.011719 332.53125 64.316406 336.734375 62.648438 C 340.9375 60.984375 345.816406 60.980469 347.625 62.644531 Z M 347.625 62.644531 "/>
<path style=" stroke:none;fill-rule:nonzero;fill:rgb(90.196078%,90.196078%,90.196078%);fill-opacity:0.627451;" d="M 628.582031 47.054688 C 630.394531 48.773438 628.335938 51.515625 623.980469 53.179688 C 619.628906 54.84375 614.632812 54.796875 612.824219 53.078125 C 611.011719 51.355469 613.074219 48.613281 617.425781 46.949219 C 621.78125 45.285156 626.777344 45.332031 628.582031 47.054688 Z M 628.582031 47.054688 "/>
<path style=" stroke:none;fill-rule:nonzero;fill:rgb(90.196078%,90.196078%,90.196078%);fill-opacity:0.627451;" d="M 600.078125 51.402344 C 601.875 52.191406 601.707031 54.167969 599.703125 55.816406 C 597.703125 57.464844 594.628906 58.160156 592.835938 57.367188 C 591.042969 56.578125 591.210938 54.601562 593.210938 52.953125 C 595.214844 51.304688 598.289062 50.609375 600.078125 51.402344 Z M 600.078125 51.402344 "/>
<path style=" stroke:none;fill-rule:nonzero;fill:rgb(90.196078%,90.196078%,90.196078%);fill-opacity:0.627451;" d="M 621.640625 56.328125 C 621.324219 57.046875 619.59375 57.390625 617.773438 57.101562 C 615.957031 56.808594 614.742188 55.992188 615.058594 55.273438 C 615.375 54.554688 617.105469 54.207031 618.921875 54.5 C 620.742188 54.789062 621.957031 55.609375 621.640625 56.328125 Z M 621.640625 56.328125 "/>
<path style=" stroke:none;fill-rule:nonzero;fill:rgb(90.196078%,90.196078%,90.196078%);fill-opacity:0.627451;" d="M 702.132812 55.917969 C 702.21875 58.066406 697.878906 59.867188 692.441406 59.945312 C 687.003906 60.019531 682.527344 58.339844 682.449219 56.191406 C 682.363281 54.042969 686.703125 52.238281 692.144531 52.164062 C 697.582031 52.085938 702.054688 53.769531 702.132812 55.917969 Z M 702.132812 55.917969 "/>
<path style=" stroke:none;fill-rule:nonzero;fill:rgb(90.196078%,90.196078%,90.196078%);fill-opacity:0.627451;" d="M 692.542969 41.050781 C 695.757812 42.238281 695.917969 45.597656 692.902344 48.554688 C 689.890625 51.507812 684.839844 52.933594 681.628906 51.742188 C 678.414062 50.550781 678.25 47.191406 681.265625 44.238281 C 684.28125 41.285156 689.332031 39.855469 692.542969 41.050781 Z M 692.542969 41.050781 "/>
<path style=" stroke:none;fill-rule:nonzero;fill:rgb(90.196078%,90.196078%,90.196078%);fill-opacity:0.627451;" d="M 703.207031 40.402344 C 699.472656 41.339844 694.527344 39.3125 692.160156 35.878906 C 689.796875 32.445312 690.90625 28.902344 694.644531 27.972656 C 698.378906 27.035156 703.324219 29.058594 705.691406 32.492188 C 708.054688 35.925781 706.945312 39.46875 703.207031 40.402344 Z M 703.207031 40.402344 "/>
<path style=" stroke:none;fill-rule:nonzero;fill:rgb(90.196078%,90.196078%,90.196078%);fill-opacity:0.627451;" d="M 272.3125 68.039062 C 273.878906 69.355469 272.441406 71.59375 269.101562 73.03125 C 265.765625 74.46875 261.789062 74.5625 260.226562 73.242188 C 258.660156 71.925781 260.097656 69.691406 263.4375 68.25 C 266.777344 66.8125 270.75 66.71875 272.3125 68.039062 Z M 272.3125 68.039062 "/>
<path style=" stroke:none;fill-rule:nonzero;fill:rgb(90.196078%,90.196078%,90.196078%);fill-opacity:0.627451;" d="M 642.492188 43.5625 C 645.382812 44.734375 645.320312 47.839844 642.351562 50.496094 C 639.386719 53.152344 634.636719 54.355469 631.75 53.179688 C 628.855469 52.007812 628.917969 48.90625 631.886719 46.25 C 634.855469 43.59375 639.601562 42.390625 642.492188 43.5625 Z M 642.492188 43.5625 "/>
<path style=" stroke:none;fill-rule:nonzero;fill:rgb(90.196078%,90.196078%,90.196078%);fill-opacity:0.627451;" d="M 709.832031 43.265625 C 710.871094 44.851562 708.460938 46.910156 704.445312 47.863281 C 700.429688 48.816406 696.335938 48.300781 695.300781 46.714844 C 694.261719 45.128906 696.675781 43.070312 700.6875 42.117188 C 704.703125 41.164062 708.800781 41.679688 709.832031 43.265625 Z M 709.832031 43.265625 "/>
<path style=" stroke:none;fill-rule:nonzero;fill:rgb(90.196078%,90.196078%,90.196078%);fill-opacity:0.627451;" d="M 666.21875 56.527344 C 664.472656 57.089844 661.90625 56.238281 660.492188 54.628906 C 659.074219 53.019531 659.347656 51.261719 661.097656 50.707031 C 662.847656 50.144531 665.414062 50.996094 666.828125 52.605469 C 668.242188 54.210938 667.96875 55.96875 666.21875 56.527344 Z M 666.21875 56.527344 "/>
<path style=" stroke:none;fill-rule:nonzero;fill:rgb(90.196078%,90.196078%,90.196078%);fill-opacity:0.627451;" d="M 610.691406 48.789062 C 612.75 49.648438 612.648438 51.878906 610.46875 53.769531 C 608.289062 55.660156 604.851562 56.492188 602.796875 55.628906 C 600.742188 54.769531 600.839844 52.539062 603.023438 50.648438 C 605.203125 48.757812 608.636719 47.925781 610.691406 48.789062 Z M 610.691406 48.789062 "/>
<path style=" stroke:none;fill-rule:nonzero;fill:rgb(90.196078%,90.196078%,90.196078%);fill-opacity:0.627451;" d="M 589.226562 47.230469 C 591.449219 47.714844 592.253906 49.765625 591.019531 51.808594 C 589.789062 53.851562 586.988281 55.109375 584.769531 54.625 C 582.546875 54.136719 581.742188 52.085938 582.972656 50.046875 C 584.207031 48.003906 587.003906 46.742188 589.226562 47.230469 Z M 589.226562 47.230469 "/>
<path style=" stroke:none;fill-rule:nonzero;fill:rgb(90.196078%,90.196078%,90.196078%);fill-opacity:0.627451;" d="M 417.535156 49.078125 C 418.453125 49.632812 418.054688 50.773438 416.640625 51.617188 C 415.226562 52.464844 413.335938 52.695312 412.414062 52.136719 C 411.496094 51.578125 411.894531 50.441406 413.308594 49.59375 C 414.722656 48.75 416.613281 48.515625 417.535156 49.078125 Z M 417.535156 49.078125 "/>
<path style=" stroke:none;fill-rule:nonzero;fill:rgb(90.196078%,90.196078%,90.196078%);fill-opacity:0.627451;" d="M 371.355469 46.636719 C 369.398438 48.074219 364.859375 47.78125 361.222656 45.980469 C 357.582031 44.179688 356.21875 41.554688 358.179688 40.117188 C 360.136719 38.679688 364.675781 38.972656 368.316406 40.773438 C 371.953125 42.574219 373.316406 45.199219 371.355469 46.636719 Z M 371.355469 46.636719 "/>
<path style=" stroke:none;fill-rule:nonzero;fill:rgb(90.196078%,90.196078%,90.196078%);fill-opacity:0.627451;" d="M 496.683594 46.507812 C 497.011719 48.644531 492.882812 50.621094 487.46875 50.917969 C 482.058594 51.214844 477.40625 49.71875 477.089844 47.582031 C 476.761719 45.441406 480.890625 43.46875 486.300781 43.171875 C 491.714844 42.875 496.363281 44.367188 496.683594 46.507812 Z M 496.683594 46.507812 "/>
<path style=" stroke:none;fill-rule:nonzero;fill:rgb(90.196078%,90.196078%,90.196078%);fill-opacity:0.627451;" d="M 310.484375 56.363281 C 308.121094 56.894531 305.113281 55.5625 303.769531 53.390625 C 302.425781 51.214844 303.253906 49.023438 305.621094 48.496094 C 307.984375 47.960938 310.988281 49.292969 312.332031 51.46875 C 313.675781 53.640625 312.847656 55.832031 310.484375 56.363281 Z M 310.484375 56.363281 "/>
<path style=" stroke:none;fill-rule:nonzero;fill:rgb(90.196078%,90.196078%,90.196078%);fill-opacity:0.627451;" d="M 423.871094 42.847656 C 423.621094 44.023438 421 44.789062 418.023438 44.554688 C 415.046875 44.320312 412.839844 43.175781 413.097656 42 C 413.347656 40.824219 415.96875 40.0625 418.945312 40.296875 C 421.921875 40.527344 424.128906 41.671875 423.871094 42.847656 Z M 423.871094 42.847656 "/>
<path style=" stroke:none;fill-rule:nonzero;fill:rgb(90.196078%,90.196078%,90.196078%);fill-opacity:0.627451;" d="M 442.121094 51.632812 C 444.507812 53.65625 442.28125 57.074219 437.152344 59.265625 C 432.023438 61.457031 425.933594 61.589844 423.554688 59.5625 C 421.167969 57.539062 423.390625 54.117188 428.519531 51.929688 C 433.648438 49.738281 439.738281 49.605469 442.121094 51.632812 Z M 442.121094 51.632812 "/>
<path style=" stroke:none;fill-rule:nonzero;fill:rgb(90.196078%,90.196078%,90.196078%);fill-opacity:0.627451;" d="M 324.808594 40.527344 C 326.84375 42.144531 325.167969 44.972656 321.066406 46.835938 C 316.96875 48.703125 312 48.902344 309.972656 47.285156 C 307.941406 45.664062 309.613281 42.839844 313.714844 40.972656 C 317.8125 39.105469 322.78125 38.90625 324.808594 40.527344 Z M 324.808594 40.527344 "/>
<path style=" stroke:none;fill-rule:nonzero;fill:rgb(90.196078%,90.196078%,90.196078%);fill-opacity:0.627451;" d="M 435.640625 50.007812 C 431.878906 50.859375 427.078125 48.746094 424.925781 45.285156 C 422.773438 41.824219 424.082031 38.328125 427.847656 37.480469 C 431.609375 36.625 436.40625 38.742188 438.5625 42.203125 C 440.714844 45.664062 439.40625 49.160156 435.640625 50.007812 Z M 435.640625 50.007812 "/>
<path style=" stroke:none;fill-rule:nonzero;fill:rgb(90.196078%,90.196078%,90.196078%);fill-opacity:0.627451;" d="M 373.402344 76.851562 C 370.398438 77.609375 366.414062 75.984375 364.5 73.222656 C 362.589844 70.460938 363.476562 67.609375 366.480469 66.855469 C 369.480469 66.097656 373.46875 67.726562 375.378906 70.484375 C 377.289062 73.246094 376.40625 76.097656 373.402344 76.851562 Z M 373.402344 76.851562 "/>
<path style=" stroke:none;fill-rule:nonzero;fill:rgb(90.196078%,90.196078%,90.196078%);fill-opacity:0.627451;" d="M 383.980469 49.566406 C 386.386719 50.949219 385.492188 53.863281 381.984375 56.070312 C 378.476562 58.28125 373.6875 58.945312 371.289062 57.558594 C 368.882812 56.175781 369.777344 53.261719 373.285156 51.054688 C 376.792969 48.84375 381.582031 48.179688 383.980469 49.566406 Z M 383.980469 49.566406 "/>
<path style=" stroke:none;fill-rule:nonzero;fill:rgb(90.196078%,90.196078%,90.196078%);fill-opacity:0.627451;" d="M 372.925781 64.457031 C 371.78125 66.476562 366.707031 67.257812 361.597656 66.203125 C 356.488281 65.148438 353.28125 62.65625 354.429688 60.636719 C 355.578125 58.617188 360.648438 57.835938 365.757812 58.890625 C 370.867188 59.949219 374.078125 62.441406 372.925781 64.457031 Z M 372.925781 64.457031 "/>
<path style=" stroke:none;fill-rule:nonzero;fill:rgb(90.196078%,90.196078%,90.196078%);fill-opacity:0.627451;" d="M 337.207031 40.855469 C 338.792969 41.128906 339.519531 42.53125 338.832031 43.992188 C 338.140625 45.449219 336.292969 46.410156 334.707031 46.136719 C 333.121094 45.863281 332.394531 44.460938 333.085938 43.003906 C 333.777344 41.542969 335.621094 40.582031 337.207031 40.855469 Z M 337.207031 40.855469 "/>
<path style=" stroke:none;fill-rule:nonzero;fill:rgb(90.196078%,90.196078%,90.196078%);fill-opacity:0.627451;" d="M 280.863281 56.316406 C 279.324219 57.054688 276.566406 56.507812 274.695312 55.09375 C 272.828125 53.679688 272.5625 51.933594 274.101562 51.195312 C 275.640625 50.457031 278.402344 51.007812 280.269531 52.421875 C 282.136719 53.835938 282.402344 55.578125 280.863281 56.316406 Z M 280.863281 56.316406 "/>
<path style=" stroke:none;fill-rule:nonzero;fill:rgb(90.196078%,90.196078%,90.196078%);fill-opacity:0.627451;" d="M 290.296875 72.25 C 288.808594 73.304688 285.441406 73.050781 282.773438 71.6875 C 280.105469 70.320312 279.152344 68.355469 280.640625 67.304688 C 282.125 66.25 285.492188 66.5 288.160156 67.867188 C 290.828125 69.234375 291.785156 71.199219 290.296875 72.25 Z M 290.296875 72.25 "/>
<path style=" stroke:none;fill-rule:nonzero;fill:rgb(90.196078%,90.196078%,90.196078%);fill-opacity:0.627451;" d="M 257.589844 65.996094 C 260.1875 66.976562 260.277344 69.707031 257.789062 72.09375 C 255.300781 74.480469 251.179688 75.617188 248.585938 74.632812 C 245.988281 73.648438 245.898438 70.917969 248.386719 68.53125 C 250.875 66.148438 254.996094 65.011719 257.589844 65.996094 Z M 257.589844 65.996094 "/>
<path style=" stroke:none;fill-rule:nonzero;fill:rgb(90.196078%,90.196078%,90.196078%);fill-opacity:0.627451;" d="M 237.253906 54.335938 C 235.5625 54.640625 233.570312 53.625 232.800781 52.070312 C 232.03125 50.515625 232.78125 49.011719 234.472656 48.707031 C 236.164062 48.40625 238.15625 49.417969 238.925781 50.972656 C 239.691406 52.527344 238.945312 54.03125 237.253906 54.335938 Z M 237.253906 54.335938 "/>
<path style=" stroke:none;fill-rule:nonzero;fill:rgb(90.196078%,90.196078%,90.196078%);fill-opacity:0.627451;" d="M 258.433594 39.945312 C 255.988281 40.964844 251.914062 39.964844 249.339844 37.710938 C 246.765625 35.460938 246.664062 32.8125 249.117188 31.796875 C 251.5625 30.777344 255.636719 31.777344 258.210938 34.027344 C 260.785156 36.28125 260.886719 38.929688 258.433594 39.945312 Z M 258.433594 39.945312 "/>
<path style=" stroke:none;fill-rule:nonzero;fill:rgb(90.196078%,90.196078%,90.196078%);fill-opacity:0.627451;" d="M 211.214844 47.90625 C 210.417969 48.492188 208.570312 48.375 207.089844 47.640625 C 205.609375 46.910156 205.054688 45.84375 205.851562 45.257812 C 206.648438 44.671875 208.492188 44.789062 209.972656 45.523438 C 211.457031 46.253906 212.011719 47.320312 211.214844 47.90625 Z M 211.214844 47.90625 "/>
<path style=" stroke:none;fill-rule:nonzero;fill:rgb(90.196078%,90.196078%,90.196078%);fill-opacity:0.627451;" d="M 222.109375 39.765625 C 222.617188 42.085938 218.269531 44.339844 212.402344 44.804688 C 206.539062 45.269531 201.375 43.765625 200.871094 41.445312 C 200.363281 39.128906 204.710938 36.871094 210.578125 36.410156 C 216.445312 35.945312 221.609375 37.449219 222.109375 39.765625 Z M 222.109375 39.765625 "/>
<path style=" stroke:none;fill-rule:nonzero;fill:rgb(90.196078%,90.196078%,90.196078%);fill-opacity:0.627451;" d="M 185.84375 33.71875 C 186.53125 35.980469 182.445312 38.324219 176.71875 38.957031 C 170.992188 39.585938 165.796875 38.261719 165.117188 35.996094 C 164.429688 33.734375 168.515625 31.390625 174.238281 30.761719 C 179.964844 30.132812 185.160156 31.457031 185.84375 33.71875 Z M 185.84375 33.71875 "/>
<path style=" stroke:none;fill-rule:nonzero;fill:rgb(90.196078%,90.196078%,90.196078%);fill-opacity:0.627451;" d="M 146.554688 47.820312 C 144.058594 48.792969 140.046875 47.71875 137.589844 45.425781 C 135.132812 43.132812 135.167969 40.484375 137.664062 39.515625 C 140.15625 38.542969 144.171875 39.617188 146.628906 41.910156 C 149.082031 44.207031 149.050781 46.851562 146.554688 47.820312 Z M 146.554688 47.820312 "/>
<path style=" stroke:none;fill-rule:nonzero;fill:rgb(90.196078%,90.196078%,90.196078%);fill-opacity:0.627451;" d="M 142.023438 73.605469 C 142.453125 75.023438 139.894531 76.488281 136.308594 76.882812 C 132.722656 77.277344 129.472656 76.445312 129.046875 75.027344 C 128.617188 73.613281 131.175781 72.144531 134.761719 71.753906 C 138.347656 71.359375 141.601562 72.191406 142.023438 73.605469 Z M 142.023438 73.605469 "/>
<path style=" stroke:none;fill-rule:nonzero;fill:rgb(90.196078%,90.196078%,90.196078%);fill-opacity:0.627451;" d="M 130.136719 70.328125 C 127.859375 72.230469 122.113281 72.074219 117.304688 69.976562 C 112.492188 67.878906 110.445312 64.640625 112.726562 62.742188 C 115.003906 60.839844 120.753906 60.996094 125.5625 63.09375 C 130.371094 65.191406 132.421875 68.429688 130.136719 70.328125 Z M 130.136719 70.328125 "/>
<path style=" stroke:none;fill-rule:nonzero;fill:rgb(90.196078%,90.196078%,90.196078%);fill-opacity:0.627451;" d="M 63.640625 60.21875 C 63.636719 61.402344 61.203125 62.359375 58.207031 62.351562 C 55.210938 62.347656 52.785156 61.382812 52.792969 60.199219 C 52.796875 59.015625 55.230469 58.058594 58.226562 58.0625 C 61.222656 58.070312 63.648438 59.035156 63.640625 60.21875 Z M 63.640625 60.21875 "/>
<path style=" stroke:none;fill-rule:nonzero;fill:rgb(90.196078%,90.196078%,90.196078%);fill-opacity:0.627451;" d="M 120.710938 55.765625 C 122.382812 56.132812 122.984375 57.679688 122.050781 59.21875 C 121.117188 60.757812 119 61.703125 117.328125 61.335938 C 115.65625 60.964844 115.054688 59.421875 115.988281 57.882812 C 116.925781 56.34375 119.039062 55.394531 120.710938 55.765625 Z M 120.710938 55.765625 "/>
<path style=" stroke:none;fill-rule:nonzero;fill:rgb(90.196078%,90.196078%,90.196078%);fill-opacity:0.627451;" d="M 87.707031 43.855469 C 90.929688 45.304688 90.5625 48.886719 86.882812 51.847656 C 83.203125 54.808594 77.605469 56.03125 74.386719 54.578125 C 71.164062 53.125 71.53125 49.542969 75.210938 46.582031 C 78.890625 43.621094 84.484375 42.398438 87.707031 43.855469 Z M 87.707031 43.855469 "/>
<path style=" stroke:none;fill-rule:nonzero;fill:rgb(90.196078%,90.196078%,90.196078%);fill-opacity:0.627451;" d="M 84.769531 64.347656 C 85.636719 64.855469 85.292969 65.917969 84 66.714844 C 82.707031 67.511719 80.957031 67.742188 80.089844 67.230469 C 79.222656 66.722656 79.566406 65.660156 80.859375 64.863281 C 82.152344 64.066406 83.902344 63.835938 84.769531 64.347656 Z M 84.769531 64.347656 "/>
</g>
</svg>
