<svg xmlns="http://www.w3.org/2000/svg" width="63.808" height="57.776" viewBox="0 0 63.808 57.776">
  <g id="アートワーク_40" data-name="アートワーク 40" transform="translate(46.5 42.093)">
    <path id="Path_38300" data-name="Path 38300" d="M63.235,10.055,55.19,42.083A1.521,1.521,0,0,1,53.7,43.2H23.462l.67,2.681a5.746,5.746,0,0,1,5.288,4.17l14.746.075a5.721,5.721,0,0,1,11.248,1.49,5.675,5.675,0,0,1-5.735,5.66,5.607,5.607,0,0,1-5.437-4.1l-14.822-.074a5.719,5.719,0,1,1-8.269-6.479L18.4,35.23,12.066,9.906c0-.074-.074-.149-.074-.223L10.427,3.054H1.49A1.494,1.494,0,0,1,0,1.565,1.512,1.512,0,0,1,1.49,0H11.62a1.515,1.515,0,0,1,1.49,1.267l1.639,6.778h47a1.559,1.559,0,0,1,1.563,1.49c0,.223-.074.372-.074.521Zm-21,30.091.3-4.916H32.772l.3,4.916Zm.521-8.044.521-8.937H32.026l.523,8.937ZM43.5,20.11l.521-9.013H31.282L31.8,20.11ZM47.146,11.1l-.595,9.013H57.575L59.808,11.1Zm-.819,12.067L45.806,32.1H54.52l2.235-8.937ZM45.583,35.23l-.3,4.916h7.225l1.267-4.916ZM30.015,40.146l-.3-4.916H21.526l1.265,4.916ZM29.494,32.1l-.521-8.937H18.546L20.78,32.1ZM28.75,20.11l-.6-9.013H15.492l.893,3.426,1.342,5.586Z" transform="translate(-46.25 -41.843)" fill="#cb0f22" stroke="#909090" stroke-width="0.5"/>
  </g>
</svg>
