<?xml version="1.0" encoding="UTF-8"?>
<svg xmlns="http://www.w3.org/2000/svg" xmlns:xlink="http://www.w3.org/1999/xlink" width="100px" height="100px" viewBox="0 0 100 100" version="1.1">
<g id="surface1">
<path style=" stroke:none;fill-rule:nonzero;fill:rgb(52.941176%,87.058824%,52.941176%);fill-opacity:1;" d="M 0 28.570312 L 100 28.570312 L 100 100 L 0 100 Z M 0 28.570312 "/>
<path style=" stroke:none;fill-rule:nonzero;fill:rgb(0%,33.333333%,13.333333%);fill-opacity:1;" d="M 0 0 L 100 0 L 100 28.570312 L 0 28.570312 Z M 0 0 "/>
<path style=" stroke:none;fill-rule:nonzero;fill:rgb(100%,100%,100%);fill-opacity:1;" d="M 4.53125 12.210938 C 4.363281 12.238281 4.199219 12.253906 4.039062 12.253906 C 3.875 12.253906 3.71875 12.238281 3.570312 12.210938 L 3.570312 9.59375 C 4.9375 9.632812 6.453125 9.648438 8.125 9.648438 C 9.792969 9.648438 10.890625 9.632812 11.410156 9.59375 L 11.410156 12.210938 C 11.25 12.238281 11.09375 12.253906 10.9375 12.253906 C 10.777344 12.253906 10.617188 12.238281 10.449219 12.210938 C 10.375 11.5625 10.207031 11.027344 9.945312 10.609375 C 9.484375 10.546875 9.003906 10.507812 8.511719 10.5 L 8.511719 17.945312 C 8.707031 18.132812 9.054688 18.273438 9.558594 18.363281 L 9.460938 18.933594 L 5.410156 18.933594 L 5.464844 18.363281 C 5.863281 18.308594 6.199219 18.167969 6.46875 17.945312 L 6.46875 10.511719 C 6.261719 10.523438 5.792969 10.550781 5.0625 10.597656 C 4.726562 11.0625 4.550781 11.597656 4.53125 12.210938 Z M 4.53125 12.210938 "/>
<path style=" stroke:none;fill-rule:nonzero;fill:rgb(100%,100%,100%);fill-opacity:1;" d="M 16.769531 10.304688 C 16.117188 10.304688 15.644531 10.613281 15.351562 11.230469 C 15.058594 11.847656 14.914062 12.863281 14.914062 14.277344 C 14.914062 15.695312 15.058594 16.710938 15.351562 17.335938 C 15.644531 17.957031 16.117188 18.265625 16.769531 18.265625 C 17.425781 18.265625 17.894531 17.957031 18.183594 17.335938 C 18.472656 16.710938 18.617188 15.695312 18.617188 14.277344 C 18.617188 12.863281 18.472656 11.847656 18.183594 11.230469 C 17.894531 10.613281 17.425781 10.304688 16.769531 10.304688 Z M 16.777344 19.074219 C 15.402344 19.074219 14.367188 18.667969 13.667969 17.847656 C 12.964844 17.03125 12.617188 15.84375 12.617188 14.277344 C 12.617188 12.714844 12.964844 11.527344 13.667969 10.714844 C 14.367188 9.902344 15.40625 9.496094 16.777344 9.496094 C 18.152344 9.496094 19.1875 9.902344 19.882812 10.714844 C 20.578125 11.527344 20.925781 12.714844 20.925781 14.277344 C 20.925781 15.84375 20.578125 17.03125 19.882812 17.847656 C 19.1875 18.667969 18.152344 19.074219 16.777344 19.074219 Z M 16.777344 19.074219 "/>
<path style=" stroke:none;fill-rule:nonzero;fill:rgb(100%,100%,100%);fill-opacity:1;" d="M 24.746094 16.039062 C 24.746094 17.414062 25.394531 18.101562 26.695312 18.101562 C 27.890625 18.101562 28.488281 17.34375 28.488281 15.832031 L 28.488281 10.609375 C 28.3125 10.472656 27.960938 10.339844 27.429688 10.222656 L 27.5 9.648438 L 30.8125 9.648438 L 30.730469 10.191406 C 30.332031 10.3125 30.023438 10.460938 29.8125 10.636719 L 29.8125 15.523438 C 29.8125 16.386719 29.699219 17.0625 29.476562 17.550781 C 29.253906 18.039062 28.867188 18.40625 28.316406 18.65625 C 27.761719 18.90625 27.125 19.03125 26.402344 19.03125 C 23.933594 19.03125 22.699219 18.035156 22.699219 16.039062 L 22.699219 10.636719 C 22.503906 10.445312 22.152344 10.304688 21.640625 10.222656 L 21.710938 9.648438 L 25.789062 9.648438 L 25.707031 10.222656 C 25.296875 10.304688 24.976562 10.445312 24.746094 10.636719 Z M 24.746094 16.039062 "/>
<path style=" stroke:none;fill-rule:nonzero;fill:rgb(100%,100%,100%);fill-opacity:1;" d="M 35.53125 9.648438 C 37.90625 9.648438 39.09375 10.46875 39.09375 12.101562 C 39.09375 13.289062 38.492188 14.082031 37.285156 14.480469 C 37.582031 14.683594 37.824219 14.992188 38.007812 15.398438 L 39.050781 17.878906 C 39.144531 18.089844 39.429688 18.253906 39.902344 18.363281 L 39.804688 18.933594 L 37.269531 18.933594 L 35.917969 15.289062 C 35.800781 14.992188 35.546875 14.816406 35.167969 14.757812 C 35.011719 14.757812 34.820312 14.75 34.597656 14.730469 L 34.445312 14.730469 L 34.445312 17.945312 C 34.640625 18.140625 34.988281 18.289062 35.488281 18.390625 L 35.390625 18.933594 L 31.546875 18.933594 L 31.605469 18.363281 C 31.917969 18.300781 32.183594 18.160156 32.398438 17.945312 L 32.398438 10.636719 C 32.222656 10.472656 31.9375 10.324219 31.546875 10.191406 L 31.605469 9.648438 Z M 36.9375 12.128906 C 36.9375 11.609375 36.796875 11.207031 36.519531 10.925781 C 36.238281 10.640625 35.882812 10.5 35.445312 10.5 C 35.011719 10.5 34.675781 10.519531 34.445312 10.554688 L 34.445312 13.882812 L 35.347656 13.882812 C 36.40625 13.882812 36.9375 13.296875 36.9375 12.128906 Z M 36.9375 12.128906 "/>
<path style=" stroke:none;fill-rule:nonzero;fill:rgb(100%,100%,100%);fill-opacity:1;" d="M 48.519531 18.933594 L 46.402344 18.933594 L 42.726562 12.53125 L 42.726562 17.945312 C 42.941406 18.140625 43.289062 18.289062 43.773438 18.390625 L 43.675781 18.933594 L 40.667969 18.933594 L 40.722656 18.363281 C 41.03125 18.308594 41.292969 18.167969 41.519531 17.945312 L 41.519531 10.636719 C 41.324219 10.472656 41.039062 10.324219 40.667969 10.191406 L 40.722656 9.648438 L 43.464844 9.648438 L 47.308594 16.386719 L 47.308594 10.636719 C 47.066406 10.433594 46.746094 10.296875 46.347656 10.222656 L 46.417969 9.648438 L 49.453125 9.648438 L 49.367188 10.191406 C 49.007812 10.304688 48.722656 10.453125 48.519531 10.636719 Z M 48.519531 18.933594 "/>
<path style=" stroke:none;fill-rule:nonzero;fill:rgb(100%,100%,100%);fill-opacity:1;" d="M 55.808594 18.03125 L 55.15625 16.039062 L 52.289062 16.039062 L 51.621094 17.960938 C 51.878906 18.175781 52.273438 18.3125 52.804688 18.378906 L 52.734375 18.933594 L 49.585938 18.933594 L 49.671875 18.378906 C 50.097656 18.359375 50.378906 18.242188 50.519531 18.03125 L 53.484375 9.648438 L 54.933594 9.648438 L 57.925781 17.90625 C 58.074219 18.144531 58.355469 18.304688 58.773438 18.378906 L 58.707031 18.933594 L 54.890625 18.933594 L 54.972656 18.378906 C 55.402344 18.3125 55.679688 18.199219 55.808594 18.03125 Z M 53.777344 11.820312 L 52.59375 15.164062 L 54.863281 15.164062 Z M 53.777344 11.820312 "/>
<path style=" stroke:none;fill-rule:nonzero;fill:rgb(100%,100%,100%);fill-opacity:1;" d="M 70.238281 18.390625 L 70.140625 18.933594 L 66.367188 18.933594 L 66.421875 18.363281 C 66.738281 18.300781 66.996094 18.160156 67.203125 17.945312 L 67.203125 11.863281 L 64.933594 18.933594 L 63.859375 18.933594 L 61.367188 12.238281 L 61.367188 17.945312 C 61.582031 18.140625 61.929688 18.289062 62.414062 18.390625 L 62.316406 18.933594 L 59.308594 18.933594 L 59.363281 18.363281 C 59.671875 18.308594 59.933594 18.167969 60.15625 17.945312 L 60.15625 10.636719 C 59.964844 10.472656 59.679688 10.324219 59.308594 10.191406 L 59.363281 9.648438 L 62.511719 9.648438 L 64.78125 15.914062 L 66.730469 9.648438 L 70.125 9.648438 L 70.042969 10.191406 C 69.679688 10.304688 69.394531 10.453125 69.191406 10.636719 L 69.191406 17.945312 C 69.40625 18.140625 69.753906 18.289062 70.238281 18.390625 Z M 70.238281 18.390625 "/>
<path style=" stroke:none;fill-rule:nonzero;fill:rgb(100%,100%,100%);fill-opacity:1;" d="M 77.945312 11.945312 C 77.730469 12.011719 77.558594 12.042969 77.421875 12.042969 C 77.289062 12.042969 77.117188 12.027344 76.914062 11.988281 C 76.773438 11.347656 76.574219 10.851562 76.316406 10.5 L 73.976562 10.5 L 73.976562 13.796875 L 75.269531 13.699219 C 75.4375 13.683594 75.59375 13.589844 75.738281 13.421875 C 75.882812 13.253906 75.984375 13.039062 76.050781 12.769531 L 76.773438 12.769531 L 76.773438 15.648438 L 76.050781 15.648438 C 75.921875 15.277344 75.796875 15.019531 75.675781 14.871094 C 75.554688 14.722656 75.414062 14.636719 75.257812 14.621094 L 73.976562 14.507812 L 73.976562 18.070312 L 76.414062 18.070312 C 76.710938 17.625 76.929688 17.039062 77.066406 16.304688 C 77.261719 16.277344 77.445312 16.261719 77.617188 16.261719 C 77.789062 16.261719 77.949219 16.277344 78.097656 16.304688 L 77.957031 18.933594 L 71.082031 18.933594 L 71.136719 18.363281 C 71.5 18.308594 71.761719 18.191406 71.929688 18.015625 L 71.929688 10.570312 C 71.707031 10.375 71.425781 10.238281 71.082031 10.164062 L 71.121094 9.648438 L 77.890625 9.648438 Z M 77.945312 11.945312 "/>
<path style=" stroke:none;fill-rule:nonzero;fill:rgb(100%,100%,100%);fill-opacity:1;" d="M 86.882812 18.933594 L 84.765625 18.933594 L 81.09375 12.53125 L 81.09375 17.945312 C 81.304688 18.140625 81.652344 18.289062 82.136719 18.390625 L 82.039062 18.933594 L 79.03125 18.933594 L 79.085938 18.363281 C 79.394531 18.308594 79.660156 18.167969 79.882812 17.945312 L 79.882812 10.636719 C 79.6875 10.472656 79.402344 10.324219 79.03125 10.191406 L 79.085938 9.648438 L 81.828125 9.648438 L 85.671875 16.386719 L 85.671875 10.636719 C 85.429688 10.433594 85.109375 10.296875 84.710938 10.222656 L 84.78125 9.648438 L 87.816406 9.648438 L 87.730469 10.191406 C 87.371094 10.304688 87.085938 10.453125 86.882812 10.636719 Z M 86.882812 18.933594 "/>
<path style=" stroke:none;fill-rule:nonzero;fill:rgb(100%,100%,100%);fill-opacity:1;" d="M 89.550781 12.210938 C 89.382812 12.238281 89.21875 12.253906 89.058594 12.253906 C 88.894531 12.253906 88.738281 12.238281 88.589844 12.210938 L 88.589844 9.59375 C 89.957031 9.632812 91.472656 9.648438 93.144531 9.648438 C 94.8125 9.648438 95.910156 9.632812 96.429688 9.59375 L 96.429688 12.210938 C 96.269531 12.238281 96.113281 12.253906 95.957031 12.253906 C 95.796875 12.253906 95.636719 12.238281 95.46875 12.210938 C 95.394531 11.5625 95.226562 11.027344 94.964844 10.609375 C 94.503906 10.546875 94.023438 10.507812 93.53125 10.5 L 93.53125 17.945312 C 93.726562 18.132812 94.074219 18.273438 94.578125 18.363281 L 94.480469 18.933594 L 90.429688 18.933594 L 90.484375 18.363281 C 90.882812 18.308594 91.21875 18.167969 91.488281 17.945312 L 91.488281 10.511719 C 91.28125 10.523438 90.8125 10.550781 90.082031 10.597656 C 89.746094 11.0625 89.570312 11.597656 89.550781 12.210938 Z M 89.550781 12.210938 "/>
<path style=" stroke:none;fill-rule:nonzero;fill:rgb(100%,100%,100%);fill-opacity:1;" d="M 70.378906 86.246094 C 70.378906 88.816406 68.292969 90.898438 65.726562 90.898438 C 63.15625 90.898438 61.074219 88.816406 61.074219 86.246094 C 61.074219 83.675781 63.15625 81.59375 65.726562 81.59375 C 68.292969 81.59375 70.378906 83.675781 70.378906 86.246094 Z M 70.378906 86.246094 "/>
<path style=" stroke:none;fill-rule:nonzero;fill:rgb(100%,100%,100%);fill-opacity:1;" d="M 25.324219 45.492188 C 26.085938 46.246094 26.984375 46.5625 28.042969 46.347656 C 29.757812 46.160156 31.503906 46.457031 32.90625 47.511719 C 34.789062 48.335938 33.867188 50.203125 33.746094 51.769531 C 33.484375 54.210938 34.289062 57.007812 32.628906 59.097656 C 32.21875 60.992188 35.101562 60.65625 34.457031 62.714844 C 34.457031 64.484375 34.925781 66.15625 35.589844 67.785156 C 36.710938 70.460938 37.652344 73.257812 39.390625 75.613281 C 40.203125 77.085938 40.574219 78.796875 41.683594 80.109375 C 43.5 79.050781 45.339844 78.03125 47.382812 77.472656 C 48.21875 78.539062 49.3125 79.492188 49.996094 80.621094 C 50.339844 82.367188 49.996094 84.351562 51.222656 85.789062 C 52.339844 87.957031 54.390625 89.535156 55.078125 91.9375 C 55.761719 93.210938 55.109375 94.828125 55.5625 96.003906 C 55.878906 96.828125 57.523438 96.164062 58.460938 96.347656 C 60.078125 96.132812 63.121094 95.222656 63.574219 94.453125 C 64.011719 93.714844 61.570312 93.734375 60.117188 93.113281 C 56.847656 92.742188 58.144531 88.03125 55.765625 86.234375 C 54.71875 84.199219 53.757812 82.046875 53.777344 79.714844 C 53.457031 78.320312 52.300781 77.199219 51.640625 75.914062 C 50.832031 74.394531 49.710938 73.109375 48.507812 71.890625 C 50.628906 71.503906 53.253906 70.898438 54.828125 72.847656 C 57.167969 74.421875 58.945312 76.558594 60.695312 78.738281 C 62.503906 80.875 64.886719 82.605469 65.90625 85.304688 C 66.257812 86.226562 67.636719 86.109375 68.34375 85.878906 C 68.90625 84.511719 69.808594 86.101562 70.804688 85.828125 C 71.835938 85.71875 73.171875 86.480469 73.886719 85.453125 C 76.121094 84.488281 74.8125 82.160156 72.550781 82.519531 C 70.699219 82.429688 68.449219 83.207031 67.425781 81.117188 C 65.300781 77.898438 63.015625 74.738281 60.34375 71.957031 C 59.171875 70.789062 57.671875 69.867188 57.167969 68.203125 C 56.730469 66.894531 56.527344 65.441406 54.820312 65.261719 C 52.046875 64.1875 50.140625 61.710938 47.878906 59.851562 C 47.128906 59.175781 46.21875 58.597656 46.214844 57.476562 C 45.8125 56.375 45.734375 55.269531 46.148438 54.160156 C 45.9375 52.78125 47.46875 52.996094 47.992188 53.875 C 49.941406 55.804688 51.75 57.914062 53.789062 59.734375 C 56.066406 61.160156 58.46875 62.402344 60.4375 64.261719 C 62.300781 64.648438 60.925781 66.847656 62.3125 67.203125 C 64.484375 67.347656 65.09375 64.382812 63.742188 62.898438 C 62.46875 62.050781 60.882812 61.632812 59.722656 60.675781 C 57.136719 57.835938 54.472656 55.0625 51.957031 52.160156 C 51.304688 49.222656 51.078125 45.980469 48.3125 44.175781 C 47.238281 43.402344 47.582031 42.5625 48.351562 41.707031 C 49.238281 39.859375 49.222656 37.679688 49.179688 35.660156 C 48.949219 32.882812 45.585938 30.902344 43.359375 33.054688 C 42.683594 33.851562 41.730469 34.53125 41.9375 35.707031 C 41.738281 37.003906 41.851562 38.300781 41.992188 39.601562 C 39.789062 41.300781 36.890625 41.207031 34.289062 41.832031 C 32.261719 42.277344 30.214844 42.316406 28.152344 42.15625 C 27.007812 42.433594 25.566406 42.636719 24.976562 43.71875 C 25.066406 44.328125 24.714844 45.085938 25.324219 45.492188 Z M 25.324219 45.492188 "/>
</g>
</svg>
