<svg xmlns="http://www.w3.org/2000/svg" width="106.567" height="93.292" viewBox="0 0 106.567 93.292">
  <g id="アートワーク_11" data-name="アートワーク 11" transform="translate(53.283 46.646)">
    <g id="Group_14754" data-name="Group 14754" transform="translate(-53.283 -46.646)">
      <path id="Path_37692" data-name="Path 37692" d="M42.007,29.558a20.816,20.816,0,0,0-8.131,7.371,25.575,25.575,0,0,0-4.553,15.928,24.958,24.958,0,0,0,4.168,12.32,27.049,27.049,0,0,0,10.939,9.686,24.338,24.338,0,0,0,7.8,2.217,26.757,26.757,0,0,0,9.4-.538,22.316,22.316,0,0,0,8.756-4.2A25.6,25.6,0,0,0,79.6,59.085,25.371,25.371,0,0,0,65.67,28.124a22.752,22.752,0,0,0-9.41-2.372A34.332,34.332,0,0,0,42.007,29.558Z" transform="translate(-5.212 -4.583)" fill="gold"/>
      <g id="Group_14752" data-name="Group 14752">
        <path id="Path_37693" data-name="Path 37693" d="M62.632,24.22A27.825,27.825,0,0,1,80.166,39.977,28.688,28.688,0,0,1,82.246,55.2a25.264,25.264,0,0,1-5.888,13.556,29.581,29.581,0,0,1-8.146,6.77,28.541,28.541,0,0,1-7.755,3.012,27.78,27.78,0,0,1-10.049.413,27.408,27.408,0,0,1-17.367-9.609,30.481,30.481,0,0,1-5.619-9.732,27.561,27.561,0,0,1-1.339-11.043,25.506,25.506,0,0,1,2.065-7.849,27.876,27.876,0,0,1,5.886-8.985,27.192,27.192,0,0,1,9.4-6.311,37.745,37.745,0,0,1,10.63-2.247A24.382,24.382,0,0,1,62.632,24.22ZM41.421,29.095a20.816,20.816,0,0,0-8.131,7.371,25.575,25.575,0,0,0-4.553,15.928A24.958,24.958,0,0,0,32.9,64.714,27.049,27.049,0,0,0,43.844,74.4a24.338,24.338,0,0,0,7.8,2.217,26.757,26.757,0,0,0,9.4-.538,22.316,22.316,0,0,0,8.756-4.2,25.6,25.6,0,0,0,9.216-13.261A25.371,25.371,0,0,0,65.085,27.66a22.752,22.752,0,0,0-9.41-2.372A34.332,34.332,0,0,0,41.421,29.095Z" transform="translate(-4.626 -4.119)" fill="#ff6a00"/>
        <path id="Path_37694" data-name="Path 37694" d="M57.822,105.632c-.14-1.979-.258-3.96-.43-5.937a4.779,4.779,0,0,0-.838-2.577c-1.876-2.349-2.449,2.652-2.591,3.553q-.544,3.428-1.022,6.866c-.17,1.214.117,2.474,1.514,2.87a3.037,3.037,0,0,0,1.337-.041,3,3,0,0,0,2.089-2.667c-.025-.688-.059-1.376-.09-2.063Z" transform="translate(-9.415 -17.174)" fill="#ff6a00"/>
        <path id="Path_37695" data-name="Path 37695" d="M9.209,86.528c1.74-.218,3.242-1.56,4.57-2.618,1.557-1.239,3.086-2.514,4.623-3.778.783-.645.54-2.591-.662-2.575-1.587.021-3.787,1.687-5.127,2.45a29.029,29.029,0,0,0-5.064,3.029c-1.516,1.334-1.92,3.017.487,3.46A3.837,3.837,0,0,0,9.209,86.528Z" transform="translate(-1.125 -13.804)" fill="#ff6a00"/>
        <path id="Path_37696" data-name="Path 37696" d="M122.986,57.068c-.718.011-1.443.1-2.155.176-1.214.129-2.431.236-3.648.339-.843.071-2.6.016-2.316,1.332.161.745,1.1,1.133,1.726,1.379a22,22,0,0,0,4.464,1.049c1.268.215,2.816.791,4.086.367.893-.3,2-1.273,1.849-2.308a2.5,2.5,0,0,0-1.687-1.965A5.96,5.96,0,0,0,122.986,57.068Z" transform="translate(-20.439 -10.157)" fill="#ff6a00"/>
        <path id="Path_37697" data-name="Path 37697" d="M96.162,20.878c-.09-1.639-1.389-2.437-2.743-1.614a6.927,6.927,0,0,0-1.363,1.209,18.074,18.074,0,0,0-2.808,4.209c-.763,1.482-1.57,2.828-1.528,4.534.016.622.39.855.972.666a2.936,2.936,0,0,0,1.264-.76c1.25-1.4,2.447-2.857,3.642-4.309.711-.865,1.412-1.743,2.055-2.658A5.765,5.765,0,0,0,96.162,20.878Z" transform="translate(-15.612 -3.37)" fill="#ff6a00"/>
        <path id="Path_37698" data-name="Path 37698" d="M109.127,37.372a1.772,1.772,0,0,0-1.84-1.63,16.109,16.109,0,0,0-3.408.59c-2.422.714-5.612,1.356-7.245,3.419-1.137,1.438.905,1.538,1.888,1.4,2.134-.3,4.292-.756,6.393-1.238a20.9,20.9,0,0,0,3.449-1.313A1.313,1.313,0,0,0,109.127,37.372Z" transform="translate(-17.139 -6.361)" fill="#ff6a00"/>
        <path id="Path_37699" data-name="Path 37699" d="M111.761,73.276c1.187-.027,2.04-.493,2.1-1.773a1.625,1.625,0,0,0-.945-1.471,10.881,10.881,0,0,0-2.705-1.066,45.875,45.875,0,0,0-4.926-.778c-.806-.087-3.742-.085-3.468,1.3.149.752,1.769,1.358,2.344,1.626C106.381,72.148,109.263,73.332,111.761,73.276Z" transform="translate(-18.118 -12.131)" fill="#ff6a00"/>
        <path id="Path_37700" data-name="Path 37700" d="M103.453,104.033A1.684,1.684,0,0,0,105,102.879a1.586,1.586,0,0,0-.4-1.886c-1.227-1.23-2.439-2.479-3.723-3.65a22.947,22.947,0,0,0-3.047-2.623,3.993,3.993,0,0,0-2.532-.7c-1.483.5.9,2.768,1.408,3.35,1.734,2,3.5,3.961,5.237,5.953A1.745,1.745,0,0,0,103.453,104.033Z" transform="translate(-16.875 -16.724)" fill="#ff6a00"/>
        <path id="Path_37701" data-name="Path 37701" d="M107.8,21.5a1.15,1.15,0,0,0-.041.249,1.4,1.4,0,0,0,1.644,1.387,8.554,8.554,0,0,0,2.31-.905c1.7-1.028,3.352-2.144,5-3.256,2.7-1.825-.211-5.126-2.734-3.094-1.479,1.19-3.055,2.264-4.442,3.566C109.007,19.946,108.017,20.728,107.8,21.5Z" transform="translate(-19.179 -2.712)" fill="#ff6a00"/>
        <path id="Path_37702" data-name="Path 37702" d="M73.015,17.9c.733.12,1.632-1.036,1.887-1.776A39.807,39.807,0,0,1,77.933,9.42a2.229,2.229,0,0,0,.088-2.455,1.527,1.527,0,0,0-2.122-.64,4.027,4.027,0,0,0-2,2.335,36.785,36.785,0,0,0-1.272,5.277c-.212,1.013-.738,2.313-.26,3.356A.922.922,0,0,0,73.015,17.9Z" transform="translate(-12.845 -1.091)" fill="#ff6a00"/>
        <path id="Path_37703" data-name="Path 37703" d="M81.886,100.548c-.7-2.543-4.637-6.233-5.418-7.147a1,1,0,0,0-1.328-.313,1.165,1.165,0,0,0-.429,1.421,45.373,45.373,0,0,0,3.841,7.5,1.692,1.692,0,0,0,1.975.863A1.673,1.673,0,0,0,81.886,100.548Z" transform="translate(-13.281 -16.543)" fill="#ff6a00"/>
        <path id="Path_37704" data-name="Path 37704" d="M29.171,96.179A2.873,2.873,0,0,0,32,94.57c.583-1.193,1.216-2.359,1.846-3.526.386-.714,1.136-1.589,1.124-2.441-.035-2.516-3.143.124-3.739.648-1.55,1.365-3.154,2.838-3.638,4.932A1.738,1.738,0,0,0,29.171,96.179Z" transform="translate(-4.904 -15.579)" fill="#ff6a00"/>
        <path id="Path_37705" data-name="Path 37705" d="M12.709,31.906a2.576,2.576,0,0,0,1.183,1.888,38.711,38.711,0,0,0,6.556,3.592,1.237,1.237,0,0,0,1.238-.039.885.885,0,0,0,.363-1.291,8.752,8.752,0,0,0-2.316-2.228c-1.053-.9-2.086-1.824-3.145-2.719a6.271,6.271,0,0,0-1.4-.819C13.778,29.627,12.738,30.271,12.709,31.906Z" transform="translate(-2.262 -5.345)" fill="#ff6a00"/>
        <path id="Path_37706" data-name="Path 37706" d="M8,47.85a3.4,3.4,0,0,0,2.734-.727c.8-.862-.132-1.378-.988-1.637C7.988,44.954,6.3,44.193,4.55,43.643c-1.028-.324-4.587-1.75-4.55.446.044,2.553,3.713,3.233,5.709,3.479C6.329,47.644,7.164,47.8,8,47.85Z" transform="translate(0 -7.633)" fill="#ff6a00"/>
        <path id="Path_37707" data-name="Path 37707" d="M31.845,11.044a1.46,1.46,0,0,0-1.318.768c-.757,1.578.108,2.418,1.309,3.517q1.961,1.8,3.985,3.52a5.4,5.4,0,0,0,1.466.906c.711.283,1.148-.159.93-.888A3.266,3.266,0,0,0,37.778,18c-1.332-1.979-2.679-3.95-4.016-5.927A2.147,2.147,0,0,0,31.845,11.044Z" transform="translate(-5.382 -1.965)" fill="#ff6a00"/>
        <path id="Path_37708" data-name="Path 37708" d="M87.637,7.559c-.1,1.325,1.163,1.966,2.058.8.941-1.229,1.824-2.5,2.69-3.789a7.283,7.283,0,0,0,.843-1.633,3.422,3.422,0,0,0,.229-1.563A1.528,1.528,0,0,0,91.184.168a2.2,2.2,0,0,0-1.4,1.256C89.5,2.214,87.782,5.595,87.637,7.559Z" transform="translate(-15.597 0)" fill="#ff6a00"/>
        <path id="Path_37709" data-name="Path 37709" d="M17.655,61.286a20.219,20.219,0,0,0-3.873.587c-1.185.256-4.534.635-4.882,2.12-.344,1.468,2.27,1.956,3.208,1.656,1.253-.4,2.494-.8,3.754-1.183,1.206-.366,4.479-.644,3.505-2.594C19.147,61.431,18.471,61.284,17.655,61.286Z" transform="translate(-1.578 -10.908)" fill="#ff6a00"/>
        <path id="Path_37710" data-name="Path 37710" d="M58.486,12.1a1.285,1.285,0,0,0,1.733-1.352c-.031-1.737-.043-3.475-.05-5.212,0-.8.035-1.594.029-2.39-.008-1.129-.4-1.616-1.285-1.64a1.8,1.8,0,0,0-1.807,1.666,11.594,11.594,0,0,0,.04,1.521c.126,1.394.237,2.789.382,4.181C57.621,9.769,57.487,11.636,58.486,12.1Z" transform="translate(-10.162 -0.268)" fill="#ff6a00"/>
        <path id="Path_37711" data-name="Path 37711" d="M90.564,80.351c.076.509.693.9,1.125,1.191l3.95,2.7c1.053.718,2.495,1.007,3.189-.383.626-1.254.432-1.91-.824-2.53A24.608,24.608,0,0,0,92.31,79.3a1.686,1.686,0,0,0-1.629.524A.79.79,0,0,0,90.564,80.351Z" transform="translate(-16.117 -14.109)" fill="#ff6a00"/>
        <path id="Path_37712" data-name="Path 37712" d="M103.69,53.69a1.575,1.575,0,0,0,1.667-1.5c.067-.826-.458-1.408-1.4-1.631a6.857,6.857,0,0,0-3.205.242,5.788,5.788,0,0,0-1.711.5c-.626.386-1.043,1.171-.064,1.434C99.88,52.972,102.118,53.824,103.69,53.69Z" transform="translate(-17.513 -8.979)" fill="#ff6a00"/>
      </g>
      <g id="Group_14753" data-name="Group 14753" transform="translate(29.695 28.503)">
        <path id="Path_37713" data-name="Path 37713" d="M61.971,47.906c-.175-1.189-.36-2.512-.569-3.832a38.925,38.925,0,0,0-2.175-7.7,1.48,1.48,0,0,0-2.58-.561,1.538,1.538,0,0,0-.132,1.719A31.156,31.156,0,0,1,59,48.9a10.373,10.373,0,0,1-1.8,6.451,8.544,8.544,0,0,1-3.568,2.918,8.371,8.371,0,0,1-5.337.119c-4.6-1.168-6.544-5.313-8.207-9.334a16.83,16.83,0,0,1-.665-1.829,1.243,1.243,0,0,0-1.8-.954,3.606,3.606,0,0,0-1.006.625,1.145,1.145,0,0,0-.3,1.568c1.91,3.153,3.165,6.69,5.6,9.532A7.662,7.662,0,0,0,44.8,60.24a15.136,15.136,0,0,0,5.007,1.317,12.519,12.519,0,0,0,10.606-5.426C61.754,54.217,62.318,50.248,61.971,47.906Z" transform="translate(-36.124 -34.778)"/>
        <path id="Path_37714" data-name="Path 37714" d="M49.631,34.674a2.05,2.05,0,0,0-1.974,1.806,1.8,1.8,0,0,0,1.882,1.712c.875,0,1.861-.8,1.84-1.5A1.979,1.979,0,0,0,49.631,34.674Z" transform="translate(-38.176 -34.674)"/>
        <path id="Path_37715" data-name="Path 37715" d="M40.4,39.17c-.261,2.113,3.357,2.38,3.535.3A1.775,1.775,0,0,0,40.4,39.17Z" transform="translate(-36.882 -35.198)"/>
      </g>
    </g>
  </g>
</svg>
