<svg xmlns="http://www.w3.org/2000/svg" width="49.003" height="57.776" viewBox="0 0 49.003 57.776">
  <path id="Icon_awesome-clipboard-list" data-name="Icon awesome-clipboard-list" d="M42.44,7.16h-10.1C32.336,3.211,28.71,0,24.252,0s-8.084,3.211-8.084,7.16H6.063C2.716,7.16,0,9.565,0,12.529V51.907c0,2.964,2.716,5.37,6.063,5.37H42.44c3.347,0,6.063-2.405,6.063-5.37V12.529C48.5,9.565,45.788,7.16,42.44,7.16ZM12.126,47.432a2.7,2.7,0,1,1,0-5.37,2.7,2.7,0,1,1,0,5.37Zm0-10.739a2.867,2.867,0,0,1-3.031-2.685,2.867,2.867,0,0,1,3.031-2.685,2.867,2.867,0,0,1,3.031,2.685A2.867,2.867,0,0,1,12.126,36.693Zm0-10.739a2.867,2.867,0,0,1-3.031-2.685,2.867,2.867,0,0,1,3.031-2.685,2.867,2.867,0,0,1,3.031,2.685A2.867,2.867,0,0,1,12.126,25.953ZM24.252,4.475A2.867,2.867,0,0,1,27.283,7.16a2.867,2.867,0,0,1-3.031,2.685A2.867,2.867,0,0,1,21.22,7.16,2.867,2.867,0,0,1,24.252,4.475ZM40.42,45.642a.961.961,0,0,1-1.01.895H21.22a.961.961,0,0,1-1.01-.895v-1.79a.961.961,0,0,1,1.01-.895H39.409a.961.961,0,0,1,1.01.895Zm0-10.739a.961.961,0,0,1-1.01.895H21.22a.961.961,0,0,1-1.01-.895v-1.79a.961.961,0,0,1,1.01-.895H39.409a.961.961,0,0,1,1.01.895Zm0-10.739a.961.961,0,0,1-1.01.895H21.22a.961.961,0,0,1-1.01-.895v-1.79a.961.961,0,0,1,1.01-.895H39.409a.961.961,0,0,1,1.01.895Z" transform="translate(0.25 0.25)" fill="#ff6a29" stroke="#909090" stroke-width="0.5"/>
</svg>
