<svg xmlns="http://www.w3.org/2000/svg" width="33.309" height="33.454" viewBox="0 0 33.309 33.454">
  <path id="Icon_awesome-user-circle" data-name="Icon awesome-user-circle" d="M16.655.562A16.727,16.727,0,1,0,33.309,17.29,16.688,16.688,0,0,0,16.655.562Zm0,6.475a5.935,5.935,0,1,1-5.91,5.935A5.923,5.923,0,0,1,16.655,7.037Zm0,23.2a12.847,12.847,0,0,1-9.838-4.6,7.484,7.484,0,0,1,6.615-4.033,1.637,1.637,0,0,1,.477.074,8.857,8.857,0,0,0,2.747.465A8.823,8.823,0,0,0,19.4,21.68a1.637,1.637,0,0,1,.477-.074,7.484,7.484,0,0,1,6.615,4.033A12.847,12.847,0,0,1,16.655,30.24Z" transform="translate(0 -0.563)" fill="#fff"/>
</svg>
