<svg id="Group_15196" data-name="Group 15196" xmlns="http://www.w3.org/2000/svg" width="31.746" height="31.746" viewBox="0 0 31.746 31.746">
  <path id="Multimedia" d="M0,2.546V29.2a2.547,2.547,0,0,0,2.546,2.545H29.2A2.548,2.548,0,0,0,31.746,29.2V2.546A2.549,2.549,0,0,0,29.2,0H2.546A2.548,2.548,0,0,0,0,2.546Zm26.034.641h2.525V5.712H26.034Zm0,7.616h2.525v2.525H26.034Zm0,7.616h2.525v2.524H26.034Zm0,7.616h2.525v2.524H26.034ZM8.9,3.187H22.847V17.135H8.9Zm0,17.136H22.847v8.236H8.9ZM3.188,3.187H5.712V5.712H3.188Zm0,7.616H5.712v2.525H3.188Zm0,7.616H5.712v2.524H3.188Zm0,7.616H5.712v2.524H3.188Z" fill="#646464"/>
</svg>
