<svg xmlns="http://www.w3.org/2000/svg" width="56.454" height="56.454" viewBox="0 0 56.454 56.454">
  <g id="アートワーク_34" data-name="アートワーク 34" transform="translate(28.227 28.227)">
    <path id="Path_38286" data-name="Path 38286" d="M1.666,0H54.287a1.676,1.676,0,0,1,1.668,1.668v52.7a1.611,1.611,0,0,1-1.668,1.587H1.666A1.61,1.61,0,0,1,0,54.367V1.668A1.676,1.676,0,0,1,1.666,0ZM47.223,3.333l-4.842,6.826H52.7V3.333Zm-8.809,6.826,4.842-6.826H37.382L32.62,10.159Zm-9.763,0,4.762-6.826H27.619l-4.84,6.826Zm-9.841,0,4.842-6.826H17.778l-4.762,6.826Zm-9.841,0L13.81,3.333H3.255v6.826ZM52.7,13.493H3.255V52.7H52.7ZM22.143,23.1V41.43L36.35,32.224ZM18.81,44.447V20.081h.08a1.8,1.8,0,0,1,.238-.873,1.646,1.646,0,0,1,2.223-.477L40.239,30.8a1.46,1.46,0,0,1,.555.477,1.726,1.726,0,0,1-.475,2.3L21.509,45.716a1.6,1.6,0,0,1-1.032.318,1.663,1.663,0,0,1-1.668-1.587Z" transform="translate(-27.977 -27.977)" fill="#960a9d" stroke="#909090" stroke-width="0.5"/>
  </g>
</svg>
