<svg xmlns="http://www.w3.org/2000/svg" width="33.454" height="33.454" viewBox="0 0 33.454 33.454">
  <g id="アートワーク_34" data-name="アートワーク 34" transform="translate(16.727 16.727)">
    <path id="Path_38404" data-name="Path 38404" d="M1,0H32.457a1,1,0,0,1,1,1V32.505a.963.963,0,0,1-1,.949H1a.963.963,0,0,1-1-.949V1A1,1,0,0,1,1,0ZM28.234,1.993l-2.9,4.081h6.169V1.993ZM22.967,6.074l2.9-4.081H22.35L19.5,6.074Zm-5.837,0,2.847-4.081H16.513L13.619,6.074Zm-5.884,0,2.9-4.081H10.629L7.782,6.074Zm-5.884,0,2.9-4.081H1.946V6.074ZM31.508,8.067H1.946V31.509H31.508ZM13.239,13.809V24.77l8.494-5.5ZM11.246,26.574V12.006h.048a1.077,1.077,0,0,1,.142-.522.984.984,0,0,1,1.329-.285l11.293,7.213a.873.873,0,0,1,.332.285,1.032,1.032,0,0,1-.284,1.376L12.86,27.333a.957.957,0,0,1-.617.19.994.994,0,0,1-1-.949Z" transform="translate(-16.727 -16.727)" fill="#fff"/>
  </g>
</svg>
